M48
; DRILL file {KiCad (5.1.5)-3} date 24-02-2020 13:55:19
; FORMAT={-:-/ absolute / inch / decimal}
; #@! TF.CreationDate,2020-02-24T13:55:19+01:00
; #@! TF.GenerationSoftware,Kicad,Pcbnew,(5.1.5)-3
FMAT,2
INCH
T1C0.0118
T2C0.0197
T3C0.0256
T4C0.0394
%
G90
G05
T1
X-1.378Y0.3937
X-1.378Y-0.4921
X-1.3189Y0.0
X-1.1417Y0.6693
X-1.1417Y-0.6693
X-1.0827Y0.9843
X-0.9843Y-0.3937
X-0.8661Y-0.8268
X-0.8622Y-0.315
X-0.7874Y0.0
X-0.7087Y0.748
X-0.6693Y-1.1417
X-0.6496Y1.1417
X-0.5906Y-1.378
X-0.5512Y-0.0787
X-0.5512Y-0.748
X-0.374Y-0.4134
X-0.315Y1.063
X-0.2953Y1.4764
X-0.2756Y-0.5906
X-0.1378Y-1.122
X-0.0984Y-0.7756
X-0.0039Y-0.7205
X0.0Y1.3189
X0.0Y-0.3543
X0.0Y-1.3189
X0.0787Y-0.5512
X0.126Y-0.3583
X0.2953Y1.4764
X0.3071Y-0.0472
X0.315Y1.063
X0.315Y-1.1417
X0.5906Y0.2756
X0.5906Y-0.1969
X0.6378Y-0.689
X0.6693Y1.1417
X0.6693Y-1.1614
X0.7874Y0.7874
X0.8346Y-0.0472
X0.8661Y-0.8661
X1.0827Y0.9843
X1.1417Y0.6496
X1.1417Y-0.189
X1.1417Y-0.6693
X1.1811Y-0.8858
X1.25Y0.3996
X1.2677Y-0.3858
X1.3189Y0.0
X1.378Y0.3937
X1.378Y-0.4921
X1.3937Y-0.2992
T3
X0.9921Y-1.0669
X1.0421Y-1.0669
T4
X-0.5052Y-1.385
X-0.4101Y-1.4159
X-0.315Y-1.4469
X0.315Y-1.4488
X0.4101Y-1.4179
X0.5052Y-1.387
X-0.365Y-1.072
X-0.365Y-1.172
X-0.265Y-1.072
X-0.265Y-1.172
T2
G00X-0.1299Y-1.5098
M15
G01X-0.1299Y-1.4823
M16
G05
G00X0.1299Y-1.5098
M15
G01X0.1299Y-1.4823
M16
G05
T0
M30
