G04 #@! TF.GenerationSoftware,KiCad,Pcbnew,(5.1.5)-3*
G04 #@! TF.CreationDate,2020-02-24T13:55:18+01:00*
G04 #@! TF.ProjectId,Badge,42616467-652e-46b6-9963-61645f706362,rev?*
G04 #@! TF.SameCoordinates,PX3473bc0PY3567e00*
G04 #@! TF.FileFunction,Paste,Top*
G04 #@! TF.FilePolarity,Positive*
%FSLAX46Y46*%
G04 Gerber Fmt 4.6, Leading zero omitted, Abs format (unit mm)*
G04 Created by KiCad (PCBNEW (5.1.5)-3) date 2020-02-24 13:55:18*
%MOMM*%
%LPD*%
G04 APERTURE LIST*
%ADD10R,1.000000X0.700000*%
%ADD11R,0.600000X1.150000*%
%ADD12C,0.100000*%
%ADD13R,0.800000X0.900000*%
%ADD14R,1.000000X1.500000*%
%ADD15R,1.000000X2.500000*%
%ADD16R,1.800000X1.000000*%
%ADD17R,0.900000X0.800000*%
%ADD18R,1.500000X1.000000*%
G04 APERTURE END LIST*
D10*
X23000000Y-1850000D03*
X17000000Y-1850000D03*
X23000000Y1850000D03*
X17000000Y1850000D03*
X-17000000Y-1850000D03*
X-23000000Y-1850000D03*
X-17000000Y1850000D03*
X-23000000Y1850000D03*
D11*
X17550000Y-16800000D03*
X19450000Y-16800000D03*
X19450000Y-19400000D03*
X18500000Y-19400000D03*
X17550000Y-19400000D03*
D12*
G36*
X17824505Y-13801204D02*
G01*
X17848773Y-13804804D01*
X17872572Y-13810765D01*
X17895671Y-13819030D01*
X17917850Y-13829520D01*
X17938893Y-13842132D01*
X17958599Y-13856747D01*
X17976777Y-13873223D01*
X17993253Y-13891401D01*
X18007868Y-13911107D01*
X18020480Y-13932150D01*
X18030970Y-13954329D01*
X18039235Y-13977428D01*
X18045196Y-14001227D01*
X18048796Y-14025495D01*
X18050000Y-14049999D01*
X18050000Y-14950001D01*
X18048796Y-14974505D01*
X18045196Y-14998773D01*
X18039235Y-15022572D01*
X18030970Y-15045671D01*
X18020480Y-15067850D01*
X18007868Y-15088893D01*
X17993253Y-15108599D01*
X17976777Y-15126777D01*
X17958599Y-15143253D01*
X17938893Y-15157868D01*
X17917850Y-15170480D01*
X17895671Y-15180970D01*
X17872572Y-15189235D01*
X17848773Y-15195196D01*
X17824505Y-15198796D01*
X17800001Y-15200000D01*
X17149999Y-15200000D01*
X17125495Y-15198796D01*
X17101227Y-15195196D01*
X17077428Y-15189235D01*
X17054329Y-15180970D01*
X17032150Y-15170480D01*
X17011107Y-15157868D01*
X16991401Y-15143253D01*
X16973223Y-15126777D01*
X16956747Y-15108599D01*
X16942132Y-15088893D01*
X16929520Y-15067850D01*
X16919030Y-15045671D01*
X16910765Y-15022572D01*
X16904804Y-14998773D01*
X16901204Y-14974505D01*
X16900000Y-14950001D01*
X16900000Y-14049999D01*
X16901204Y-14025495D01*
X16904804Y-14001227D01*
X16910765Y-13977428D01*
X16919030Y-13954329D01*
X16929520Y-13932150D01*
X16942132Y-13911107D01*
X16956747Y-13891401D01*
X16973223Y-13873223D01*
X16991401Y-13856747D01*
X17011107Y-13842132D01*
X17032150Y-13829520D01*
X17054329Y-13819030D01*
X17077428Y-13810765D01*
X17101227Y-13804804D01*
X17125495Y-13801204D01*
X17149999Y-13800000D01*
X17800001Y-13800000D01*
X17824505Y-13801204D01*
G37*
G36*
X19874505Y-13801204D02*
G01*
X19898773Y-13804804D01*
X19922572Y-13810765D01*
X19945671Y-13819030D01*
X19967850Y-13829520D01*
X19988893Y-13842132D01*
X20008599Y-13856747D01*
X20026777Y-13873223D01*
X20043253Y-13891401D01*
X20057868Y-13911107D01*
X20070480Y-13932150D01*
X20080970Y-13954329D01*
X20089235Y-13977428D01*
X20095196Y-14001227D01*
X20098796Y-14025495D01*
X20100000Y-14049999D01*
X20100000Y-14950001D01*
X20098796Y-14974505D01*
X20095196Y-14998773D01*
X20089235Y-15022572D01*
X20080970Y-15045671D01*
X20070480Y-15067850D01*
X20057868Y-15088893D01*
X20043253Y-15108599D01*
X20026777Y-15126777D01*
X20008599Y-15143253D01*
X19988893Y-15157868D01*
X19967850Y-15170480D01*
X19945671Y-15180970D01*
X19922572Y-15189235D01*
X19898773Y-15195196D01*
X19874505Y-15198796D01*
X19850001Y-15200000D01*
X19199999Y-15200000D01*
X19175495Y-15198796D01*
X19151227Y-15195196D01*
X19127428Y-15189235D01*
X19104329Y-15180970D01*
X19082150Y-15170480D01*
X19061107Y-15157868D01*
X19041401Y-15143253D01*
X19023223Y-15126777D01*
X19006747Y-15108599D01*
X18992132Y-15088893D01*
X18979520Y-15067850D01*
X18969030Y-15045671D01*
X18960765Y-15022572D01*
X18954804Y-14998773D01*
X18951204Y-14974505D01*
X18950000Y-14950001D01*
X18950000Y-14049999D01*
X18951204Y-14025495D01*
X18954804Y-14001227D01*
X18960765Y-13977428D01*
X18969030Y-13954329D01*
X18979520Y-13932150D01*
X18992132Y-13911107D01*
X19006747Y-13891401D01*
X19023223Y-13873223D01*
X19041401Y-13856747D01*
X19061107Y-13842132D01*
X19082150Y-13829520D01*
X19104329Y-13819030D01*
X19127428Y-13810765D01*
X19151227Y-13804804D01*
X19175495Y-13801204D01*
X19199999Y-13800000D01*
X19850001Y-13800000D01*
X19874505Y-13801204D01*
G37*
G36*
X15149504Y-10301204D02*
G01*
X15173773Y-10304804D01*
X15197571Y-10310765D01*
X15220671Y-10319030D01*
X15242849Y-10329520D01*
X15263893Y-10342133D01*
X15283598Y-10356747D01*
X15301777Y-10373223D01*
X15318253Y-10391402D01*
X15332867Y-10411107D01*
X15345480Y-10432151D01*
X15355970Y-10454329D01*
X15364235Y-10477429D01*
X15370196Y-10501227D01*
X15373796Y-10525496D01*
X15375000Y-10550000D01*
X15375000Y-11475000D01*
X15373796Y-11499504D01*
X15370196Y-11523773D01*
X15364235Y-11547571D01*
X15355970Y-11570671D01*
X15345480Y-11592849D01*
X15332867Y-11613893D01*
X15318253Y-11633598D01*
X15301777Y-11651777D01*
X15283598Y-11668253D01*
X15263893Y-11682867D01*
X15242849Y-11695480D01*
X15220671Y-11705970D01*
X15197571Y-11714235D01*
X15173773Y-11720196D01*
X15149504Y-11723796D01*
X15125000Y-11725000D01*
X13875000Y-11725000D01*
X13850496Y-11723796D01*
X13826227Y-11720196D01*
X13802429Y-11714235D01*
X13779329Y-11705970D01*
X13757151Y-11695480D01*
X13736107Y-11682867D01*
X13716402Y-11668253D01*
X13698223Y-11651777D01*
X13681747Y-11633598D01*
X13667133Y-11613893D01*
X13654520Y-11592849D01*
X13644030Y-11570671D01*
X13635765Y-11547571D01*
X13629804Y-11523773D01*
X13626204Y-11499504D01*
X13625000Y-11475000D01*
X13625000Y-10550000D01*
X13626204Y-10525496D01*
X13629804Y-10501227D01*
X13635765Y-10477429D01*
X13644030Y-10454329D01*
X13654520Y-10432151D01*
X13667133Y-10411107D01*
X13681747Y-10391402D01*
X13698223Y-10373223D01*
X13716402Y-10356747D01*
X13736107Y-10342133D01*
X13757151Y-10329520D01*
X13779329Y-10319030D01*
X13802429Y-10310765D01*
X13826227Y-10304804D01*
X13850496Y-10301204D01*
X13875000Y-10300000D01*
X15125000Y-10300000D01*
X15149504Y-10301204D01*
G37*
G36*
X15149504Y-13276204D02*
G01*
X15173773Y-13279804D01*
X15197571Y-13285765D01*
X15220671Y-13294030D01*
X15242849Y-13304520D01*
X15263893Y-13317133D01*
X15283598Y-13331747D01*
X15301777Y-13348223D01*
X15318253Y-13366402D01*
X15332867Y-13386107D01*
X15345480Y-13407151D01*
X15355970Y-13429329D01*
X15364235Y-13452429D01*
X15370196Y-13476227D01*
X15373796Y-13500496D01*
X15375000Y-13525000D01*
X15375000Y-14450000D01*
X15373796Y-14474504D01*
X15370196Y-14498773D01*
X15364235Y-14522571D01*
X15355970Y-14545671D01*
X15345480Y-14567849D01*
X15332867Y-14588893D01*
X15318253Y-14608598D01*
X15301777Y-14626777D01*
X15283598Y-14643253D01*
X15263893Y-14657867D01*
X15242849Y-14670480D01*
X15220671Y-14680970D01*
X15197571Y-14689235D01*
X15173773Y-14695196D01*
X15149504Y-14698796D01*
X15125000Y-14700000D01*
X13875000Y-14700000D01*
X13850496Y-14698796D01*
X13826227Y-14695196D01*
X13802429Y-14689235D01*
X13779329Y-14680970D01*
X13757151Y-14670480D01*
X13736107Y-14657867D01*
X13716402Y-14643253D01*
X13698223Y-14626777D01*
X13681747Y-14608598D01*
X13667133Y-14588893D01*
X13654520Y-14567849D01*
X13644030Y-14545671D01*
X13635765Y-14522571D01*
X13629804Y-14498773D01*
X13626204Y-14474504D01*
X13625000Y-14450000D01*
X13625000Y-13525000D01*
X13626204Y-13500496D01*
X13629804Y-13476227D01*
X13635765Y-13452429D01*
X13644030Y-13429329D01*
X13654520Y-13407151D01*
X13667133Y-13386107D01*
X13681747Y-13366402D01*
X13698223Y-13348223D01*
X13716402Y-13331747D01*
X13736107Y-13317133D01*
X13757151Y-13304520D01*
X13779329Y-13294030D01*
X13802429Y-13285765D01*
X13826227Y-13279804D01*
X13850496Y-13276204D01*
X13875000Y-13275000D01*
X15125000Y-13275000D01*
X15149504Y-13276204D01*
G37*
G36*
X15149504Y-16301204D02*
G01*
X15173773Y-16304804D01*
X15197571Y-16310765D01*
X15220671Y-16319030D01*
X15242849Y-16329520D01*
X15263893Y-16342133D01*
X15283598Y-16356747D01*
X15301777Y-16373223D01*
X15318253Y-16391402D01*
X15332867Y-16411107D01*
X15345480Y-16432151D01*
X15355970Y-16454329D01*
X15364235Y-16477429D01*
X15370196Y-16501227D01*
X15373796Y-16525496D01*
X15375000Y-16550000D01*
X15375000Y-17475000D01*
X15373796Y-17499504D01*
X15370196Y-17523773D01*
X15364235Y-17547571D01*
X15355970Y-17570671D01*
X15345480Y-17592849D01*
X15332867Y-17613893D01*
X15318253Y-17633598D01*
X15301777Y-17651777D01*
X15283598Y-17668253D01*
X15263893Y-17682867D01*
X15242849Y-17695480D01*
X15220671Y-17705970D01*
X15197571Y-17714235D01*
X15173773Y-17720196D01*
X15149504Y-17723796D01*
X15125000Y-17725000D01*
X13875000Y-17725000D01*
X13850496Y-17723796D01*
X13826227Y-17720196D01*
X13802429Y-17714235D01*
X13779329Y-17705970D01*
X13757151Y-17695480D01*
X13736107Y-17682867D01*
X13716402Y-17668253D01*
X13698223Y-17651777D01*
X13681747Y-17633598D01*
X13667133Y-17613893D01*
X13654520Y-17592849D01*
X13644030Y-17570671D01*
X13635765Y-17547571D01*
X13629804Y-17523773D01*
X13626204Y-17499504D01*
X13625000Y-17475000D01*
X13625000Y-16550000D01*
X13626204Y-16525496D01*
X13629804Y-16501227D01*
X13635765Y-16477429D01*
X13644030Y-16454329D01*
X13654520Y-16432151D01*
X13667133Y-16411107D01*
X13681747Y-16391402D01*
X13698223Y-16373223D01*
X13716402Y-16356747D01*
X13736107Y-16342133D01*
X13757151Y-16329520D01*
X13779329Y-16319030D01*
X13802429Y-16310765D01*
X13826227Y-16304804D01*
X13850496Y-16301204D01*
X13875000Y-16300000D01*
X15125000Y-16300000D01*
X15149504Y-16301204D01*
G37*
G36*
X15149504Y-19276204D02*
G01*
X15173773Y-19279804D01*
X15197571Y-19285765D01*
X15220671Y-19294030D01*
X15242849Y-19304520D01*
X15263893Y-19317133D01*
X15283598Y-19331747D01*
X15301777Y-19348223D01*
X15318253Y-19366402D01*
X15332867Y-19386107D01*
X15345480Y-19407151D01*
X15355970Y-19429329D01*
X15364235Y-19452429D01*
X15370196Y-19476227D01*
X15373796Y-19500496D01*
X15375000Y-19525000D01*
X15375000Y-20450000D01*
X15373796Y-20474504D01*
X15370196Y-20498773D01*
X15364235Y-20522571D01*
X15355970Y-20545671D01*
X15345480Y-20567849D01*
X15332867Y-20588893D01*
X15318253Y-20608598D01*
X15301777Y-20626777D01*
X15283598Y-20643253D01*
X15263893Y-20657867D01*
X15242849Y-20670480D01*
X15220671Y-20680970D01*
X15197571Y-20689235D01*
X15173773Y-20695196D01*
X15149504Y-20698796D01*
X15125000Y-20700000D01*
X13875000Y-20700000D01*
X13850496Y-20698796D01*
X13826227Y-20695196D01*
X13802429Y-20689235D01*
X13779329Y-20680970D01*
X13757151Y-20670480D01*
X13736107Y-20657867D01*
X13716402Y-20643253D01*
X13698223Y-20626777D01*
X13681747Y-20608598D01*
X13667133Y-20588893D01*
X13654520Y-20567849D01*
X13644030Y-20545671D01*
X13635765Y-20522571D01*
X13629804Y-20498773D01*
X13626204Y-20474504D01*
X13625000Y-20450000D01*
X13625000Y-19525000D01*
X13626204Y-19500496D01*
X13629804Y-19476227D01*
X13635765Y-19452429D01*
X13644030Y-19429329D01*
X13654520Y-19407151D01*
X13667133Y-19386107D01*
X13681747Y-19366402D01*
X13698223Y-19348223D01*
X13716402Y-19331747D01*
X13736107Y-19317133D01*
X13757151Y-19304520D01*
X13779329Y-19294030D01*
X13802429Y-19285765D01*
X13826227Y-19279804D01*
X13850496Y-19276204D01*
X13875000Y-19275000D01*
X15125000Y-19275000D01*
X15149504Y-19276204D01*
G37*
G36*
X-16525496Y-13126204D02*
G01*
X-16501227Y-13129804D01*
X-16477429Y-13135765D01*
X-16454329Y-13144030D01*
X-16432151Y-13154520D01*
X-16411107Y-13167133D01*
X-16391402Y-13181747D01*
X-16373223Y-13198223D01*
X-16356747Y-13216402D01*
X-16342133Y-13236107D01*
X-16329520Y-13257151D01*
X-16319030Y-13279329D01*
X-16310765Y-13302429D01*
X-16304804Y-13326227D01*
X-16301204Y-13350496D01*
X-16300000Y-13375000D01*
X-16300000Y-14625000D01*
X-16301204Y-14649504D01*
X-16304804Y-14673773D01*
X-16310765Y-14697571D01*
X-16319030Y-14720671D01*
X-16329520Y-14742849D01*
X-16342133Y-14763893D01*
X-16356747Y-14783598D01*
X-16373223Y-14801777D01*
X-16391402Y-14818253D01*
X-16411107Y-14832867D01*
X-16432151Y-14845480D01*
X-16454329Y-14855970D01*
X-16477429Y-14864235D01*
X-16501227Y-14870196D01*
X-16525496Y-14873796D01*
X-16550000Y-14875000D01*
X-17475000Y-14875000D01*
X-17499504Y-14873796D01*
X-17523773Y-14870196D01*
X-17547571Y-14864235D01*
X-17570671Y-14855970D01*
X-17592849Y-14845480D01*
X-17613893Y-14832867D01*
X-17633598Y-14818253D01*
X-17651777Y-14801777D01*
X-17668253Y-14783598D01*
X-17682867Y-14763893D01*
X-17695480Y-14742849D01*
X-17705970Y-14720671D01*
X-17714235Y-14697571D01*
X-17720196Y-14673773D01*
X-17723796Y-14649504D01*
X-17725000Y-14625000D01*
X-17725000Y-13375000D01*
X-17723796Y-13350496D01*
X-17720196Y-13326227D01*
X-17714235Y-13302429D01*
X-17705970Y-13279329D01*
X-17695480Y-13257151D01*
X-17682867Y-13236107D01*
X-17668253Y-13216402D01*
X-17651777Y-13198223D01*
X-17633598Y-13181747D01*
X-17613893Y-13167133D01*
X-17592849Y-13154520D01*
X-17570671Y-13144030D01*
X-17547571Y-13135765D01*
X-17523773Y-13129804D01*
X-17499504Y-13126204D01*
X-17475000Y-13125000D01*
X-16550000Y-13125000D01*
X-16525496Y-13126204D01*
G37*
G36*
X-19500496Y-13126204D02*
G01*
X-19476227Y-13129804D01*
X-19452429Y-13135765D01*
X-19429329Y-13144030D01*
X-19407151Y-13154520D01*
X-19386107Y-13167133D01*
X-19366402Y-13181747D01*
X-19348223Y-13198223D01*
X-19331747Y-13216402D01*
X-19317133Y-13236107D01*
X-19304520Y-13257151D01*
X-19294030Y-13279329D01*
X-19285765Y-13302429D01*
X-19279804Y-13326227D01*
X-19276204Y-13350496D01*
X-19275000Y-13375000D01*
X-19275000Y-14625000D01*
X-19276204Y-14649504D01*
X-19279804Y-14673773D01*
X-19285765Y-14697571D01*
X-19294030Y-14720671D01*
X-19304520Y-14742849D01*
X-19317133Y-14763893D01*
X-19331747Y-14783598D01*
X-19348223Y-14801777D01*
X-19366402Y-14818253D01*
X-19386107Y-14832867D01*
X-19407151Y-14845480D01*
X-19429329Y-14855970D01*
X-19452429Y-14864235D01*
X-19476227Y-14870196D01*
X-19500496Y-14873796D01*
X-19525000Y-14875000D01*
X-20450000Y-14875000D01*
X-20474504Y-14873796D01*
X-20498773Y-14870196D01*
X-20522571Y-14864235D01*
X-20545671Y-14855970D01*
X-20567849Y-14845480D01*
X-20588893Y-14832867D01*
X-20608598Y-14818253D01*
X-20626777Y-14801777D01*
X-20643253Y-14783598D01*
X-20657867Y-14763893D01*
X-20670480Y-14742849D01*
X-20680970Y-14720671D01*
X-20689235Y-14697571D01*
X-20695196Y-14673773D01*
X-20698796Y-14649504D01*
X-20700000Y-14625000D01*
X-20700000Y-13375000D01*
X-20698796Y-13350496D01*
X-20695196Y-13326227D01*
X-20689235Y-13302429D01*
X-20680970Y-13279329D01*
X-20670480Y-13257151D01*
X-20657867Y-13236107D01*
X-20643253Y-13216402D01*
X-20626777Y-13198223D01*
X-20608598Y-13181747D01*
X-20588893Y-13167133D01*
X-20567849Y-13154520D01*
X-20545671Y-13144030D01*
X-20522571Y-13135765D01*
X-20498773Y-13129804D01*
X-20474504Y-13126204D01*
X-20450000Y-13125000D01*
X-19525000Y-13125000D01*
X-19500496Y-13126204D01*
G37*
G36*
X-16525496Y-10126204D02*
G01*
X-16501227Y-10129804D01*
X-16477429Y-10135765D01*
X-16454329Y-10144030D01*
X-16432151Y-10154520D01*
X-16411107Y-10167133D01*
X-16391402Y-10181747D01*
X-16373223Y-10198223D01*
X-16356747Y-10216402D01*
X-16342133Y-10236107D01*
X-16329520Y-10257151D01*
X-16319030Y-10279329D01*
X-16310765Y-10302429D01*
X-16304804Y-10326227D01*
X-16301204Y-10350496D01*
X-16300000Y-10375000D01*
X-16300000Y-11625000D01*
X-16301204Y-11649504D01*
X-16304804Y-11673773D01*
X-16310765Y-11697571D01*
X-16319030Y-11720671D01*
X-16329520Y-11742849D01*
X-16342133Y-11763893D01*
X-16356747Y-11783598D01*
X-16373223Y-11801777D01*
X-16391402Y-11818253D01*
X-16411107Y-11832867D01*
X-16432151Y-11845480D01*
X-16454329Y-11855970D01*
X-16477429Y-11864235D01*
X-16501227Y-11870196D01*
X-16525496Y-11873796D01*
X-16550000Y-11875000D01*
X-17475000Y-11875000D01*
X-17499504Y-11873796D01*
X-17523773Y-11870196D01*
X-17547571Y-11864235D01*
X-17570671Y-11855970D01*
X-17592849Y-11845480D01*
X-17613893Y-11832867D01*
X-17633598Y-11818253D01*
X-17651777Y-11801777D01*
X-17668253Y-11783598D01*
X-17682867Y-11763893D01*
X-17695480Y-11742849D01*
X-17705970Y-11720671D01*
X-17714235Y-11697571D01*
X-17720196Y-11673773D01*
X-17723796Y-11649504D01*
X-17725000Y-11625000D01*
X-17725000Y-10375000D01*
X-17723796Y-10350496D01*
X-17720196Y-10326227D01*
X-17714235Y-10302429D01*
X-17705970Y-10279329D01*
X-17695480Y-10257151D01*
X-17682867Y-10236107D01*
X-17668253Y-10216402D01*
X-17651777Y-10198223D01*
X-17633598Y-10181747D01*
X-17613893Y-10167133D01*
X-17592849Y-10154520D01*
X-17570671Y-10144030D01*
X-17547571Y-10135765D01*
X-17523773Y-10129804D01*
X-17499504Y-10126204D01*
X-17475000Y-10125000D01*
X-16550000Y-10125000D01*
X-16525496Y-10126204D01*
G37*
G36*
X-19500496Y-10126204D02*
G01*
X-19476227Y-10129804D01*
X-19452429Y-10135765D01*
X-19429329Y-10144030D01*
X-19407151Y-10154520D01*
X-19386107Y-10167133D01*
X-19366402Y-10181747D01*
X-19348223Y-10198223D01*
X-19331747Y-10216402D01*
X-19317133Y-10236107D01*
X-19304520Y-10257151D01*
X-19294030Y-10279329D01*
X-19285765Y-10302429D01*
X-19279804Y-10326227D01*
X-19276204Y-10350496D01*
X-19275000Y-10375000D01*
X-19275000Y-11625000D01*
X-19276204Y-11649504D01*
X-19279804Y-11673773D01*
X-19285765Y-11697571D01*
X-19294030Y-11720671D01*
X-19304520Y-11742849D01*
X-19317133Y-11763893D01*
X-19331747Y-11783598D01*
X-19348223Y-11801777D01*
X-19366402Y-11818253D01*
X-19386107Y-11832867D01*
X-19407151Y-11845480D01*
X-19429329Y-11855970D01*
X-19452429Y-11864235D01*
X-19476227Y-11870196D01*
X-19500496Y-11873796D01*
X-19525000Y-11875000D01*
X-20450000Y-11875000D01*
X-20474504Y-11873796D01*
X-20498773Y-11870196D01*
X-20522571Y-11864235D01*
X-20545671Y-11855970D01*
X-20567849Y-11845480D01*
X-20588893Y-11832867D01*
X-20608598Y-11818253D01*
X-20626777Y-11801777D01*
X-20643253Y-11783598D01*
X-20657867Y-11763893D01*
X-20670480Y-11742849D01*
X-20680970Y-11720671D01*
X-20689235Y-11697571D01*
X-20695196Y-11673773D01*
X-20698796Y-11649504D01*
X-20700000Y-11625000D01*
X-20700000Y-10375000D01*
X-20698796Y-10350496D01*
X-20695196Y-10326227D01*
X-20689235Y-10302429D01*
X-20680970Y-10279329D01*
X-20670480Y-10257151D01*
X-20657867Y-10236107D01*
X-20643253Y-10216402D01*
X-20626777Y-10198223D01*
X-20608598Y-10181747D01*
X-20588893Y-10167133D01*
X-20567849Y-10154520D01*
X-20545671Y-10144030D01*
X-20522571Y-10135765D01*
X-20498773Y-10129804D01*
X-20474504Y-10126204D01*
X-20450000Y-10125000D01*
X-19525000Y-10125000D01*
X-19500496Y-10126204D01*
G37*
G36*
X6399504Y16723796D02*
G01*
X6423773Y16720196D01*
X6447571Y16714235D01*
X6470671Y16705970D01*
X6492849Y16695480D01*
X6513893Y16682867D01*
X6533598Y16668253D01*
X6551777Y16651777D01*
X6568253Y16633598D01*
X6582867Y16613893D01*
X6595480Y16592849D01*
X6605970Y16570671D01*
X6614235Y16547571D01*
X6620196Y16523773D01*
X6623796Y16499504D01*
X6625000Y16475000D01*
X6625000Y15325000D01*
X6623796Y15300496D01*
X6620196Y15276227D01*
X6614235Y15252429D01*
X6605970Y15229329D01*
X6595480Y15207151D01*
X6582867Y15186107D01*
X6568253Y15166402D01*
X6551777Y15148223D01*
X6533598Y15131747D01*
X6513893Y15117133D01*
X6492849Y15104520D01*
X6470671Y15094030D01*
X6447571Y15085765D01*
X6423773Y15079804D01*
X6399504Y15076204D01*
X6375000Y15075000D01*
X5275000Y15075000D01*
X5250496Y15076204D01*
X5226227Y15079804D01*
X5202429Y15085765D01*
X5179329Y15094030D01*
X5157151Y15104520D01*
X5136107Y15117133D01*
X5116402Y15131747D01*
X5098223Y15148223D01*
X5081747Y15166402D01*
X5067133Y15186107D01*
X5054520Y15207151D01*
X5044030Y15229329D01*
X5035765Y15252429D01*
X5029804Y15276227D01*
X5026204Y15300496D01*
X5025000Y15325000D01*
X5025000Y16475000D01*
X5026204Y16499504D01*
X5029804Y16523773D01*
X5035765Y16547571D01*
X5044030Y16570671D01*
X5054520Y16592849D01*
X5067133Y16613893D01*
X5081747Y16633598D01*
X5098223Y16651777D01*
X5116402Y16668253D01*
X5136107Y16682867D01*
X5157151Y16695480D01*
X5179329Y16705970D01*
X5202429Y16714235D01*
X5226227Y16720196D01*
X5250496Y16723796D01*
X5275000Y16725000D01*
X6375000Y16725000D01*
X6399504Y16723796D01*
G37*
G36*
X3549504Y16723796D02*
G01*
X3573773Y16720196D01*
X3597571Y16714235D01*
X3620671Y16705970D01*
X3642849Y16695480D01*
X3663893Y16682867D01*
X3683598Y16668253D01*
X3701777Y16651777D01*
X3718253Y16633598D01*
X3732867Y16613893D01*
X3745480Y16592849D01*
X3755970Y16570671D01*
X3764235Y16547571D01*
X3770196Y16523773D01*
X3773796Y16499504D01*
X3775000Y16475000D01*
X3775000Y15325000D01*
X3773796Y15300496D01*
X3770196Y15276227D01*
X3764235Y15252429D01*
X3755970Y15229329D01*
X3745480Y15207151D01*
X3732867Y15186107D01*
X3718253Y15166402D01*
X3701777Y15148223D01*
X3683598Y15131747D01*
X3663893Y15117133D01*
X3642849Y15104520D01*
X3620671Y15094030D01*
X3597571Y15085765D01*
X3573773Y15079804D01*
X3549504Y15076204D01*
X3525000Y15075000D01*
X2425000Y15075000D01*
X2400496Y15076204D01*
X2376227Y15079804D01*
X2352429Y15085765D01*
X2329329Y15094030D01*
X2307151Y15104520D01*
X2286107Y15117133D01*
X2266402Y15131747D01*
X2248223Y15148223D01*
X2231747Y15166402D01*
X2217133Y15186107D01*
X2204520Y15207151D01*
X2194030Y15229329D01*
X2185765Y15252429D01*
X2179804Y15276227D01*
X2176204Y15300496D01*
X2175000Y15325000D01*
X2175000Y16475000D01*
X2176204Y16499504D01*
X2179804Y16523773D01*
X2185765Y16547571D01*
X2194030Y16570671D01*
X2204520Y16592849D01*
X2217133Y16613893D01*
X2231747Y16633598D01*
X2248223Y16651777D01*
X2266402Y16668253D01*
X2286107Y16682867D01*
X2307151Y16695480D01*
X2329329Y16705970D01*
X2352429Y16714235D01*
X2376227Y16720196D01*
X2400496Y16723796D01*
X2425000Y16725000D01*
X3525000Y16725000D01*
X3549504Y16723796D01*
G37*
G36*
X-4950496Y16723796D02*
G01*
X-4926227Y16720196D01*
X-4902429Y16714235D01*
X-4879329Y16705970D01*
X-4857151Y16695480D01*
X-4836107Y16682867D01*
X-4816402Y16668253D01*
X-4798223Y16651777D01*
X-4781747Y16633598D01*
X-4767133Y16613893D01*
X-4754520Y16592849D01*
X-4744030Y16570671D01*
X-4735765Y16547571D01*
X-4729804Y16523773D01*
X-4726204Y16499504D01*
X-4725000Y16475000D01*
X-4725000Y15325000D01*
X-4726204Y15300496D01*
X-4729804Y15276227D01*
X-4735765Y15252429D01*
X-4744030Y15229329D01*
X-4754520Y15207151D01*
X-4767133Y15186107D01*
X-4781747Y15166402D01*
X-4798223Y15148223D01*
X-4816402Y15131747D01*
X-4836107Y15117133D01*
X-4857151Y15104520D01*
X-4879329Y15094030D01*
X-4902429Y15085765D01*
X-4926227Y15079804D01*
X-4950496Y15076204D01*
X-4975000Y15075000D01*
X-6075000Y15075000D01*
X-6099504Y15076204D01*
X-6123773Y15079804D01*
X-6147571Y15085765D01*
X-6170671Y15094030D01*
X-6192849Y15104520D01*
X-6213893Y15117133D01*
X-6233598Y15131747D01*
X-6251777Y15148223D01*
X-6268253Y15166402D01*
X-6282867Y15186107D01*
X-6295480Y15207151D01*
X-6305970Y15229329D01*
X-6314235Y15252429D01*
X-6320196Y15276227D01*
X-6323796Y15300496D01*
X-6325000Y15325000D01*
X-6325000Y16475000D01*
X-6323796Y16499504D01*
X-6320196Y16523773D01*
X-6314235Y16547571D01*
X-6305970Y16570671D01*
X-6295480Y16592849D01*
X-6282867Y16613893D01*
X-6268253Y16633598D01*
X-6251777Y16651777D01*
X-6233598Y16668253D01*
X-6213893Y16682867D01*
X-6192849Y16695480D01*
X-6170671Y16705970D01*
X-6147571Y16714235D01*
X-6123773Y16720196D01*
X-6099504Y16723796D01*
X-6075000Y16725000D01*
X-4975000Y16725000D01*
X-4950496Y16723796D01*
G37*
G36*
X-2100496Y16723796D02*
G01*
X-2076227Y16720196D01*
X-2052429Y16714235D01*
X-2029329Y16705970D01*
X-2007151Y16695480D01*
X-1986107Y16682867D01*
X-1966402Y16668253D01*
X-1948223Y16651777D01*
X-1931747Y16633598D01*
X-1917133Y16613893D01*
X-1904520Y16592849D01*
X-1894030Y16570671D01*
X-1885765Y16547571D01*
X-1879804Y16523773D01*
X-1876204Y16499504D01*
X-1875000Y16475000D01*
X-1875000Y15325000D01*
X-1876204Y15300496D01*
X-1879804Y15276227D01*
X-1885765Y15252429D01*
X-1894030Y15229329D01*
X-1904520Y15207151D01*
X-1917133Y15186107D01*
X-1931747Y15166402D01*
X-1948223Y15148223D01*
X-1966402Y15131747D01*
X-1986107Y15117133D01*
X-2007151Y15104520D01*
X-2029329Y15094030D01*
X-2052429Y15085765D01*
X-2076227Y15079804D01*
X-2100496Y15076204D01*
X-2125000Y15075000D01*
X-3225000Y15075000D01*
X-3249504Y15076204D01*
X-3273773Y15079804D01*
X-3297571Y15085765D01*
X-3320671Y15094030D01*
X-3342849Y15104520D01*
X-3363893Y15117133D01*
X-3383598Y15131747D01*
X-3401777Y15148223D01*
X-3418253Y15166402D01*
X-3432867Y15186107D01*
X-3445480Y15207151D01*
X-3455970Y15229329D01*
X-3464235Y15252429D01*
X-3470196Y15276227D01*
X-3473796Y15300496D01*
X-3475000Y15325000D01*
X-3475000Y16475000D01*
X-3473796Y16499504D01*
X-3470196Y16523773D01*
X-3464235Y16547571D01*
X-3455970Y16570671D01*
X-3445480Y16592849D01*
X-3432867Y16613893D01*
X-3418253Y16633598D01*
X-3401777Y16651777D01*
X-3383598Y16668253D01*
X-3363893Y16682867D01*
X-3342849Y16695480D01*
X-3320671Y16705970D01*
X-3297571Y16714235D01*
X-3273773Y16720196D01*
X-3249504Y16723796D01*
X-3225000Y16725000D01*
X-2125000Y16725000D01*
X-2100496Y16723796D01*
G37*
D13*
X150000Y14750000D03*
X1100000Y12750000D03*
X-800000Y12750000D03*
D12*
G36*
X20549504Y-4026204D02*
G01*
X20573773Y-4029804D01*
X20597571Y-4035765D01*
X20620671Y-4044030D01*
X20642849Y-4054520D01*
X20663893Y-4067133D01*
X20683598Y-4081747D01*
X20701777Y-4098223D01*
X20718253Y-4116402D01*
X20732867Y-4136107D01*
X20745480Y-4157151D01*
X20755970Y-4179329D01*
X20764235Y-4202429D01*
X20770196Y-4226227D01*
X20773796Y-4250496D01*
X20775000Y-4275000D01*
X20775000Y-5525000D01*
X20773796Y-5549504D01*
X20770196Y-5573773D01*
X20764235Y-5597571D01*
X20755970Y-5620671D01*
X20745480Y-5642849D01*
X20732867Y-5663893D01*
X20718253Y-5683598D01*
X20701777Y-5701777D01*
X20683598Y-5718253D01*
X20663893Y-5732867D01*
X20642849Y-5745480D01*
X20620671Y-5755970D01*
X20597571Y-5764235D01*
X20573773Y-5770196D01*
X20549504Y-5773796D01*
X20525000Y-5775000D01*
X19600000Y-5775000D01*
X19575496Y-5773796D01*
X19551227Y-5770196D01*
X19527429Y-5764235D01*
X19504329Y-5755970D01*
X19482151Y-5745480D01*
X19461107Y-5732867D01*
X19441402Y-5718253D01*
X19423223Y-5701777D01*
X19406747Y-5683598D01*
X19392133Y-5663893D01*
X19379520Y-5642849D01*
X19369030Y-5620671D01*
X19360765Y-5597571D01*
X19354804Y-5573773D01*
X19351204Y-5549504D01*
X19350000Y-5525000D01*
X19350000Y-4275000D01*
X19351204Y-4250496D01*
X19354804Y-4226227D01*
X19360765Y-4202429D01*
X19369030Y-4179329D01*
X19379520Y-4157151D01*
X19392133Y-4136107D01*
X19406747Y-4116402D01*
X19423223Y-4098223D01*
X19441402Y-4081747D01*
X19461107Y-4067133D01*
X19482151Y-4054520D01*
X19504329Y-4044030D01*
X19527429Y-4035765D01*
X19551227Y-4029804D01*
X19575496Y-4026204D01*
X19600000Y-4025000D01*
X20525000Y-4025000D01*
X20549504Y-4026204D01*
G37*
G36*
X23524504Y-4026204D02*
G01*
X23548773Y-4029804D01*
X23572571Y-4035765D01*
X23595671Y-4044030D01*
X23617849Y-4054520D01*
X23638893Y-4067133D01*
X23658598Y-4081747D01*
X23676777Y-4098223D01*
X23693253Y-4116402D01*
X23707867Y-4136107D01*
X23720480Y-4157151D01*
X23730970Y-4179329D01*
X23739235Y-4202429D01*
X23745196Y-4226227D01*
X23748796Y-4250496D01*
X23750000Y-4275000D01*
X23750000Y-5525000D01*
X23748796Y-5549504D01*
X23745196Y-5573773D01*
X23739235Y-5597571D01*
X23730970Y-5620671D01*
X23720480Y-5642849D01*
X23707867Y-5663893D01*
X23693253Y-5683598D01*
X23676777Y-5701777D01*
X23658598Y-5718253D01*
X23638893Y-5732867D01*
X23617849Y-5745480D01*
X23595671Y-5755970D01*
X23572571Y-5764235D01*
X23548773Y-5770196D01*
X23524504Y-5773796D01*
X23500000Y-5775000D01*
X22575000Y-5775000D01*
X22550496Y-5773796D01*
X22526227Y-5770196D01*
X22502429Y-5764235D01*
X22479329Y-5755970D01*
X22457151Y-5745480D01*
X22436107Y-5732867D01*
X22416402Y-5718253D01*
X22398223Y-5701777D01*
X22381747Y-5683598D01*
X22367133Y-5663893D01*
X22354520Y-5642849D01*
X22344030Y-5620671D01*
X22335765Y-5597571D01*
X22329804Y-5573773D01*
X22326204Y-5549504D01*
X22325000Y-5525000D01*
X22325000Y-4275000D01*
X22326204Y-4250496D01*
X22329804Y-4226227D01*
X22335765Y-4202429D01*
X22344030Y-4179329D01*
X22354520Y-4157151D01*
X22367133Y-4136107D01*
X22381747Y-4116402D01*
X22398223Y-4098223D01*
X22416402Y-4081747D01*
X22436107Y-4067133D01*
X22457151Y-4054520D01*
X22479329Y-4044030D01*
X22502429Y-4035765D01*
X22526227Y-4029804D01*
X22550496Y-4026204D01*
X22575000Y-4025000D01*
X23500000Y-4025000D01*
X23524504Y-4026204D01*
G37*
G36*
X-19500496Y-4126204D02*
G01*
X-19476227Y-4129804D01*
X-19452429Y-4135765D01*
X-19429329Y-4144030D01*
X-19407151Y-4154520D01*
X-19386107Y-4167133D01*
X-19366402Y-4181747D01*
X-19348223Y-4198223D01*
X-19331747Y-4216402D01*
X-19317133Y-4236107D01*
X-19304520Y-4257151D01*
X-19294030Y-4279329D01*
X-19285765Y-4302429D01*
X-19279804Y-4326227D01*
X-19276204Y-4350496D01*
X-19275000Y-4375000D01*
X-19275000Y-5625000D01*
X-19276204Y-5649504D01*
X-19279804Y-5673773D01*
X-19285765Y-5697571D01*
X-19294030Y-5720671D01*
X-19304520Y-5742849D01*
X-19317133Y-5763893D01*
X-19331747Y-5783598D01*
X-19348223Y-5801777D01*
X-19366402Y-5818253D01*
X-19386107Y-5832867D01*
X-19407151Y-5845480D01*
X-19429329Y-5855970D01*
X-19452429Y-5864235D01*
X-19476227Y-5870196D01*
X-19500496Y-5873796D01*
X-19525000Y-5875000D01*
X-20450000Y-5875000D01*
X-20474504Y-5873796D01*
X-20498773Y-5870196D01*
X-20522571Y-5864235D01*
X-20545671Y-5855970D01*
X-20567849Y-5845480D01*
X-20588893Y-5832867D01*
X-20608598Y-5818253D01*
X-20626777Y-5801777D01*
X-20643253Y-5783598D01*
X-20657867Y-5763893D01*
X-20670480Y-5742849D01*
X-20680970Y-5720671D01*
X-20689235Y-5697571D01*
X-20695196Y-5673773D01*
X-20698796Y-5649504D01*
X-20700000Y-5625000D01*
X-20700000Y-4375000D01*
X-20698796Y-4350496D01*
X-20695196Y-4326227D01*
X-20689235Y-4302429D01*
X-20680970Y-4279329D01*
X-20670480Y-4257151D01*
X-20657867Y-4236107D01*
X-20643253Y-4216402D01*
X-20626777Y-4198223D01*
X-20608598Y-4181747D01*
X-20588893Y-4167133D01*
X-20567849Y-4154520D01*
X-20545671Y-4144030D01*
X-20522571Y-4135765D01*
X-20498773Y-4129804D01*
X-20474504Y-4126204D01*
X-20450000Y-4125000D01*
X-19525000Y-4125000D01*
X-19500496Y-4126204D01*
G37*
G36*
X-16525496Y-4126204D02*
G01*
X-16501227Y-4129804D01*
X-16477429Y-4135765D01*
X-16454329Y-4144030D01*
X-16432151Y-4154520D01*
X-16411107Y-4167133D01*
X-16391402Y-4181747D01*
X-16373223Y-4198223D01*
X-16356747Y-4216402D01*
X-16342133Y-4236107D01*
X-16329520Y-4257151D01*
X-16319030Y-4279329D01*
X-16310765Y-4302429D01*
X-16304804Y-4326227D01*
X-16301204Y-4350496D01*
X-16300000Y-4375000D01*
X-16300000Y-5625000D01*
X-16301204Y-5649504D01*
X-16304804Y-5673773D01*
X-16310765Y-5697571D01*
X-16319030Y-5720671D01*
X-16329520Y-5742849D01*
X-16342133Y-5763893D01*
X-16356747Y-5783598D01*
X-16373223Y-5801777D01*
X-16391402Y-5818253D01*
X-16411107Y-5832867D01*
X-16432151Y-5845480D01*
X-16454329Y-5855970D01*
X-16477429Y-5864235D01*
X-16501227Y-5870196D01*
X-16525496Y-5873796D01*
X-16550000Y-5875000D01*
X-17475000Y-5875000D01*
X-17499504Y-5873796D01*
X-17523773Y-5870196D01*
X-17547571Y-5864235D01*
X-17570671Y-5855970D01*
X-17592849Y-5845480D01*
X-17613893Y-5832867D01*
X-17633598Y-5818253D01*
X-17651777Y-5801777D01*
X-17668253Y-5783598D01*
X-17682867Y-5763893D01*
X-17695480Y-5742849D01*
X-17705970Y-5720671D01*
X-17714235Y-5697571D01*
X-17720196Y-5673773D01*
X-17723796Y-5649504D01*
X-17725000Y-5625000D01*
X-17725000Y-4375000D01*
X-17723796Y-4350496D01*
X-17720196Y-4326227D01*
X-17714235Y-4302429D01*
X-17705970Y-4279329D01*
X-17695480Y-4257151D01*
X-17682867Y-4236107D01*
X-17668253Y-4216402D01*
X-17651777Y-4198223D01*
X-17633598Y-4181747D01*
X-17613893Y-4167133D01*
X-17592849Y-4154520D01*
X-17570671Y-4144030D01*
X-17547571Y-4135765D01*
X-17523773Y-4129804D01*
X-17499504Y-4126204D01*
X-17475000Y-4125000D01*
X-16550000Y-4125000D01*
X-16525496Y-4126204D01*
G37*
G36*
X28349504Y6023796D02*
G01*
X28373773Y6020196D01*
X28397571Y6014235D01*
X28420671Y6005970D01*
X28442849Y5995480D01*
X28463893Y5982867D01*
X28483598Y5968253D01*
X28501777Y5951777D01*
X28518253Y5933598D01*
X28532867Y5913893D01*
X28545480Y5892849D01*
X28555970Y5870671D01*
X28564235Y5847571D01*
X28570196Y5823773D01*
X28573796Y5799504D01*
X28575000Y5775000D01*
X28575000Y4525000D01*
X28573796Y4500496D01*
X28570196Y4476227D01*
X28564235Y4452429D01*
X28555970Y4429329D01*
X28545480Y4407151D01*
X28532867Y4386107D01*
X28518253Y4366402D01*
X28501777Y4348223D01*
X28483598Y4331747D01*
X28463893Y4317133D01*
X28442849Y4304520D01*
X28420671Y4294030D01*
X28397571Y4285765D01*
X28373773Y4279804D01*
X28349504Y4276204D01*
X28325000Y4275000D01*
X27400000Y4275000D01*
X27375496Y4276204D01*
X27351227Y4279804D01*
X27327429Y4285765D01*
X27304329Y4294030D01*
X27282151Y4304520D01*
X27261107Y4317133D01*
X27241402Y4331747D01*
X27223223Y4348223D01*
X27206747Y4366402D01*
X27192133Y4386107D01*
X27179520Y4407151D01*
X27169030Y4429329D01*
X27160765Y4452429D01*
X27154804Y4476227D01*
X27151204Y4500496D01*
X27150000Y4525000D01*
X27150000Y5775000D01*
X27151204Y5799504D01*
X27154804Y5823773D01*
X27160765Y5847571D01*
X27169030Y5870671D01*
X27179520Y5892849D01*
X27192133Y5913893D01*
X27206747Y5933598D01*
X27223223Y5951777D01*
X27241402Y5968253D01*
X27261107Y5982867D01*
X27282151Y5995480D01*
X27304329Y6005970D01*
X27327429Y6014235D01*
X27351227Y6020196D01*
X27375496Y6023796D01*
X27400000Y6025000D01*
X28325000Y6025000D01*
X28349504Y6023796D01*
G37*
G36*
X31324504Y6023796D02*
G01*
X31348773Y6020196D01*
X31372571Y6014235D01*
X31395671Y6005970D01*
X31417849Y5995480D01*
X31438893Y5982867D01*
X31458598Y5968253D01*
X31476777Y5951777D01*
X31493253Y5933598D01*
X31507867Y5913893D01*
X31520480Y5892849D01*
X31530970Y5870671D01*
X31539235Y5847571D01*
X31545196Y5823773D01*
X31548796Y5799504D01*
X31550000Y5775000D01*
X31550000Y4525000D01*
X31548796Y4500496D01*
X31545196Y4476227D01*
X31539235Y4452429D01*
X31530970Y4429329D01*
X31520480Y4407151D01*
X31507867Y4386107D01*
X31493253Y4366402D01*
X31476777Y4348223D01*
X31458598Y4331747D01*
X31438893Y4317133D01*
X31417849Y4304520D01*
X31395671Y4294030D01*
X31372571Y4285765D01*
X31348773Y4279804D01*
X31324504Y4276204D01*
X31300000Y4275000D01*
X30375000Y4275000D01*
X30350496Y4276204D01*
X30326227Y4279804D01*
X30302429Y4285765D01*
X30279329Y4294030D01*
X30257151Y4304520D01*
X30236107Y4317133D01*
X30216402Y4331747D01*
X30198223Y4348223D01*
X30181747Y4366402D01*
X30167133Y4386107D01*
X30154520Y4407151D01*
X30144030Y4429329D01*
X30135765Y4452429D01*
X30129804Y4476227D01*
X30126204Y4500496D01*
X30125000Y4525000D01*
X30125000Y5775000D01*
X30126204Y5799504D01*
X30129804Y5823773D01*
X30135765Y5847571D01*
X30144030Y5870671D01*
X30154520Y5892849D01*
X30167133Y5913893D01*
X30181747Y5933598D01*
X30198223Y5951777D01*
X30216402Y5968253D01*
X30236107Y5982867D01*
X30257151Y5995480D01*
X30279329Y6005970D01*
X30302429Y6014235D01*
X30326227Y6020196D01*
X30350496Y6023796D01*
X30375000Y6025000D01*
X31300000Y6025000D01*
X31324504Y6023796D01*
G37*
G36*
X28349504Y9023796D02*
G01*
X28373773Y9020196D01*
X28397571Y9014235D01*
X28420671Y9005970D01*
X28442849Y8995480D01*
X28463893Y8982867D01*
X28483598Y8968253D01*
X28501777Y8951777D01*
X28518253Y8933598D01*
X28532867Y8913893D01*
X28545480Y8892849D01*
X28555970Y8870671D01*
X28564235Y8847571D01*
X28570196Y8823773D01*
X28573796Y8799504D01*
X28575000Y8775000D01*
X28575000Y7525000D01*
X28573796Y7500496D01*
X28570196Y7476227D01*
X28564235Y7452429D01*
X28555970Y7429329D01*
X28545480Y7407151D01*
X28532867Y7386107D01*
X28518253Y7366402D01*
X28501777Y7348223D01*
X28483598Y7331747D01*
X28463893Y7317133D01*
X28442849Y7304520D01*
X28420671Y7294030D01*
X28397571Y7285765D01*
X28373773Y7279804D01*
X28349504Y7276204D01*
X28325000Y7275000D01*
X27400000Y7275000D01*
X27375496Y7276204D01*
X27351227Y7279804D01*
X27327429Y7285765D01*
X27304329Y7294030D01*
X27282151Y7304520D01*
X27261107Y7317133D01*
X27241402Y7331747D01*
X27223223Y7348223D01*
X27206747Y7366402D01*
X27192133Y7386107D01*
X27179520Y7407151D01*
X27169030Y7429329D01*
X27160765Y7452429D01*
X27154804Y7476227D01*
X27151204Y7500496D01*
X27150000Y7525000D01*
X27150000Y8775000D01*
X27151204Y8799504D01*
X27154804Y8823773D01*
X27160765Y8847571D01*
X27169030Y8870671D01*
X27179520Y8892849D01*
X27192133Y8913893D01*
X27206747Y8933598D01*
X27223223Y8951777D01*
X27241402Y8968253D01*
X27261107Y8982867D01*
X27282151Y8995480D01*
X27304329Y9005970D01*
X27327429Y9014235D01*
X27351227Y9020196D01*
X27375496Y9023796D01*
X27400000Y9025000D01*
X28325000Y9025000D01*
X28349504Y9023796D01*
G37*
G36*
X31324504Y9023796D02*
G01*
X31348773Y9020196D01*
X31372571Y9014235D01*
X31395671Y9005970D01*
X31417849Y8995480D01*
X31438893Y8982867D01*
X31458598Y8968253D01*
X31476777Y8951777D01*
X31493253Y8933598D01*
X31507867Y8913893D01*
X31520480Y8892849D01*
X31530970Y8870671D01*
X31539235Y8847571D01*
X31545196Y8823773D01*
X31548796Y8799504D01*
X31550000Y8775000D01*
X31550000Y7525000D01*
X31548796Y7500496D01*
X31545196Y7476227D01*
X31539235Y7452429D01*
X31530970Y7429329D01*
X31520480Y7407151D01*
X31507867Y7386107D01*
X31493253Y7366402D01*
X31476777Y7348223D01*
X31458598Y7331747D01*
X31438893Y7317133D01*
X31417849Y7304520D01*
X31395671Y7294030D01*
X31372571Y7285765D01*
X31348773Y7279804D01*
X31324504Y7276204D01*
X31300000Y7275000D01*
X30375000Y7275000D01*
X30350496Y7276204D01*
X30326227Y7279804D01*
X30302429Y7285765D01*
X30279329Y7294030D01*
X30257151Y7304520D01*
X30236107Y7317133D01*
X30216402Y7331747D01*
X30198223Y7348223D01*
X30181747Y7366402D01*
X30167133Y7386107D01*
X30154520Y7407151D01*
X30144030Y7429329D01*
X30135765Y7452429D01*
X30129804Y7476227D01*
X30126204Y7500496D01*
X30125000Y7525000D01*
X30125000Y8775000D01*
X30126204Y8799504D01*
X30129804Y8823773D01*
X30135765Y8847571D01*
X30144030Y8870671D01*
X30154520Y8892849D01*
X30167133Y8913893D01*
X30181747Y8933598D01*
X30198223Y8951777D01*
X30216402Y8968253D01*
X30236107Y8982867D01*
X30257151Y8995480D01*
X30279329Y9005970D01*
X30302429Y9014235D01*
X30326227Y9020196D01*
X30350496Y9023796D01*
X30375000Y9025000D01*
X31300000Y9025000D01*
X31324504Y9023796D01*
G37*
G36*
X19049504Y8598796D02*
G01*
X19073773Y8595196D01*
X19097571Y8589235D01*
X19120671Y8580970D01*
X19142849Y8570480D01*
X19163893Y8557867D01*
X19183598Y8543253D01*
X19201777Y8526777D01*
X19218253Y8508598D01*
X19232867Y8488893D01*
X19245480Y8467849D01*
X19255970Y8445671D01*
X19264235Y8422571D01*
X19270196Y8398773D01*
X19273796Y8374504D01*
X19275000Y8350000D01*
X19275000Y7425000D01*
X19273796Y7400496D01*
X19270196Y7376227D01*
X19264235Y7352429D01*
X19255970Y7329329D01*
X19245480Y7307151D01*
X19232867Y7286107D01*
X19218253Y7266402D01*
X19201777Y7248223D01*
X19183598Y7231747D01*
X19163893Y7217133D01*
X19142849Y7204520D01*
X19120671Y7194030D01*
X19097571Y7185765D01*
X19073773Y7179804D01*
X19049504Y7176204D01*
X19025000Y7175000D01*
X17775000Y7175000D01*
X17750496Y7176204D01*
X17726227Y7179804D01*
X17702429Y7185765D01*
X17679329Y7194030D01*
X17657151Y7204520D01*
X17636107Y7217133D01*
X17616402Y7231747D01*
X17598223Y7248223D01*
X17581747Y7266402D01*
X17567133Y7286107D01*
X17554520Y7307151D01*
X17544030Y7329329D01*
X17535765Y7352429D01*
X17529804Y7376227D01*
X17526204Y7400496D01*
X17525000Y7425000D01*
X17525000Y8350000D01*
X17526204Y8374504D01*
X17529804Y8398773D01*
X17535765Y8422571D01*
X17544030Y8445671D01*
X17554520Y8467849D01*
X17567133Y8488893D01*
X17581747Y8508598D01*
X17598223Y8526777D01*
X17616402Y8543253D01*
X17636107Y8557867D01*
X17657151Y8570480D01*
X17679329Y8580970D01*
X17702429Y8589235D01*
X17726227Y8595196D01*
X17750496Y8598796D01*
X17775000Y8600000D01*
X19025000Y8600000D01*
X19049504Y8598796D01*
G37*
G36*
X19049504Y5623796D02*
G01*
X19073773Y5620196D01*
X19097571Y5614235D01*
X19120671Y5605970D01*
X19142849Y5595480D01*
X19163893Y5582867D01*
X19183598Y5568253D01*
X19201777Y5551777D01*
X19218253Y5533598D01*
X19232867Y5513893D01*
X19245480Y5492849D01*
X19255970Y5470671D01*
X19264235Y5447571D01*
X19270196Y5423773D01*
X19273796Y5399504D01*
X19275000Y5375000D01*
X19275000Y4450000D01*
X19273796Y4425496D01*
X19270196Y4401227D01*
X19264235Y4377429D01*
X19255970Y4354329D01*
X19245480Y4332151D01*
X19232867Y4311107D01*
X19218253Y4291402D01*
X19201777Y4273223D01*
X19183598Y4256747D01*
X19163893Y4242133D01*
X19142849Y4229520D01*
X19120671Y4219030D01*
X19097571Y4210765D01*
X19073773Y4204804D01*
X19049504Y4201204D01*
X19025000Y4200000D01*
X17775000Y4200000D01*
X17750496Y4201204D01*
X17726227Y4204804D01*
X17702429Y4210765D01*
X17679329Y4219030D01*
X17657151Y4229520D01*
X17636107Y4242133D01*
X17616402Y4256747D01*
X17598223Y4273223D01*
X17581747Y4291402D01*
X17567133Y4311107D01*
X17554520Y4332151D01*
X17544030Y4354329D01*
X17535765Y4377429D01*
X17529804Y4401227D01*
X17526204Y4425496D01*
X17525000Y4450000D01*
X17525000Y5375000D01*
X17526204Y5399504D01*
X17529804Y5423773D01*
X17535765Y5447571D01*
X17544030Y5470671D01*
X17554520Y5492849D01*
X17567133Y5513893D01*
X17581747Y5533598D01*
X17598223Y5551777D01*
X17616402Y5568253D01*
X17636107Y5582867D01*
X17657151Y5595480D01*
X17679329Y5605970D01*
X17702429Y5614235D01*
X17726227Y5620196D01*
X17750496Y5623796D01*
X17775000Y5625000D01*
X19025000Y5625000D01*
X19049504Y5623796D01*
G37*
G36*
X25320117Y13674289D02*
G01*
X25344490Y13671485D01*
X25368471Y13666305D01*
X25391829Y13658800D01*
X25414338Y13649042D01*
X25435783Y13637125D01*
X25455956Y13623162D01*
X25474664Y13607290D01*
X25491726Y13589660D01*
X25506978Y13570443D01*
X25520272Y13549824D01*
X25982772Y12748750D01*
X25993982Y12726927D01*
X26002999Y12704110D01*
X26009735Y12680519D01*
X26014127Y12656381D01*
X26016132Y12631930D01*
X26015731Y12607399D01*
X26012927Y12583026D01*
X26007747Y12559045D01*
X26000242Y12535687D01*
X25990484Y12513178D01*
X25978567Y12491733D01*
X25964604Y12471560D01*
X25948732Y12452852D01*
X25931102Y12435790D01*
X25911885Y12420538D01*
X25891266Y12407244D01*
X24808734Y11782244D01*
X24786911Y11771034D01*
X24764094Y11762017D01*
X24740503Y11755281D01*
X24716366Y11750889D01*
X24691914Y11748884D01*
X24667383Y11749285D01*
X24643010Y11752089D01*
X24619029Y11757269D01*
X24595671Y11764774D01*
X24573162Y11774532D01*
X24551717Y11786449D01*
X24531544Y11800412D01*
X24512836Y11816284D01*
X24495774Y11833914D01*
X24480522Y11853131D01*
X24467228Y11873750D01*
X24004728Y12674824D01*
X23993518Y12696647D01*
X23984501Y12719464D01*
X23977765Y12743055D01*
X23973373Y12767193D01*
X23971368Y12791644D01*
X23971769Y12816175D01*
X23974573Y12840548D01*
X23979753Y12864529D01*
X23987258Y12887887D01*
X23997016Y12910396D01*
X24008933Y12931841D01*
X24022896Y12952014D01*
X24038768Y12970722D01*
X24056398Y12987784D01*
X24075615Y13003036D01*
X24096234Y13016330D01*
X25178766Y13641330D01*
X25200589Y13652540D01*
X25223406Y13661557D01*
X25246997Y13668293D01*
X25271134Y13672685D01*
X25295586Y13674690D01*
X25320117Y13674289D01*
G37*
G36*
X23832617Y16250715D02*
G01*
X23856990Y16247911D01*
X23880971Y16242731D01*
X23904329Y16235226D01*
X23926838Y16225468D01*
X23948283Y16213551D01*
X23968456Y16199588D01*
X23987164Y16183716D01*
X24004226Y16166086D01*
X24019478Y16146869D01*
X24032772Y16126250D01*
X24495272Y15325176D01*
X24506482Y15303353D01*
X24515499Y15280536D01*
X24522235Y15256945D01*
X24526627Y15232807D01*
X24528632Y15208356D01*
X24528231Y15183825D01*
X24525427Y15159452D01*
X24520247Y15135471D01*
X24512742Y15112113D01*
X24502984Y15089604D01*
X24491067Y15068159D01*
X24477104Y15047986D01*
X24461232Y15029278D01*
X24443602Y15012216D01*
X24424385Y14996964D01*
X24403766Y14983670D01*
X23321234Y14358670D01*
X23299411Y14347460D01*
X23276594Y14338443D01*
X23253003Y14331707D01*
X23228866Y14327315D01*
X23204414Y14325310D01*
X23179883Y14325711D01*
X23155510Y14328515D01*
X23131529Y14333695D01*
X23108171Y14341200D01*
X23085662Y14350958D01*
X23064217Y14362875D01*
X23044044Y14376838D01*
X23025336Y14392710D01*
X23008274Y14410340D01*
X22993022Y14429557D01*
X22979728Y14450176D01*
X22517228Y15251250D01*
X22506018Y15273073D01*
X22497001Y15295890D01*
X22490265Y15319481D01*
X22485873Y15343619D01*
X22483868Y15368070D01*
X22484269Y15392601D01*
X22487073Y15416974D01*
X22492253Y15440955D01*
X22499758Y15464313D01*
X22509516Y15486822D01*
X22521433Y15508267D01*
X22535396Y15528440D01*
X22551268Y15547148D01*
X22568898Y15564210D01*
X22588115Y15579462D01*
X22608734Y15592756D01*
X23691266Y16217756D01*
X23713089Y16228966D01*
X23735906Y16237983D01*
X23759497Y16244719D01*
X23783634Y16249111D01*
X23808086Y16251116D01*
X23832617Y16250715D01*
G37*
G36*
X15232808Y24526627D02*
G01*
X15256945Y24522235D01*
X15280536Y24515499D01*
X15303353Y24506482D01*
X15325176Y24495272D01*
X16126250Y24032772D01*
X16146869Y24019478D01*
X16166086Y24004226D01*
X16183716Y23987164D01*
X16199588Y23968456D01*
X16213551Y23948283D01*
X16225468Y23926838D01*
X16235226Y23904329D01*
X16242731Y23880971D01*
X16247911Y23856990D01*
X16250715Y23832617D01*
X16251116Y23808086D01*
X16249111Y23783635D01*
X16244719Y23759497D01*
X16237983Y23735906D01*
X16228966Y23713089D01*
X16217756Y23691266D01*
X15592756Y22608734D01*
X15579462Y22588115D01*
X15564210Y22568898D01*
X15547148Y22551268D01*
X15528440Y22535396D01*
X15508267Y22521433D01*
X15486822Y22509516D01*
X15464313Y22499758D01*
X15440955Y22492253D01*
X15416974Y22487073D01*
X15392601Y22484269D01*
X15368070Y22483868D01*
X15343618Y22485873D01*
X15319481Y22490265D01*
X15295890Y22497001D01*
X15273073Y22506018D01*
X15251250Y22517228D01*
X14450176Y22979728D01*
X14429557Y22993022D01*
X14410340Y23008274D01*
X14392710Y23025336D01*
X14376838Y23044044D01*
X14362875Y23064217D01*
X14350958Y23085662D01*
X14341200Y23108171D01*
X14333695Y23131529D01*
X14328515Y23155510D01*
X14325711Y23179883D01*
X14325310Y23204414D01*
X14327315Y23228865D01*
X14331707Y23253003D01*
X14338443Y23276594D01*
X14347460Y23299411D01*
X14358670Y23321234D01*
X14983670Y24403766D01*
X14996964Y24424385D01*
X15012216Y24443602D01*
X15029278Y24461232D01*
X15047986Y24477104D01*
X15068159Y24491067D01*
X15089604Y24502984D01*
X15112113Y24512742D01*
X15135471Y24520247D01*
X15159452Y24525427D01*
X15183825Y24528231D01*
X15208356Y24528632D01*
X15232808Y24526627D01*
G37*
G36*
X12656382Y26014127D02*
G01*
X12680519Y26009735D01*
X12704110Y26002999D01*
X12726927Y25993982D01*
X12748750Y25982772D01*
X13549824Y25520272D01*
X13570443Y25506978D01*
X13589660Y25491726D01*
X13607290Y25474664D01*
X13623162Y25455956D01*
X13637125Y25435783D01*
X13649042Y25414338D01*
X13658800Y25391829D01*
X13666305Y25368471D01*
X13671485Y25344490D01*
X13674289Y25320117D01*
X13674690Y25295586D01*
X13672685Y25271135D01*
X13668293Y25246997D01*
X13661557Y25223406D01*
X13652540Y25200589D01*
X13641330Y25178766D01*
X13016330Y24096234D01*
X13003036Y24075615D01*
X12987784Y24056398D01*
X12970722Y24038768D01*
X12952014Y24022896D01*
X12931841Y24008933D01*
X12910396Y23997016D01*
X12887887Y23987258D01*
X12864529Y23979753D01*
X12840548Y23974573D01*
X12816175Y23971769D01*
X12791644Y23971368D01*
X12767192Y23973373D01*
X12743055Y23977765D01*
X12719464Y23984501D01*
X12696647Y23993518D01*
X12674824Y24004728D01*
X11873750Y24467228D01*
X11853131Y24480522D01*
X11833914Y24495774D01*
X11816284Y24512836D01*
X11800412Y24531544D01*
X11786449Y24551717D01*
X11774532Y24573162D01*
X11764774Y24595671D01*
X11757269Y24619029D01*
X11752089Y24643010D01*
X11749285Y24667383D01*
X11748884Y24691914D01*
X11750889Y24716365D01*
X11755281Y24740503D01*
X11762017Y24764094D01*
X11771034Y24786911D01*
X11782244Y24808734D01*
X12407244Y25891266D01*
X12420538Y25911885D01*
X12435790Y25931102D01*
X12452852Y25948732D01*
X12471560Y25964604D01*
X12491733Y25978567D01*
X12513178Y25990484D01*
X12535687Y26000242D01*
X12559045Y26007747D01*
X12583026Y26012927D01*
X12607399Y26015731D01*
X12631930Y26016132D01*
X12656382Y26014127D01*
G37*
G36*
X1924503Y28873796D02*
G01*
X1948772Y28870196D01*
X1972570Y28864235D01*
X1995670Y28855970D01*
X2017848Y28845480D01*
X2038892Y28832867D01*
X2058597Y28818253D01*
X2076776Y28801777D01*
X2093252Y28783598D01*
X2107866Y28763893D01*
X2120479Y28742849D01*
X2130969Y28720671D01*
X2139234Y28697571D01*
X2145195Y28673773D01*
X2148795Y28649504D01*
X2149999Y28625000D01*
X2149999Y27375000D01*
X2148795Y27350496D01*
X2145195Y27326227D01*
X2139234Y27302429D01*
X2130969Y27279329D01*
X2120479Y27257151D01*
X2107866Y27236107D01*
X2093252Y27216402D01*
X2076776Y27198223D01*
X2058597Y27181747D01*
X2038892Y27167133D01*
X2017848Y27154520D01*
X1995670Y27144030D01*
X1972570Y27135765D01*
X1948772Y27129804D01*
X1924503Y27126204D01*
X1899999Y27125000D01*
X974999Y27125000D01*
X950495Y27126204D01*
X926226Y27129804D01*
X902428Y27135765D01*
X879328Y27144030D01*
X857150Y27154520D01*
X836106Y27167133D01*
X816401Y27181747D01*
X798222Y27198223D01*
X781746Y27216402D01*
X767132Y27236107D01*
X754519Y27257151D01*
X744029Y27279329D01*
X735764Y27302429D01*
X729803Y27326227D01*
X726203Y27350496D01*
X724999Y27375000D01*
X724999Y28625000D01*
X726203Y28649504D01*
X729803Y28673773D01*
X735764Y28697571D01*
X744029Y28720671D01*
X754519Y28742849D01*
X767132Y28763893D01*
X781746Y28783598D01*
X798222Y28801777D01*
X816401Y28818253D01*
X836106Y28832867D01*
X857150Y28845480D01*
X879328Y28855970D01*
X902428Y28864235D01*
X926226Y28870196D01*
X950495Y28873796D01*
X974999Y28875000D01*
X1899999Y28875000D01*
X1924503Y28873796D01*
G37*
G36*
X-1050497Y28873796D02*
G01*
X-1026228Y28870196D01*
X-1002430Y28864235D01*
X-979330Y28855970D01*
X-957152Y28845480D01*
X-936108Y28832867D01*
X-916403Y28818253D01*
X-898224Y28801777D01*
X-881748Y28783598D01*
X-867134Y28763893D01*
X-854521Y28742849D01*
X-844031Y28720671D01*
X-835766Y28697571D01*
X-829805Y28673773D01*
X-826205Y28649504D01*
X-825001Y28625000D01*
X-825001Y27375000D01*
X-826205Y27350496D01*
X-829805Y27326227D01*
X-835766Y27302429D01*
X-844031Y27279329D01*
X-854521Y27257151D01*
X-867134Y27236107D01*
X-881748Y27216402D01*
X-898224Y27198223D01*
X-916403Y27181747D01*
X-936108Y27167133D01*
X-957152Y27154520D01*
X-979330Y27144030D01*
X-1002430Y27135765D01*
X-1026228Y27129804D01*
X-1050497Y27126204D01*
X-1075001Y27125000D01*
X-2000001Y27125000D01*
X-2024505Y27126204D01*
X-2048774Y27129804D01*
X-2072572Y27135765D01*
X-2095672Y27144030D01*
X-2117850Y27154520D01*
X-2138894Y27167133D01*
X-2158599Y27181747D01*
X-2176778Y27198223D01*
X-2193254Y27216402D01*
X-2207868Y27236107D01*
X-2220481Y27257151D01*
X-2230971Y27279329D01*
X-2239236Y27302429D01*
X-2245197Y27326227D01*
X-2248797Y27350496D01*
X-2250001Y27375000D01*
X-2250001Y28625000D01*
X-2248797Y28649504D01*
X-2245197Y28673773D01*
X-2239236Y28697571D01*
X-2230971Y28720671D01*
X-2220481Y28742849D01*
X-2207868Y28763893D01*
X-2193254Y28783598D01*
X-2176778Y28801777D01*
X-2158599Y28818253D01*
X-2138894Y28832867D01*
X-2117850Y28845480D01*
X-2095672Y28855970D01*
X-2072572Y28864235D01*
X-2048774Y28870196D01*
X-2024505Y28873796D01*
X-2000001Y28875000D01*
X-1075001Y28875000D01*
X-1050497Y28873796D01*
G37*
G36*
X-12607399Y26015731D02*
G01*
X-12583026Y26012927D01*
X-12559045Y26007747D01*
X-12535687Y26000242D01*
X-12513178Y25990484D01*
X-12491733Y25978567D01*
X-12471560Y25964604D01*
X-12452852Y25948732D01*
X-12435790Y25931102D01*
X-12420538Y25911885D01*
X-12407244Y25891266D01*
X-11782244Y24808734D01*
X-11771034Y24786911D01*
X-11762017Y24764094D01*
X-11755281Y24740503D01*
X-11750889Y24716366D01*
X-11748884Y24691914D01*
X-11749285Y24667383D01*
X-11752089Y24643010D01*
X-11757269Y24619029D01*
X-11764774Y24595671D01*
X-11774532Y24573162D01*
X-11786449Y24551717D01*
X-11800412Y24531544D01*
X-11816284Y24512836D01*
X-11833914Y24495774D01*
X-11853131Y24480522D01*
X-11873750Y24467228D01*
X-12674824Y24004728D01*
X-12696647Y23993518D01*
X-12719464Y23984501D01*
X-12743055Y23977765D01*
X-12767193Y23973373D01*
X-12791644Y23971368D01*
X-12816175Y23971769D01*
X-12840548Y23974573D01*
X-12864529Y23979753D01*
X-12887887Y23987258D01*
X-12910396Y23997016D01*
X-12931841Y24008933D01*
X-12952014Y24022896D01*
X-12970722Y24038768D01*
X-12987784Y24056398D01*
X-13003036Y24075615D01*
X-13016330Y24096234D01*
X-13641330Y25178766D01*
X-13652540Y25200589D01*
X-13661557Y25223406D01*
X-13668293Y25246997D01*
X-13672685Y25271134D01*
X-13674690Y25295586D01*
X-13674289Y25320117D01*
X-13671485Y25344490D01*
X-13666305Y25368471D01*
X-13658800Y25391829D01*
X-13649042Y25414338D01*
X-13637125Y25435783D01*
X-13623162Y25455956D01*
X-13607290Y25474664D01*
X-13589660Y25491726D01*
X-13570443Y25506978D01*
X-13549824Y25520272D01*
X-12748750Y25982772D01*
X-12726927Y25993982D01*
X-12704110Y26002999D01*
X-12680519Y26009735D01*
X-12656381Y26014127D01*
X-12631930Y26016132D01*
X-12607399Y26015731D01*
G37*
G36*
X-15183825Y24528231D02*
G01*
X-15159452Y24525427D01*
X-15135471Y24520247D01*
X-15112113Y24512742D01*
X-15089604Y24502984D01*
X-15068159Y24491067D01*
X-15047986Y24477104D01*
X-15029278Y24461232D01*
X-15012216Y24443602D01*
X-14996964Y24424385D01*
X-14983670Y24403766D01*
X-14358670Y23321234D01*
X-14347460Y23299411D01*
X-14338443Y23276594D01*
X-14331707Y23253003D01*
X-14327315Y23228866D01*
X-14325310Y23204414D01*
X-14325711Y23179883D01*
X-14328515Y23155510D01*
X-14333695Y23131529D01*
X-14341200Y23108171D01*
X-14350958Y23085662D01*
X-14362875Y23064217D01*
X-14376838Y23044044D01*
X-14392710Y23025336D01*
X-14410340Y23008274D01*
X-14429557Y22993022D01*
X-14450176Y22979728D01*
X-15251250Y22517228D01*
X-15273073Y22506018D01*
X-15295890Y22497001D01*
X-15319481Y22490265D01*
X-15343619Y22485873D01*
X-15368070Y22483868D01*
X-15392601Y22484269D01*
X-15416974Y22487073D01*
X-15440955Y22492253D01*
X-15464313Y22499758D01*
X-15486822Y22509516D01*
X-15508267Y22521433D01*
X-15528440Y22535396D01*
X-15547148Y22551268D01*
X-15564210Y22568898D01*
X-15579462Y22588115D01*
X-15592756Y22608734D01*
X-16217756Y23691266D01*
X-16228966Y23713089D01*
X-16237983Y23735906D01*
X-16244719Y23759497D01*
X-16249111Y23783634D01*
X-16251116Y23808086D01*
X-16250715Y23832617D01*
X-16247911Y23856990D01*
X-16242731Y23880971D01*
X-16235226Y23904329D01*
X-16225468Y23926838D01*
X-16213551Y23948283D01*
X-16199588Y23968456D01*
X-16183716Y23987164D01*
X-16166086Y24004226D01*
X-16146869Y24019478D01*
X-16126250Y24032772D01*
X-15325176Y24495272D01*
X-15303353Y24506482D01*
X-15280536Y24515499D01*
X-15256945Y24522235D01*
X-15232807Y24526627D01*
X-15208356Y24528632D01*
X-15183825Y24528231D01*
G37*
G36*
X-23783635Y16249111D02*
G01*
X-23759497Y16244719D01*
X-23735906Y16237983D01*
X-23713089Y16228966D01*
X-23691266Y16217756D01*
X-22608734Y15592756D01*
X-22588115Y15579462D01*
X-22568898Y15564210D01*
X-22551268Y15547148D01*
X-22535396Y15528440D01*
X-22521433Y15508267D01*
X-22509516Y15486822D01*
X-22499758Y15464313D01*
X-22492253Y15440955D01*
X-22487073Y15416974D01*
X-22484269Y15392601D01*
X-22483868Y15368070D01*
X-22485873Y15343618D01*
X-22490265Y15319481D01*
X-22497001Y15295890D01*
X-22506018Y15273073D01*
X-22517228Y15251250D01*
X-22979728Y14450176D01*
X-22993022Y14429557D01*
X-23008274Y14410340D01*
X-23025336Y14392710D01*
X-23044044Y14376838D01*
X-23064217Y14362875D01*
X-23085662Y14350958D01*
X-23108171Y14341200D01*
X-23131529Y14333695D01*
X-23155510Y14328515D01*
X-23179883Y14325711D01*
X-23204414Y14325310D01*
X-23228865Y14327315D01*
X-23253003Y14331707D01*
X-23276594Y14338443D01*
X-23299411Y14347460D01*
X-23321234Y14358670D01*
X-24403766Y14983670D01*
X-24424385Y14996964D01*
X-24443602Y15012216D01*
X-24461232Y15029278D01*
X-24477104Y15047986D01*
X-24491067Y15068159D01*
X-24502984Y15089604D01*
X-24512742Y15112113D01*
X-24520247Y15135471D01*
X-24525427Y15159452D01*
X-24528231Y15183825D01*
X-24528632Y15208356D01*
X-24526627Y15232808D01*
X-24522235Y15256945D01*
X-24515499Y15280536D01*
X-24506482Y15303353D01*
X-24495272Y15325176D01*
X-24032772Y16126250D01*
X-24019478Y16146869D01*
X-24004226Y16166086D01*
X-23987164Y16183716D01*
X-23968456Y16199588D01*
X-23948283Y16213551D01*
X-23926838Y16225468D01*
X-23904329Y16235226D01*
X-23880971Y16242731D01*
X-23856990Y16247911D01*
X-23832617Y16250715D01*
X-23808086Y16251116D01*
X-23783635Y16249111D01*
G37*
G36*
X-25271135Y13672685D02*
G01*
X-25246997Y13668293D01*
X-25223406Y13661557D01*
X-25200589Y13652540D01*
X-25178766Y13641330D01*
X-24096234Y13016330D01*
X-24075615Y13003036D01*
X-24056398Y12987784D01*
X-24038768Y12970722D01*
X-24022896Y12952014D01*
X-24008933Y12931841D01*
X-23997016Y12910396D01*
X-23987258Y12887887D01*
X-23979753Y12864529D01*
X-23974573Y12840548D01*
X-23971769Y12816175D01*
X-23971368Y12791644D01*
X-23973373Y12767192D01*
X-23977765Y12743055D01*
X-23984501Y12719464D01*
X-23993518Y12696647D01*
X-24004728Y12674824D01*
X-24467228Y11873750D01*
X-24480522Y11853131D01*
X-24495774Y11833914D01*
X-24512836Y11816284D01*
X-24531544Y11800412D01*
X-24551717Y11786449D01*
X-24573162Y11774532D01*
X-24595671Y11764774D01*
X-24619029Y11757269D01*
X-24643010Y11752089D01*
X-24667383Y11749285D01*
X-24691914Y11748884D01*
X-24716365Y11750889D01*
X-24740503Y11755281D01*
X-24764094Y11762017D01*
X-24786911Y11771034D01*
X-24808734Y11782244D01*
X-25891266Y12407244D01*
X-25911885Y12420538D01*
X-25931102Y12435790D01*
X-25948732Y12452852D01*
X-25964604Y12471560D01*
X-25978567Y12491733D01*
X-25990484Y12513178D01*
X-26000242Y12535687D01*
X-26007747Y12559045D01*
X-26012927Y12583026D01*
X-26015731Y12607399D01*
X-26016132Y12631930D01*
X-26014127Y12656382D01*
X-26009735Y12680519D01*
X-26002999Y12704110D01*
X-25993982Y12726927D01*
X-25982772Y12748750D01*
X-25520272Y13549824D01*
X-25506978Y13570443D01*
X-25491726Y13589660D01*
X-25474664Y13607290D01*
X-25455956Y13623162D01*
X-25435783Y13637125D01*
X-25414338Y13649042D01*
X-25391829Y13658800D01*
X-25368471Y13666305D01*
X-25344490Y13671485D01*
X-25320117Y13674289D01*
X-25295586Y13674690D01*
X-25271135Y13672685D01*
G37*
G36*
X-27350496Y2248796D02*
G01*
X-27326227Y2245196D01*
X-27302429Y2239235D01*
X-27279329Y2230970D01*
X-27257151Y2220480D01*
X-27236107Y2207867D01*
X-27216402Y2193253D01*
X-27198223Y2176777D01*
X-27181747Y2158598D01*
X-27167133Y2138893D01*
X-27154520Y2117849D01*
X-27144030Y2095671D01*
X-27135765Y2072571D01*
X-27129804Y2048773D01*
X-27126204Y2024504D01*
X-27125000Y2000000D01*
X-27125000Y1075000D01*
X-27126204Y1050496D01*
X-27129804Y1026227D01*
X-27135765Y1002429D01*
X-27144030Y979329D01*
X-27154520Y957151D01*
X-27167133Y936107D01*
X-27181747Y916402D01*
X-27198223Y898223D01*
X-27216402Y881747D01*
X-27236107Y867133D01*
X-27257151Y854520D01*
X-27279329Y844030D01*
X-27302429Y835765D01*
X-27326227Y829804D01*
X-27350496Y826204D01*
X-27375000Y825000D01*
X-28625000Y825000D01*
X-28649504Y826204D01*
X-28673773Y829804D01*
X-28697571Y835765D01*
X-28720671Y844030D01*
X-28742849Y854520D01*
X-28763893Y867133D01*
X-28783598Y881747D01*
X-28801777Y898223D01*
X-28818253Y916402D01*
X-28832867Y936107D01*
X-28845480Y957151D01*
X-28855970Y979329D01*
X-28864235Y1002429D01*
X-28870196Y1026227D01*
X-28873796Y1050496D01*
X-28875000Y1075000D01*
X-28875000Y2000000D01*
X-28873796Y2024504D01*
X-28870196Y2048773D01*
X-28864235Y2072571D01*
X-28855970Y2095671D01*
X-28845480Y2117849D01*
X-28832867Y2138893D01*
X-28818253Y2158598D01*
X-28801777Y2176777D01*
X-28783598Y2193253D01*
X-28763893Y2207867D01*
X-28742849Y2220480D01*
X-28720671Y2230970D01*
X-28697571Y2239235D01*
X-28673773Y2245196D01*
X-28649504Y2248796D01*
X-28625000Y2250000D01*
X-27375000Y2250000D01*
X-27350496Y2248796D01*
G37*
G36*
X-27350496Y-726204D02*
G01*
X-27326227Y-729804D01*
X-27302429Y-735765D01*
X-27279329Y-744030D01*
X-27257151Y-754520D01*
X-27236107Y-767133D01*
X-27216402Y-781747D01*
X-27198223Y-798223D01*
X-27181747Y-816402D01*
X-27167133Y-836107D01*
X-27154520Y-857151D01*
X-27144030Y-879329D01*
X-27135765Y-902429D01*
X-27129804Y-926227D01*
X-27126204Y-950496D01*
X-27125000Y-975000D01*
X-27125000Y-1900000D01*
X-27126204Y-1924504D01*
X-27129804Y-1948773D01*
X-27135765Y-1972571D01*
X-27144030Y-1995671D01*
X-27154520Y-2017849D01*
X-27167133Y-2038893D01*
X-27181747Y-2058598D01*
X-27198223Y-2076777D01*
X-27216402Y-2093253D01*
X-27236107Y-2107867D01*
X-27257151Y-2120480D01*
X-27279329Y-2130970D01*
X-27302429Y-2139235D01*
X-27326227Y-2145196D01*
X-27350496Y-2148796D01*
X-27375000Y-2150000D01*
X-28625000Y-2150000D01*
X-28649504Y-2148796D01*
X-28673773Y-2145196D01*
X-28697571Y-2139235D01*
X-28720671Y-2130970D01*
X-28742849Y-2120480D01*
X-28763893Y-2107867D01*
X-28783598Y-2093253D01*
X-28801777Y-2076777D01*
X-28818253Y-2058598D01*
X-28832867Y-2038893D01*
X-28845480Y-2017849D01*
X-28855970Y-1995671D01*
X-28864235Y-1972571D01*
X-28870196Y-1948773D01*
X-28873796Y-1924504D01*
X-28875000Y-1900000D01*
X-28875000Y-975000D01*
X-28873796Y-950496D01*
X-28870196Y-926227D01*
X-28864235Y-902429D01*
X-28855970Y-879329D01*
X-28845480Y-857151D01*
X-28832867Y-836107D01*
X-28818253Y-816402D01*
X-28801777Y-798223D01*
X-28783598Y-781747D01*
X-28763893Y-767133D01*
X-28742849Y-754520D01*
X-28720671Y-744030D01*
X-28697571Y-735765D01*
X-28673773Y-729804D01*
X-28649504Y-726204D01*
X-28625000Y-725000D01*
X-27375000Y-725000D01*
X-27350496Y-726204D01*
G37*
G36*
X-24667383Y-11986784D02*
G01*
X-24643010Y-11989588D01*
X-24619029Y-11994768D01*
X-24595671Y-12002273D01*
X-24573162Y-12012031D01*
X-24551717Y-12023948D01*
X-24531544Y-12037911D01*
X-24512836Y-12053783D01*
X-24495774Y-12071413D01*
X-24480522Y-12090630D01*
X-24467228Y-12111249D01*
X-24004728Y-12912323D01*
X-23993518Y-12934146D01*
X-23984501Y-12956963D01*
X-23977765Y-12980554D01*
X-23973373Y-13004692D01*
X-23971368Y-13029143D01*
X-23971769Y-13053674D01*
X-23974573Y-13078047D01*
X-23979753Y-13102028D01*
X-23987258Y-13125386D01*
X-23997016Y-13147895D01*
X-24008933Y-13169340D01*
X-24022896Y-13189513D01*
X-24038768Y-13208221D01*
X-24056398Y-13225283D01*
X-24075615Y-13240535D01*
X-24096234Y-13253829D01*
X-25178766Y-13878829D01*
X-25200589Y-13890039D01*
X-25223406Y-13899056D01*
X-25246997Y-13905792D01*
X-25271134Y-13910184D01*
X-25295586Y-13912189D01*
X-25320117Y-13911788D01*
X-25344490Y-13908984D01*
X-25368471Y-13903804D01*
X-25391829Y-13896299D01*
X-25414338Y-13886541D01*
X-25435783Y-13874624D01*
X-25455956Y-13860661D01*
X-25474664Y-13844789D01*
X-25491726Y-13827159D01*
X-25506978Y-13807942D01*
X-25520272Y-13787323D01*
X-25982772Y-12986249D01*
X-25993982Y-12964426D01*
X-26002999Y-12941609D01*
X-26009735Y-12918018D01*
X-26014127Y-12893880D01*
X-26016132Y-12869429D01*
X-26015731Y-12844898D01*
X-26012927Y-12820525D01*
X-26007747Y-12796544D01*
X-26000242Y-12773186D01*
X-25990484Y-12750677D01*
X-25978567Y-12729232D01*
X-25964604Y-12709059D01*
X-25948732Y-12690351D01*
X-25931102Y-12673289D01*
X-25911885Y-12658037D01*
X-25891266Y-12644743D01*
X-24808734Y-12019743D01*
X-24786911Y-12008533D01*
X-24764094Y-11999516D01*
X-24740503Y-11992780D01*
X-24716366Y-11988388D01*
X-24691914Y-11986383D01*
X-24667383Y-11986784D01*
G37*
G36*
X-23179883Y-14563210D02*
G01*
X-23155510Y-14566014D01*
X-23131529Y-14571194D01*
X-23108171Y-14578699D01*
X-23085662Y-14588457D01*
X-23064217Y-14600374D01*
X-23044044Y-14614337D01*
X-23025336Y-14630209D01*
X-23008274Y-14647839D01*
X-22993022Y-14667056D01*
X-22979728Y-14687675D01*
X-22517228Y-15488749D01*
X-22506018Y-15510572D01*
X-22497001Y-15533389D01*
X-22490265Y-15556980D01*
X-22485873Y-15581118D01*
X-22483868Y-15605569D01*
X-22484269Y-15630100D01*
X-22487073Y-15654473D01*
X-22492253Y-15678454D01*
X-22499758Y-15701812D01*
X-22509516Y-15724321D01*
X-22521433Y-15745766D01*
X-22535396Y-15765939D01*
X-22551268Y-15784647D01*
X-22568898Y-15801709D01*
X-22588115Y-15816961D01*
X-22608734Y-15830255D01*
X-23691266Y-16455255D01*
X-23713089Y-16466465D01*
X-23735906Y-16475482D01*
X-23759497Y-16482218D01*
X-23783634Y-16486610D01*
X-23808086Y-16488615D01*
X-23832617Y-16488214D01*
X-23856990Y-16485410D01*
X-23880971Y-16480230D01*
X-23904329Y-16472725D01*
X-23926838Y-16462967D01*
X-23948283Y-16451050D01*
X-23968456Y-16437087D01*
X-23987164Y-16421215D01*
X-24004226Y-16403585D01*
X-24019478Y-16384368D01*
X-24032772Y-16363749D01*
X-24495272Y-15562675D01*
X-24506482Y-15540852D01*
X-24515499Y-15518035D01*
X-24522235Y-15494444D01*
X-24526627Y-15470306D01*
X-24528632Y-15445855D01*
X-24528231Y-15421324D01*
X-24525427Y-15396951D01*
X-24520247Y-15372970D01*
X-24512742Y-15349612D01*
X-24502984Y-15327103D01*
X-24491067Y-15305658D01*
X-24477104Y-15285485D01*
X-24461232Y-15266777D01*
X-24443602Y-15249715D01*
X-24424385Y-15234463D01*
X-24403766Y-15221169D01*
X-23321234Y-14596169D01*
X-23299411Y-14584959D01*
X-23276594Y-14575942D01*
X-23253003Y-14569206D01*
X-23228866Y-14564814D01*
X-23204414Y-14562809D01*
X-23179883Y-14563210D01*
G37*
G36*
X-15593618Y-22735873D02*
G01*
X-15569481Y-22740265D01*
X-15545890Y-22747001D01*
X-15523073Y-22756018D01*
X-15501250Y-22767228D01*
X-14700176Y-23229728D01*
X-14679557Y-23243022D01*
X-14660340Y-23258274D01*
X-14642710Y-23275336D01*
X-14626838Y-23294044D01*
X-14612875Y-23314217D01*
X-14600958Y-23335662D01*
X-14591200Y-23358171D01*
X-14583695Y-23381529D01*
X-14578515Y-23405510D01*
X-14575711Y-23429883D01*
X-14575310Y-23454414D01*
X-14577315Y-23478865D01*
X-14581707Y-23503003D01*
X-14588443Y-23526594D01*
X-14597460Y-23549411D01*
X-14608670Y-23571234D01*
X-15233670Y-24653766D01*
X-15246964Y-24674385D01*
X-15262216Y-24693602D01*
X-15279278Y-24711232D01*
X-15297986Y-24727104D01*
X-15318159Y-24741067D01*
X-15339604Y-24752984D01*
X-15362113Y-24762742D01*
X-15385471Y-24770247D01*
X-15409452Y-24775427D01*
X-15433825Y-24778231D01*
X-15458356Y-24778632D01*
X-15482808Y-24776627D01*
X-15506945Y-24772235D01*
X-15530536Y-24765499D01*
X-15553353Y-24756482D01*
X-15575176Y-24745272D01*
X-16376250Y-24282772D01*
X-16396869Y-24269478D01*
X-16416086Y-24254226D01*
X-16433716Y-24237164D01*
X-16449588Y-24218456D01*
X-16463551Y-24198283D01*
X-16475468Y-24176838D01*
X-16485226Y-24154329D01*
X-16492731Y-24130971D01*
X-16497911Y-24106990D01*
X-16500715Y-24082617D01*
X-16501116Y-24058086D01*
X-16499111Y-24033635D01*
X-16494719Y-24009497D01*
X-16487983Y-23985906D01*
X-16478966Y-23963089D01*
X-16467756Y-23941266D01*
X-15842756Y-22858734D01*
X-15829462Y-22838115D01*
X-15814210Y-22818898D01*
X-15797148Y-22801268D01*
X-15778440Y-22785396D01*
X-15758267Y-22771433D01*
X-15736822Y-22759516D01*
X-15714313Y-22749758D01*
X-15690955Y-22742253D01*
X-15666974Y-22737073D01*
X-15642601Y-22734269D01*
X-15618070Y-22733868D01*
X-15593618Y-22735873D01*
G37*
G36*
X-13017192Y-24223373D02*
G01*
X-12993055Y-24227765D01*
X-12969464Y-24234501D01*
X-12946647Y-24243518D01*
X-12924824Y-24254728D01*
X-12123750Y-24717228D01*
X-12103131Y-24730522D01*
X-12083914Y-24745774D01*
X-12066284Y-24762836D01*
X-12050412Y-24781544D01*
X-12036449Y-24801717D01*
X-12024532Y-24823162D01*
X-12014774Y-24845671D01*
X-12007269Y-24869029D01*
X-12002089Y-24893010D01*
X-11999285Y-24917383D01*
X-11998884Y-24941914D01*
X-12000889Y-24966365D01*
X-12005281Y-24990503D01*
X-12012017Y-25014094D01*
X-12021034Y-25036911D01*
X-12032244Y-25058734D01*
X-12657244Y-26141266D01*
X-12670538Y-26161885D01*
X-12685790Y-26181102D01*
X-12702852Y-26198732D01*
X-12721560Y-26214604D01*
X-12741733Y-26228567D01*
X-12763178Y-26240484D01*
X-12785687Y-26250242D01*
X-12809045Y-26257747D01*
X-12833026Y-26262927D01*
X-12857399Y-26265731D01*
X-12881930Y-26266132D01*
X-12906382Y-26264127D01*
X-12930519Y-26259735D01*
X-12954110Y-26252999D01*
X-12976927Y-26243982D01*
X-12998750Y-26232772D01*
X-13799824Y-25770272D01*
X-13820443Y-25756978D01*
X-13839660Y-25741726D01*
X-13857290Y-25724664D01*
X-13873162Y-25705956D01*
X-13887125Y-25685783D01*
X-13899042Y-25664338D01*
X-13908800Y-25641829D01*
X-13916305Y-25618471D01*
X-13921485Y-25594490D01*
X-13924289Y-25570117D01*
X-13924690Y-25545586D01*
X-13922685Y-25521135D01*
X-13918293Y-25496997D01*
X-13911557Y-25473406D01*
X-13902540Y-25450589D01*
X-13891330Y-25428766D01*
X-13266330Y-24346234D01*
X-13253036Y-24325615D01*
X-13237784Y-24306398D01*
X-13220722Y-24288768D01*
X-13202014Y-24272896D01*
X-13181841Y-24258933D01*
X-13160396Y-24247016D01*
X-13137887Y-24237258D01*
X-13114529Y-24229753D01*
X-13090548Y-24224573D01*
X-13066175Y-24221769D01*
X-13041644Y-24221368D01*
X-13017192Y-24223373D01*
G37*
G36*
X-900496Y-27326204D02*
G01*
X-876227Y-27329804D01*
X-852429Y-27335765D01*
X-829329Y-27344030D01*
X-807151Y-27354520D01*
X-786107Y-27367133D01*
X-766402Y-27381747D01*
X-748223Y-27398223D01*
X-731747Y-27416402D01*
X-717133Y-27436107D01*
X-704520Y-27457151D01*
X-694030Y-27479329D01*
X-685765Y-27502429D01*
X-679804Y-27526227D01*
X-676204Y-27550496D01*
X-675000Y-27575000D01*
X-675000Y-28825000D01*
X-676204Y-28849504D01*
X-679804Y-28873773D01*
X-685765Y-28897571D01*
X-694030Y-28920671D01*
X-704520Y-28942849D01*
X-717133Y-28963893D01*
X-731747Y-28983598D01*
X-748223Y-29001777D01*
X-766402Y-29018253D01*
X-786107Y-29032867D01*
X-807151Y-29045480D01*
X-829329Y-29055970D01*
X-852429Y-29064235D01*
X-876227Y-29070196D01*
X-900496Y-29073796D01*
X-925000Y-29075000D01*
X-1850000Y-29075000D01*
X-1874504Y-29073796D01*
X-1898773Y-29070196D01*
X-1922571Y-29064235D01*
X-1945671Y-29055970D01*
X-1967849Y-29045480D01*
X-1988893Y-29032867D01*
X-2008598Y-29018253D01*
X-2026777Y-29001777D01*
X-2043253Y-28983598D01*
X-2057867Y-28963893D01*
X-2070480Y-28942849D01*
X-2080970Y-28920671D01*
X-2089235Y-28897571D01*
X-2095196Y-28873773D01*
X-2098796Y-28849504D01*
X-2100000Y-28825000D01*
X-2100000Y-27575000D01*
X-2098796Y-27550496D01*
X-2095196Y-27526227D01*
X-2089235Y-27502429D01*
X-2080970Y-27479329D01*
X-2070480Y-27457151D01*
X-2057867Y-27436107D01*
X-2043253Y-27416402D01*
X-2026777Y-27398223D01*
X-2008598Y-27381747D01*
X-1988893Y-27367133D01*
X-1967849Y-27354520D01*
X-1945671Y-27344030D01*
X-1922571Y-27335765D01*
X-1898773Y-27329804D01*
X-1874504Y-27326204D01*
X-1850000Y-27325000D01*
X-925000Y-27325000D01*
X-900496Y-27326204D01*
G37*
G36*
X2074504Y-27326204D02*
G01*
X2098773Y-27329804D01*
X2122571Y-27335765D01*
X2145671Y-27344030D01*
X2167849Y-27354520D01*
X2188893Y-27367133D01*
X2208598Y-27381747D01*
X2226777Y-27398223D01*
X2243253Y-27416402D01*
X2257867Y-27436107D01*
X2270480Y-27457151D01*
X2280970Y-27479329D01*
X2289235Y-27502429D01*
X2295196Y-27526227D01*
X2298796Y-27550496D01*
X2300000Y-27575000D01*
X2300000Y-28825000D01*
X2298796Y-28849504D01*
X2295196Y-28873773D01*
X2289235Y-28897571D01*
X2280970Y-28920671D01*
X2270480Y-28942849D01*
X2257867Y-28963893D01*
X2243253Y-28983598D01*
X2226777Y-29001777D01*
X2208598Y-29018253D01*
X2188893Y-29032867D01*
X2167849Y-29045480D01*
X2145671Y-29055970D01*
X2122571Y-29064235D01*
X2098773Y-29070196D01*
X2074504Y-29073796D01*
X2050000Y-29075000D01*
X1125000Y-29075000D01*
X1100496Y-29073796D01*
X1076227Y-29070196D01*
X1052429Y-29064235D01*
X1029329Y-29055970D01*
X1007151Y-29045480D01*
X986107Y-29032867D01*
X966402Y-29018253D01*
X948223Y-29001777D01*
X931747Y-28983598D01*
X917133Y-28963893D01*
X904520Y-28942849D01*
X894030Y-28920671D01*
X885765Y-28897571D01*
X879804Y-28873773D01*
X876204Y-28849504D01*
X875000Y-28825000D01*
X875000Y-27575000D01*
X876204Y-27550496D01*
X879804Y-27526227D01*
X885765Y-27502429D01*
X894030Y-27479329D01*
X904520Y-27457151D01*
X917133Y-27436107D01*
X931747Y-27416402D01*
X948223Y-27398223D01*
X966402Y-27381747D01*
X986107Y-27367133D01*
X1007151Y-27354520D01*
X1029329Y-27344030D01*
X1052429Y-27335765D01*
X1076227Y-27329804D01*
X1100496Y-27326204D01*
X1125000Y-27325000D01*
X2050000Y-27325000D01*
X2074504Y-27326204D01*
G37*
G36*
X12816175Y-24221769D02*
G01*
X12840548Y-24224573D01*
X12864529Y-24229753D01*
X12887887Y-24237258D01*
X12910396Y-24247016D01*
X12931841Y-24258933D01*
X12952014Y-24272896D01*
X12970722Y-24288768D01*
X12987784Y-24306398D01*
X13003036Y-24325615D01*
X13016330Y-24346234D01*
X13641330Y-25428766D01*
X13652540Y-25450589D01*
X13661557Y-25473406D01*
X13668293Y-25496997D01*
X13672685Y-25521134D01*
X13674690Y-25545586D01*
X13674289Y-25570117D01*
X13671485Y-25594490D01*
X13666305Y-25618471D01*
X13658800Y-25641829D01*
X13649042Y-25664338D01*
X13637125Y-25685783D01*
X13623162Y-25705956D01*
X13607290Y-25724664D01*
X13589660Y-25741726D01*
X13570443Y-25756978D01*
X13549824Y-25770272D01*
X12748750Y-26232772D01*
X12726927Y-26243982D01*
X12704110Y-26252999D01*
X12680519Y-26259735D01*
X12656381Y-26264127D01*
X12631930Y-26266132D01*
X12607399Y-26265731D01*
X12583026Y-26262927D01*
X12559045Y-26257747D01*
X12535687Y-26250242D01*
X12513178Y-26240484D01*
X12491733Y-26228567D01*
X12471560Y-26214604D01*
X12452852Y-26198732D01*
X12435790Y-26181102D01*
X12420538Y-26161885D01*
X12407244Y-26141266D01*
X11782244Y-25058734D01*
X11771034Y-25036911D01*
X11762017Y-25014094D01*
X11755281Y-24990503D01*
X11750889Y-24966366D01*
X11748884Y-24941914D01*
X11749285Y-24917383D01*
X11752089Y-24893010D01*
X11757269Y-24869029D01*
X11764774Y-24845671D01*
X11774532Y-24823162D01*
X11786449Y-24801717D01*
X11800412Y-24781544D01*
X11816284Y-24762836D01*
X11833914Y-24745774D01*
X11853131Y-24730522D01*
X11873750Y-24717228D01*
X12674824Y-24254728D01*
X12696647Y-24243518D01*
X12719464Y-24234501D01*
X12743055Y-24227765D01*
X12767193Y-24223373D01*
X12791644Y-24221368D01*
X12816175Y-24221769D01*
G37*
G36*
X15392601Y-22734269D02*
G01*
X15416974Y-22737073D01*
X15440955Y-22742253D01*
X15464313Y-22749758D01*
X15486822Y-22759516D01*
X15508267Y-22771433D01*
X15528440Y-22785396D01*
X15547148Y-22801268D01*
X15564210Y-22818898D01*
X15579462Y-22838115D01*
X15592756Y-22858734D01*
X16217756Y-23941266D01*
X16228966Y-23963089D01*
X16237983Y-23985906D01*
X16244719Y-24009497D01*
X16249111Y-24033634D01*
X16251116Y-24058086D01*
X16250715Y-24082617D01*
X16247911Y-24106990D01*
X16242731Y-24130971D01*
X16235226Y-24154329D01*
X16225468Y-24176838D01*
X16213551Y-24198283D01*
X16199588Y-24218456D01*
X16183716Y-24237164D01*
X16166086Y-24254226D01*
X16146869Y-24269478D01*
X16126250Y-24282772D01*
X15325176Y-24745272D01*
X15303353Y-24756482D01*
X15280536Y-24765499D01*
X15256945Y-24772235D01*
X15232807Y-24776627D01*
X15208356Y-24778632D01*
X15183825Y-24778231D01*
X15159452Y-24775427D01*
X15135471Y-24770247D01*
X15112113Y-24762742D01*
X15089604Y-24752984D01*
X15068159Y-24741067D01*
X15047986Y-24727104D01*
X15029278Y-24711232D01*
X15012216Y-24693602D01*
X14996964Y-24674385D01*
X14983670Y-24653766D01*
X14358670Y-23571234D01*
X14347460Y-23549411D01*
X14338443Y-23526594D01*
X14331707Y-23503003D01*
X14327315Y-23478866D01*
X14325310Y-23454414D01*
X14325711Y-23429883D01*
X14328515Y-23405510D01*
X14333695Y-23381529D01*
X14341200Y-23358171D01*
X14350958Y-23335662D01*
X14362875Y-23314217D01*
X14376838Y-23294044D01*
X14392710Y-23275336D01*
X14410340Y-23258274D01*
X14429557Y-23243022D01*
X14450176Y-23229728D01*
X15251250Y-22767228D01*
X15273073Y-22756018D01*
X15295890Y-22747001D01*
X15319481Y-22740265D01*
X15343619Y-22735873D01*
X15368070Y-22733868D01*
X15392601Y-22734269D01*
G37*
G36*
X23228865Y-14564814D02*
G01*
X23253003Y-14569206D01*
X23276594Y-14575942D01*
X23299411Y-14584959D01*
X23321234Y-14596169D01*
X24403766Y-15221169D01*
X24424385Y-15234463D01*
X24443602Y-15249715D01*
X24461232Y-15266777D01*
X24477104Y-15285485D01*
X24491067Y-15305658D01*
X24502984Y-15327103D01*
X24512742Y-15349612D01*
X24520247Y-15372970D01*
X24525427Y-15396951D01*
X24528231Y-15421324D01*
X24528632Y-15445855D01*
X24526627Y-15470307D01*
X24522235Y-15494444D01*
X24515499Y-15518035D01*
X24506482Y-15540852D01*
X24495272Y-15562675D01*
X24032772Y-16363749D01*
X24019478Y-16384368D01*
X24004226Y-16403585D01*
X23987164Y-16421215D01*
X23968456Y-16437087D01*
X23948283Y-16451050D01*
X23926838Y-16462967D01*
X23904329Y-16472725D01*
X23880971Y-16480230D01*
X23856990Y-16485410D01*
X23832617Y-16488214D01*
X23808086Y-16488615D01*
X23783635Y-16486610D01*
X23759497Y-16482218D01*
X23735906Y-16475482D01*
X23713089Y-16466465D01*
X23691266Y-16455255D01*
X22608734Y-15830255D01*
X22588115Y-15816961D01*
X22568898Y-15801709D01*
X22551268Y-15784647D01*
X22535396Y-15765939D01*
X22521433Y-15745766D01*
X22509516Y-15724321D01*
X22499758Y-15701812D01*
X22492253Y-15678454D01*
X22487073Y-15654473D01*
X22484269Y-15630100D01*
X22483868Y-15605569D01*
X22485873Y-15581117D01*
X22490265Y-15556980D01*
X22497001Y-15533389D01*
X22506018Y-15510572D01*
X22517228Y-15488749D01*
X22979728Y-14687675D01*
X22993022Y-14667056D01*
X23008274Y-14647839D01*
X23025336Y-14630209D01*
X23044044Y-14614337D01*
X23064217Y-14600374D01*
X23085662Y-14588457D01*
X23108171Y-14578699D01*
X23131529Y-14571194D01*
X23155510Y-14566014D01*
X23179883Y-14563210D01*
X23204414Y-14562809D01*
X23228865Y-14564814D01*
G37*
G36*
X24716365Y-11988388D02*
G01*
X24740503Y-11992780D01*
X24764094Y-11999516D01*
X24786911Y-12008533D01*
X24808734Y-12019743D01*
X25891266Y-12644743D01*
X25911885Y-12658037D01*
X25931102Y-12673289D01*
X25948732Y-12690351D01*
X25964604Y-12709059D01*
X25978567Y-12729232D01*
X25990484Y-12750677D01*
X26000242Y-12773186D01*
X26007747Y-12796544D01*
X26012927Y-12820525D01*
X26015731Y-12844898D01*
X26016132Y-12869429D01*
X26014127Y-12893881D01*
X26009735Y-12918018D01*
X26002999Y-12941609D01*
X25993982Y-12964426D01*
X25982772Y-12986249D01*
X25520272Y-13787323D01*
X25506978Y-13807942D01*
X25491726Y-13827159D01*
X25474664Y-13844789D01*
X25455956Y-13860661D01*
X25435783Y-13874624D01*
X25414338Y-13886541D01*
X25391829Y-13896299D01*
X25368471Y-13903804D01*
X25344490Y-13908984D01*
X25320117Y-13911788D01*
X25295586Y-13912189D01*
X25271135Y-13910184D01*
X25246997Y-13905792D01*
X25223406Y-13899056D01*
X25200589Y-13890039D01*
X25178766Y-13878829D01*
X24096234Y-13253829D01*
X24075615Y-13240535D01*
X24056398Y-13225283D01*
X24038768Y-13208221D01*
X24022896Y-13189513D01*
X24008933Y-13169340D01*
X23997016Y-13147895D01*
X23987258Y-13125386D01*
X23979753Y-13102028D01*
X23974573Y-13078047D01*
X23971769Y-13053674D01*
X23971368Y-13029143D01*
X23973373Y-13004691D01*
X23977765Y-12980554D01*
X23984501Y-12956963D01*
X23993518Y-12934146D01*
X24004728Y-12912323D01*
X24467228Y-12111249D01*
X24480522Y-12090630D01*
X24495774Y-12071413D01*
X24512836Y-12053783D01*
X24531544Y-12037911D01*
X24551717Y-12023948D01*
X24573162Y-12012031D01*
X24595671Y-12002273D01*
X24619029Y-11994768D01*
X24643010Y-11989588D01*
X24667383Y-11986784D01*
X24691914Y-11986383D01*
X24716365Y-11988388D01*
G37*
G36*
X28649504Y-776204D02*
G01*
X28673773Y-779804D01*
X28697571Y-785765D01*
X28720671Y-794030D01*
X28742849Y-804520D01*
X28763893Y-817133D01*
X28783598Y-831747D01*
X28801777Y-848223D01*
X28818253Y-866402D01*
X28832867Y-886107D01*
X28845480Y-907151D01*
X28855970Y-929329D01*
X28864235Y-952429D01*
X28870196Y-976227D01*
X28873796Y-1000496D01*
X28875000Y-1025000D01*
X28875000Y-1950000D01*
X28873796Y-1974504D01*
X28870196Y-1998773D01*
X28864235Y-2022571D01*
X28855970Y-2045671D01*
X28845480Y-2067849D01*
X28832867Y-2088893D01*
X28818253Y-2108598D01*
X28801777Y-2126777D01*
X28783598Y-2143253D01*
X28763893Y-2157867D01*
X28742849Y-2170480D01*
X28720671Y-2180970D01*
X28697571Y-2189235D01*
X28673773Y-2195196D01*
X28649504Y-2198796D01*
X28625000Y-2200000D01*
X27375000Y-2200000D01*
X27350496Y-2198796D01*
X27326227Y-2195196D01*
X27302429Y-2189235D01*
X27279329Y-2180970D01*
X27257151Y-2170480D01*
X27236107Y-2157867D01*
X27216402Y-2143253D01*
X27198223Y-2126777D01*
X27181747Y-2108598D01*
X27167133Y-2088893D01*
X27154520Y-2067849D01*
X27144030Y-2045671D01*
X27135765Y-2022571D01*
X27129804Y-1998773D01*
X27126204Y-1974504D01*
X27125000Y-1950000D01*
X27125000Y-1025000D01*
X27126204Y-1000496D01*
X27129804Y-976227D01*
X27135765Y-952429D01*
X27144030Y-929329D01*
X27154520Y-907151D01*
X27167133Y-886107D01*
X27181747Y-866402D01*
X27198223Y-848223D01*
X27216402Y-831747D01*
X27236107Y-817133D01*
X27257151Y-804520D01*
X27279329Y-794030D01*
X27302429Y-785765D01*
X27326227Y-779804D01*
X27350496Y-776204D01*
X27375000Y-775000D01*
X28625000Y-775000D01*
X28649504Y-776204D01*
G37*
G36*
X28649504Y2198796D02*
G01*
X28673773Y2195196D01*
X28697571Y2189235D01*
X28720671Y2180970D01*
X28742849Y2170480D01*
X28763893Y2157867D01*
X28783598Y2143253D01*
X28801777Y2126777D01*
X28818253Y2108598D01*
X28832867Y2088893D01*
X28845480Y2067849D01*
X28855970Y2045671D01*
X28864235Y2022571D01*
X28870196Y1998773D01*
X28873796Y1974504D01*
X28875000Y1950000D01*
X28875000Y1025000D01*
X28873796Y1000496D01*
X28870196Y976227D01*
X28864235Y952429D01*
X28855970Y929329D01*
X28845480Y907151D01*
X28832867Y886107D01*
X28818253Y866402D01*
X28801777Y848223D01*
X28783598Y831747D01*
X28763893Y817133D01*
X28742849Y804520D01*
X28720671Y794030D01*
X28697571Y785765D01*
X28673773Y779804D01*
X28649504Y776204D01*
X28625000Y775000D01*
X27375000Y775000D01*
X27350496Y776204D01*
X27326227Y779804D01*
X27302429Y785765D01*
X27279329Y794030D01*
X27257151Y804520D01*
X27236107Y817133D01*
X27216402Y831747D01*
X27198223Y848223D01*
X27181747Y866402D01*
X27167133Y886107D01*
X27154520Y907151D01*
X27144030Y929329D01*
X27135765Y952429D01*
X27129804Y976227D01*
X27126204Y1000496D01*
X27125000Y1025000D01*
X27125000Y1950000D01*
X27126204Y1974504D01*
X27129804Y1998773D01*
X27135765Y2022571D01*
X27144030Y2045671D01*
X27154520Y2067849D01*
X27167133Y2088893D01*
X27181747Y2108598D01*
X27198223Y2126777D01*
X27216402Y2143253D01*
X27236107Y2157867D01*
X27257151Y2170480D01*
X27279329Y2180970D01*
X27302429Y2189235D01*
X27326227Y2195196D01*
X27350496Y2198796D01*
X27375000Y2200000D01*
X28625000Y2200000D01*
X28649504Y2198796D01*
G37*
G36*
X6411967Y19685717D02*
G01*
X6436151Y19681589D01*
X6459814Y19675110D01*
X6482728Y19666343D01*
X6504672Y19655372D01*
X6525435Y19642303D01*
X6544817Y19627262D01*
X6562632Y19610393D01*
X6578708Y19591860D01*
X6592889Y19571840D01*
X6605040Y19550526D01*
X6615043Y19528124D01*
X6622802Y19504850D01*
X6628243Y19480927D01*
X6845304Y18249917D01*
X6848374Y18225576D01*
X6849043Y18201051D01*
X6847304Y18176579D01*
X6843176Y18152395D01*
X6836697Y18128732D01*
X6827930Y18105818D01*
X6816959Y18083874D01*
X6803890Y18063111D01*
X6788849Y18043729D01*
X6771980Y18025914D01*
X6753447Y18009839D01*
X6733427Y17995657D01*
X6712114Y17983506D01*
X6689712Y17973503D01*
X6666437Y17965744D01*
X6642514Y17960303D01*
X5731567Y17799679D01*
X5707226Y17796609D01*
X5682701Y17795940D01*
X5658229Y17797679D01*
X5634045Y17801807D01*
X5610382Y17808286D01*
X5587468Y17817053D01*
X5565524Y17828024D01*
X5544761Y17841093D01*
X5525379Y17856134D01*
X5507564Y17873003D01*
X5491488Y17891536D01*
X5477307Y17911556D01*
X5465156Y17932870D01*
X5455153Y17955272D01*
X5447394Y17978546D01*
X5441953Y18002469D01*
X5224892Y19233479D01*
X5221822Y19257820D01*
X5221153Y19282345D01*
X5222892Y19306817D01*
X5227020Y19331001D01*
X5233499Y19354664D01*
X5242266Y19377578D01*
X5253237Y19399522D01*
X5266306Y19420285D01*
X5281347Y19439667D01*
X5298216Y19457482D01*
X5316749Y19473557D01*
X5336769Y19487739D01*
X5358082Y19499890D01*
X5380484Y19509893D01*
X5403759Y19517652D01*
X5427682Y19523093D01*
X6338629Y19683717D01*
X6362970Y19686787D01*
X6387495Y19687456D01*
X6411967Y19685717D01*
G37*
G36*
X9341771Y20202321D02*
G01*
X9365955Y20198193D01*
X9389618Y20191714D01*
X9412532Y20182947D01*
X9434476Y20171976D01*
X9455239Y20158907D01*
X9474621Y20143866D01*
X9492436Y20126997D01*
X9508512Y20108464D01*
X9522693Y20088444D01*
X9534844Y20067130D01*
X9544847Y20044728D01*
X9552606Y20021454D01*
X9558047Y19997531D01*
X9775108Y18766521D01*
X9778178Y18742180D01*
X9778847Y18717655D01*
X9777108Y18693183D01*
X9772980Y18668999D01*
X9766501Y18645336D01*
X9757734Y18622422D01*
X9746763Y18600478D01*
X9733694Y18579715D01*
X9718653Y18560333D01*
X9701784Y18542518D01*
X9683251Y18526443D01*
X9663231Y18512261D01*
X9641918Y18500110D01*
X9619516Y18490107D01*
X9596241Y18482348D01*
X9572318Y18476907D01*
X8661371Y18316283D01*
X8637030Y18313213D01*
X8612505Y18312544D01*
X8588033Y18314283D01*
X8563849Y18318411D01*
X8540186Y18324890D01*
X8517272Y18333657D01*
X8495328Y18344628D01*
X8474565Y18357697D01*
X8455183Y18372738D01*
X8437368Y18389607D01*
X8421292Y18408140D01*
X8407111Y18428160D01*
X8394960Y18449474D01*
X8384957Y18471876D01*
X8377198Y18495150D01*
X8371757Y18519073D01*
X8154696Y19750083D01*
X8151626Y19774424D01*
X8150957Y19798949D01*
X8152696Y19823421D01*
X8156824Y19847605D01*
X8163303Y19871268D01*
X8172070Y19894182D01*
X8183041Y19916126D01*
X8196110Y19936889D01*
X8211151Y19956271D01*
X8228020Y19974086D01*
X8246553Y19990161D01*
X8266573Y20004343D01*
X8287886Y20016494D01*
X8310288Y20026497D01*
X8333563Y20034256D01*
X8357486Y20039697D01*
X9268433Y20200321D01*
X9292774Y20203391D01*
X9317299Y20204060D01*
X9341771Y20202321D01*
G37*
G36*
X-5862970Y19686787D02*
G01*
X-5838629Y19683717D01*
X-4927682Y19523093D01*
X-4903759Y19517652D01*
X-4880485Y19509893D01*
X-4858083Y19499890D01*
X-4836769Y19487739D01*
X-4816749Y19473558D01*
X-4798216Y19457482D01*
X-4781347Y19439667D01*
X-4766306Y19420285D01*
X-4753237Y19399522D01*
X-4742266Y19377578D01*
X-4733499Y19354664D01*
X-4727020Y19331001D01*
X-4722892Y19306817D01*
X-4721153Y19282345D01*
X-4721822Y19257820D01*
X-4724892Y19233479D01*
X-4941953Y18002469D01*
X-4947394Y17978546D01*
X-4955153Y17955271D01*
X-4965156Y17932869D01*
X-4977307Y17911556D01*
X-4991489Y17891536D01*
X-5007564Y17873003D01*
X-5025379Y17856134D01*
X-5044761Y17841093D01*
X-5065524Y17828024D01*
X-5087468Y17817053D01*
X-5110382Y17808286D01*
X-5134045Y17801807D01*
X-5158229Y17797679D01*
X-5182701Y17795940D01*
X-5207226Y17796609D01*
X-5231567Y17799679D01*
X-6142514Y17960303D01*
X-6166437Y17965744D01*
X-6189711Y17973503D01*
X-6212113Y17983506D01*
X-6233427Y17995657D01*
X-6253447Y18009838D01*
X-6271980Y18025914D01*
X-6288849Y18043729D01*
X-6303890Y18063111D01*
X-6316959Y18083874D01*
X-6327930Y18105818D01*
X-6336697Y18128732D01*
X-6343176Y18152395D01*
X-6347304Y18176579D01*
X-6349043Y18201051D01*
X-6348374Y18225576D01*
X-6345304Y18249917D01*
X-6128243Y19480927D01*
X-6122802Y19504850D01*
X-6115043Y19528125D01*
X-6105040Y19550527D01*
X-6092889Y19571840D01*
X-6078707Y19591860D01*
X-6062632Y19610393D01*
X-6044817Y19627262D01*
X-6025435Y19642303D01*
X-6004672Y19655372D01*
X-5982728Y19666343D01*
X-5959814Y19675110D01*
X-5936151Y19681589D01*
X-5911967Y19685717D01*
X-5887495Y19687456D01*
X-5862970Y19686787D01*
G37*
G36*
X-8792774Y20203391D02*
G01*
X-8768433Y20200321D01*
X-7857486Y20039697D01*
X-7833563Y20034256D01*
X-7810289Y20026497D01*
X-7787887Y20016494D01*
X-7766573Y20004343D01*
X-7746553Y19990162D01*
X-7728020Y19974086D01*
X-7711151Y19956271D01*
X-7696110Y19936889D01*
X-7683041Y19916126D01*
X-7672070Y19894182D01*
X-7663303Y19871268D01*
X-7656824Y19847605D01*
X-7652696Y19823421D01*
X-7650957Y19798949D01*
X-7651626Y19774424D01*
X-7654696Y19750083D01*
X-7871757Y18519073D01*
X-7877198Y18495150D01*
X-7884957Y18471875D01*
X-7894960Y18449473D01*
X-7907111Y18428160D01*
X-7921293Y18408140D01*
X-7937368Y18389607D01*
X-7955183Y18372738D01*
X-7974565Y18357697D01*
X-7995328Y18344628D01*
X-8017272Y18333657D01*
X-8040186Y18324890D01*
X-8063849Y18318411D01*
X-8088033Y18314283D01*
X-8112505Y18312544D01*
X-8137030Y18313213D01*
X-8161371Y18316283D01*
X-9072318Y18476907D01*
X-9096241Y18482348D01*
X-9119515Y18490107D01*
X-9141917Y18500110D01*
X-9163231Y18512261D01*
X-9183251Y18526442D01*
X-9201784Y18542518D01*
X-9218653Y18560333D01*
X-9233694Y18579715D01*
X-9246763Y18600478D01*
X-9257734Y18622422D01*
X-9266501Y18645336D01*
X-9272980Y18668999D01*
X-9277108Y18693183D01*
X-9278847Y18717655D01*
X-9278178Y18742180D01*
X-9275108Y18766521D01*
X-9058047Y19997531D01*
X-9052606Y20021454D01*
X-9044847Y20044729D01*
X-9034844Y20067131D01*
X-9022693Y20088444D01*
X-9008511Y20108464D01*
X-8992436Y20126997D01*
X-8974621Y20143866D01*
X-8955239Y20158907D01*
X-8934476Y20171976D01*
X-8912532Y20182947D01*
X-8889618Y20191714D01*
X-8865955Y20198193D01*
X-8841771Y20202321D01*
X-8817299Y20204060D01*
X-8792774Y20203391D01*
G37*
G36*
X-16525496Y-7126204D02*
G01*
X-16501227Y-7129804D01*
X-16477429Y-7135765D01*
X-16454329Y-7144030D01*
X-16432151Y-7154520D01*
X-16411107Y-7167133D01*
X-16391402Y-7181747D01*
X-16373223Y-7198223D01*
X-16356747Y-7216402D01*
X-16342133Y-7236107D01*
X-16329520Y-7257151D01*
X-16319030Y-7279329D01*
X-16310765Y-7302429D01*
X-16304804Y-7326227D01*
X-16301204Y-7350496D01*
X-16300000Y-7375000D01*
X-16300000Y-8625000D01*
X-16301204Y-8649504D01*
X-16304804Y-8673773D01*
X-16310765Y-8697571D01*
X-16319030Y-8720671D01*
X-16329520Y-8742849D01*
X-16342133Y-8763893D01*
X-16356747Y-8783598D01*
X-16373223Y-8801777D01*
X-16391402Y-8818253D01*
X-16411107Y-8832867D01*
X-16432151Y-8845480D01*
X-16454329Y-8855970D01*
X-16477429Y-8864235D01*
X-16501227Y-8870196D01*
X-16525496Y-8873796D01*
X-16550000Y-8875000D01*
X-17475000Y-8875000D01*
X-17499504Y-8873796D01*
X-17523773Y-8870196D01*
X-17547571Y-8864235D01*
X-17570671Y-8855970D01*
X-17592849Y-8845480D01*
X-17613893Y-8832867D01*
X-17633598Y-8818253D01*
X-17651777Y-8801777D01*
X-17668253Y-8783598D01*
X-17682867Y-8763893D01*
X-17695480Y-8742849D01*
X-17705970Y-8720671D01*
X-17714235Y-8697571D01*
X-17720196Y-8673773D01*
X-17723796Y-8649504D01*
X-17725000Y-8625000D01*
X-17725000Y-7375000D01*
X-17723796Y-7350496D01*
X-17720196Y-7326227D01*
X-17714235Y-7302429D01*
X-17705970Y-7279329D01*
X-17695480Y-7257151D01*
X-17682867Y-7236107D01*
X-17668253Y-7216402D01*
X-17651777Y-7198223D01*
X-17633598Y-7181747D01*
X-17613893Y-7167133D01*
X-17592849Y-7154520D01*
X-17570671Y-7144030D01*
X-17547571Y-7135765D01*
X-17523773Y-7129804D01*
X-17499504Y-7126204D01*
X-17475000Y-7125000D01*
X-16550000Y-7125000D01*
X-16525496Y-7126204D01*
G37*
G36*
X-19500496Y-7126204D02*
G01*
X-19476227Y-7129804D01*
X-19452429Y-7135765D01*
X-19429329Y-7144030D01*
X-19407151Y-7154520D01*
X-19386107Y-7167133D01*
X-19366402Y-7181747D01*
X-19348223Y-7198223D01*
X-19331747Y-7216402D01*
X-19317133Y-7236107D01*
X-19304520Y-7257151D01*
X-19294030Y-7279329D01*
X-19285765Y-7302429D01*
X-19279804Y-7326227D01*
X-19276204Y-7350496D01*
X-19275000Y-7375000D01*
X-19275000Y-8625000D01*
X-19276204Y-8649504D01*
X-19279804Y-8673773D01*
X-19285765Y-8697571D01*
X-19294030Y-8720671D01*
X-19304520Y-8742849D01*
X-19317133Y-8763893D01*
X-19331747Y-8783598D01*
X-19348223Y-8801777D01*
X-19366402Y-8818253D01*
X-19386107Y-8832867D01*
X-19407151Y-8845480D01*
X-19429329Y-8855970D01*
X-19452429Y-8864235D01*
X-19476227Y-8870196D01*
X-19500496Y-8873796D01*
X-19525000Y-8875000D01*
X-20450000Y-8875000D01*
X-20474504Y-8873796D01*
X-20498773Y-8870196D01*
X-20522571Y-8864235D01*
X-20545671Y-8855970D01*
X-20567849Y-8845480D01*
X-20588893Y-8832867D01*
X-20608598Y-8818253D01*
X-20626777Y-8801777D01*
X-20643253Y-8783598D01*
X-20657867Y-8763893D01*
X-20670480Y-8742849D01*
X-20680970Y-8720671D01*
X-20689235Y-8697571D01*
X-20695196Y-8673773D01*
X-20698796Y-8649504D01*
X-20700000Y-8625000D01*
X-20700000Y-7375000D01*
X-20698796Y-7350496D01*
X-20695196Y-7326227D01*
X-20689235Y-7302429D01*
X-20680970Y-7279329D01*
X-20670480Y-7257151D01*
X-20657867Y-7236107D01*
X-20643253Y-7216402D01*
X-20626777Y-7198223D01*
X-20608598Y-7181747D01*
X-20588893Y-7167133D01*
X-20567849Y-7154520D01*
X-20545671Y-7144030D01*
X-20522571Y-7135765D01*
X-20498773Y-7129804D01*
X-20474504Y-7126204D01*
X-20450000Y-7125000D01*
X-19525000Y-7125000D01*
X-19500496Y-7126204D01*
G37*
G36*
X-19500496Y-16126204D02*
G01*
X-19476227Y-16129804D01*
X-19452429Y-16135765D01*
X-19429329Y-16144030D01*
X-19407151Y-16154520D01*
X-19386107Y-16167133D01*
X-19366402Y-16181747D01*
X-19348223Y-16198223D01*
X-19331747Y-16216402D01*
X-19317133Y-16236107D01*
X-19304520Y-16257151D01*
X-19294030Y-16279329D01*
X-19285765Y-16302429D01*
X-19279804Y-16326227D01*
X-19276204Y-16350496D01*
X-19275000Y-16375000D01*
X-19275000Y-17625000D01*
X-19276204Y-17649504D01*
X-19279804Y-17673773D01*
X-19285765Y-17697571D01*
X-19294030Y-17720671D01*
X-19304520Y-17742849D01*
X-19317133Y-17763893D01*
X-19331747Y-17783598D01*
X-19348223Y-17801777D01*
X-19366402Y-17818253D01*
X-19386107Y-17832867D01*
X-19407151Y-17845480D01*
X-19429329Y-17855970D01*
X-19452429Y-17864235D01*
X-19476227Y-17870196D01*
X-19500496Y-17873796D01*
X-19525000Y-17875000D01*
X-20450000Y-17875000D01*
X-20474504Y-17873796D01*
X-20498773Y-17870196D01*
X-20522571Y-17864235D01*
X-20545671Y-17855970D01*
X-20567849Y-17845480D01*
X-20588893Y-17832867D01*
X-20608598Y-17818253D01*
X-20626777Y-17801777D01*
X-20643253Y-17783598D01*
X-20657867Y-17763893D01*
X-20670480Y-17742849D01*
X-20680970Y-17720671D01*
X-20689235Y-17697571D01*
X-20695196Y-17673773D01*
X-20698796Y-17649504D01*
X-20700000Y-17625000D01*
X-20700000Y-16375000D01*
X-20698796Y-16350496D01*
X-20695196Y-16326227D01*
X-20689235Y-16302429D01*
X-20680970Y-16279329D01*
X-20670480Y-16257151D01*
X-20657867Y-16236107D01*
X-20643253Y-16216402D01*
X-20626777Y-16198223D01*
X-20608598Y-16181747D01*
X-20588893Y-16167133D01*
X-20567849Y-16154520D01*
X-20545671Y-16144030D01*
X-20522571Y-16135765D01*
X-20498773Y-16129804D01*
X-20474504Y-16126204D01*
X-20450000Y-16125000D01*
X-19525000Y-16125000D01*
X-19500496Y-16126204D01*
G37*
G36*
X-16525496Y-16126204D02*
G01*
X-16501227Y-16129804D01*
X-16477429Y-16135765D01*
X-16454329Y-16144030D01*
X-16432151Y-16154520D01*
X-16411107Y-16167133D01*
X-16391402Y-16181747D01*
X-16373223Y-16198223D01*
X-16356747Y-16216402D01*
X-16342133Y-16236107D01*
X-16329520Y-16257151D01*
X-16319030Y-16279329D01*
X-16310765Y-16302429D01*
X-16304804Y-16326227D01*
X-16301204Y-16350496D01*
X-16300000Y-16375000D01*
X-16300000Y-17625000D01*
X-16301204Y-17649504D01*
X-16304804Y-17673773D01*
X-16310765Y-17697571D01*
X-16319030Y-17720671D01*
X-16329520Y-17742849D01*
X-16342133Y-17763893D01*
X-16356747Y-17783598D01*
X-16373223Y-17801777D01*
X-16391402Y-17818253D01*
X-16411107Y-17832867D01*
X-16432151Y-17845480D01*
X-16454329Y-17855970D01*
X-16477429Y-17864235D01*
X-16501227Y-17870196D01*
X-16525496Y-17873796D01*
X-16550000Y-17875000D01*
X-17475000Y-17875000D01*
X-17499504Y-17873796D01*
X-17523773Y-17870196D01*
X-17547571Y-17864235D01*
X-17570671Y-17855970D01*
X-17592849Y-17845480D01*
X-17613893Y-17832867D01*
X-17633598Y-17818253D01*
X-17651777Y-17801777D01*
X-17668253Y-17783598D01*
X-17682867Y-17763893D01*
X-17695480Y-17742849D01*
X-17705970Y-17720671D01*
X-17714235Y-17697571D01*
X-17720196Y-17673773D01*
X-17723796Y-17649504D01*
X-17725000Y-17625000D01*
X-17725000Y-16375000D01*
X-17723796Y-16350496D01*
X-17720196Y-16326227D01*
X-17714235Y-16302429D01*
X-17705970Y-16279329D01*
X-17695480Y-16257151D01*
X-17682867Y-16236107D01*
X-17668253Y-16216402D01*
X-17651777Y-16198223D01*
X-17633598Y-16181747D01*
X-17613893Y-16167133D01*
X-17592849Y-16154520D01*
X-17570671Y-16144030D01*
X-17547571Y-16135765D01*
X-17523773Y-16129804D01*
X-17499504Y-16126204D01*
X-17475000Y-16125000D01*
X-16550000Y-16125000D01*
X-16525496Y-16126204D01*
G37*
G36*
X-14274871Y-27024803D02*
G01*
X-13408845Y-27524803D01*
X-14158845Y-28823841D01*
X-15024871Y-28323841D01*
X-14274871Y-27024803D01*
G37*
G36*
X-17046153Y-25424803D02*
G01*
X-16180127Y-25924803D01*
X-16930127Y-27223841D01*
X-17796153Y-26723841D01*
X-17046153Y-25424803D01*
G37*
G36*
X-16724871Y-31268327D02*
G01*
X-15858845Y-31768327D01*
X-16608845Y-33067365D01*
X-17474871Y-32567365D01*
X-16724871Y-31268327D01*
G37*
G36*
X-19496153Y-29668327D02*
G01*
X-18630127Y-30168327D01*
X-19380127Y-31467365D01*
X-20246153Y-30967365D01*
X-19496153Y-29668327D01*
G37*
D14*
X-1600001Y31105000D03*
X1599999Y31105000D03*
X-1600001Y36005000D03*
X1599999Y36005000D03*
D12*
G36*
X-25824803Y-16280127D02*
G01*
X-25324803Y-17146153D01*
X-26623841Y-17896153D01*
X-27123841Y-17030127D01*
X-25824803Y-16280127D01*
G37*
G36*
X-27424803Y-13508845D02*
G01*
X-26924803Y-14374871D01*
X-28223841Y-15124871D01*
X-28723841Y-14258845D01*
X-27424803Y-13508845D01*
G37*
G36*
X-30068327Y-18730127D02*
G01*
X-29568327Y-19596153D01*
X-30867365Y-20346153D01*
X-31367365Y-19480127D01*
X-30068327Y-18730127D01*
G37*
G36*
X-31668327Y-15958845D02*
G01*
X-31168327Y-16824871D01*
X-32467365Y-17574871D01*
X-32967365Y-16708845D01*
X-31668327Y-15958845D01*
G37*
G36*
X14274872Y26824803D02*
G01*
X13408846Y27324803D01*
X14158846Y28623841D01*
X15024872Y28123841D01*
X14274872Y26824803D01*
G37*
G36*
X17046154Y25224803D02*
G01*
X16180128Y25724803D01*
X16930128Y27023841D01*
X17796154Y26523841D01*
X17046154Y25224803D01*
G37*
G36*
X16724872Y31068327D02*
G01*
X15858846Y31568327D01*
X16608846Y32867365D01*
X17474872Y32367365D01*
X16724872Y31068327D01*
G37*
G36*
X19496154Y29468327D02*
G01*
X18630128Y29968327D01*
X19380128Y31267365D01*
X20246154Y30767365D01*
X19496154Y29468327D01*
G37*
D15*
X4000000Y-22100000D03*
X2000000Y-22100000D03*
X0Y-22100000D03*
X-2000000Y-22100000D03*
X-4000000Y-22100000D03*
X-6000000Y-22100000D03*
X-8000000Y-22100000D03*
X-10000000Y-22100000D03*
D16*
X-11500000Y-19500000D03*
X-11500000Y-17500000D03*
X-11500000Y-15500000D03*
X-11500000Y-13500000D03*
X-11500000Y-11500000D03*
X-11500000Y-9500000D03*
D15*
X-10000000Y-6900000D03*
X-8000000Y-6900000D03*
X-6000000Y-6900000D03*
X-4000000Y-6900000D03*
X-2000000Y-6900000D03*
X0Y-6900000D03*
X2000000Y-6900000D03*
X4000000Y-6900000D03*
D17*
X23400000Y5800000D03*
X21400000Y4850000D03*
X21400000Y6750000D03*
D12*
G36*
X25824803Y16080128D02*
G01*
X25324803Y16946154D01*
X26623841Y17696154D01*
X27123841Y16830128D01*
X25824803Y16080128D01*
G37*
G36*
X27424803Y13308846D02*
G01*
X26924803Y14174872D01*
X28223841Y14924872D01*
X28723841Y14058846D01*
X27424803Y13308846D01*
G37*
G36*
X30068327Y18530128D02*
G01*
X29568327Y19396154D01*
X30867365Y20146154D01*
X31367365Y19280128D01*
X30068327Y18530128D01*
G37*
G36*
X31668327Y15758846D02*
G01*
X31168327Y16624872D01*
X32467365Y17374872D01*
X32967365Y16508846D01*
X31668327Y15758846D01*
G37*
G36*
X-16180128Y25724803D02*
G01*
X-17046154Y25224803D01*
X-17796154Y26523841D01*
X-16930128Y27023841D01*
X-16180128Y25724803D01*
G37*
G36*
X-13408846Y27324803D02*
G01*
X-14274872Y26824803D01*
X-15024872Y28123841D01*
X-14158846Y28623841D01*
X-13408846Y27324803D01*
G37*
G36*
X-18630128Y29968327D02*
G01*
X-19496154Y29468327D01*
X-20246154Y30767365D01*
X-19380128Y31267365D01*
X-18630128Y29968327D01*
G37*
G36*
X-15858846Y31568327D02*
G01*
X-16724872Y31068327D01*
X-17474872Y32367365D01*
X-16608846Y32867365D01*
X-15858846Y31568327D01*
G37*
G36*
X-26924803Y14174872D02*
G01*
X-27424803Y13308846D01*
X-28723841Y14058846D01*
X-28223841Y14924872D01*
X-26924803Y14174872D01*
G37*
G36*
X-25324803Y16946154D02*
G01*
X-25824803Y16080128D01*
X-27123841Y16830128D01*
X-26623841Y17696154D01*
X-25324803Y16946154D01*
G37*
G36*
X-31168327Y16624872D02*
G01*
X-31668327Y15758846D01*
X-32967365Y16508846D01*
X-32467365Y17374872D01*
X-31168327Y16624872D01*
G37*
G36*
X-29568327Y19396154D02*
G01*
X-30068327Y18530128D01*
X-31367365Y19280128D01*
X-30867365Y20146154D01*
X-29568327Y19396154D01*
G37*
D18*
X-31205000Y-1700000D03*
X-31205000Y1500000D03*
X-36105000Y-1700000D03*
X-36105000Y1500000D03*
D14*
X1600000Y-31305000D03*
X-1600000Y-31305000D03*
X1600000Y-36205000D03*
X-1600000Y-36205000D03*
D12*
G36*
X16180128Y-25924803D02*
G01*
X17046154Y-25424803D01*
X17796154Y-26723841D01*
X16930128Y-27223841D01*
X16180128Y-25924803D01*
G37*
G36*
X13408846Y-27524803D02*
G01*
X14274872Y-27024803D01*
X15024872Y-28323841D01*
X14158846Y-28823841D01*
X13408846Y-27524803D01*
G37*
G36*
X18630128Y-30168327D02*
G01*
X19496154Y-29668327D01*
X20246154Y-30967365D01*
X19380128Y-31467365D01*
X18630128Y-30168327D01*
G37*
G36*
X15858846Y-31768327D02*
G01*
X16724872Y-31268327D01*
X17474872Y-32567365D01*
X16608846Y-33067365D01*
X15858846Y-31768327D01*
G37*
G36*
X26924803Y-14374871D02*
G01*
X27424803Y-13508845D01*
X28723841Y-14258845D01*
X28223841Y-15124871D01*
X26924803Y-14374871D01*
G37*
G36*
X25324803Y-17146153D02*
G01*
X25824803Y-16280127D01*
X27123841Y-17030127D01*
X26623841Y-17896153D01*
X25324803Y-17146153D01*
G37*
G36*
X31168327Y-16824871D02*
G01*
X31668327Y-15958845D01*
X32967365Y-16708845D01*
X32467365Y-17574871D01*
X31168327Y-16824871D01*
G37*
G36*
X29568327Y-19596153D02*
G01*
X30068327Y-18730127D01*
X31367365Y-19480127D01*
X30867365Y-20346153D01*
X29568327Y-19596153D01*
G37*
D18*
X31205000Y1500000D03*
X31205000Y-1700000D03*
X36105000Y1500000D03*
X36105000Y-1700000D03*
M02*
