G04 #@! TF.GenerationSoftware,KiCad,Pcbnew,(5.1.5)-3*
G04 #@! TF.CreationDate,2020-02-24T13:55:18+01:00*
G04 #@! TF.ProjectId,Badge,42616467-652e-46b6-9963-61645f706362,rev?*
G04 #@! TF.SameCoordinates,PX3473bc0PY3567e00*
G04 #@! TF.FileFunction,Legend,Top*
G04 #@! TF.FilePolarity,Positive*
%FSLAX46Y46*%
G04 Gerber Fmt 4.6, Leading zero omitted, Abs format (unit mm)*
G04 Created by KiCad (PCBNEW (5.1.5)-3) date 2020-02-24 13:55:18*
%MOMM*%
%LPD*%
G04 APERTURE LIST*
%ADD10C,0.010000*%
%ADD11C,0.150000*%
%ADD12C,0.200000*%
%ADD13C,0.100000*%
%ADD14C,0.120000*%
G04 APERTURE END LIST*
D10*
G36*
X-13879783Y10193363D02*
G01*
X-13711440Y10158450D01*
X-13577352Y10086655D01*
X-13475606Y9976775D01*
X-13440756Y9916382D01*
X-13412950Y9856535D01*
X-13394250Y9801095D01*
X-13382877Y9737828D01*
X-13377047Y9654495D01*
X-13374980Y9538862D01*
X-13374800Y9463368D01*
X-13375549Y9327383D01*
X-13379044Y9229886D01*
X-13387159Y9158574D01*
X-13401770Y9101141D01*
X-13424749Y9045284D01*
X-13444650Y9004805D01*
X-13535370Y8876991D01*
X-13658153Y8788528D01*
X-13813066Y8739378D01*
X-13957205Y8728315D01*
X-14062556Y8734433D01*
X-14163202Y8749120D01*
X-14221759Y8764250D01*
X-14356249Y8837993D01*
X-14459667Y8951689D01*
X-14491268Y9006600D01*
X-14527758Y9088308D01*
X-14551494Y9169346D01*
X-14564898Y9264022D01*
X-14570390Y9386640D01*
X-14570825Y9463801D01*
X-14251100Y9463801D01*
X-14250479Y9346455D01*
X-14246910Y9268432D01*
X-14237836Y9218255D01*
X-14220696Y9184448D01*
X-14192935Y9155534D01*
X-14179834Y9144101D01*
X-14126381Y9107275D01*
X-14064029Y9088632D01*
X-13973492Y9082879D01*
X-13956430Y9082800D01*
X-13862915Y9086527D01*
X-13802101Y9101063D01*
X-13756219Y9131437D01*
X-13744199Y9142892D01*
X-13695716Y9222326D01*
X-13666703Y9336468D01*
X-13658221Y9472684D01*
X-13671330Y9618335D01*
X-13695455Y9724429D01*
X-13736135Y9780359D01*
X-13811565Y9819920D01*
X-13907861Y9841419D01*
X-14011138Y9843164D01*
X-14107513Y9823460D01*
X-14179834Y9783500D01*
X-14212051Y9753536D01*
X-14232723Y9722815D01*
X-14244409Y9679859D01*
X-14249667Y9613193D01*
X-14251055Y9511340D01*
X-14251100Y9463801D01*
X-14570825Y9463801D01*
X-14570901Y9477258D01*
X-14554376Y9695898D01*
X-14506026Y9874971D01*
X-14425734Y10014595D01*
X-14313384Y10114892D01*
X-14168861Y10175983D01*
X-13992047Y10197987D01*
X-13879783Y10193363D01*
G37*
X-13879783Y10193363D02*
X-13711440Y10158450D01*
X-13577352Y10086655D01*
X-13475606Y9976775D01*
X-13440756Y9916382D01*
X-13412950Y9856535D01*
X-13394250Y9801095D01*
X-13382877Y9737828D01*
X-13377047Y9654495D01*
X-13374980Y9538862D01*
X-13374800Y9463368D01*
X-13375549Y9327383D01*
X-13379044Y9229886D01*
X-13387159Y9158574D01*
X-13401770Y9101141D01*
X-13424749Y9045284D01*
X-13444650Y9004805D01*
X-13535370Y8876991D01*
X-13658153Y8788528D01*
X-13813066Y8739378D01*
X-13957205Y8728315D01*
X-14062556Y8734433D01*
X-14163202Y8749120D01*
X-14221759Y8764250D01*
X-14356249Y8837993D01*
X-14459667Y8951689D01*
X-14491268Y9006600D01*
X-14527758Y9088308D01*
X-14551494Y9169346D01*
X-14564898Y9264022D01*
X-14570390Y9386640D01*
X-14570825Y9463801D01*
X-14251100Y9463801D01*
X-14250479Y9346455D01*
X-14246910Y9268432D01*
X-14237836Y9218255D01*
X-14220696Y9184448D01*
X-14192935Y9155534D01*
X-14179834Y9144101D01*
X-14126381Y9107275D01*
X-14064029Y9088632D01*
X-13973492Y9082879D01*
X-13956430Y9082800D01*
X-13862915Y9086527D01*
X-13802101Y9101063D01*
X-13756219Y9131437D01*
X-13744199Y9142892D01*
X-13695716Y9222326D01*
X-13666703Y9336468D01*
X-13658221Y9472684D01*
X-13671330Y9618335D01*
X-13695455Y9724429D01*
X-13736135Y9780359D01*
X-13811565Y9819920D01*
X-13907861Y9841419D01*
X-14011138Y9843164D01*
X-14107513Y9823460D01*
X-14179834Y9783500D01*
X-14212051Y9753536D01*
X-14232723Y9722815D01*
X-14244409Y9679859D01*
X-14249667Y9613193D01*
X-14251055Y9511340D01*
X-14251100Y9463801D01*
X-14570825Y9463801D01*
X-14570901Y9477258D01*
X-14554376Y9695898D01*
X-14506026Y9874971D01*
X-14425734Y10014595D01*
X-14313384Y10114892D01*
X-14168861Y10175983D01*
X-13992047Y10197987D01*
X-13879783Y10193363D01*
G36*
X-16354044Y10149342D02*
G01*
X-16142771Y10148475D01*
X-15974144Y10146861D01*
X-15844087Y10144360D01*
X-15748524Y10140835D01*
X-15683378Y10136146D01*
X-15644575Y10130156D01*
X-15628038Y10122725D01*
X-15627788Y10116134D01*
X-15651536Y10082403D01*
X-15698617Y10019327D01*
X-15761029Y9937544D01*
X-15799701Y9887534D01*
X-15951301Y9692401D01*
X-16504551Y9692401D01*
X-17057800Y9692400D01*
X-17057800Y9489200D01*
X-16370186Y9489201D01*
X-16165115Y9488963D01*
X-16005708Y9488045D01*
X-15886830Y9486141D01*
X-15803347Y9482945D01*
X-15750124Y9478151D01*
X-15722026Y9471451D01*
X-15713918Y9462541D01*
X-15720667Y9451113D01*
X-15721274Y9450499D01*
X-15755542Y9412046D01*
X-15809752Y9346807D01*
X-15872786Y9268192D01*
X-15879235Y9259999D01*
X-15998494Y9108200D01*
X-17057800Y9108200D01*
X-17057800Y8879600D01*
X-15583997Y8879600D01*
X-15757452Y8657350D01*
X-15930908Y8435100D01*
X-17616600Y8421716D01*
X-17616600Y10149600D01*
X-16612038Y10149600D01*
X-16354044Y10149342D01*
G37*
X-16354044Y10149342D02*
X-16142771Y10148475D01*
X-15974144Y10146861D01*
X-15844087Y10144360D01*
X-15748524Y10140835D01*
X-15683378Y10136146D01*
X-15644575Y10130156D01*
X-15628038Y10122725D01*
X-15627788Y10116134D01*
X-15651536Y10082403D01*
X-15698617Y10019327D01*
X-15761029Y9937544D01*
X-15799701Y9887534D01*
X-15951301Y9692401D01*
X-16504551Y9692401D01*
X-17057800Y9692400D01*
X-17057800Y9489200D01*
X-16370186Y9489201D01*
X-16165115Y9488963D01*
X-16005708Y9488045D01*
X-15886830Y9486141D01*
X-15803347Y9482945D01*
X-15750124Y9478151D01*
X-15722026Y9471451D01*
X-15713918Y9462541D01*
X-15720667Y9451113D01*
X-15721274Y9450499D01*
X-15755542Y9412046D01*
X-15809752Y9346807D01*
X-15872786Y9268192D01*
X-15879235Y9259999D01*
X-15998494Y9108200D01*
X-17057800Y9108200D01*
X-17057800Y8879600D01*
X-15583997Y8879600D01*
X-15757452Y8657350D01*
X-15930908Y8435100D01*
X-17616600Y8421716D01*
X-17616600Y10149600D01*
X-16612038Y10149600D01*
X-16354044Y10149342D01*
G36*
X-20867800Y8422400D02*
G01*
X-21401200Y8422400D01*
X-21401200Y10149600D01*
X-20867800Y10149600D01*
X-20867800Y8422400D01*
G37*
X-20867800Y8422400D02*
X-21401200Y8422400D01*
X-21401200Y10149600D01*
X-20867800Y10149600D01*
X-20867800Y8422400D01*
G36*
X-22009867Y10146976D02*
G01*
X-21894510Y10145259D01*
X-21812392Y10142090D01*
X-21759124Y10137338D01*
X-21730319Y10130869D01*
X-21721589Y10122553D01*
X-21722953Y10118311D01*
X-21746912Y10084032D01*
X-21793812Y10020245D01*
X-21855667Y9937742D01*
X-21893228Y9888218D01*
X-22042356Y9692401D01*
X-22711484Y9692401D01*
X-22913173Y9692258D01*
X-23070015Y9691536D01*
X-23187964Y9689792D01*
X-23272972Y9686583D01*
X-23330992Y9681469D01*
X-23367979Y9674006D01*
X-23389884Y9663752D01*
X-23402661Y9650265D01*
X-23408314Y9640641D01*
X-23424561Y9570098D01*
X-23402227Y9509899D01*
X-23348958Y9477036D01*
X-23308922Y9473382D01*
X-23225702Y9469604D01*
X-23106915Y9465913D01*
X-22960175Y9462520D01*
X-22793099Y9459635D01*
X-22658500Y9457927D01*
X-22462160Y9455659D01*
X-22309546Y9453162D01*
X-22193587Y9449781D01*
X-22107212Y9444864D01*
X-22043350Y9437756D01*
X-21994929Y9427803D01*
X-21954878Y9414353D01*
X-21916125Y9396750D01*
X-21897821Y9387600D01*
X-21785370Y9318205D01*
X-21713789Y9238334D01*
X-21674389Y9134649D01*
X-21660001Y9022526D01*
X-21668616Y8849737D01*
X-21718504Y8706502D01*
X-21809878Y8592531D01*
X-21942949Y8507537D01*
X-22074278Y8461574D01*
X-22137930Y8451070D01*
X-22238515Y8441991D01*
X-22369597Y8434353D01*
X-22524742Y8428172D01*
X-22697513Y8423465D01*
X-22881477Y8420247D01*
X-23070197Y8418535D01*
X-23257240Y8418346D01*
X-23436169Y8419694D01*
X-23600550Y8422597D01*
X-23743947Y8427071D01*
X-23859927Y8433132D01*
X-23942052Y8440795D01*
X-23983889Y8450078D01*
X-23986672Y8456758D01*
X-23956735Y8491267D01*
X-23904924Y8555345D01*
X-23840008Y8638045D01*
X-23803536Y8685358D01*
X-23654759Y8879600D01*
X-22939460Y8879600D01*
X-22720271Y8879918D01*
X-22546615Y8881326D01*
X-22413225Y8884504D01*
X-22314836Y8890134D01*
X-22246181Y8898896D01*
X-22201994Y8911472D01*
X-22177009Y8928542D01*
X-22165960Y8950788D01*
X-22163581Y8978890D01*
X-22163589Y8979931D01*
X-22165378Y9013472D01*
X-22173692Y9039880D01*
X-22194063Y9060144D01*
X-22232024Y9075254D01*
X-22293107Y9086203D01*
X-22382843Y9093980D01*
X-22506766Y9099576D01*
X-22670407Y9103983D01*
X-22879298Y9108191D01*
X-22879777Y9108200D01*
X-23083991Y9112359D01*
X-23244214Y9116529D01*
X-23367252Y9121291D01*
X-23459911Y9127224D01*
X-23528997Y9134907D01*
X-23581316Y9144921D01*
X-23623674Y9157845D01*
X-23662877Y9174258D01*
X-23664556Y9175032D01*
X-23791376Y9259412D01*
X-23881653Y9373812D01*
X-23932206Y9509949D01*
X-23939858Y9659536D01*
X-23905661Y9803531D01*
X-23854706Y9905613D01*
X-23783623Y9983982D01*
X-23679884Y10050842D01*
X-23623384Y10078510D01*
X-23588349Y10093971D01*
X-23553466Y10106492D01*
X-23513080Y10116439D01*
X-23461534Y10124178D01*
X-23393170Y10130075D01*
X-23302332Y10134495D01*
X-23183363Y10137804D01*
X-23030605Y10140369D01*
X-22838403Y10142555D01*
X-22601098Y10144728D01*
X-22599253Y10144744D01*
X-22357850Y10146586D01*
X-22162851Y10147374D01*
X-22009867Y10146976D01*
G37*
X-22009867Y10146976D02*
X-21894510Y10145259D01*
X-21812392Y10142090D01*
X-21759124Y10137338D01*
X-21730319Y10130869D01*
X-21721589Y10122553D01*
X-21722953Y10118311D01*
X-21746912Y10084032D01*
X-21793812Y10020245D01*
X-21855667Y9937742D01*
X-21893228Y9888218D01*
X-22042356Y9692401D01*
X-22711484Y9692401D01*
X-22913173Y9692258D01*
X-23070015Y9691536D01*
X-23187964Y9689792D01*
X-23272972Y9686583D01*
X-23330992Y9681469D01*
X-23367979Y9674006D01*
X-23389884Y9663752D01*
X-23402661Y9650265D01*
X-23408314Y9640641D01*
X-23424561Y9570098D01*
X-23402227Y9509899D01*
X-23348958Y9477036D01*
X-23308922Y9473382D01*
X-23225702Y9469604D01*
X-23106915Y9465913D01*
X-22960175Y9462520D01*
X-22793099Y9459635D01*
X-22658500Y9457927D01*
X-22462160Y9455659D01*
X-22309546Y9453162D01*
X-22193587Y9449781D01*
X-22107212Y9444864D01*
X-22043350Y9437756D01*
X-21994929Y9427803D01*
X-21954878Y9414353D01*
X-21916125Y9396750D01*
X-21897821Y9387600D01*
X-21785370Y9318205D01*
X-21713789Y9238334D01*
X-21674389Y9134649D01*
X-21660001Y9022526D01*
X-21668616Y8849737D01*
X-21718504Y8706502D01*
X-21809878Y8592531D01*
X-21942949Y8507537D01*
X-22074278Y8461574D01*
X-22137930Y8451070D01*
X-22238515Y8441991D01*
X-22369597Y8434353D01*
X-22524742Y8428172D01*
X-22697513Y8423465D01*
X-22881477Y8420247D01*
X-23070197Y8418535D01*
X-23257240Y8418346D01*
X-23436169Y8419694D01*
X-23600550Y8422597D01*
X-23743947Y8427071D01*
X-23859927Y8433132D01*
X-23942052Y8440795D01*
X-23983889Y8450078D01*
X-23986672Y8456758D01*
X-23956735Y8491267D01*
X-23904924Y8555345D01*
X-23840008Y8638045D01*
X-23803536Y8685358D01*
X-23654759Y8879600D01*
X-22939460Y8879600D01*
X-22720271Y8879918D01*
X-22546615Y8881326D01*
X-22413225Y8884504D01*
X-22314836Y8890134D01*
X-22246181Y8898896D01*
X-22201994Y8911472D01*
X-22177009Y8928542D01*
X-22165960Y8950788D01*
X-22163581Y8978890D01*
X-22163589Y8979931D01*
X-22165378Y9013472D01*
X-22173692Y9039880D01*
X-22194063Y9060144D01*
X-22232024Y9075254D01*
X-22293107Y9086203D01*
X-22382843Y9093980D01*
X-22506766Y9099576D01*
X-22670407Y9103983D01*
X-22879298Y9108191D01*
X-22879777Y9108200D01*
X-23083991Y9112359D01*
X-23244214Y9116529D01*
X-23367252Y9121291D01*
X-23459911Y9127224D01*
X-23528997Y9134907D01*
X-23581316Y9144921D01*
X-23623674Y9157845D01*
X-23662877Y9174258D01*
X-23664556Y9175032D01*
X-23791376Y9259412D01*
X-23881653Y9373812D01*
X-23932206Y9509949D01*
X-23939858Y9659536D01*
X-23905661Y9803531D01*
X-23854706Y9905613D01*
X-23783623Y9983982D01*
X-23679884Y10050842D01*
X-23623384Y10078510D01*
X-23588349Y10093971D01*
X-23553466Y10106492D01*
X-23513080Y10116439D01*
X-23461534Y10124178D01*
X-23393170Y10130075D01*
X-23302332Y10134495D01*
X-23183363Y10137804D01*
X-23030605Y10140369D01*
X-22838403Y10142555D01*
X-22601098Y10144728D01*
X-22599253Y10144744D01*
X-22357850Y10146586D01*
X-22162851Y10147374D01*
X-22009867Y10146976D01*
G36*
X-27199844Y10149342D02*
G01*
X-26988571Y10148475D01*
X-26819944Y10146861D01*
X-26689887Y10144360D01*
X-26594324Y10140835D01*
X-26529178Y10136146D01*
X-26490375Y10130156D01*
X-26473838Y10122725D01*
X-26473588Y10116134D01*
X-26497336Y10082403D01*
X-26544417Y10019327D01*
X-26606829Y9937544D01*
X-26645501Y9887534D01*
X-26797101Y9692401D01*
X-27350351Y9692401D01*
X-27903600Y9692400D01*
X-27903600Y9489200D01*
X-27215986Y9489201D01*
X-27010915Y9488963D01*
X-26851508Y9488045D01*
X-26732630Y9486141D01*
X-26649147Y9482945D01*
X-26595924Y9478151D01*
X-26567826Y9471451D01*
X-26559718Y9462541D01*
X-26566467Y9451113D01*
X-26567074Y9450499D01*
X-26601342Y9412046D01*
X-26655552Y9346807D01*
X-26718586Y9268192D01*
X-26725035Y9259999D01*
X-26844294Y9108200D01*
X-27903600Y9108200D01*
X-27903600Y8879600D01*
X-26429797Y8879600D01*
X-26603252Y8657350D01*
X-26776708Y8435100D01*
X-28462400Y8421716D01*
X-28462400Y10149600D01*
X-27457838Y10149600D01*
X-27199844Y10149342D01*
G37*
X-27199844Y10149342D02*
X-26988571Y10148475D01*
X-26819944Y10146861D01*
X-26689887Y10144360D01*
X-26594324Y10140835D01*
X-26529178Y10136146D01*
X-26490375Y10130156D01*
X-26473838Y10122725D01*
X-26473588Y10116134D01*
X-26497336Y10082403D01*
X-26544417Y10019327D01*
X-26606829Y9937544D01*
X-26645501Y9887534D01*
X-26797101Y9692401D01*
X-27350351Y9692401D01*
X-27903600Y9692400D01*
X-27903600Y9489200D01*
X-27215986Y9489201D01*
X-27010915Y9488963D01*
X-26851508Y9488045D01*
X-26732630Y9486141D01*
X-26649147Y9482945D01*
X-26595924Y9478151D01*
X-26567826Y9471451D01*
X-26559718Y9462541D01*
X-26566467Y9451113D01*
X-26567074Y9450499D01*
X-26601342Y9412046D01*
X-26655552Y9346807D01*
X-26718586Y9268192D01*
X-26725035Y9259999D01*
X-26844294Y9108200D01*
X-27903600Y9108200D01*
X-27903600Y8879600D01*
X-26429797Y8879600D01*
X-26603252Y8657350D01*
X-26776708Y8435100D01*
X-28462400Y8421716D01*
X-28462400Y10149600D01*
X-27457838Y10149600D01*
X-27199844Y10149342D01*
G36*
X-28793977Y9921000D02*
G01*
X-28974302Y9692400D01*
X-30011800Y9692400D01*
X-30011800Y9489200D01*
X-28715449Y9489200D01*
X-28874675Y9274367D01*
X-29033900Y9059534D01*
X-30011800Y9057400D01*
X-30011800Y8422400D01*
X-30570600Y8422400D01*
X-30570600Y10149600D01*
X-28613653Y10149600D01*
X-28793977Y9921000D01*
G37*
X-28793977Y9921000D02*
X-28974302Y9692400D01*
X-30011800Y9692400D01*
X-30011800Y9489200D01*
X-28715449Y9489200D01*
X-28874675Y9274367D01*
X-29033900Y9059534D01*
X-30011800Y9057400D01*
X-30011800Y8422400D01*
X-30570600Y8422400D01*
X-30570600Y10149600D01*
X-28613653Y10149600D01*
X-28793977Y9921000D01*
G36*
X-30927577Y9921000D02*
G01*
X-31107902Y9692400D01*
X-32145400Y9692400D01*
X-32145400Y9489200D01*
X-30849049Y9489200D01*
X-31008275Y9274367D01*
X-31167500Y9059534D01*
X-32145400Y9057400D01*
X-32145400Y8422400D01*
X-32704200Y8422400D01*
X-32704200Y10149600D01*
X-30747253Y10149600D01*
X-30927577Y9921000D01*
G37*
X-30927577Y9921000D02*
X-31107902Y9692400D01*
X-32145400Y9692400D01*
X-32145400Y9489200D01*
X-30849049Y9489200D01*
X-31008275Y9274367D01*
X-31167500Y9059534D01*
X-32145400Y9057400D01*
X-32145400Y8422400D01*
X-32704200Y8422400D01*
X-32704200Y10149600D01*
X-30747253Y10149600D01*
X-30927577Y9921000D01*
G36*
X-19844239Y9914650D02*
G01*
X-19769085Y9805640D01*
X-19675860Y9669950D01*
X-19575074Y9522902D01*
X-19477234Y9379813D01*
X-19451748Y9342471D01*
X-19221701Y9005242D01*
X-18819201Y9576480D01*
X-18416700Y10147718D01*
X-18088423Y10148659D01*
X-17760145Y10149600D01*
X-17811468Y10092450D01*
X-17838016Y10058557D01*
X-17889982Y9988387D01*
X-17963563Y9887219D01*
X-18054953Y9760329D01*
X-18160349Y9612994D01*
X-18275945Y9450491D01*
X-18365445Y9324100D01*
X-18513786Y9114573D01*
X-18636292Y8942637D01*
X-18736184Y8804215D01*
X-18816682Y8695229D01*
X-18881010Y8611601D01*
X-18932387Y8549253D01*
X-18974034Y8504108D01*
X-19009174Y8472088D01*
X-19041027Y8449114D01*
X-19069489Y8432833D01*
X-19157490Y8406358D01*
X-19264647Y8399830D01*
X-19362957Y8414315D01*
X-19381900Y8420945D01*
X-19410901Y8435602D01*
X-19442469Y8458687D01*
X-19479553Y8493994D01*
X-19525103Y8545318D01*
X-19582069Y8616452D01*
X-19653401Y8711191D01*
X-19742048Y8833330D01*
X-19850960Y8986662D01*
X-19983087Y9174984D01*
X-20113746Y9362376D01*
X-20661667Y10149600D01*
X-20006683Y10149600D01*
X-19844239Y9914650D01*
G37*
X-19844239Y9914650D02*
X-19769085Y9805640D01*
X-19675860Y9669950D01*
X-19575074Y9522902D01*
X-19477234Y9379813D01*
X-19451748Y9342471D01*
X-19221701Y9005242D01*
X-18819201Y9576480D01*
X-18416700Y10147718D01*
X-18088423Y10148659D01*
X-17760145Y10149600D01*
X-17811468Y10092450D01*
X-17838016Y10058557D01*
X-17889982Y9988387D01*
X-17963563Y9887219D01*
X-18054953Y9760329D01*
X-18160349Y9612994D01*
X-18275945Y9450491D01*
X-18365445Y9324100D01*
X-18513786Y9114573D01*
X-18636292Y8942637D01*
X-18736184Y8804215D01*
X-18816682Y8695229D01*
X-18881010Y8611601D01*
X-18932387Y8549253D01*
X-18974034Y8504108D01*
X-19009174Y8472088D01*
X-19041027Y8449114D01*
X-19069489Y8432833D01*
X-19157490Y8406358D01*
X-19264647Y8399830D01*
X-19362957Y8414315D01*
X-19381900Y8420945D01*
X-19410901Y8435602D01*
X-19442469Y8458687D01*
X-19479553Y8493994D01*
X-19525103Y8545318D01*
X-19582069Y8616452D01*
X-19653401Y8711191D01*
X-19742048Y8833330D01*
X-19850960Y8986662D01*
X-19983087Y9174984D01*
X-20113746Y9362376D01*
X-20661667Y10149600D01*
X-20006683Y10149600D01*
X-19844239Y9914650D01*
G36*
X-25906917Y10163453D02*
G01*
X-25854460Y10142350D01*
X-25821766Y10117887D01*
X-25756682Y10064011D01*
X-25664544Y9985328D01*
X-25550688Y9886444D01*
X-25420449Y9771967D01*
X-25279164Y9646504D01*
X-25251210Y9621534D01*
X-24703200Y9131568D01*
X-24703200Y10149600D01*
X-24218549Y10149600D01*
X-24225925Y9350044D01*
X-24233300Y8550488D01*
X-24300161Y8483661D01*
X-24391725Y8424688D01*
X-24501060Y8402118D01*
X-24609833Y8417889D01*
X-24665100Y8445138D01*
X-24703889Y8475330D01*
X-24774564Y8534600D01*
X-24871348Y8617934D01*
X-24988468Y8720317D01*
X-25120147Y8836736D01*
X-25260612Y8962175D01*
X-25262000Y8963421D01*
X-25782700Y9430782D01*
X-25796452Y8422400D01*
X-26278000Y8422400D01*
X-26278000Y9172516D01*
X-26277539Y9409260D01*
X-26275598Y9600616D01*
X-26271337Y9751993D01*
X-26263921Y9868801D01*
X-26252509Y9956448D01*
X-26236266Y10020341D01*
X-26214352Y10065891D01*
X-26185931Y10098506D01*
X-26150163Y10123595D01*
X-26128863Y10135213D01*
X-26016765Y10170177D01*
X-25906917Y10163453D01*
G37*
X-25906917Y10163453D02*
X-25854460Y10142350D01*
X-25821766Y10117887D01*
X-25756682Y10064011D01*
X-25664544Y9985328D01*
X-25550688Y9886444D01*
X-25420449Y9771967D01*
X-25279164Y9646504D01*
X-25251210Y9621534D01*
X-24703200Y9131568D01*
X-24703200Y10149600D01*
X-24218549Y10149600D01*
X-24225925Y9350044D01*
X-24233300Y8550488D01*
X-24300161Y8483661D01*
X-24391725Y8424688D01*
X-24501060Y8402118D01*
X-24609833Y8417889D01*
X-24665100Y8445138D01*
X-24703889Y8475330D01*
X-24774564Y8534600D01*
X-24871348Y8617934D01*
X-24988468Y8720317D01*
X-25120147Y8836736D01*
X-25260612Y8962175D01*
X-25262000Y8963421D01*
X-25782700Y9430782D01*
X-25796452Y8422400D01*
X-26278000Y8422400D01*
X-26278000Y9172516D01*
X-26277539Y9409260D01*
X-26275598Y9600616D01*
X-26271337Y9751993D01*
X-26263921Y9868801D01*
X-26252509Y9956448D01*
X-26236266Y10020341D01*
X-26214352Y10065891D01*
X-26185931Y10098506D01*
X-26150163Y10123595D01*
X-26128863Y10135213D01*
X-26016765Y10170177D01*
X-25906917Y10163453D01*
G36*
X-33909796Y10158014D02*
G01*
X-33653010Y10112625D01*
X-33433848Y10038065D01*
X-33253719Y9934956D01*
X-33114029Y9803922D01*
X-33018018Y9649665D01*
X-32992829Y9561042D01*
X-32977370Y9438699D01*
X-32971638Y9298778D01*
X-32975635Y9157418D01*
X-32989361Y9030760D01*
X-33012816Y8934945D01*
X-33018018Y8922336D01*
X-33116137Y8766368D01*
X-33256486Y8635784D01*
X-33436298Y8532392D01*
X-33652804Y8457996D01*
X-33767169Y8433432D01*
X-33907171Y8415813D01*
X-34078572Y8405209D01*
X-34262422Y8401873D01*
X-34439772Y8406054D01*
X-34591672Y8418004D01*
X-34622496Y8422094D01*
X-34868437Y8475136D01*
X-35072352Y8556137D01*
X-35235053Y8665749D01*
X-35357351Y8804625D01*
X-35440058Y8973418D01*
X-35474419Y9107404D01*
X-35487387Y9201636D01*
X-34955599Y9201636D01*
X-34913125Y9071056D01*
X-34829831Y8968041D01*
X-34707826Y8896346D01*
X-34694159Y8891250D01*
X-34612802Y8873438D01*
X-34493944Y8861492D01*
X-34350532Y8855299D01*
X-34195511Y8854742D01*
X-34041828Y8859706D01*
X-33902428Y8870078D01*
X-33790259Y8885742D01*
X-33734967Y8899762D01*
X-33632167Y8945528D01*
X-33563798Y9004846D01*
X-33523887Y9087717D01*
X-33506463Y9204140D01*
X-33504300Y9286000D01*
X-33510885Y9411978D01*
X-33533909Y9511662D01*
X-33578275Y9587789D01*
X-33648888Y9643097D01*
X-33750649Y9680322D01*
X-33888464Y9702201D01*
X-34067236Y9711471D01*
X-34266300Y9711311D01*
X-34467366Y9704894D01*
X-34623878Y9690721D01*
X-34741868Y9665680D01*
X-34827370Y9626660D01*
X-34886415Y9570548D01*
X-34925038Y9494234D01*
X-34949270Y9394605D01*
X-34955145Y9356025D01*
X-34955599Y9201636D01*
X-35487387Y9201636D01*
X-35491439Y9231076D01*
X-35491622Y9338543D01*
X-35474966Y9461529D01*
X-35474419Y9464597D01*
X-35419985Y9651475D01*
X-35328143Y9808869D01*
X-35197894Y9937335D01*
X-35028234Y10037433D01*
X-34818163Y10109722D01*
X-34566680Y10154758D01*
X-34272782Y10173102D01*
X-34202800Y10173611D01*
X-33909796Y10158014D01*
G37*
X-33909796Y10158014D02*
X-33653010Y10112625D01*
X-33433848Y10038065D01*
X-33253719Y9934956D01*
X-33114029Y9803922D01*
X-33018018Y9649665D01*
X-32992829Y9561042D01*
X-32977370Y9438699D01*
X-32971638Y9298778D01*
X-32975635Y9157418D01*
X-32989361Y9030760D01*
X-33012816Y8934945D01*
X-33018018Y8922336D01*
X-33116137Y8766368D01*
X-33256486Y8635784D01*
X-33436298Y8532392D01*
X-33652804Y8457996D01*
X-33767169Y8433432D01*
X-33907171Y8415813D01*
X-34078572Y8405209D01*
X-34262422Y8401873D01*
X-34439772Y8406054D01*
X-34591672Y8418004D01*
X-34622496Y8422094D01*
X-34868437Y8475136D01*
X-35072352Y8556137D01*
X-35235053Y8665749D01*
X-35357351Y8804625D01*
X-35440058Y8973418D01*
X-35474419Y9107404D01*
X-35487387Y9201636D01*
X-34955599Y9201636D01*
X-34913125Y9071056D01*
X-34829831Y8968041D01*
X-34707826Y8896346D01*
X-34694159Y8891250D01*
X-34612802Y8873438D01*
X-34493944Y8861492D01*
X-34350532Y8855299D01*
X-34195511Y8854742D01*
X-34041828Y8859706D01*
X-33902428Y8870078D01*
X-33790259Y8885742D01*
X-33734967Y8899762D01*
X-33632167Y8945528D01*
X-33563798Y9004846D01*
X-33523887Y9087717D01*
X-33506463Y9204140D01*
X-33504300Y9286000D01*
X-33510885Y9411978D01*
X-33533909Y9511662D01*
X-33578275Y9587789D01*
X-33648888Y9643097D01*
X-33750649Y9680322D01*
X-33888464Y9702201D01*
X-34067236Y9711471D01*
X-34266300Y9711311D01*
X-34467366Y9704894D01*
X-34623878Y9690721D01*
X-34741868Y9665680D01*
X-34827370Y9626660D01*
X-34886415Y9570548D01*
X-34925038Y9494234D01*
X-34949270Y9394605D01*
X-34955145Y9356025D01*
X-34955599Y9201636D01*
X-35487387Y9201636D01*
X-35491439Y9231076D01*
X-35491622Y9338543D01*
X-35474966Y9461529D01*
X-35474419Y9464597D01*
X-35419985Y9651475D01*
X-35328143Y9808869D01*
X-35197894Y9937335D01*
X-35028234Y10037433D01*
X-34818163Y10109722D01*
X-34566680Y10154758D01*
X-34272782Y10173102D01*
X-34202800Y10173611D01*
X-33909796Y10158014D01*
G36*
X-13539900Y8459372D02*
G01*
X-13387500Y8350002D01*
X-13380707Y7725801D01*
X-13373913Y7101600D01*
X-13596607Y7102595D01*
X-13723062Y7107599D01*
X-13829248Y7120233D01*
X-13900010Y7138692D01*
X-13900207Y7138777D01*
X-13957591Y7170047D01*
X-14001271Y7212069D01*
X-14033358Y7271893D01*
X-14055963Y7356573D01*
X-14071198Y7473159D01*
X-14081174Y7628704D01*
X-14086000Y7759314D01*
X-14091348Y7915971D01*
X-14097030Y8029419D01*
X-14104046Y8107246D01*
X-14113399Y8157036D01*
X-14126089Y8186379D01*
X-14143116Y8202859D01*
X-14144638Y8203814D01*
X-14186496Y8216770D01*
X-14222533Y8188618D01*
X-14228188Y8181228D01*
X-14241603Y8154501D01*
X-14251143Y8111419D01*
X-14257198Y8045053D01*
X-14260157Y7948478D01*
X-14260411Y7814766D01*
X-14258450Y7643632D01*
X-14251100Y7156707D01*
X-14555900Y7374907D01*
X-14562902Y7772871D01*
X-14564208Y7964269D01*
X-14559513Y8113107D01*
X-14547264Y8227431D01*
X-14525906Y8315287D01*
X-14493885Y8384720D01*
X-14449648Y8443776D01*
X-14429165Y8465316D01*
X-14371971Y8515957D01*
X-14317925Y8540962D01*
X-14244288Y8548995D01*
X-14208492Y8549400D01*
X-14098988Y8540249D01*
X-14013658Y8509551D01*
X-13949883Y8452438D01*
X-13905048Y8364042D01*
X-13876534Y8239496D01*
X-13861725Y8073932D01*
X-13857958Y7897428D01*
X-13856708Y7764561D01*
X-13853660Y7647882D01*
X-13849231Y7557819D01*
X-13843838Y7504800D01*
X-13841983Y7497378D01*
X-13805526Y7466314D01*
X-13752138Y7457200D01*
X-13677711Y7457200D01*
X-13685006Y8012972D01*
X-13692300Y8568743D01*
X-13539900Y8459372D01*
G37*
X-13539900Y8459372D02*
X-13387500Y8350002D01*
X-13380707Y7725801D01*
X-13373913Y7101600D01*
X-13596607Y7102595D01*
X-13723062Y7107599D01*
X-13829248Y7120233D01*
X-13900010Y7138692D01*
X-13900207Y7138777D01*
X-13957591Y7170047D01*
X-14001271Y7212069D01*
X-14033358Y7271893D01*
X-14055963Y7356573D01*
X-14071198Y7473159D01*
X-14081174Y7628704D01*
X-14086000Y7759314D01*
X-14091348Y7915971D01*
X-14097030Y8029419D01*
X-14104046Y8107246D01*
X-14113399Y8157036D01*
X-14126089Y8186379D01*
X-14143116Y8202859D01*
X-14144638Y8203814D01*
X-14186496Y8216770D01*
X-14222533Y8188618D01*
X-14228188Y8181228D01*
X-14241603Y8154501D01*
X-14251143Y8111419D01*
X-14257198Y8045053D01*
X-14260157Y7948478D01*
X-14260411Y7814766D01*
X-14258450Y7643632D01*
X-14251100Y7156707D01*
X-14555900Y7374907D01*
X-14562902Y7772871D01*
X-14564208Y7964269D01*
X-14559513Y8113107D01*
X-14547264Y8227431D01*
X-14525906Y8315287D01*
X-14493885Y8384720D01*
X-14449648Y8443776D01*
X-14429165Y8465316D01*
X-14371971Y8515957D01*
X-14317925Y8540962D01*
X-14244288Y8548995D01*
X-14208492Y8549400D01*
X-14098988Y8540249D01*
X-14013658Y8509551D01*
X-13949883Y8452438D01*
X-13905048Y8364042D01*
X-13876534Y8239496D01*
X-13861725Y8073932D01*
X-13857958Y7897428D01*
X-13856708Y7764561D01*
X-13853660Y7647882D01*
X-13849231Y7557819D01*
X-13843838Y7504800D01*
X-13841983Y7497378D01*
X-13805526Y7466314D01*
X-13752138Y7457200D01*
X-13677711Y7457200D01*
X-13685006Y8012972D01*
X-13692300Y8568743D01*
X-13539900Y8459372D01*
G36*
X-21510244Y7837942D02*
G01*
X-21298971Y7837075D01*
X-21130344Y7835461D01*
X-21000287Y7832960D01*
X-20904724Y7829435D01*
X-20839578Y7824746D01*
X-20800775Y7818756D01*
X-20784238Y7811325D01*
X-20783988Y7804734D01*
X-20807736Y7771003D01*
X-20854817Y7707927D01*
X-20917229Y7626144D01*
X-20955901Y7576134D01*
X-21107501Y7381000D01*
X-22214000Y7381000D01*
X-22214000Y7177800D01*
X-21526386Y7177800D01*
X-21321315Y7177563D01*
X-21161908Y7176645D01*
X-21043030Y7174741D01*
X-20959547Y7171545D01*
X-20906324Y7166751D01*
X-20878226Y7160051D01*
X-20870118Y7151141D01*
X-20876867Y7139713D01*
X-20877474Y7139099D01*
X-20911742Y7100646D01*
X-20965952Y7035407D01*
X-21028986Y6956792D01*
X-21035435Y6948599D01*
X-21154694Y6796800D01*
X-22214000Y6796800D01*
X-22214000Y6568200D01*
X-20740197Y6568200D01*
X-20913652Y6345950D01*
X-21087108Y6123700D01*
X-22772800Y6110316D01*
X-22772800Y7838200D01*
X-21768238Y7838200D01*
X-21510244Y7837942D01*
G37*
X-21510244Y7837942D02*
X-21298971Y7837075D01*
X-21130344Y7835461D01*
X-21000287Y7832960D01*
X-20904724Y7829435D01*
X-20839578Y7824746D01*
X-20800775Y7818756D01*
X-20784238Y7811325D01*
X-20783988Y7804734D01*
X-20807736Y7771003D01*
X-20854817Y7707927D01*
X-20917229Y7626144D01*
X-20955901Y7576134D01*
X-21107501Y7381000D01*
X-22214000Y7381000D01*
X-22214000Y7177800D01*
X-21526386Y7177800D01*
X-21321315Y7177563D01*
X-21161908Y7176645D01*
X-21043030Y7174741D01*
X-20959547Y7171545D01*
X-20906324Y7166751D01*
X-20878226Y7160051D01*
X-20870118Y7151141D01*
X-20876867Y7139713D01*
X-20877474Y7139099D01*
X-20911742Y7100646D01*
X-20965952Y7035407D01*
X-21028986Y6956792D01*
X-21035435Y6948599D01*
X-21154694Y6796800D01*
X-22214000Y6796800D01*
X-22214000Y6568200D01*
X-20740197Y6568200D01*
X-20913652Y6345950D01*
X-21087108Y6123700D01*
X-22772800Y6110316D01*
X-22772800Y7838200D01*
X-21768238Y7838200D01*
X-21510244Y7837942D01*
G36*
X-23268100Y7382385D02*
G01*
X-23579250Y7381693D01*
X-23890400Y7381000D01*
X-23890400Y6111000D01*
X-24423800Y6111000D01*
X-24423800Y7379742D01*
X-24828992Y7386721D01*
X-25234183Y7393700D01*
X-25063942Y7614979D01*
X-24893700Y7836258D01*
X-23908138Y7837229D01*
X-22922576Y7838201D01*
X-23268100Y7382385D01*
G37*
X-23268100Y7382385D02*
X-23579250Y7381693D01*
X-23890400Y7381000D01*
X-23890400Y6111000D01*
X-24423800Y6111000D01*
X-24423800Y7379742D01*
X-24828992Y7386721D01*
X-25234183Y7393700D01*
X-25063942Y7614979D01*
X-24893700Y7836258D01*
X-23908138Y7837229D01*
X-22922576Y7838201D01*
X-23268100Y7382385D01*
G36*
X-25414400Y6111000D02*
G01*
X-25947800Y6111000D01*
X-25947800Y7838200D01*
X-25414400Y7838200D01*
X-25414400Y6111000D01*
G37*
X-25414400Y6111000D02*
X-25947800Y6111000D01*
X-25947800Y7838200D01*
X-25414400Y7838200D01*
X-25414400Y6111000D01*
G36*
X-26556467Y7835576D02*
G01*
X-26441110Y7833859D01*
X-26358992Y7830690D01*
X-26305724Y7825938D01*
X-26276919Y7819469D01*
X-26268189Y7811153D01*
X-26269553Y7806911D01*
X-26293512Y7772632D01*
X-26340412Y7708845D01*
X-26402267Y7626342D01*
X-26439828Y7576818D01*
X-26588956Y7381001D01*
X-27258084Y7381000D01*
X-27459773Y7380858D01*
X-27616615Y7380136D01*
X-27734564Y7378392D01*
X-27819572Y7375183D01*
X-27877592Y7370069D01*
X-27914579Y7362606D01*
X-27936484Y7352352D01*
X-27949261Y7338865D01*
X-27954914Y7329241D01*
X-27971161Y7258698D01*
X-27948827Y7198499D01*
X-27895558Y7165636D01*
X-27855522Y7161982D01*
X-27772302Y7158204D01*
X-27653515Y7154513D01*
X-27506775Y7151120D01*
X-27339699Y7148235D01*
X-27205100Y7146527D01*
X-27008760Y7144259D01*
X-26856146Y7141762D01*
X-26740187Y7138381D01*
X-26653812Y7133464D01*
X-26589950Y7126356D01*
X-26541529Y7116403D01*
X-26501478Y7102953D01*
X-26462725Y7085350D01*
X-26444421Y7076200D01*
X-26331970Y7006805D01*
X-26260389Y6926934D01*
X-26220989Y6823249D01*
X-26206601Y6711126D01*
X-26215216Y6538337D01*
X-26265104Y6395102D01*
X-26356478Y6281131D01*
X-26489549Y6196137D01*
X-26620878Y6150174D01*
X-26684530Y6139670D01*
X-26785115Y6130591D01*
X-26916197Y6122953D01*
X-27071342Y6116772D01*
X-27244113Y6112065D01*
X-27428077Y6108847D01*
X-27616797Y6107135D01*
X-27803840Y6106946D01*
X-27982769Y6108294D01*
X-28147150Y6111197D01*
X-28290547Y6115671D01*
X-28406527Y6121732D01*
X-28488652Y6129395D01*
X-28530489Y6138678D01*
X-28533272Y6145358D01*
X-28503335Y6179867D01*
X-28451524Y6243945D01*
X-28386608Y6326645D01*
X-28350136Y6373958D01*
X-28201359Y6568200D01*
X-27486060Y6568200D01*
X-27266871Y6568518D01*
X-27093215Y6569926D01*
X-26959825Y6573104D01*
X-26861436Y6578734D01*
X-26792781Y6587496D01*
X-26748594Y6600072D01*
X-26723609Y6617142D01*
X-26712560Y6639388D01*
X-26710181Y6667490D01*
X-26710189Y6668531D01*
X-26711978Y6702072D01*
X-26720292Y6728480D01*
X-26740663Y6748744D01*
X-26778624Y6763854D01*
X-26839707Y6774803D01*
X-26929443Y6782580D01*
X-27053366Y6788176D01*
X-27217007Y6792583D01*
X-27425898Y6796791D01*
X-27426377Y6796800D01*
X-27630591Y6800959D01*
X-27790814Y6805129D01*
X-27913852Y6809891D01*
X-28006511Y6815824D01*
X-28075597Y6823507D01*
X-28127916Y6833521D01*
X-28170274Y6846445D01*
X-28209477Y6862858D01*
X-28211156Y6863632D01*
X-28337976Y6948012D01*
X-28428253Y7062412D01*
X-28478806Y7198549D01*
X-28486458Y7348136D01*
X-28452261Y7492131D01*
X-28401306Y7594213D01*
X-28330223Y7672582D01*
X-28226484Y7739442D01*
X-28169984Y7767110D01*
X-28134949Y7782571D01*
X-28100066Y7795092D01*
X-28059680Y7805039D01*
X-28008134Y7812778D01*
X-27939770Y7818675D01*
X-27848932Y7823095D01*
X-27729963Y7826404D01*
X-27577205Y7828969D01*
X-27385003Y7831155D01*
X-27147698Y7833328D01*
X-27145853Y7833344D01*
X-26904450Y7835186D01*
X-26709451Y7835974D01*
X-26556467Y7835576D01*
G37*
X-26556467Y7835576D02*
X-26441110Y7833859D01*
X-26358992Y7830690D01*
X-26305724Y7825938D01*
X-26276919Y7819469D01*
X-26268189Y7811153D01*
X-26269553Y7806911D01*
X-26293512Y7772632D01*
X-26340412Y7708845D01*
X-26402267Y7626342D01*
X-26439828Y7576818D01*
X-26588956Y7381001D01*
X-27258084Y7381000D01*
X-27459773Y7380858D01*
X-27616615Y7380136D01*
X-27734564Y7378392D01*
X-27819572Y7375183D01*
X-27877592Y7370069D01*
X-27914579Y7362606D01*
X-27936484Y7352352D01*
X-27949261Y7338865D01*
X-27954914Y7329241D01*
X-27971161Y7258698D01*
X-27948827Y7198499D01*
X-27895558Y7165636D01*
X-27855522Y7161982D01*
X-27772302Y7158204D01*
X-27653515Y7154513D01*
X-27506775Y7151120D01*
X-27339699Y7148235D01*
X-27205100Y7146527D01*
X-27008760Y7144259D01*
X-26856146Y7141762D01*
X-26740187Y7138381D01*
X-26653812Y7133464D01*
X-26589950Y7126356D01*
X-26541529Y7116403D01*
X-26501478Y7102953D01*
X-26462725Y7085350D01*
X-26444421Y7076200D01*
X-26331970Y7006805D01*
X-26260389Y6926934D01*
X-26220989Y6823249D01*
X-26206601Y6711126D01*
X-26215216Y6538337D01*
X-26265104Y6395102D01*
X-26356478Y6281131D01*
X-26489549Y6196137D01*
X-26620878Y6150174D01*
X-26684530Y6139670D01*
X-26785115Y6130591D01*
X-26916197Y6122953D01*
X-27071342Y6116772D01*
X-27244113Y6112065D01*
X-27428077Y6108847D01*
X-27616797Y6107135D01*
X-27803840Y6106946D01*
X-27982769Y6108294D01*
X-28147150Y6111197D01*
X-28290547Y6115671D01*
X-28406527Y6121732D01*
X-28488652Y6129395D01*
X-28530489Y6138678D01*
X-28533272Y6145358D01*
X-28503335Y6179867D01*
X-28451524Y6243945D01*
X-28386608Y6326645D01*
X-28350136Y6373958D01*
X-28201359Y6568200D01*
X-27486060Y6568200D01*
X-27266871Y6568518D01*
X-27093215Y6569926D01*
X-26959825Y6573104D01*
X-26861436Y6578734D01*
X-26792781Y6587496D01*
X-26748594Y6600072D01*
X-26723609Y6617142D01*
X-26712560Y6639388D01*
X-26710181Y6667490D01*
X-26710189Y6668531D01*
X-26711978Y6702072D01*
X-26720292Y6728480D01*
X-26740663Y6748744D01*
X-26778624Y6763854D01*
X-26839707Y6774803D01*
X-26929443Y6782580D01*
X-27053366Y6788176D01*
X-27217007Y6792583D01*
X-27425898Y6796791D01*
X-27426377Y6796800D01*
X-27630591Y6800959D01*
X-27790814Y6805129D01*
X-27913852Y6809891D01*
X-28006511Y6815824D01*
X-28075597Y6823507D01*
X-28127916Y6833521D01*
X-28170274Y6846445D01*
X-28209477Y6862858D01*
X-28211156Y6863632D01*
X-28337976Y6948012D01*
X-28428253Y7062412D01*
X-28478806Y7198549D01*
X-28486458Y7348136D01*
X-28452261Y7492131D01*
X-28401306Y7594213D01*
X-28330223Y7672582D01*
X-28226484Y7739442D01*
X-28169984Y7767110D01*
X-28134949Y7782571D01*
X-28100066Y7795092D01*
X-28059680Y7805039D01*
X-28008134Y7812778D01*
X-27939770Y7818675D01*
X-27848932Y7823095D01*
X-27729963Y7826404D01*
X-27577205Y7828969D01*
X-27385003Y7831155D01*
X-27147698Y7833328D01*
X-27145853Y7833344D01*
X-26904450Y7835186D01*
X-26709451Y7835974D01*
X-26556467Y7835576D01*
G36*
X-28793977Y7609600D02*
G01*
X-28974302Y7381000D01*
X-30011800Y7381000D01*
X-30011800Y7177800D01*
X-28715449Y7177800D01*
X-28874675Y6962967D01*
X-29033900Y6748134D01*
X-30011800Y6746000D01*
X-30011800Y6111000D01*
X-30570600Y6111000D01*
X-30570600Y7838200D01*
X-28613653Y7838200D01*
X-28793977Y7609600D01*
G37*
X-28793977Y7609600D02*
X-28974302Y7381000D01*
X-30011800Y7381000D01*
X-30011800Y7177800D01*
X-28715449Y7177800D01*
X-28874675Y6962967D01*
X-29033900Y6748134D01*
X-30011800Y6746000D01*
X-30011800Y6111000D01*
X-30570600Y6111000D01*
X-30570600Y7838200D01*
X-28613653Y7838200D01*
X-28793977Y7609600D01*
G36*
X-30927577Y7609600D02*
G01*
X-31107902Y7381000D01*
X-32145400Y7381000D01*
X-32145400Y7177800D01*
X-30849049Y7177800D01*
X-31008275Y6962967D01*
X-31167500Y6748134D01*
X-32145400Y6746000D01*
X-32145400Y6111000D01*
X-32704200Y6111000D01*
X-32704200Y7838200D01*
X-30747253Y7838200D01*
X-30927577Y7609600D01*
G37*
X-30927577Y7609600D02*
X-31107902Y7381000D01*
X-32145400Y7381000D01*
X-32145400Y7177800D01*
X-30849049Y7177800D01*
X-31008275Y6962967D01*
X-31167500Y6748134D01*
X-32145400Y6746000D01*
X-32145400Y6111000D01*
X-32704200Y6111000D01*
X-32704200Y7838200D01*
X-30747253Y7838200D01*
X-30927577Y7609600D01*
G36*
X-33909796Y7846614D02*
G01*
X-33653010Y7801225D01*
X-33433848Y7726665D01*
X-33253719Y7623556D01*
X-33114029Y7492522D01*
X-33018018Y7338265D01*
X-32992829Y7249642D01*
X-32977370Y7127299D01*
X-32971638Y6987378D01*
X-32975635Y6846018D01*
X-32989361Y6719360D01*
X-33012816Y6623545D01*
X-33018018Y6610936D01*
X-33116137Y6454968D01*
X-33256486Y6324384D01*
X-33436298Y6220992D01*
X-33652804Y6146596D01*
X-33767169Y6122032D01*
X-33907171Y6104413D01*
X-34078572Y6093809D01*
X-34262422Y6090473D01*
X-34439772Y6094654D01*
X-34591672Y6106604D01*
X-34622496Y6110694D01*
X-34868437Y6163736D01*
X-35072352Y6244737D01*
X-35235053Y6354349D01*
X-35357351Y6493225D01*
X-35440058Y6662018D01*
X-35474419Y6796004D01*
X-35487387Y6890236D01*
X-34955599Y6890236D01*
X-34913125Y6759656D01*
X-34829831Y6656641D01*
X-34707826Y6584946D01*
X-34694159Y6579850D01*
X-34612802Y6562038D01*
X-34493944Y6550092D01*
X-34350532Y6543899D01*
X-34195511Y6543342D01*
X-34041828Y6548306D01*
X-33902428Y6558678D01*
X-33790259Y6574342D01*
X-33734967Y6588362D01*
X-33632167Y6634128D01*
X-33563798Y6693446D01*
X-33523887Y6776317D01*
X-33506463Y6892740D01*
X-33504300Y6974600D01*
X-33510885Y7100578D01*
X-33533909Y7200262D01*
X-33578275Y7276389D01*
X-33648888Y7331697D01*
X-33750649Y7368922D01*
X-33888464Y7390801D01*
X-34067236Y7400071D01*
X-34266300Y7399911D01*
X-34467366Y7393494D01*
X-34623878Y7379321D01*
X-34741868Y7354280D01*
X-34827370Y7315260D01*
X-34886415Y7259148D01*
X-34925038Y7182834D01*
X-34949270Y7083205D01*
X-34955145Y7044625D01*
X-34955599Y6890236D01*
X-35487387Y6890236D01*
X-35491439Y6919676D01*
X-35491622Y7027143D01*
X-35474966Y7150129D01*
X-35474419Y7153197D01*
X-35419985Y7340075D01*
X-35328143Y7497469D01*
X-35197894Y7625935D01*
X-35028234Y7726033D01*
X-34818163Y7798322D01*
X-34566680Y7843358D01*
X-34272782Y7861702D01*
X-34202800Y7862211D01*
X-33909796Y7846614D01*
G37*
X-33909796Y7846614D02*
X-33653010Y7801225D01*
X-33433848Y7726665D01*
X-33253719Y7623556D01*
X-33114029Y7492522D01*
X-33018018Y7338265D01*
X-32992829Y7249642D01*
X-32977370Y7127299D01*
X-32971638Y6987378D01*
X-32975635Y6846018D01*
X-32989361Y6719360D01*
X-33012816Y6623545D01*
X-33018018Y6610936D01*
X-33116137Y6454968D01*
X-33256486Y6324384D01*
X-33436298Y6220992D01*
X-33652804Y6146596D01*
X-33767169Y6122032D01*
X-33907171Y6104413D01*
X-34078572Y6093809D01*
X-34262422Y6090473D01*
X-34439772Y6094654D01*
X-34591672Y6106604D01*
X-34622496Y6110694D01*
X-34868437Y6163736D01*
X-35072352Y6244737D01*
X-35235053Y6354349D01*
X-35357351Y6493225D01*
X-35440058Y6662018D01*
X-35474419Y6796004D01*
X-35487387Y6890236D01*
X-34955599Y6890236D01*
X-34913125Y6759656D01*
X-34829831Y6656641D01*
X-34707826Y6584946D01*
X-34694159Y6579850D01*
X-34612802Y6562038D01*
X-34493944Y6550092D01*
X-34350532Y6543899D01*
X-34195511Y6543342D01*
X-34041828Y6548306D01*
X-33902428Y6558678D01*
X-33790259Y6574342D01*
X-33734967Y6588362D01*
X-33632167Y6634128D01*
X-33563798Y6693446D01*
X-33523887Y6776317D01*
X-33506463Y6892740D01*
X-33504300Y6974600D01*
X-33510885Y7100578D01*
X-33533909Y7200262D01*
X-33578275Y7276389D01*
X-33648888Y7331697D01*
X-33750649Y7368922D01*
X-33888464Y7390801D01*
X-34067236Y7400071D01*
X-34266300Y7399911D01*
X-34467366Y7393494D01*
X-34623878Y7379321D01*
X-34741868Y7354280D01*
X-34827370Y7315260D01*
X-34886415Y7259148D01*
X-34925038Y7182834D01*
X-34949270Y7083205D01*
X-34955145Y7044625D01*
X-34955599Y6890236D01*
X-35487387Y6890236D01*
X-35491439Y6919676D01*
X-35491622Y7027143D01*
X-35474966Y7150129D01*
X-35474419Y7153197D01*
X-35419985Y7340075D01*
X-35328143Y7497469D01*
X-35197894Y7625935D01*
X-35028234Y7726033D01*
X-34818163Y7798322D01*
X-34566680Y7843358D01*
X-34272782Y7861702D01*
X-34202800Y7862211D01*
X-33909796Y7846614D01*
G36*
X-13879783Y6942163D02*
G01*
X-13711440Y6907250D01*
X-13577352Y6835455D01*
X-13475606Y6725575D01*
X-13440756Y6665182D01*
X-13412950Y6605335D01*
X-13394250Y6549895D01*
X-13382877Y6486628D01*
X-13377047Y6403295D01*
X-13374980Y6287662D01*
X-13374800Y6212168D01*
X-13375549Y6076183D01*
X-13379044Y5978686D01*
X-13387159Y5907374D01*
X-13401770Y5849941D01*
X-13424749Y5794084D01*
X-13444650Y5753605D01*
X-13535370Y5625791D01*
X-13658153Y5537328D01*
X-13813066Y5488178D01*
X-13957205Y5477115D01*
X-14062556Y5483233D01*
X-14163202Y5497920D01*
X-14221759Y5513050D01*
X-14356249Y5586793D01*
X-14459667Y5700489D01*
X-14491268Y5755400D01*
X-14527758Y5837108D01*
X-14551494Y5918146D01*
X-14564898Y6012822D01*
X-14570390Y6135440D01*
X-14570825Y6212600D01*
X-14251100Y6212600D01*
X-14250479Y6095255D01*
X-14246910Y6017232D01*
X-14237836Y5967055D01*
X-14220696Y5933248D01*
X-14192935Y5904334D01*
X-14179834Y5892901D01*
X-14126381Y5856075D01*
X-14064029Y5837432D01*
X-13973492Y5831679D01*
X-13956430Y5831600D01*
X-13862915Y5835327D01*
X-13802101Y5849863D01*
X-13756219Y5880237D01*
X-13744199Y5891692D01*
X-13695716Y5971126D01*
X-13666703Y6085268D01*
X-13658221Y6221484D01*
X-13671330Y6367135D01*
X-13695455Y6473229D01*
X-13736135Y6529159D01*
X-13811565Y6568720D01*
X-13907861Y6590219D01*
X-14011138Y6591964D01*
X-14107513Y6572260D01*
X-14179834Y6532300D01*
X-14212051Y6502336D01*
X-14232723Y6471615D01*
X-14244409Y6428659D01*
X-14249667Y6361993D01*
X-14251055Y6260140D01*
X-14251100Y6212600D01*
X-14570825Y6212600D01*
X-14570901Y6226058D01*
X-14554376Y6444698D01*
X-14506026Y6623771D01*
X-14425734Y6763395D01*
X-14313384Y6863692D01*
X-14168861Y6924783D01*
X-13992047Y6946787D01*
X-13879783Y6942163D01*
G37*
X-13879783Y6942163D02*
X-13711440Y6907250D01*
X-13577352Y6835455D01*
X-13475606Y6725575D01*
X-13440756Y6665182D01*
X-13412950Y6605335D01*
X-13394250Y6549895D01*
X-13382877Y6486628D01*
X-13377047Y6403295D01*
X-13374980Y6287662D01*
X-13374800Y6212168D01*
X-13375549Y6076183D01*
X-13379044Y5978686D01*
X-13387159Y5907374D01*
X-13401770Y5849941D01*
X-13424749Y5794084D01*
X-13444650Y5753605D01*
X-13535370Y5625791D01*
X-13658153Y5537328D01*
X-13813066Y5488178D01*
X-13957205Y5477115D01*
X-14062556Y5483233D01*
X-14163202Y5497920D01*
X-14221759Y5513050D01*
X-14356249Y5586793D01*
X-14459667Y5700489D01*
X-14491268Y5755400D01*
X-14527758Y5837108D01*
X-14551494Y5918146D01*
X-14564898Y6012822D01*
X-14570390Y6135440D01*
X-14570825Y6212600D01*
X-14251100Y6212600D01*
X-14250479Y6095255D01*
X-14246910Y6017232D01*
X-14237836Y5967055D01*
X-14220696Y5933248D01*
X-14192935Y5904334D01*
X-14179834Y5892901D01*
X-14126381Y5856075D01*
X-14064029Y5837432D01*
X-13973492Y5831679D01*
X-13956430Y5831600D01*
X-13862915Y5835327D01*
X-13802101Y5849863D01*
X-13756219Y5880237D01*
X-13744199Y5891692D01*
X-13695716Y5971126D01*
X-13666703Y6085268D01*
X-13658221Y6221484D01*
X-13671330Y6367135D01*
X-13695455Y6473229D01*
X-13736135Y6529159D01*
X-13811565Y6568720D01*
X-13907861Y6590219D01*
X-14011138Y6591964D01*
X-14107513Y6572260D01*
X-14179834Y6532300D01*
X-14212051Y6502336D01*
X-14232723Y6471615D01*
X-14244409Y6428659D01*
X-14249667Y6361993D01*
X-14251055Y6260140D01*
X-14251100Y6212600D01*
X-14570825Y6212600D01*
X-14570901Y6226058D01*
X-14554376Y6444698D01*
X-14506026Y6623771D01*
X-14425734Y6763395D01*
X-14313384Y6863692D01*
X-14168861Y6924783D01*
X-13992047Y6946787D01*
X-13879783Y6942163D01*
G36*
X-13539900Y5208172D02*
G01*
X-13387500Y5098802D01*
X-13380707Y4474601D01*
X-13373913Y3850400D01*
X-13596607Y3851395D01*
X-13723062Y3856399D01*
X-13829248Y3869033D01*
X-13900010Y3887492D01*
X-13900207Y3887577D01*
X-13957591Y3918847D01*
X-14001271Y3960869D01*
X-14033358Y4020693D01*
X-14055963Y4105373D01*
X-14071198Y4221959D01*
X-14081174Y4377504D01*
X-14086000Y4508114D01*
X-14091348Y4664771D01*
X-14097030Y4778219D01*
X-14104046Y4856046D01*
X-14113399Y4905836D01*
X-14126089Y4935179D01*
X-14143116Y4951659D01*
X-14144638Y4952614D01*
X-14186496Y4965570D01*
X-14222533Y4937418D01*
X-14228188Y4930028D01*
X-14241603Y4903301D01*
X-14251143Y4860219D01*
X-14257198Y4793853D01*
X-14260157Y4697278D01*
X-14260411Y4563566D01*
X-14258450Y4392432D01*
X-14251100Y3905507D01*
X-14555900Y4123707D01*
X-14562902Y4521671D01*
X-14564208Y4713069D01*
X-14559513Y4861907D01*
X-14547264Y4976231D01*
X-14525906Y5064087D01*
X-14493885Y5133520D01*
X-14449648Y5192576D01*
X-14429165Y5214116D01*
X-14371971Y5264757D01*
X-14317925Y5289762D01*
X-14244288Y5297795D01*
X-14208492Y5298200D01*
X-14098988Y5289049D01*
X-14013658Y5258351D01*
X-13949883Y5201238D01*
X-13905048Y5112842D01*
X-13876534Y4988296D01*
X-13861725Y4822732D01*
X-13857958Y4646228D01*
X-13856708Y4513361D01*
X-13853660Y4396682D01*
X-13849231Y4306619D01*
X-13843838Y4253600D01*
X-13841983Y4246178D01*
X-13805526Y4215114D01*
X-13752138Y4206000D01*
X-13677711Y4206000D01*
X-13685006Y4761772D01*
X-13692300Y5317543D01*
X-13539900Y5208172D01*
G37*
X-13539900Y5208172D02*
X-13387500Y5098802D01*
X-13380707Y4474601D01*
X-13373913Y3850400D01*
X-13596607Y3851395D01*
X-13723062Y3856399D01*
X-13829248Y3869033D01*
X-13900010Y3887492D01*
X-13900207Y3887577D01*
X-13957591Y3918847D01*
X-14001271Y3960869D01*
X-14033358Y4020693D01*
X-14055963Y4105373D01*
X-14071198Y4221959D01*
X-14081174Y4377504D01*
X-14086000Y4508114D01*
X-14091348Y4664771D01*
X-14097030Y4778219D01*
X-14104046Y4856046D01*
X-14113399Y4905836D01*
X-14126089Y4935179D01*
X-14143116Y4951659D01*
X-14144638Y4952614D01*
X-14186496Y4965570D01*
X-14222533Y4937418D01*
X-14228188Y4930028D01*
X-14241603Y4903301D01*
X-14251143Y4860219D01*
X-14257198Y4793853D01*
X-14260157Y4697278D01*
X-14260411Y4563566D01*
X-14258450Y4392432D01*
X-14251100Y3905507D01*
X-14555900Y4123707D01*
X-14562902Y4521671D01*
X-14564208Y4713069D01*
X-14559513Y4861907D01*
X-14547264Y4976231D01*
X-14525906Y5064087D01*
X-14493885Y5133520D01*
X-14449648Y5192576D01*
X-14429165Y5214116D01*
X-14371971Y5264757D01*
X-14317925Y5289762D01*
X-14244288Y5297795D01*
X-14208492Y5298200D01*
X-14098988Y5289049D01*
X-14013658Y5258351D01*
X-13949883Y5201238D01*
X-13905048Y5112842D01*
X-13876534Y4988296D01*
X-13861725Y4822732D01*
X-13857958Y4646228D01*
X-13856708Y4513361D01*
X-13853660Y4396682D01*
X-13849231Y4306619D01*
X-13843838Y4253600D01*
X-13841983Y4246178D01*
X-13805526Y4215114D01*
X-13752138Y4206000D01*
X-13677711Y4206000D01*
X-13685006Y4761772D01*
X-13692300Y5317543D01*
X-13539900Y5208172D01*
G36*
X-20055000Y3825000D02*
G01*
X-20588400Y3825000D01*
X-20588400Y5552200D01*
X-20055000Y5552200D01*
X-20055000Y3825000D01*
G37*
X-20055000Y3825000D02*
X-20588400Y3825000D01*
X-20588400Y5552200D01*
X-20055000Y5552200D01*
X-20055000Y3825000D01*
G36*
X-21109100Y5096385D02*
G01*
X-21420250Y5095693D01*
X-21731400Y5095000D01*
X-21731400Y3825000D01*
X-22264800Y3825000D01*
X-22264800Y5093742D01*
X-22669992Y5100721D01*
X-23075183Y5107700D01*
X-22904942Y5328979D01*
X-22734700Y5550258D01*
X-21749138Y5551229D01*
X-20763576Y5552201D01*
X-21109100Y5096385D01*
G37*
X-21109100Y5096385D02*
X-21420250Y5095693D01*
X-21731400Y5095000D01*
X-21731400Y3825000D01*
X-22264800Y3825000D01*
X-22264800Y5093742D01*
X-22669992Y5100721D01*
X-23075183Y5107700D01*
X-22904942Y5328979D01*
X-22734700Y5550258D01*
X-21749138Y5551229D01*
X-20763576Y5552201D01*
X-21109100Y5096385D01*
G36*
X-23894630Y5566416D02*
G01*
X-23773796Y5510803D01*
X-23684353Y5433818D01*
X-23653844Y5395525D01*
X-23598669Y5321009D01*
X-23522879Y5215950D01*
X-23430524Y5086031D01*
X-23325655Y4936931D01*
X-23212323Y4774331D01*
X-23152959Y4688600D01*
X-23036277Y4520082D01*
X-22925630Y4360967D01*
X-22825166Y4217169D01*
X-22739035Y4094604D01*
X-22671388Y3999187D01*
X-22626374Y3936832D01*
X-22613922Y3920250D01*
X-22539932Y3825000D01*
X-24585056Y3825000D01*
X-24533740Y3882150D01*
X-24494821Y3930013D01*
X-24438073Y4005183D01*
X-24374436Y4093097D01*
X-24361076Y4112020D01*
X-24239729Y4284740D01*
X-23875747Y4277120D01*
X-23733545Y4274370D01*
X-23635110Y4273699D01*
X-23573424Y4276022D01*
X-23541467Y4282258D01*
X-23532220Y4293323D01*
X-23538665Y4310134D01*
X-23545131Y4320300D01*
X-23618221Y4429354D01*
X-23697434Y4543843D01*
X-23777156Y4656093D01*
X-23851779Y4758429D01*
X-23915690Y4843177D01*
X-23963280Y4902662D01*
X-23988938Y4929212D01*
X-23990811Y4929900D01*
X-24011127Y4910046D01*
X-24056619Y4854093D01*
X-24123188Y4767461D01*
X-24206735Y4655568D01*
X-24303160Y4523832D01*
X-24403985Y4383800D01*
X-24794184Y3837700D01*
X-25116951Y3830592D01*
X-25439718Y3823483D01*
X-24890859Y4592592D01*
X-24735991Y4809296D01*
X-24607311Y4988396D01*
X-24501726Y5133799D01*
X-24416140Y5249415D01*
X-24347461Y5339149D01*
X-24292594Y5406909D01*
X-24248446Y5456604D01*
X-24211921Y5492140D01*
X-24179928Y5517425D01*
X-24149370Y5536367D01*
X-24139312Y5541768D01*
X-24019462Y5577448D01*
X-23894630Y5566416D01*
G37*
X-23894630Y5566416D02*
X-23773796Y5510803D01*
X-23684353Y5433818D01*
X-23653844Y5395525D01*
X-23598669Y5321009D01*
X-23522879Y5215950D01*
X-23430524Y5086031D01*
X-23325655Y4936931D01*
X-23212323Y4774331D01*
X-23152959Y4688600D01*
X-23036277Y4520082D01*
X-22925630Y4360967D01*
X-22825166Y4217169D01*
X-22739035Y4094604D01*
X-22671388Y3999187D01*
X-22626374Y3936832D01*
X-22613922Y3920250D01*
X-22539932Y3825000D01*
X-24585056Y3825000D01*
X-24533740Y3882150D01*
X-24494821Y3930013D01*
X-24438073Y4005183D01*
X-24374436Y4093097D01*
X-24361076Y4112020D01*
X-24239729Y4284740D01*
X-23875747Y4277120D01*
X-23733545Y4274370D01*
X-23635110Y4273699D01*
X-23573424Y4276022D01*
X-23541467Y4282258D01*
X-23532220Y4293323D01*
X-23538665Y4310134D01*
X-23545131Y4320300D01*
X-23618221Y4429354D01*
X-23697434Y4543843D01*
X-23777156Y4656093D01*
X-23851779Y4758429D01*
X-23915690Y4843177D01*
X-23963280Y4902662D01*
X-23988938Y4929212D01*
X-23990811Y4929900D01*
X-24011127Y4910046D01*
X-24056619Y4854093D01*
X-24123188Y4767461D01*
X-24206735Y4655568D01*
X-24303160Y4523832D01*
X-24403985Y4383800D01*
X-24794184Y3837700D01*
X-25116951Y3830592D01*
X-25439718Y3823483D01*
X-24890859Y4592592D01*
X-24735991Y4809296D01*
X-24607311Y4988396D01*
X-24501726Y5133799D01*
X-24416140Y5249415D01*
X-24347461Y5339149D01*
X-24292594Y5406909D01*
X-24248446Y5456604D01*
X-24211921Y5492140D01*
X-24179928Y5517425D01*
X-24149370Y5536367D01*
X-24139312Y5541768D01*
X-24019462Y5577448D01*
X-23894630Y5566416D01*
G36*
X-26784356Y5551076D02*
G01*
X-26609281Y5547921D01*
X-26451714Y5543059D01*
X-26320825Y5536817D01*
X-26225785Y5529521D01*
X-26188437Y5524528D01*
X-26020809Y5478181D01*
X-25870209Y5407362D01*
X-25752130Y5319583D01*
X-25739598Y5306919D01*
X-25648916Y5177686D01*
X-25601635Y5034147D01*
X-25595986Y4885249D01*
X-25630203Y4739935D01*
X-25702519Y4607152D01*
X-25811167Y4495844D01*
X-25912137Y4433421D01*
X-26028935Y4376880D01*
X-25478767Y3825000D01*
X-26200639Y3825000D01*
X-26589491Y4282200D01*
X-27421000Y4282200D01*
X-27421000Y3825000D01*
X-27954400Y3825000D01*
X-27954400Y4714000D01*
X-27158091Y4714000D01*
X-26913376Y4714512D01*
X-26714405Y4716397D01*
X-26556126Y4720185D01*
X-26433490Y4726401D01*
X-26341447Y4735574D01*
X-26274947Y4748232D01*
X-26228939Y4764901D01*
X-26198374Y4786110D01*
X-26178202Y4812386D01*
X-26175864Y4816602D01*
X-26152047Y4905581D01*
X-26170752Y4989893D01*
X-26204431Y5033914D01*
X-26221948Y5047151D01*
X-26245839Y5057896D01*
X-26281499Y5066515D01*
X-26334320Y5073375D01*
X-26409698Y5078842D01*
X-26513026Y5083282D01*
X-26649700Y5087063D01*
X-26825112Y5090551D01*
X-27044657Y5094112D01*
X-27103349Y5095000D01*
X-27948838Y5107700D01*
X-27597406Y5552200D01*
X-26967768Y5552201D01*
X-26784356Y5551076D01*
G37*
X-26784356Y5551076D02*
X-26609281Y5547921D01*
X-26451714Y5543059D01*
X-26320825Y5536817D01*
X-26225785Y5529521D01*
X-26188437Y5524528D01*
X-26020809Y5478181D01*
X-25870209Y5407362D01*
X-25752130Y5319583D01*
X-25739598Y5306919D01*
X-25648916Y5177686D01*
X-25601635Y5034147D01*
X-25595986Y4885249D01*
X-25630203Y4739935D01*
X-25702519Y4607152D01*
X-25811167Y4495844D01*
X-25912137Y4433421D01*
X-26028935Y4376880D01*
X-25478767Y3825000D01*
X-26200639Y3825000D01*
X-26589491Y4282200D01*
X-27421000Y4282200D01*
X-27421000Y3825000D01*
X-27954400Y3825000D01*
X-27954400Y4714000D01*
X-27158091Y4714000D01*
X-26913376Y4714512D01*
X-26714405Y4716397D01*
X-26556126Y4720185D01*
X-26433490Y4726401D01*
X-26341447Y4735574D01*
X-26274947Y4748232D01*
X-26228939Y4764901D01*
X-26198374Y4786110D01*
X-26178202Y4812386D01*
X-26175864Y4816602D01*
X-26152047Y4905581D01*
X-26170752Y4989893D01*
X-26204431Y5033914D01*
X-26221948Y5047151D01*
X-26245839Y5057896D01*
X-26281499Y5066515D01*
X-26334320Y5073375D01*
X-26409698Y5078842D01*
X-26513026Y5083282D01*
X-26649700Y5087063D01*
X-26825112Y5090551D01*
X-27044657Y5094112D01*
X-27103349Y5095000D01*
X-27948838Y5107700D01*
X-27597406Y5552200D01*
X-26967768Y5552201D01*
X-26784356Y5551076D01*
G36*
X-28876244Y5551942D02*
G01*
X-28664971Y5551075D01*
X-28496344Y5549461D01*
X-28366287Y5546960D01*
X-28270724Y5543435D01*
X-28205578Y5538746D01*
X-28166775Y5532756D01*
X-28150238Y5525325D01*
X-28149988Y5518734D01*
X-28173736Y5485003D01*
X-28220817Y5421927D01*
X-28283229Y5340144D01*
X-28321901Y5290134D01*
X-28473501Y5095000D01*
X-29580000Y5095000D01*
X-29580000Y4891800D01*
X-28892386Y4891800D01*
X-28687315Y4891563D01*
X-28527908Y4890645D01*
X-28409030Y4888741D01*
X-28325547Y4885545D01*
X-28272324Y4880751D01*
X-28244226Y4874051D01*
X-28236118Y4865141D01*
X-28242867Y4853713D01*
X-28243474Y4853099D01*
X-28277742Y4814646D01*
X-28331952Y4749407D01*
X-28394986Y4670792D01*
X-28401435Y4662599D01*
X-28520694Y4510800D01*
X-29580000Y4510800D01*
X-29580000Y4282200D01*
X-28106197Y4282200D01*
X-28279652Y4059950D01*
X-28453108Y3837700D01*
X-30138800Y3824316D01*
X-30138800Y5552200D01*
X-29134238Y5552200D01*
X-28876244Y5551942D01*
G37*
X-28876244Y5551942D02*
X-28664971Y5551075D01*
X-28496344Y5549461D01*
X-28366287Y5546960D01*
X-28270724Y5543435D01*
X-28205578Y5538746D01*
X-28166775Y5532756D01*
X-28150238Y5525325D01*
X-28149988Y5518734D01*
X-28173736Y5485003D01*
X-28220817Y5421927D01*
X-28283229Y5340144D01*
X-28321901Y5290134D01*
X-28473501Y5095000D01*
X-29580000Y5095000D01*
X-29580000Y4891800D01*
X-28892386Y4891800D01*
X-28687315Y4891563D01*
X-28527908Y4890645D01*
X-28409030Y4888741D01*
X-28325547Y4885545D01*
X-28272324Y4880751D01*
X-28244226Y4874051D01*
X-28236118Y4865141D01*
X-28242867Y4853713D01*
X-28243474Y4853099D01*
X-28277742Y4814646D01*
X-28331952Y4749407D01*
X-28394986Y4670792D01*
X-28401435Y4662599D01*
X-28520694Y4510800D01*
X-29580000Y4510800D01*
X-29580000Y4282200D01*
X-28106197Y4282200D01*
X-28279652Y4059950D01*
X-28453108Y3837700D01*
X-30138800Y3824316D01*
X-30138800Y5552200D01*
X-29134238Y5552200D01*
X-28876244Y5551942D01*
G36*
X-31653088Y5546222D02*
G01*
X-31424091Y5542456D01*
X-31239311Y5537382D01*
X-31092165Y5529796D01*
X-30976070Y5518490D01*
X-30884443Y5502260D01*
X-30810701Y5479898D01*
X-30748262Y5450199D01*
X-30690541Y5411956D01*
X-30630957Y5363965D01*
X-30623486Y5357593D01*
X-30514734Y5243826D01*
X-30449119Y5120173D01*
X-30420586Y4973271D01*
X-30418200Y4904500D01*
X-30438132Y4732203D01*
X-30499050Y4587448D01*
X-30602641Y4467952D01*
X-30750591Y4371430D01*
X-30841569Y4331134D01*
X-30893223Y4312356D01*
X-30945049Y4297864D01*
X-31004843Y4286932D01*
X-31080402Y4278834D01*
X-31179520Y4272844D01*
X-31309994Y4268236D01*
X-31479620Y4264284D01*
X-31580250Y4262351D01*
X-32170800Y4251443D01*
X-32170800Y3825000D01*
X-32704200Y3825000D01*
X-32704200Y4712003D01*
X-31881332Y4719352D01*
X-31654133Y4721546D01*
X-31472252Y4723865D01*
X-31330207Y4726657D01*
X-31222516Y4730272D01*
X-31143698Y4735058D01*
X-31088270Y4741363D01*
X-31050751Y4749537D01*
X-31025659Y4759928D01*
X-31007512Y4772884D01*
X-31005032Y4775087D01*
X-30958657Y4847488D01*
X-30953050Y4931781D01*
X-30987340Y5010754D01*
X-31018526Y5042357D01*
X-31038918Y5056941D01*
X-31062702Y5068552D01*
X-31095517Y5077526D01*
X-31142999Y5084204D01*
X-31210787Y5088924D01*
X-31304519Y5092023D01*
X-31429832Y5093841D01*
X-31592364Y5094716D01*
X-31797752Y5094986D01*
X-31895400Y5095000D01*
X-32705348Y5095000D01*
X-32341876Y5555780D01*
X-31653088Y5546222D01*
G37*
X-31653088Y5546222D02*
X-31424091Y5542456D01*
X-31239311Y5537382D01*
X-31092165Y5529796D01*
X-30976070Y5518490D01*
X-30884443Y5502260D01*
X-30810701Y5479898D01*
X-30748262Y5450199D01*
X-30690541Y5411956D01*
X-30630957Y5363965D01*
X-30623486Y5357593D01*
X-30514734Y5243826D01*
X-30449119Y5120173D01*
X-30420586Y4973271D01*
X-30418200Y4904500D01*
X-30438132Y4732203D01*
X-30499050Y4587448D01*
X-30602641Y4467952D01*
X-30750591Y4371430D01*
X-30841569Y4331134D01*
X-30893223Y4312356D01*
X-30945049Y4297864D01*
X-31004843Y4286932D01*
X-31080402Y4278834D01*
X-31179520Y4272844D01*
X-31309994Y4268236D01*
X-31479620Y4264284D01*
X-31580250Y4262351D01*
X-32170800Y4251443D01*
X-32170800Y3825000D01*
X-32704200Y3825000D01*
X-32704200Y4712003D01*
X-31881332Y4719352D01*
X-31654133Y4721546D01*
X-31472252Y4723865D01*
X-31330207Y4726657D01*
X-31222516Y4730272D01*
X-31143698Y4735058D01*
X-31088270Y4741363D01*
X-31050751Y4749537D01*
X-31025659Y4759928D01*
X-31007512Y4772884D01*
X-31005032Y4775087D01*
X-30958657Y4847488D01*
X-30953050Y4931781D01*
X-30987340Y5010754D01*
X-31018526Y5042357D01*
X-31038918Y5056941D01*
X-31062702Y5068552D01*
X-31095517Y5077526D01*
X-31142999Y5084204D01*
X-31210787Y5088924D01*
X-31304519Y5092023D01*
X-31429832Y5093841D01*
X-31592364Y5094716D01*
X-31797752Y5094986D01*
X-31895400Y5095000D01*
X-32705348Y5095000D01*
X-32341876Y5555780D01*
X-31653088Y5546222D01*
G36*
X-16610517Y5566053D02*
G01*
X-16558060Y5544950D01*
X-16525366Y5520487D01*
X-16460282Y5466611D01*
X-16368144Y5387928D01*
X-16254288Y5289044D01*
X-16124049Y5174567D01*
X-15982764Y5049104D01*
X-15954810Y5024134D01*
X-15406800Y4534168D01*
X-15406800Y5552200D01*
X-14922149Y5552200D01*
X-14929525Y4752644D01*
X-14936900Y3953088D01*
X-15003761Y3886261D01*
X-15095325Y3827288D01*
X-15204660Y3804718D01*
X-15313433Y3820489D01*
X-15368700Y3847738D01*
X-15407489Y3877930D01*
X-15478164Y3937200D01*
X-15574948Y4020534D01*
X-15692068Y4122917D01*
X-15823747Y4239336D01*
X-15964212Y4364775D01*
X-15965600Y4366021D01*
X-16486300Y4833382D01*
X-16500052Y3825000D01*
X-16981600Y3825000D01*
X-16981600Y4575116D01*
X-16981139Y4811860D01*
X-16979198Y5003216D01*
X-16974937Y5154593D01*
X-16967521Y5271401D01*
X-16956109Y5359048D01*
X-16939866Y5422941D01*
X-16917952Y5468491D01*
X-16889531Y5501106D01*
X-16853763Y5526195D01*
X-16832463Y5537813D01*
X-16720365Y5572777D01*
X-16610517Y5566053D01*
G37*
X-16610517Y5566053D02*
X-16558060Y5544950D01*
X-16525366Y5520487D01*
X-16460282Y5466611D01*
X-16368144Y5387928D01*
X-16254288Y5289044D01*
X-16124049Y5174567D01*
X-15982764Y5049104D01*
X-15954810Y5024134D01*
X-15406800Y4534168D01*
X-15406800Y5552200D01*
X-14922149Y5552200D01*
X-14929525Y4752644D01*
X-14936900Y3953088D01*
X-15003761Y3886261D01*
X-15095325Y3827288D01*
X-15204660Y3804718D01*
X-15313433Y3820489D01*
X-15368700Y3847738D01*
X-15407489Y3877930D01*
X-15478164Y3937200D01*
X-15574948Y4020534D01*
X-15692068Y4122917D01*
X-15823747Y4239336D01*
X-15964212Y4364775D01*
X-15965600Y4366021D01*
X-16486300Y4833382D01*
X-16500052Y3825000D01*
X-16981600Y3825000D01*
X-16981600Y4575116D01*
X-16981139Y4811860D01*
X-16979198Y5003216D01*
X-16974937Y5154593D01*
X-16967521Y5271401D01*
X-16956109Y5359048D01*
X-16939866Y5422941D01*
X-16917952Y5468491D01*
X-16889531Y5501106D01*
X-16853763Y5526195D01*
X-16832463Y5537813D01*
X-16720365Y5572777D01*
X-16610517Y5566053D01*
G36*
X-18212596Y5560614D02*
G01*
X-17955810Y5515225D01*
X-17736648Y5440665D01*
X-17556519Y5337556D01*
X-17416829Y5206522D01*
X-17320818Y5052265D01*
X-17295629Y4963642D01*
X-17280170Y4841299D01*
X-17274438Y4701378D01*
X-17278435Y4560018D01*
X-17292161Y4433360D01*
X-17315616Y4337545D01*
X-17320818Y4324936D01*
X-17418937Y4168968D01*
X-17559286Y4038384D01*
X-17739098Y3934992D01*
X-17955604Y3860596D01*
X-18069969Y3836032D01*
X-18209971Y3818413D01*
X-18381372Y3807809D01*
X-18565222Y3804473D01*
X-18742572Y3808654D01*
X-18894472Y3820604D01*
X-18925296Y3824694D01*
X-19171237Y3877736D01*
X-19375152Y3958737D01*
X-19537853Y4068349D01*
X-19660151Y4207225D01*
X-19742858Y4376018D01*
X-19777219Y4510004D01*
X-19790187Y4604236D01*
X-19258399Y4604236D01*
X-19215925Y4473656D01*
X-19132631Y4370641D01*
X-19010626Y4298946D01*
X-18996959Y4293850D01*
X-18915602Y4276038D01*
X-18796744Y4264092D01*
X-18653332Y4257899D01*
X-18498311Y4257342D01*
X-18344628Y4262306D01*
X-18205228Y4272678D01*
X-18093059Y4288342D01*
X-18037767Y4302362D01*
X-17934967Y4348128D01*
X-17866598Y4407446D01*
X-17826687Y4490317D01*
X-17809263Y4606740D01*
X-17807100Y4688600D01*
X-17813685Y4814578D01*
X-17836709Y4914262D01*
X-17881075Y4990389D01*
X-17951688Y5045697D01*
X-18053449Y5082922D01*
X-18191264Y5104801D01*
X-18370036Y5114071D01*
X-18569100Y5113911D01*
X-18770166Y5107494D01*
X-18926678Y5093321D01*
X-19044668Y5068280D01*
X-19130170Y5029260D01*
X-19189215Y4973148D01*
X-19227838Y4896834D01*
X-19252070Y4797205D01*
X-19257945Y4758625D01*
X-19258399Y4604236D01*
X-19790187Y4604236D01*
X-19794239Y4633676D01*
X-19794422Y4741143D01*
X-19777766Y4864129D01*
X-19777219Y4867197D01*
X-19722785Y5054075D01*
X-19630943Y5211469D01*
X-19500694Y5339935D01*
X-19331034Y5440033D01*
X-19120963Y5512322D01*
X-18869480Y5557358D01*
X-18575582Y5575702D01*
X-18505600Y5576211D01*
X-18212596Y5560614D01*
G37*
X-18212596Y5560614D02*
X-17955810Y5515225D01*
X-17736648Y5440665D01*
X-17556519Y5337556D01*
X-17416829Y5206522D01*
X-17320818Y5052265D01*
X-17295629Y4963642D01*
X-17280170Y4841299D01*
X-17274438Y4701378D01*
X-17278435Y4560018D01*
X-17292161Y4433360D01*
X-17315616Y4337545D01*
X-17320818Y4324936D01*
X-17418937Y4168968D01*
X-17559286Y4038384D01*
X-17739098Y3934992D01*
X-17955604Y3860596D01*
X-18069969Y3836032D01*
X-18209971Y3818413D01*
X-18381372Y3807809D01*
X-18565222Y3804473D01*
X-18742572Y3808654D01*
X-18894472Y3820604D01*
X-18925296Y3824694D01*
X-19171237Y3877736D01*
X-19375152Y3958737D01*
X-19537853Y4068349D01*
X-19660151Y4207225D01*
X-19742858Y4376018D01*
X-19777219Y4510004D01*
X-19790187Y4604236D01*
X-19258399Y4604236D01*
X-19215925Y4473656D01*
X-19132631Y4370641D01*
X-19010626Y4298946D01*
X-18996959Y4293850D01*
X-18915602Y4276038D01*
X-18796744Y4264092D01*
X-18653332Y4257899D01*
X-18498311Y4257342D01*
X-18344628Y4262306D01*
X-18205228Y4272678D01*
X-18093059Y4288342D01*
X-18037767Y4302362D01*
X-17934967Y4348128D01*
X-17866598Y4407446D01*
X-17826687Y4490317D01*
X-17809263Y4606740D01*
X-17807100Y4688600D01*
X-17813685Y4814578D01*
X-17836709Y4914262D01*
X-17881075Y4990389D01*
X-17951688Y5045697D01*
X-18053449Y5082922D01*
X-18191264Y5104801D01*
X-18370036Y5114071D01*
X-18569100Y5113911D01*
X-18770166Y5107494D01*
X-18926678Y5093321D01*
X-19044668Y5068280D01*
X-19130170Y5029260D01*
X-19189215Y4973148D01*
X-19227838Y4896834D01*
X-19252070Y4797205D01*
X-19257945Y4758625D01*
X-19258399Y4604236D01*
X-19790187Y4604236D01*
X-19794239Y4633676D01*
X-19794422Y4741143D01*
X-19777766Y4864129D01*
X-19777219Y4867197D01*
X-19722785Y5054075D01*
X-19630943Y5211469D01*
X-19500694Y5339935D01*
X-19331034Y5440033D01*
X-19120963Y5512322D01*
X-18869480Y5557358D01*
X-18575582Y5575702D01*
X-18505600Y5576211D01*
X-18212596Y5560614D01*
G36*
X-33909796Y5560614D02*
G01*
X-33653010Y5515225D01*
X-33433848Y5440665D01*
X-33253719Y5337556D01*
X-33114029Y5206522D01*
X-33018018Y5052265D01*
X-32992829Y4963642D01*
X-32977370Y4841299D01*
X-32971638Y4701378D01*
X-32975635Y4560018D01*
X-32989361Y4433360D01*
X-33012816Y4337545D01*
X-33018018Y4324936D01*
X-33116137Y4168968D01*
X-33256486Y4038384D01*
X-33436298Y3934992D01*
X-33652804Y3860596D01*
X-33767169Y3836032D01*
X-33907171Y3818413D01*
X-34078572Y3807809D01*
X-34262422Y3804473D01*
X-34439772Y3808654D01*
X-34591672Y3820604D01*
X-34622496Y3824694D01*
X-34868437Y3877736D01*
X-35072352Y3958737D01*
X-35235053Y4068349D01*
X-35357351Y4207225D01*
X-35440058Y4376018D01*
X-35474419Y4510004D01*
X-35487387Y4604236D01*
X-34955599Y4604236D01*
X-34913125Y4473656D01*
X-34829831Y4370641D01*
X-34707826Y4298946D01*
X-34694159Y4293850D01*
X-34612802Y4276038D01*
X-34493944Y4264092D01*
X-34350532Y4257899D01*
X-34195511Y4257342D01*
X-34041828Y4262306D01*
X-33902428Y4272678D01*
X-33790259Y4288342D01*
X-33734967Y4302362D01*
X-33632167Y4348128D01*
X-33563798Y4407446D01*
X-33523887Y4490317D01*
X-33506463Y4606740D01*
X-33504300Y4688600D01*
X-33510885Y4814578D01*
X-33533909Y4914262D01*
X-33578275Y4990389D01*
X-33648888Y5045697D01*
X-33750649Y5082922D01*
X-33888464Y5104801D01*
X-34067236Y5114071D01*
X-34266300Y5113911D01*
X-34467366Y5107494D01*
X-34623878Y5093321D01*
X-34741868Y5068280D01*
X-34827370Y5029260D01*
X-34886415Y4973148D01*
X-34925038Y4896834D01*
X-34949270Y4797205D01*
X-34955145Y4758625D01*
X-34955599Y4604236D01*
X-35487387Y4604236D01*
X-35491439Y4633676D01*
X-35491622Y4741143D01*
X-35474966Y4864129D01*
X-35474419Y4867197D01*
X-35419985Y5054075D01*
X-35328143Y5211469D01*
X-35197894Y5339935D01*
X-35028234Y5440033D01*
X-34818163Y5512322D01*
X-34566680Y5557358D01*
X-34272782Y5575702D01*
X-34202800Y5576211D01*
X-33909796Y5560614D01*
G37*
X-33909796Y5560614D02*
X-33653010Y5515225D01*
X-33433848Y5440665D01*
X-33253719Y5337556D01*
X-33114029Y5206522D01*
X-33018018Y5052265D01*
X-32992829Y4963642D01*
X-32977370Y4841299D01*
X-32971638Y4701378D01*
X-32975635Y4560018D01*
X-32989361Y4433360D01*
X-33012816Y4337545D01*
X-33018018Y4324936D01*
X-33116137Y4168968D01*
X-33256486Y4038384D01*
X-33436298Y3934992D01*
X-33652804Y3860596D01*
X-33767169Y3836032D01*
X-33907171Y3818413D01*
X-34078572Y3807809D01*
X-34262422Y3804473D01*
X-34439772Y3808654D01*
X-34591672Y3820604D01*
X-34622496Y3824694D01*
X-34868437Y3877736D01*
X-35072352Y3958737D01*
X-35235053Y4068349D01*
X-35357351Y4207225D01*
X-35440058Y4376018D01*
X-35474419Y4510004D01*
X-35487387Y4604236D01*
X-34955599Y4604236D01*
X-34913125Y4473656D01*
X-34829831Y4370641D01*
X-34707826Y4298946D01*
X-34694159Y4293850D01*
X-34612802Y4276038D01*
X-34493944Y4264092D01*
X-34350532Y4257899D01*
X-34195511Y4257342D01*
X-34041828Y4262306D01*
X-33902428Y4272678D01*
X-33790259Y4288342D01*
X-33734967Y4302362D01*
X-33632167Y4348128D01*
X-33563798Y4407446D01*
X-33523887Y4490317D01*
X-33506463Y4606740D01*
X-33504300Y4688600D01*
X-33510885Y4814578D01*
X-33533909Y4914262D01*
X-33578275Y4990389D01*
X-33648888Y5045697D01*
X-33750649Y5082922D01*
X-33888464Y5104801D01*
X-34067236Y5114071D01*
X-34266300Y5113911D01*
X-34467366Y5107494D01*
X-34623878Y5093321D01*
X-34741868Y5068280D01*
X-34827370Y5029260D01*
X-34886415Y4973148D01*
X-34925038Y4896834D01*
X-34949270Y4797205D01*
X-34955145Y4758625D01*
X-34955599Y4604236D01*
X-35487387Y4604236D01*
X-35491439Y4633676D01*
X-35491622Y4741143D01*
X-35474966Y4864129D01*
X-35474419Y4867197D01*
X-35419985Y5054075D01*
X-35328143Y5211469D01*
X-35197894Y5339935D01*
X-35028234Y5440033D01*
X-34818163Y5512322D01*
X-34566680Y5557358D01*
X-34272782Y5575702D01*
X-34202800Y5576211D01*
X-33909796Y5560614D01*
D11*
X-10140000Y-25960000D02*
G75*
G03X-10140000Y-25960000I-400000J0D01*
G01*
D12*
X16800000Y2800000D02*
G75*
G02X16800000Y2600000I0J-100000D01*
G01*
X16800000Y2600000D02*
G75*
G02X16800000Y2800000I0J100000D01*
G01*
D13*
X22600000Y500000D02*
X22600000Y-500000D01*
X17400000Y500000D02*
X17400000Y-500000D01*
X18500000Y-2600000D02*
X21500000Y-2600000D01*
X18500000Y2600000D02*
X21500000Y2600000D01*
D12*
X16800000Y2600000D02*
X16800000Y2600000D01*
X16800000Y2800000D02*
X16800000Y2800000D01*
X-23200000Y2800000D02*
G75*
G02X-23200000Y2600000I0J-100000D01*
G01*
X-23200000Y2600000D02*
G75*
G02X-23200000Y2800000I0J100000D01*
G01*
D13*
X-17400000Y500000D02*
X-17400000Y-500000D01*
X-22600000Y500000D02*
X-22600000Y-500000D01*
X-21500000Y-2600000D02*
X-18500000Y-2600000D01*
X-21500000Y2600000D02*
X-18500000Y2600000D01*
D12*
X-23200000Y2600000D02*
X-23200000Y2600000D01*
X-23200000Y2800000D02*
X-23200000Y2800000D01*
D10*
G36*
X960139Y26740846D02*
G01*
X1624368Y26682153D01*
X2260732Y26579419D01*
X2893525Y26428814D01*
X3480183Y26249136D01*
X4357257Y25911500D01*
X5188986Y25502763D01*
X5973145Y25024631D01*
X6707505Y24478812D01*
X7389842Y23867010D01*
X8017928Y23190932D01*
X8589537Y22452285D01*
X8760273Y22202813D01*
X8879093Y22016455D01*
X9008362Y21801184D01*
X9141807Y21568889D01*
X9273159Y21331464D01*
X9396144Y21100798D01*
X9504493Y20888784D01*
X9591932Y20707312D01*
X9652191Y20568274D01*
X9678997Y20483562D01*
X9677138Y20464360D01*
X9633628Y20455638D01*
X9512754Y20435500D01*
X9320905Y20404904D01*
X9064476Y20364808D01*
X8749857Y20316171D01*
X8383442Y20259948D01*
X7971622Y20197099D01*
X7520789Y20128580D01*
X7037336Y20055349D01*
X6527655Y19978365D01*
X5998138Y19898584D01*
X5455177Y19816964D01*
X4905164Y19734463D01*
X4354492Y19652039D01*
X3809552Y19570649D01*
X3276738Y19491251D01*
X2762440Y19414803D01*
X2273051Y19342262D01*
X1814964Y19274586D01*
X1394570Y19212732D01*
X1018261Y19157658D01*
X692431Y19110323D01*
X423471Y19071683D01*
X217772Y19042696D01*
X81728Y19024320D01*
X21731Y19017512D01*
X19833Y19017529D01*
X-26854Y19024554D01*
X-151754Y19043827D01*
X-349433Y19074501D01*
X-614455Y19115727D01*
X-941386Y19166657D01*
X-1324791Y19226444D01*
X-1759235Y19294239D01*
X-2239284Y19369196D01*
X-2759502Y19450466D01*
X-3314456Y19537200D01*
X-3898710Y19628553D01*
X-4506829Y19723675D01*
X-4573333Y19734079D01*
X-5182950Y19829470D01*
X-5768777Y19921161D01*
X-6325431Y20008308D01*
X-6847527Y20090068D01*
X-7329679Y20165596D01*
X-7766504Y20234049D01*
X-8152616Y20294581D01*
X-8482630Y20346351D01*
X-8751162Y20388512D01*
X-8952826Y20420222D01*
X-9082239Y20440635D01*
X-9134014Y20448909D01*
X-9134750Y20449045D01*
X-9145769Y20473276D01*
X-9129934Y20538391D01*
X-9083914Y20652571D01*
X-9004379Y20823998D01*
X-8887998Y21060851D01*
X-8875327Y21086207D01*
X-8525025Y21735964D01*
X-8149121Y22329561D01*
X-7732099Y22888432D01*
X-7258437Y23434012D01*
X-6926091Y23778424D01*
X-6258447Y24396540D01*
X-5568118Y24936346D01*
X-4847132Y25402913D01*
X-4087514Y25801311D01*
X-3281289Y26136610D01*
X-3134000Y26189464D01*
X-2403838Y26419161D01*
X-1692426Y26586459D01*
X-975043Y26695527D01*
X-226965Y26750537D01*
X243752Y26759329D01*
X960139Y26740846D01*
G37*
X960139Y26740846D02*
X1624368Y26682153D01*
X2260732Y26579419D01*
X2893525Y26428814D01*
X3480183Y26249136D01*
X4357257Y25911500D01*
X5188986Y25502763D01*
X5973145Y25024631D01*
X6707505Y24478812D01*
X7389842Y23867010D01*
X8017928Y23190932D01*
X8589537Y22452285D01*
X8760273Y22202813D01*
X8879093Y22016455D01*
X9008362Y21801184D01*
X9141807Y21568889D01*
X9273159Y21331464D01*
X9396144Y21100798D01*
X9504493Y20888784D01*
X9591932Y20707312D01*
X9652191Y20568274D01*
X9678997Y20483562D01*
X9677138Y20464360D01*
X9633628Y20455638D01*
X9512754Y20435500D01*
X9320905Y20404904D01*
X9064476Y20364808D01*
X8749857Y20316171D01*
X8383442Y20259948D01*
X7971622Y20197099D01*
X7520789Y20128580D01*
X7037336Y20055349D01*
X6527655Y19978365D01*
X5998138Y19898584D01*
X5455177Y19816964D01*
X4905164Y19734463D01*
X4354492Y19652039D01*
X3809552Y19570649D01*
X3276738Y19491251D01*
X2762440Y19414803D01*
X2273051Y19342262D01*
X1814964Y19274586D01*
X1394570Y19212732D01*
X1018261Y19157658D01*
X692431Y19110323D01*
X423471Y19071683D01*
X217772Y19042696D01*
X81728Y19024320D01*
X21731Y19017512D01*
X19833Y19017529D01*
X-26854Y19024554D01*
X-151754Y19043827D01*
X-349433Y19074501D01*
X-614455Y19115727D01*
X-941386Y19166657D01*
X-1324791Y19226444D01*
X-1759235Y19294239D01*
X-2239284Y19369196D01*
X-2759502Y19450466D01*
X-3314456Y19537200D01*
X-3898710Y19628553D01*
X-4506829Y19723675D01*
X-4573333Y19734079D01*
X-5182950Y19829470D01*
X-5768777Y19921161D01*
X-6325431Y20008308D01*
X-6847527Y20090068D01*
X-7329679Y20165596D01*
X-7766504Y20234049D01*
X-8152616Y20294581D01*
X-8482630Y20346351D01*
X-8751162Y20388512D01*
X-8952826Y20420222D01*
X-9082239Y20440635D01*
X-9134014Y20448909D01*
X-9134750Y20449045D01*
X-9145769Y20473276D01*
X-9129934Y20538391D01*
X-9083914Y20652571D01*
X-9004379Y20823998D01*
X-8887998Y21060851D01*
X-8875327Y21086207D01*
X-8525025Y21735964D01*
X-8149121Y22329561D01*
X-7732099Y22888432D01*
X-7258437Y23434012D01*
X-6926091Y23778424D01*
X-6258447Y24396540D01*
X-5568118Y24936346D01*
X-4847132Y25402913D01*
X-4087514Y25801311D01*
X-3281289Y26136610D01*
X-3134000Y26189464D01*
X-2403838Y26419161D01*
X-1692426Y26586459D01*
X-975043Y26695527D01*
X-226965Y26750537D01*
X243752Y26759329D01*
X960139Y26740846D01*
G36*
X4884276Y17905891D02*
G01*
X4954566Y17886877D01*
X5222528Y17782026D01*
X5491407Y17630546D01*
X5741073Y17447512D01*
X5951401Y17248002D01*
X6102262Y17047093D01*
X6120890Y17013221D01*
X6181507Y16896000D01*
X4402420Y16896000D01*
X4023563Y16896827D01*
X3672263Y16899189D01*
X3357262Y16902910D01*
X3087304Y16907813D01*
X2871130Y16913721D01*
X2717484Y16920457D01*
X2635107Y16927845D01*
X2623333Y16931982D01*
X2651327Y17000525D01*
X2724905Y17108235D01*
X2828462Y17235758D01*
X2946392Y17363746D01*
X3051659Y17463112D01*
X3371012Y17685768D01*
X3730837Y17845135D01*
X4114247Y17937452D01*
X4504356Y17958957D01*
X4884276Y17905891D01*
G37*
X4884276Y17905891D02*
X4954566Y17886877D01*
X5222528Y17782026D01*
X5491407Y17630546D01*
X5741073Y17447512D01*
X5951401Y17248002D01*
X6102262Y17047093D01*
X6120890Y17013221D01*
X6181507Y16896000D01*
X4402420Y16896000D01*
X4023563Y16896827D01*
X3672263Y16899189D01*
X3357262Y16902910D01*
X3087304Y16907813D01*
X2871130Y16913721D01*
X2717484Y16920457D01*
X2635107Y16927845D01*
X2623333Y16931982D01*
X2651327Y17000525D01*
X2724905Y17108235D01*
X2828462Y17235758D01*
X2946392Y17363746D01*
X3051659Y17463112D01*
X3371012Y17685768D01*
X3730837Y17845135D01*
X4114247Y17937452D01*
X4504356Y17958957D01*
X4884276Y17905891D01*
G36*
X-3531212Y17879295D02*
G01*
X-3171255Y17736667D01*
X-3036996Y17659339D01*
X-2866362Y17534545D01*
X-2691720Y17379483D01*
X-2535386Y17216310D01*
X-2419679Y17067186D01*
X-2390109Y17017088D01*
X-2327493Y16896000D01*
X-4106580Y16896000D01*
X-4519762Y16896892D01*
X-4891340Y16899468D01*
X-5214405Y16903578D01*
X-5482049Y16909074D01*
X-5687364Y16915804D01*
X-5823443Y16923620D01*
X-5883378Y16932372D01*
X-5885667Y16934532D01*
X-5857992Y16996802D01*
X-5785510Y17099453D01*
X-5684033Y17223760D01*
X-5569375Y17350998D01*
X-5457348Y17462442D01*
X-5393137Y17517772D01*
X-5057869Y17730637D01*
X-4690422Y17874040D01*
X-4304416Y17947163D01*
X-3913473Y17949187D01*
X-3531212Y17879295D01*
G37*
X-3531212Y17879295D02*
X-3171255Y17736667D01*
X-3036996Y17659339D01*
X-2866362Y17534545D01*
X-2691720Y17379483D01*
X-2535386Y17216310D01*
X-2419679Y17067186D01*
X-2390109Y17017088D01*
X-2327493Y16896000D01*
X-4106580Y16896000D01*
X-4519762Y16896892D01*
X-4891340Y16899468D01*
X-5214405Y16903578D01*
X-5482049Y16909074D01*
X-5687364Y16915804D01*
X-5823443Y16923620D01*
X-5883378Y16932372D01*
X-5885667Y16934532D01*
X-5857992Y16996802D01*
X-5785510Y17099453D01*
X-5684033Y17223760D01*
X-5569375Y17350998D01*
X-5457348Y17462442D01*
X-5393137Y17517772D01*
X-5057869Y17730637D01*
X-4690422Y17874040D01*
X-4304416Y17947163D01*
X-3913473Y17949187D01*
X-3531212Y17879295D01*
G36*
X6131934Y14812202D02*
G01*
X6036136Y14675608D01*
X5890039Y14516102D01*
X5715830Y14354526D01*
X5535695Y14211723D01*
X5397685Y14122445D01*
X5042691Y13966191D01*
X4662141Y13874207D01*
X4278157Y13849895D01*
X3919514Y13895082D01*
X3610109Y14002125D01*
X3299806Y14170705D01*
X3013870Y14383664D01*
X2777568Y14623843D01*
X2705402Y14719610D01*
X2576932Y14906333D01*
X6182312Y14906333D01*
X6131934Y14812202D01*
G37*
X6131934Y14812202D02*
X6036136Y14675608D01*
X5890039Y14516102D01*
X5715830Y14354526D01*
X5535695Y14211723D01*
X5397685Y14122445D01*
X5042691Y13966191D01*
X4662141Y13874207D01*
X4278157Y13849895D01*
X3919514Y13895082D01*
X3610109Y14002125D01*
X3299806Y14170705D01*
X3013870Y14383664D01*
X2777568Y14623843D01*
X2705402Y14719610D01*
X2576932Y14906333D01*
X6182312Y14906333D01*
X6131934Y14812202D01*
G36*
X-3720969Y14905477D02*
G01*
X-3365009Y14903025D01*
X-3048134Y14899152D01*
X-2778694Y14894032D01*
X-2565038Y14887840D01*
X-2415513Y14880750D01*
X-2338469Y14872938D01*
X-2329667Y14869154D01*
X-2360507Y14804711D01*
X-2443096Y14702273D01*
X-2562538Y14576063D01*
X-2703937Y14440304D01*
X-2852396Y14309218D01*
X-2993019Y14197030D01*
X-3110911Y14117962D01*
X-3123910Y14110794D01*
X-3484406Y13959897D01*
X-3870805Y13871626D01*
X-4258450Y13850040D01*
X-4530857Y13879244D01*
X-4677594Y13923473D01*
X-4866837Y14003881D01*
X-5072255Y14107356D01*
X-5267514Y14220786D01*
X-5404626Y14314326D01*
X-5520075Y14413699D01*
X-5641726Y14537612D01*
X-5753502Y14667086D01*
X-5839327Y14783140D01*
X-5883123Y14866796D01*
X-5885667Y14882211D01*
X-5844791Y14887349D01*
X-5727995Y14892114D01*
X-5544022Y14896386D01*
X-5301620Y14900047D01*
X-5009532Y14902978D01*
X-4676504Y14905060D01*
X-4311281Y14906175D01*
X-4107667Y14906333D01*
X-3720969Y14905477D01*
G37*
X-3720969Y14905477D02*
X-3365009Y14903025D01*
X-3048134Y14899152D01*
X-2778694Y14894032D01*
X-2565038Y14887840D01*
X-2415513Y14880750D01*
X-2338469Y14872938D01*
X-2329667Y14869154D01*
X-2360507Y14804711D01*
X-2443096Y14702273D01*
X-2562538Y14576063D01*
X-2703937Y14440304D01*
X-2852396Y14309218D01*
X-2993019Y14197030D01*
X-3110911Y14117962D01*
X-3123910Y14110794D01*
X-3484406Y13959897D01*
X-3870805Y13871626D01*
X-4258450Y13850040D01*
X-4530857Y13879244D01*
X-4677594Y13923473D01*
X-4866837Y14003881D01*
X-5072255Y14107356D01*
X-5267514Y14220786D01*
X-5404626Y14314326D01*
X-5520075Y14413699D01*
X-5641726Y14537612D01*
X-5753502Y14667086D01*
X-5839327Y14783140D01*
X-5883123Y14866796D01*
X-5885667Y14882211D01*
X-5844791Y14887349D01*
X-5727995Y14892114D01*
X-5544022Y14896386D01*
X-5301620Y14900047D01*
X-5009532Y14902978D01*
X-4676504Y14905060D01*
X-4311281Y14906175D01*
X-4107667Y14906333D01*
X-3720969Y14905477D01*
G36*
X10988462Y20447150D02*
G01*
X11379541Y20446398D01*
X11802622Y20444942D01*
X12137750Y20443369D01*
X12672508Y20440480D01*
X13129220Y20437426D01*
X13514503Y20433610D01*
X13834976Y20428436D01*
X14097259Y20421308D01*
X14307969Y20411629D01*
X14473726Y20398802D01*
X14601147Y20382232D01*
X14696852Y20361323D01*
X14767459Y20335476D01*
X14819588Y20304097D01*
X14859855Y20266589D01*
X14894881Y20222355D01*
X14915634Y20193053D01*
X14970094Y20053483D01*
X14980722Y19874498D01*
X14946835Y19689529D01*
X14926984Y19635724D01*
X14891074Y19570379D01*
X14813761Y19443233D01*
X14700579Y19262946D01*
X14557063Y19038182D01*
X14388750Y18777601D01*
X14201173Y18489867D01*
X13999869Y18183640D01*
X13974484Y18145200D01*
X13736450Y17783599D01*
X13542308Y17485338D01*
X13388147Y17243875D01*
X13270056Y17052669D01*
X13184123Y16905180D01*
X13126438Y16794865D01*
X13093089Y16715183D01*
X13080164Y16659594D01*
X13079667Y16648671D01*
X13087711Y16598795D01*
X13114580Y16528352D01*
X13164378Y16430653D01*
X13241209Y16299013D01*
X13349177Y16126746D01*
X13492387Y15907165D01*
X13674943Y15633583D01*
X13900949Y15299314D01*
X13972866Y15193506D01*
X14177442Y14891359D01*
X14368706Y14606127D01*
X14540927Y14346562D01*
X14688373Y14121420D01*
X14805315Y13939453D01*
X14886021Y13809414D01*
X14924760Y13740059D01*
X14925366Y13738646D01*
X14983341Y13517984D01*
X14962912Y13325525D01*
X14865230Y13165062D01*
X14717513Y13054008D01*
X14682797Y13038081D01*
X14636935Y13024514D01*
X14573089Y13013073D01*
X14484421Y13003526D01*
X14364092Y12995637D01*
X14205265Y12989173D01*
X14001102Y12983900D01*
X13744764Y12979583D01*
X13429412Y12975990D01*
X13048210Y12972886D01*
X12594318Y12970037D01*
X12201250Y12967922D01*
X11761042Y12965924D01*
X11347204Y12964561D01*
X10967295Y12963823D01*
X10628869Y12963699D01*
X10339484Y12964180D01*
X10106697Y12965255D01*
X9938063Y12966915D01*
X9841140Y12969149D01*
X9820000Y12971091D01*
X9832807Y13015526D01*
X9866774Y13119562D01*
X9915216Y13262844D01*
X9928262Y13300835D01*
X10017126Y13584959D01*
X10109906Y13926959D01*
X10200531Y14300635D01*
X10282933Y14679786D01*
X10351042Y15038212D01*
X10393365Y15308500D01*
X10432991Y15698466D01*
X10456040Y16143669D01*
X10462692Y16617605D01*
X10453130Y17093770D01*
X10427536Y17545659D01*
X10386093Y17946770D01*
X10374671Y18026860D01*
X10272359Y18597235D01*
X10139986Y19168766D01*
X9985657Y19708689D01*
X9885049Y20006170D01*
X9823046Y20179088D01*
X9773565Y20320190D01*
X9742669Y20411996D01*
X9735333Y20437836D01*
X9776412Y20440948D01*
X9894632Y20443459D01*
X10082470Y20445352D01*
X10332403Y20446610D01*
X10636908Y20447215D01*
X10988462Y20447150D01*
G37*
X10988462Y20447150D02*
X11379541Y20446398D01*
X11802622Y20444942D01*
X12137750Y20443369D01*
X12672508Y20440480D01*
X13129220Y20437426D01*
X13514503Y20433610D01*
X13834976Y20428436D01*
X14097259Y20421308D01*
X14307969Y20411629D01*
X14473726Y20398802D01*
X14601147Y20382232D01*
X14696852Y20361323D01*
X14767459Y20335476D01*
X14819588Y20304097D01*
X14859855Y20266589D01*
X14894881Y20222355D01*
X14915634Y20193053D01*
X14970094Y20053483D01*
X14980722Y19874498D01*
X14946835Y19689529D01*
X14926984Y19635724D01*
X14891074Y19570379D01*
X14813761Y19443233D01*
X14700579Y19262946D01*
X14557063Y19038182D01*
X14388750Y18777601D01*
X14201173Y18489867D01*
X13999869Y18183640D01*
X13974484Y18145200D01*
X13736450Y17783599D01*
X13542308Y17485338D01*
X13388147Y17243875D01*
X13270056Y17052669D01*
X13184123Y16905180D01*
X13126438Y16794865D01*
X13093089Y16715183D01*
X13080164Y16659594D01*
X13079667Y16648671D01*
X13087711Y16598795D01*
X13114580Y16528352D01*
X13164378Y16430653D01*
X13241209Y16299013D01*
X13349177Y16126746D01*
X13492387Y15907165D01*
X13674943Y15633583D01*
X13900949Y15299314D01*
X13972866Y15193506D01*
X14177442Y14891359D01*
X14368706Y14606127D01*
X14540927Y14346562D01*
X14688373Y14121420D01*
X14805315Y13939453D01*
X14886021Y13809414D01*
X14924760Y13740059D01*
X14925366Y13738646D01*
X14983341Y13517984D01*
X14962912Y13325525D01*
X14865230Y13165062D01*
X14717513Y13054008D01*
X14682797Y13038081D01*
X14636935Y13024514D01*
X14573089Y13013073D01*
X14484421Y13003526D01*
X14364092Y12995637D01*
X14205265Y12989173D01*
X14001102Y12983900D01*
X13744764Y12979583D01*
X13429412Y12975990D01*
X13048210Y12972886D01*
X12594318Y12970037D01*
X12201250Y12967922D01*
X11761042Y12965924D01*
X11347204Y12964561D01*
X10967295Y12963823D01*
X10628869Y12963699D01*
X10339484Y12964180D01*
X10106697Y12965255D01*
X9938063Y12966915D01*
X9841140Y12969149D01*
X9820000Y12971091D01*
X9832807Y13015526D01*
X9866774Y13119562D01*
X9915216Y13262844D01*
X9928262Y13300835D01*
X10017126Y13584959D01*
X10109906Y13926959D01*
X10200531Y14300635D01*
X10282933Y14679786D01*
X10351042Y15038212D01*
X10393365Y15308500D01*
X10432991Y15698466D01*
X10456040Y16143669D01*
X10462692Y16617605D01*
X10453130Y17093770D01*
X10427536Y17545659D01*
X10386093Y17946770D01*
X10374671Y18026860D01*
X10272359Y18597235D01*
X10139986Y19168766D01*
X9985657Y19708689D01*
X9885049Y20006170D01*
X9823046Y20179088D01*
X9773565Y20320190D01*
X9742669Y20411996D01*
X9735333Y20437836D01*
X9776412Y20440948D01*
X9894632Y20443459D01*
X10082470Y20445352D01*
X10332403Y20446610D01*
X10636908Y20447215D01*
X10988462Y20447150D01*
G36*
X8234858Y7293498D02*
G01*
X8353151Y7253412D01*
X8515566Y7176781D01*
X8655833Y7106946D01*
X9175848Y6802284D01*
X9644974Y6432604D01*
X10058788Y6003668D01*
X10412870Y5521232D01*
X10702796Y4991059D01*
X10924145Y4418905D01*
X11032670Y4011364D01*
X11076441Y3728089D01*
X11099185Y3391604D01*
X11101221Y3030631D01*
X11082872Y2673892D01*
X11044457Y2350109D01*
X11012277Y2185167D01*
X10840515Y1599730D01*
X10610657Y1070449D01*
X10317034Y586999D01*
X9953976Y139056D01*
X9802640Y-18034D01*
X9638560Y-173133D01*
X9463451Y-325124D01*
X9288527Y-465907D01*
X9125002Y-587379D01*
X8984087Y-681440D01*
X8876998Y-739986D01*
X8814947Y-754917D01*
X8804000Y-739553D01*
X8796919Y-693836D01*
X8776518Y-571976D01*
X8744058Y-381232D01*
X8700803Y-128862D01*
X8648014Y177875D01*
X8586954Y531720D01*
X8518885Y925415D01*
X8445068Y1351701D01*
X8366767Y1803320D01*
X8285244Y2273013D01*
X8201760Y2753521D01*
X8117579Y3237586D01*
X8033962Y3717949D01*
X7952171Y4187352D01*
X7873469Y4638536D01*
X7799118Y5064242D01*
X7730380Y5457212D01*
X7668518Y5810187D01*
X7614793Y6115909D01*
X7570469Y6367119D01*
X7536806Y6556558D01*
X7515068Y6676968D01*
X7506809Y6720048D01*
X7509430Y6773891D01*
X7549182Y6839081D01*
X7636244Y6927595D01*
X7780796Y7051410D01*
X7806042Y7072114D01*
X7946282Y7186345D01*
X8051268Y7260778D01*
X8140846Y7296224D01*
X8234858Y7293498D01*
G37*
X8234858Y7293498D02*
X8353151Y7253412D01*
X8515566Y7176781D01*
X8655833Y7106946D01*
X9175848Y6802284D01*
X9644974Y6432604D01*
X10058788Y6003668D01*
X10412870Y5521232D01*
X10702796Y4991059D01*
X10924145Y4418905D01*
X11032670Y4011364D01*
X11076441Y3728089D01*
X11099185Y3391604D01*
X11101221Y3030631D01*
X11082872Y2673892D01*
X11044457Y2350109D01*
X11012277Y2185167D01*
X10840515Y1599730D01*
X10610657Y1070449D01*
X10317034Y586999D01*
X9953976Y139056D01*
X9802640Y-18034D01*
X9638560Y-173133D01*
X9463451Y-325124D01*
X9288527Y-465907D01*
X9125002Y-587379D01*
X8984087Y-681440D01*
X8876998Y-739986D01*
X8814947Y-754917D01*
X8804000Y-739553D01*
X8796919Y-693836D01*
X8776518Y-571976D01*
X8744058Y-381232D01*
X8700803Y-128862D01*
X8648014Y177875D01*
X8586954Y531720D01*
X8518885Y925415D01*
X8445068Y1351701D01*
X8366767Y1803320D01*
X8285244Y2273013D01*
X8201760Y2753521D01*
X8117579Y3237586D01*
X8033962Y3717949D01*
X7952171Y4187352D01*
X7873469Y4638536D01*
X7799118Y5064242D01*
X7730380Y5457212D01*
X7668518Y5810187D01*
X7614793Y6115909D01*
X7570469Y6367119D01*
X7536806Y6556558D01*
X7515068Y6676968D01*
X7506809Y6720048D01*
X7509430Y6773891D01*
X7549182Y6839081D01*
X7636244Y6927595D01*
X7780796Y7051410D01*
X7806042Y7072114D01*
X7946282Y7186345D01*
X8051268Y7260778D01*
X8140846Y7296224D01*
X8234858Y7293498D01*
G36*
X-7610325Y7301519D02*
G01*
X-7500427Y7226334D01*
X-7372372Y7125618D01*
X-7243618Y7014951D01*
X-7131620Y6909914D01*
X-7053835Y6826087D01*
X-7027498Y6781320D01*
X-7034304Y6726231D01*
X-7054424Y6596209D01*
X-7086611Y6398419D01*
X-7129614Y6140028D01*
X-7182184Y5828200D01*
X-7243073Y5470102D01*
X-7311032Y5072898D01*
X-7384812Y4643754D01*
X-7463163Y4189836D01*
X-7544836Y3718310D01*
X-7628583Y3236340D01*
X-7713154Y2751092D01*
X-7797301Y2269732D01*
X-7879774Y1799425D01*
X-7959325Y1347337D01*
X-8034703Y920633D01*
X-8104661Y526479D01*
X-8167949Y172041D01*
X-8223319Y-135517D01*
X-8269520Y-389029D01*
X-8305305Y-581329D01*
X-8329424Y-705252D01*
X-8340628Y-753632D01*
X-8341000Y-754038D01*
X-8383881Y-731030D01*
X-8478999Y-672525D01*
X-8608056Y-589860D01*
X-8647077Y-564390D01*
X-9050095Y-255717D01*
X-9428490Y120766D01*
X-9769711Y549070D01*
X-10061209Y1013203D01*
X-10290433Y1497175D01*
X-10315099Y1560968D01*
X-10433159Y1911523D01*
X-10513332Y2245830D01*
X-10559629Y2590456D01*
X-10576061Y2971970D01*
X-10572262Y3264667D01*
X-10538724Y3765115D01*
X-10465623Y4211676D01*
X-10345981Y4628609D01*
X-10172823Y5040170D01*
X-9939171Y5470617D01*
X-9936492Y5475121D01*
X-9779223Y5705090D01*
X-9570636Y5960925D01*
X-9330232Y6222093D01*
X-9077515Y6468062D01*
X-8831984Y6678298D01*
X-8702373Y6774515D01*
X-8520396Y6892365D01*
X-8321598Y7008050D01*
X-8121146Y7114252D01*
X-7934205Y7203652D01*
X-7775940Y7268932D01*
X-7661516Y7302773D01*
X-7610325Y7301519D01*
G37*
X-7610325Y7301519D02*
X-7500427Y7226334D01*
X-7372372Y7125618D01*
X-7243618Y7014951D01*
X-7131620Y6909914D01*
X-7053835Y6826087D01*
X-7027498Y6781320D01*
X-7034304Y6726231D01*
X-7054424Y6596209D01*
X-7086611Y6398419D01*
X-7129614Y6140028D01*
X-7182184Y5828200D01*
X-7243073Y5470102D01*
X-7311032Y5072898D01*
X-7384812Y4643754D01*
X-7463163Y4189836D01*
X-7544836Y3718310D01*
X-7628583Y3236340D01*
X-7713154Y2751092D01*
X-7797301Y2269732D01*
X-7879774Y1799425D01*
X-7959325Y1347337D01*
X-8034703Y920633D01*
X-8104661Y526479D01*
X-8167949Y172041D01*
X-8223319Y-135517D01*
X-8269520Y-389029D01*
X-8305305Y-581329D01*
X-8329424Y-705252D01*
X-8340628Y-753632D01*
X-8341000Y-754038D01*
X-8383881Y-731030D01*
X-8478999Y-672525D01*
X-8608056Y-589860D01*
X-8647077Y-564390D01*
X-9050095Y-255717D01*
X-9428490Y120766D01*
X-9769711Y549070D01*
X-10061209Y1013203D01*
X-10290433Y1497175D01*
X-10315099Y1560968D01*
X-10433159Y1911523D01*
X-10513332Y2245830D01*
X-10559629Y2590456D01*
X-10576061Y2971970D01*
X-10572262Y3264667D01*
X-10538724Y3765115D01*
X-10465623Y4211676D01*
X-10345981Y4628609D01*
X-10172823Y5040170D01*
X-9939171Y5470617D01*
X-9936492Y5475121D01*
X-9779223Y5705090D01*
X-9570636Y5960925D01*
X-9330232Y6222093D01*
X-9077515Y6468062D01*
X-8831984Y6678298D01*
X-8702373Y6774515D01*
X-8520396Y6892365D01*
X-8321598Y7008050D01*
X-8121146Y7114252D01*
X-7934205Y7203652D01*
X-7775940Y7268932D01*
X-7661516Y7302773D01*
X-7610325Y7301519D01*
G36*
X1120599Y12027521D02*
G01*
X1969525Y12027094D01*
X2791903Y12026399D01*
X3583868Y12025449D01*
X4341556Y12024257D01*
X5061104Y12022838D01*
X5738646Y12021204D01*
X6370319Y12019370D01*
X6952258Y12017347D01*
X7480600Y12015151D01*
X7951481Y12012795D01*
X8361035Y12010291D01*
X8705399Y12007654D01*
X8980709Y12004897D01*
X9183100Y12002034D01*
X9308709Y11999077D01*
X9353671Y11996041D01*
X9353738Y11995917D01*
X9331793Y11933910D01*
X9272711Y11815407D01*
X9184995Y11655224D01*
X9077151Y11468174D01*
X8957684Y11269074D01*
X8835098Y11072737D01*
X8740091Y10927000D01*
X8191255Y10179079D01*
X7583283Y9491401D01*
X6914646Y8862438D01*
X6183812Y8290664D01*
X5911598Y8102806D01*
X5736690Y7985686D01*
X5588829Y7886082D01*
X5481409Y7813061D01*
X5427819Y7775686D01*
X5424438Y7773010D01*
X5429562Y7730395D01*
X5447707Y7608824D01*
X5478132Y7412882D01*
X5520096Y7147155D01*
X5572858Y6816227D01*
X5635679Y6424684D01*
X5707816Y5977110D01*
X5788531Y5478090D01*
X5877081Y4932211D01*
X5972727Y4344056D01*
X6074727Y3718211D01*
X6182341Y3059260D01*
X6294829Y2371790D01*
X6411450Y1660385D01*
X6436358Y1508606D01*
X6575042Y663496D01*
X6700566Y-102099D01*
X6813535Y-792203D01*
X6914555Y-1410843D01*
X7004229Y-1962043D01*
X7083162Y-2449828D01*
X7151960Y-2878223D01*
X7211226Y-3251254D01*
X7261565Y-3572945D01*
X7303583Y-3847322D01*
X7337883Y-4078410D01*
X7365071Y-4270234D01*
X7385751Y-4426818D01*
X7400527Y-4552189D01*
X7410005Y-4650371D01*
X7414789Y-4725389D01*
X7415484Y-4781269D01*
X7412694Y-4822035D01*
X7407025Y-4851714D01*
X7399080Y-4874329D01*
X7396195Y-4880650D01*
X7381166Y-4916659D01*
X7369446Y-4949446D01*
X7357194Y-4979161D01*
X7340569Y-5005951D01*
X7315727Y-5029968D01*
X7278829Y-5051359D01*
X7226032Y-5070276D01*
X7153495Y-5086867D01*
X7057376Y-5101282D01*
X6933834Y-5113670D01*
X6779026Y-5124180D01*
X6589113Y-5132963D01*
X6360251Y-5140167D01*
X6088600Y-5145943D01*
X5770318Y-5150438D01*
X5401563Y-5153804D01*
X4978494Y-5156190D01*
X4497268Y-5157744D01*
X3954046Y-5158617D01*
X3344984Y-5158957D01*
X2666242Y-5158915D01*
X1913978Y-5158640D01*
X1084350Y-5158281D01*
X267435Y-5158009D01*
X-640824Y-5157688D01*
X-1468039Y-5157167D01*
X-2217830Y-5156416D01*
X-2893817Y-5155404D01*
X-3499624Y-5154099D01*
X-4038870Y-5152472D01*
X-4515177Y-5150490D01*
X-4932166Y-5148122D01*
X-5293459Y-5145339D01*
X-5602676Y-5142107D01*
X-5863439Y-5138397D01*
X-6079370Y-5134178D01*
X-6254089Y-5129417D01*
X-6391217Y-5124085D01*
X-6494377Y-5118150D01*
X-6567189Y-5111582D01*
X-6613274Y-5104348D01*
X-6631652Y-5098837D01*
X-6791041Y-4989058D01*
X-6881789Y-4832075D01*
X-6901667Y-4694023D01*
X-6894961Y-4641353D01*
X-6875461Y-4510820D01*
X-6844090Y-4308108D01*
X-6801773Y-4038903D01*
X-6749434Y-3708888D01*
X-6687998Y-3323749D01*
X-6618389Y-2889170D01*
X-6541532Y-2410836D01*
X-6458350Y-1894432D01*
X-6369769Y-1345641D01*
X-6276712Y-770150D01*
X-6180104Y-173642D01*
X-6080870Y438198D01*
X-5979934Y1059685D01*
X-5878219Y1685135D01*
X-5776652Y2308862D01*
X-5676155Y2925183D01*
X-5577654Y3528412D01*
X-5482072Y4112865D01*
X-5390335Y4672857D01*
X-5303366Y5202704D01*
X-5222090Y5696721D01*
X-5147431Y6149223D01*
X-5080314Y6554526D01*
X-5021664Y6906945D01*
X-4972403Y7200795D01*
X-4933458Y7430391D01*
X-4905752Y7590050D01*
X-4891570Y7667333D01*
X-4889284Y7716155D01*
X-4910645Y7763855D01*
X-4966696Y7820727D01*
X-5068480Y7897063D01*
X-5227042Y8003158D01*
X-5308762Y8056184D01*
X-6000037Y8549337D01*
X-6657324Y9110716D01*
X-7270420Y9729296D01*
X-7829123Y10394051D01*
X-8323231Y11093955D01*
X-8680153Y11699583D01*
X-8856355Y12027667D01*
X248989Y12027667D01*
X1120599Y12027521D01*
G37*
X1120599Y12027521D02*
X1969525Y12027094D01*
X2791903Y12026399D01*
X3583868Y12025449D01*
X4341556Y12024257D01*
X5061104Y12022838D01*
X5738646Y12021204D01*
X6370319Y12019370D01*
X6952258Y12017347D01*
X7480600Y12015151D01*
X7951481Y12012795D01*
X8361035Y12010291D01*
X8705399Y12007654D01*
X8980709Y12004897D01*
X9183100Y12002034D01*
X9308709Y11999077D01*
X9353671Y11996041D01*
X9353738Y11995917D01*
X9331793Y11933910D01*
X9272711Y11815407D01*
X9184995Y11655224D01*
X9077151Y11468174D01*
X8957684Y11269074D01*
X8835098Y11072737D01*
X8740091Y10927000D01*
X8191255Y10179079D01*
X7583283Y9491401D01*
X6914646Y8862438D01*
X6183812Y8290664D01*
X5911598Y8102806D01*
X5736690Y7985686D01*
X5588829Y7886082D01*
X5481409Y7813061D01*
X5427819Y7775686D01*
X5424438Y7773010D01*
X5429562Y7730395D01*
X5447707Y7608824D01*
X5478132Y7412882D01*
X5520096Y7147155D01*
X5572858Y6816227D01*
X5635679Y6424684D01*
X5707816Y5977110D01*
X5788531Y5478090D01*
X5877081Y4932211D01*
X5972727Y4344056D01*
X6074727Y3718211D01*
X6182341Y3059260D01*
X6294829Y2371790D01*
X6411450Y1660385D01*
X6436358Y1508606D01*
X6575042Y663496D01*
X6700566Y-102099D01*
X6813535Y-792203D01*
X6914555Y-1410843D01*
X7004229Y-1962043D01*
X7083162Y-2449828D01*
X7151960Y-2878223D01*
X7211226Y-3251254D01*
X7261565Y-3572945D01*
X7303583Y-3847322D01*
X7337883Y-4078410D01*
X7365071Y-4270234D01*
X7385751Y-4426818D01*
X7400527Y-4552189D01*
X7410005Y-4650371D01*
X7414789Y-4725389D01*
X7415484Y-4781269D01*
X7412694Y-4822035D01*
X7407025Y-4851714D01*
X7399080Y-4874329D01*
X7396195Y-4880650D01*
X7381166Y-4916659D01*
X7369446Y-4949446D01*
X7357194Y-4979161D01*
X7340569Y-5005951D01*
X7315727Y-5029968D01*
X7278829Y-5051359D01*
X7226032Y-5070276D01*
X7153495Y-5086867D01*
X7057376Y-5101282D01*
X6933834Y-5113670D01*
X6779026Y-5124180D01*
X6589113Y-5132963D01*
X6360251Y-5140167D01*
X6088600Y-5145943D01*
X5770318Y-5150438D01*
X5401563Y-5153804D01*
X4978494Y-5156190D01*
X4497268Y-5157744D01*
X3954046Y-5158617D01*
X3344984Y-5158957D01*
X2666242Y-5158915D01*
X1913978Y-5158640D01*
X1084350Y-5158281D01*
X267435Y-5158009D01*
X-640824Y-5157688D01*
X-1468039Y-5157167D01*
X-2217830Y-5156416D01*
X-2893817Y-5155404D01*
X-3499624Y-5154099D01*
X-4038870Y-5152472D01*
X-4515177Y-5150490D01*
X-4932166Y-5148122D01*
X-5293459Y-5145339D01*
X-5602676Y-5142107D01*
X-5863439Y-5138397D01*
X-6079370Y-5134178D01*
X-6254089Y-5129417D01*
X-6391217Y-5124085D01*
X-6494377Y-5118150D01*
X-6567189Y-5111582D01*
X-6613274Y-5104348D01*
X-6631652Y-5098837D01*
X-6791041Y-4989058D01*
X-6881789Y-4832075D01*
X-6901667Y-4694023D01*
X-6894961Y-4641353D01*
X-6875461Y-4510820D01*
X-6844090Y-4308108D01*
X-6801773Y-4038903D01*
X-6749434Y-3708888D01*
X-6687998Y-3323749D01*
X-6618389Y-2889170D01*
X-6541532Y-2410836D01*
X-6458350Y-1894432D01*
X-6369769Y-1345641D01*
X-6276712Y-770150D01*
X-6180104Y-173642D01*
X-6080870Y438198D01*
X-5979934Y1059685D01*
X-5878219Y1685135D01*
X-5776652Y2308862D01*
X-5676155Y2925183D01*
X-5577654Y3528412D01*
X-5482072Y4112865D01*
X-5390335Y4672857D01*
X-5303366Y5202704D01*
X-5222090Y5696721D01*
X-5147431Y6149223D01*
X-5080314Y6554526D01*
X-5021664Y6906945D01*
X-4972403Y7200795D01*
X-4933458Y7430391D01*
X-4905752Y7590050D01*
X-4891570Y7667333D01*
X-4889284Y7716155D01*
X-4910645Y7763855D01*
X-4966696Y7820727D01*
X-5068480Y7897063D01*
X-5227042Y8003158D01*
X-5308762Y8056184D01*
X-6000037Y8549337D01*
X-6657324Y9110716D01*
X-7270420Y9729296D01*
X-7829123Y10394051D01*
X-8323231Y11093955D01*
X-8680153Y11699583D01*
X-8856355Y12027667D01*
X248989Y12027667D01*
X1120599Y12027521D01*
D12*
X17000000Y-19975000D02*
X17000000Y-18825000D01*
X19950000Y-18475000D02*
X17050000Y-18475000D01*
X19950000Y-17725000D02*
X19950000Y-18475000D01*
X17050000Y-17725000D02*
X19950000Y-17725000D01*
X17050000Y-18475000D02*
X17050000Y-17725000D01*
D14*
X18761252Y-13790000D02*
X18238748Y-13790000D01*
X18761252Y-15210000D02*
X18238748Y-15210000D01*
X15410000Y-13102064D02*
X15410000Y-11897936D01*
X13590000Y-13102064D02*
X13590000Y-11897936D01*
X15410000Y-19102064D02*
X15410000Y-17897936D01*
X13590000Y-19102064D02*
X13590000Y-17897936D01*
X-19102064Y-14910000D02*
X-17897936Y-14910000D01*
X-19102064Y-13090000D02*
X-17897936Y-13090000D01*
X-19102064Y-11910000D02*
X-17897936Y-11910000D01*
X-19102064Y-10090000D02*
X-17897936Y-10090000D01*
X1730000Y14510000D02*
X1730000Y13050000D01*
X-1430000Y14510000D02*
X-1430000Y12350000D01*
X-1430000Y14510000D02*
X-500000Y14510000D01*
X1730000Y14510000D02*
X800000Y14510000D01*
X22152064Y-3990000D02*
X20947936Y-3990000D01*
X22152064Y-5810000D02*
X20947936Y-5810000D01*
X-17897936Y-4090000D02*
X-19102064Y-4090000D01*
X-17897936Y-5910000D02*
X-19102064Y-5910000D01*
X29952064Y6060000D02*
X28747936Y6060000D01*
X29952064Y4240000D02*
X28747936Y4240000D01*
X29952064Y9060000D02*
X28747936Y9060000D01*
X29952064Y7240000D02*
X28747936Y7240000D01*
X19310000Y5797936D02*
X19310000Y7002064D01*
X17490000Y5797936D02*
X17490000Y7002064D01*
X23160885Y14066403D02*
X23762949Y13023597D01*
X24737051Y14976403D02*
X25339115Y13933597D01*
X13023597Y23762949D02*
X14066403Y23160885D01*
X13933597Y25339115D02*
X14976403Y24737051D01*
X-652065Y27090000D02*
X552063Y27090000D01*
X-652065Y28910000D02*
X552063Y28910000D01*
X-14066403Y23160885D02*
X-13023597Y23762949D01*
X-14976403Y24737051D02*
X-13933597Y25339115D01*
X-23762949Y13023597D02*
X-23160885Y14066403D01*
X-25339115Y13933597D02*
X-24737051Y14976403D01*
X-27090000Y-552064D02*
X-27090000Y652064D01*
X-28910000Y-552064D02*
X-28910000Y652064D01*
X-23160885Y-14303902D02*
X-23762949Y-13261096D01*
X-24737051Y-15213902D02*
X-25339115Y-14171096D01*
X-13273597Y-24012949D02*
X-14316403Y-23410885D01*
X-14183597Y-25589115D02*
X-15226403Y-24987051D01*
X702064Y-27290000D02*
X-502064Y-27290000D01*
X702064Y-29110000D02*
X-502064Y-29110000D01*
X14066403Y-23410885D02*
X13023597Y-24012949D01*
X14976403Y-24987051D02*
X13933597Y-25589115D01*
X23762949Y-13261096D02*
X23160885Y-14303902D01*
X25339115Y-14171096D02*
X24737051Y-15213902D01*
X27090000Y602064D02*
X27090000Y-602064D01*
X28910000Y602064D02*
X28910000Y-602064D01*
X7934897Y20000722D02*
X6749063Y19791628D01*
X8250937Y18208372D02*
X7065103Y17999278D01*
X-7750937Y18208372D02*
X-6565103Y17999278D01*
X-7434897Y20000722D02*
X-6249063Y19791628D01*
X-19102064Y-8910000D02*
X-17897936Y-8910000D01*
X-19102064Y-7090000D02*
X-17897936Y-7090000D01*
X-17897936Y-16090000D02*
X-19102064Y-16090000D01*
X-17897936Y-17910000D02*
X-19102064Y-17910000D01*
X-21034069Y-31032077D02*
X-20038140Y-31607077D01*
X-17384069Y-24710091D02*
X-21034069Y-31032077D01*
X-12620929Y-27460091D02*
X-16270929Y-33782077D01*
X2749999Y37205000D02*
X1599999Y37205000D01*
X2749999Y29905000D02*
X2749999Y37205000D01*
X-2750001Y29905000D02*
X-2750001Y37205000D01*
X-33682077Y-16370929D02*
X-33107077Y-17366858D01*
X-27360091Y-12720929D02*
X-33682077Y-16370929D01*
X-24610091Y-17484069D02*
X-30932077Y-21134069D01*
X21034070Y30832077D02*
X20038141Y31407077D01*
X17384070Y24510091D02*
X21034070Y30832077D01*
X12620930Y27260091D02*
X16270930Y33582077D01*
X5000000Y-6380000D02*
X5000000Y-5770000D01*
X5000000Y-6380000D02*
X12620000Y-6380000D01*
X-11620000Y-6380000D02*
X-11000000Y-6380000D01*
X-11620000Y-8500000D02*
X-11620000Y-6380000D01*
X-11620000Y-22620000D02*
X-11620000Y-20500000D01*
X-11000000Y-22620000D02*
X-11620000Y-22620000D01*
X12620000Y-22620000D02*
X5000000Y-22620000D01*
X12620000Y-6380000D02*
X12620000Y-22620000D01*
X23160000Y4220000D02*
X21700000Y4220000D01*
X23160000Y7380000D02*
X21000000Y7380000D01*
X23160000Y7380000D02*
X23160000Y6450000D01*
X23160000Y4220000D02*
X23160000Y5150000D01*
X24440000Y-28210000D02*
X24440000Y-27100000D01*
X25200000Y-28210000D02*
X24440000Y-28210000D01*
X25960000Y-26536529D02*
X25960000Y-25990000D01*
X25960000Y-28210000D02*
X25960000Y-27663471D01*
X25960000Y-25990000D02*
X27165000Y-25990000D01*
X25960000Y-28210000D02*
X27165000Y-28210000D01*
X27165000Y-26792470D02*
X27165000Y-25990000D01*
X27165000Y-28210000D02*
X27165000Y-27407530D01*
X33682077Y16170930D02*
X33107077Y17166859D01*
X27360091Y12520930D02*
X33682077Y16170930D01*
X24610091Y17284070D02*
X30932077Y20934070D01*
X-16270930Y33582077D02*
X-17266859Y33007077D01*
X-12620930Y27260091D02*
X-16270930Y33582077D01*
X-17384070Y24510091D02*
X-21034070Y30832077D01*
X-30932077Y20934070D02*
X-31507077Y19938141D01*
X-24610091Y17284070D02*
X-30932077Y20934070D01*
X-27360091Y12520930D02*
X-33682077Y16170930D01*
X-37305000Y2650000D02*
X-37305000Y1500000D01*
X-30005000Y2650000D02*
X-37305000Y2650000D01*
X-30005000Y-2850000D02*
X-37305000Y-2850000D01*
X-2750000Y-37405000D02*
X-1600000Y-37405000D01*
X-2750000Y-30105000D02*
X-2750000Y-37405000D01*
X2750000Y-30105000D02*
X2750000Y-37405000D01*
X16270930Y-33782077D02*
X17266859Y-33207077D01*
X12620930Y-27460091D02*
X16270930Y-33782077D01*
X17384070Y-24710091D02*
X21034070Y-31032077D01*
X30932077Y-21134069D02*
X31507077Y-20138140D01*
X24610091Y-17484069D02*
X30932077Y-21134069D01*
X27360091Y-12720929D02*
X33682077Y-16370929D01*
X37305000Y-2850000D02*
X37305000Y-1700000D01*
X30005000Y-2850000D02*
X37305000Y-2850000D01*
X30005000Y2650000D02*
X37305000Y2650000D01*
D11*
X14671428Y71429D02*
X14814285Y23810D01*
X14861904Y-23809D01*
X14909523Y-119047D01*
X14909523Y-261904D01*
X14861904Y-357142D01*
X14814285Y-404761D01*
X14719047Y-452380D01*
X14338095Y-452380D01*
X14338095Y547620D01*
X14671428Y547620D01*
X14766666Y500000D01*
X14814285Y452381D01*
X14861904Y357143D01*
X14861904Y261905D01*
X14814285Y166667D01*
X14766666Y119048D01*
X14671428Y71429D01*
X14338095Y71429D01*
X-25638096Y-166666D02*
X-25161905Y-166666D01*
X-25733334Y-452380D02*
X-25400000Y547620D01*
X-25066667Y-452380D01*
X21333333Y-14952380D02*
X20857142Y-14952380D01*
X20857142Y-13952380D01*
X22190476Y-14952380D02*
X21619047Y-14952380D01*
X21904761Y-14952380D02*
X21904761Y-13952380D01*
X21809523Y-14095238D01*
X21714285Y-14190476D01*
X21619047Y-14238095D01*
M02*
