G04 #@! TF.GenerationSoftware,KiCad,Pcbnew,(5.1.5)-3*
G04 #@! TF.CreationDate,2020-02-24T13:55:18+01:00*
G04 #@! TF.ProjectId,Badge,42616467-652e-46b6-9963-61645f706362,rev?*
G04 #@! TF.SameCoordinates,PX3473bc0PY3567e00*
G04 #@! TF.FileFunction,Paste,Bot*
G04 #@! TF.FilePolarity,Positive*
%FSLAX46Y46*%
G04 Gerber Fmt 4.6, Leading zero omitted, Abs format (unit mm)*
G04 Created by KiCad (PCBNEW (5.1.5)-3) date 2020-02-24 13:55:18*
%MOMM*%
%LPD*%
G04 APERTURE LIST*
%ADD10R,1.000000X0.700000*%
%ADD11R,1.900000X1.900000*%
%ADD12R,1.600000X1.400000*%
%ADD13R,0.400000X1.350000*%
%ADD14C,0.100000*%
G04 APERTURE END LIST*
D10*
X37000000Y1850000D03*
X31000000Y1850000D03*
X37000000Y-1850000D03*
X31000000Y-1850000D03*
X-31000000Y1850000D03*
X-37000000Y1850000D03*
X-31000000Y-1850000D03*
X-37000000Y-1850000D03*
D11*
X-1200000Y-38000000D03*
X1200000Y-38000000D03*
D12*
X-3200000Y-35550000D03*
X3200000Y-35550000D03*
D13*
X1300000Y-35325000D03*
X650000Y-35325000D03*
X-1300000Y-35325000D03*
X-650000Y-35325000D03*
X0Y-35325000D03*
D14*
G36*
X37649504Y5223796D02*
G01*
X37673773Y5220196D01*
X37697571Y5214235D01*
X37720671Y5205970D01*
X37742849Y5195480D01*
X37763893Y5182867D01*
X37783598Y5168253D01*
X37801777Y5151777D01*
X37818253Y5133598D01*
X37832867Y5113893D01*
X37845480Y5092849D01*
X37855970Y5070671D01*
X37864235Y5047571D01*
X37870196Y5023773D01*
X37873796Y4999504D01*
X37875000Y4975000D01*
X37875000Y4050000D01*
X37873796Y4025496D01*
X37870196Y4001227D01*
X37864235Y3977429D01*
X37855970Y3954329D01*
X37845480Y3932151D01*
X37832867Y3911107D01*
X37818253Y3891402D01*
X37801777Y3873223D01*
X37783598Y3856747D01*
X37763893Y3842133D01*
X37742849Y3829520D01*
X37720671Y3819030D01*
X37697571Y3810765D01*
X37673773Y3804804D01*
X37649504Y3801204D01*
X37625000Y3800000D01*
X36375000Y3800000D01*
X36350496Y3801204D01*
X36326227Y3804804D01*
X36302429Y3810765D01*
X36279329Y3819030D01*
X36257151Y3829520D01*
X36236107Y3842133D01*
X36216402Y3856747D01*
X36198223Y3873223D01*
X36181747Y3891402D01*
X36167133Y3911107D01*
X36154520Y3932151D01*
X36144030Y3954329D01*
X36135765Y3977429D01*
X36129804Y4001227D01*
X36126204Y4025496D01*
X36125000Y4050000D01*
X36125000Y4975000D01*
X36126204Y4999504D01*
X36129804Y5023773D01*
X36135765Y5047571D01*
X36144030Y5070671D01*
X36154520Y5092849D01*
X36167133Y5113893D01*
X36181747Y5133598D01*
X36198223Y5151777D01*
X36216402Y5168253D01*
X36236107Y5182867D01*
X36257151Y5195480D01*
X36279329Y5205970D01*
X36302429Y5214235D01*
X36326227Y5220196D01*
X36350496Y5223796D01*
X36375000Y5225000D01*
X37625000Y5225000D01*
X37649504Y5223796D01*
G37*
G36*
X37649504Y8198796D02*
G01*
X37673773Y8195196D01*
X37697571Y8189235D01*
X37720671Y8180970D01*
X37742849Y8170480D01*
X37763893Y8157867D01*
X37783598Y8143253D01*
X37801777Y8126777D01*
X37818253Y8108598D01*
X37832867Y8088893D01*
X37845480Y8067849D01*
X37855970Y8045671D01*
X37864235Y8022571D01*
X37870196Y7998773D01*
X37873796Y7974504D01*
X37875000Y7950000D01*
X37875000Y7025000D01*
X37873796Y7000496D01*
X37870196Y6976227D01*
X37864235Y6952429D01*
X37855970Y6929329D01*
X37845480Y6907151D01*
X37832867Y6886107D01*
X37818253Y6866402D01*
X37801777Y6848223D01*
X37783598Y6831747D01*
X37763893Y6817133D01*
X37742849Y6804520D01*
X37720671Y6794030D01*
X37697571Y6785765D01*
X37673773Y6779804D01*
X37649504Y6776204D01*
X37625000Y6775000D01*
X36375000Y6775000D01*
X36350496Y6776204D01*
X36326227Y6779804D01*
X36302429Y6785765D01*
X36279329Y6794030D01*
X36257151Y6804520D01*
X36236107Y6817133D01*
X36216402Y6831747D01*
X36198223Y6848223D01*
X36181747Y6866402D01*
X36167133Y6886107D01*
X36154520Y6907151D01*
X36144030Y6929329D01*
X36135765Y6952429D01*
X36129804Y6976227D01*
X36126204Y7000496D01*
X36125000Y7025000D01*
X36125000Y7950000D01*
X36126204Y7974504D01*
X36129804Y7998773D01*
X36135765Y8022571D01*
X36144030Y8045671D01*
X36154520Y8067849D01*
X36167133Y8088893D01*
X36181747Y8108598D01*
X36198223Y8126777D01*
X36216402Y8143253D01*
X36236107Y8157867D01*
X36257151Y8170480D01*
X36279329Y8180970D01*
X36302429Y8189235D01*
X36326227Y8195196D01*
X36350496Y8198796D01*
X36375000Y8200000D01*
X37625000Y8200000D01*
X37649504Y8198796D01*
G37*
G36*
X31849504Y-7176204D02*
G01*
X31873773Y-7179804D01*
X31897571Y-7185765D01*
X31920671Y-7194030D01*
X31942849Y-7204520D01*
X31963893Y-7217133D01*
X31983598Y-7231747D01*
X32001777Y-7248223D01*
X32018253Y-7266402D01*
X32032867Y-7286107D01*
X32045480Y-7307151D01*
X32055970Y-7329329D01*
X32064235Y-7352429D01*
X32070196Y-7376227D01*
X32073796Y-7400496D01*
X32075000Y-7425000D01*
X32075000Y-8350000D01*
X32073796Y-8374504D01*
X32070196Y-8398773D01*
X32064235Y-8422571D01*
X32055970Y-8445671D01*
X32045480Y-8467849D01*
X32032867Y-8488893D01*
X32018253Y-8508598D01*
X32001777Y-8526777D01*
X31983598Y-8543253D01*
X31963893Y-8557867D01*
X31942849Y-8570480D01*
X31920671Y-8580970D01*
X31897571Y-8589235D01*
X31873773Y-8595196D01*
X31849504Y-8598796D01*
X31825000Y-8600000D01*
X30575000Y-8600000D01*
X30550496Y-8598796D01*
X30526227Y-8595196D01*
X30502429Y-8589235D01*
X30479329Y-8580970D01*
X30457151Y-8570480D01*
X30436107Y-8557867D01*
X30416402Y-8543253D01*
X30398223Y-8526777D01*
X30381747Y-8508598D01*
X30367133Y-8488893D01*
X30354520Y-8467849D01*
X30344030Y-8445671D01*
X30335765Y-8422571D01*
X30329804Y-8398773D01*
X30326204Y-8374504D01*
X30325000Y-8350000D01*
X30325000Y-7425000D01*
X30326204Y-7400496D01*
X30329804Y-7376227D01*
X30335765Y-7352429D01*
X30344030Y-7329329D01*
X30354520Y-7307151D01*
X30367133Y-7286107D01*
X30381747Y-7266402D01*
X30398223Y-7248223D01*
X30416402Y-7231747D01*
X30436107Y-7217133D01*
X30457151Y-7204520D01*
X30479329Y-7194030D01*
X30502429Y-7185765D01*
X30526227Y-7179804D01*
X30550496Y-7176204D01*
X30575000Y-7175000D01*
X31825000Y-7175000D01*
X31849504Y-7176204D01*
G37*
G36*
X31849504Y-4201204D02*
G01*
X31873773Y-4204804D01*
X31897571Y-4210765D01*
X31920671Y-4219030D01*
X31942849Y-4229520D01*
X31963893Y-4242133D01*
X31983598Y-4256747D01*
X32001777Y-4273223D01*
X32018253Y-4291402D01*
X32032867Y-4311107D01*
X32045480Y-4332151D01*
X32055970Y-4354329D01*
X32064235Y-4377429D01*
X32070196Y-4401227D01*
X32073796Y-4425496D01*
X32075000Y-4450000D01*
X32075000Y-5375000D01*
X32073796Y-5399504D01*
X32070196Y-5423773D01*
X32064235Y-5447571D01*
X32055970Y-5470671D01*
X32045480Y-5492849D01*
X32032867Y-5513893D01*
X32018253Y-5533598D01*
X32001777Y-5551777D01*
X31983598Y-5568253D01*
X31963893Y-5582867D01*
X31942849Y-5595480D01*
X31920671Y-5605970D01*
X31897571Y-5614235D01*
X31873773Y-5620196D01*
X31849504Y-5623796D01*
X31825000Y-5625000D01*
X30575000Y-5625000D01*
X30550496Y-5623796D01*
X30526227Y-5620196D01*
X30502429Y-5614235D01*
X30479329Y-5605970D01*
X30457151Y-5595480D01*
X30436107Y-5582867D01*
X30416402Y-5568253D01*
X30398223Y-5551777D01*
X30381747Y-5533598D01*
X30367133Y-5513893D01*
X30354520Y-5492849D01*
X30344030Y-5470671D01*
X30335765Y-5447571D01*
X30329804Y-5423773D01*
X30326204Y-5399504D01*
X30325000Y-5375000D01*
X30325000Y-4450000D01*
X30326204Y-4425496D01*
X30329804Y-4401227D01*
X30335765Y-4377429D01*
X30344030Y-4354329D01*
X30354520Y-4332151D01*
X30367133Y-4311107D01*
X30381747Y-4291402D01*
X30398223Y-4273223D01*
X30416402Y-4256747D01*
X30436107Y-4242133D01*
X30457151Y-4229520D01*
X30479329Y-4219030D01*
X30502429Y-4210765D01*
X30526227Y-4204804D01*
X30550496Y-4201204D01*
X30575000Y-4200000D01*
X31825000Y-4200000D01*
X31849504Y-4201204D01*
G37*
G36*
X-30350496Y-4301204D02*
G01*
X-30326227Y-4304804D01*
X-30302429Y-4310765D01*
X-30279329Y-4319030D01*
X-30257151Y-4329520D01*
X-30236107Y-4342133D01*
X-30216402Y-4356747D01*
X-30198223Y-4373223D01*
X-30181747Y-4391402D01*
X-30167133Y-4411107D01*
X-30154520Y-4432151D01*
X-30144030Y-4454329D01*
X-30135765Y-4477429D01*
X-30129804Y-4501227D01*
X-30126204Y-4525496D01*
X-30125000Y-4550000D01*
X-30125000Y-5475000D01*
X-30126204Y-5499504D01*
X-30129804Y-5523773D01*
X-30135765Y-5547571D01*
X-30144030Y-5570671D01*
X-30154520Y-5592849D01*
X-30167133Y-5613893D01*
X-30181747Y-5633598D01*
X-30198223Y-5651777D01*
X-30216402Y-5668253D01*
X-30236107Y-5682867D01*
X-30257151Y-5695480D01*
X-30279329Y-5705970D01*
X-30302429Y-5714235D01*
X-30326227Y-5720196D01*
X-30350496Y-5723796D01*
X-30375000Y-5725000D01*
X-31625000Y-5725000D01*
X-31649504Y-5723796D01*
X-31673773Y-5720196D01*
X-31697571Y-5714235D01*
X-31720671Y-5705970D01*
X-31742849Y-5695480D01*
X-31763893Y-5682867D01*
X-31783598Y-5668253D01*
X-31801777Y-5651777D01*
X-31818253Y-5633598D01*
X-31832867Y-5613893D01*
X-31845480Y-5592849D01*
X-31855970Y-5570671D01*
X-31864235Y-5547571D01*
X-31870196Y-5523773D01*
X-31873796Y-5499504D01*
X-31875000Y-5475000D01*
X-31875000Y-4550000D01*
X-31873796Y-4525496D01*
X-31870196Y-4501227D01*
X-31864235Y-4477429D01*
X-31855970Y-4454329D01*
X-31845480Y-4432151D01*
X-31832867Y-4411107D01*
X-31818253Y-4391402D01*
X-31801777Y-4373223D01*
X-31783598Y-4356747D01*
X-31763893Y-4342133D01*
X-31742849Y-4329520D01*
X-31720671Y-4319030D01*
X-31697571Y-4310765D01*
X-31673773Y-4304804D01*
X-31649504Y-4301204D01*
X-31625000Y-4300000D01*
X-30375000Y-4300000D01*
X-30350496Y-4301204D01*
G37*
G36*
X-30350496Y-7276204D02*
G01*
X-30326227Y-7279804D01*
X-30302429Y-7285765D01*
X-30279329Y-7294030D01*
X-30257151Y-7304520D01*
X-30236107Y-7317133D01*
X-30216402Y-7331747D01*
X-30198223Y-7348223D01*
X-30181747Y-7366402D01*
X-30167133Y-7386107D01*
X-30154520Y-7407151D01*
X-30144030Y-7429329D01*
X-30135765Y-7452429D01*
X-30129804Y-7476227D01*
X-30126204Y-7500496D01*
X-30125000Y-7525000D01*
X-30125000Y-8450000D01*
X-30126204Y-8474504D01*
X-30129804Y-8498773D01*
X-30135765Y-8522571D01*
X-30144030Y-8545671D01*
X-30154520Y-8567849D01*
X-30167133Y-8588893D01*
X-30181747Y-8608598D01*
X-30198223Y-8626777D01*
X-30216402Y-8643253D01*
X-30236107Y-8657867D01*
X-30257151Y-8670480D01*
X-30279329Y-8680970D01*
X-30302429Y-8689235D01*
X-30326227Y-8695196D01*
X-30350496Y-8698796D01*
X-30375000Y-8700000D01*
X-31625000Y-8700000D01*
X-31649504Y-8698796D01*
X-31673773Y-8695196D01*
X-31697571Y-8689235D01*
X-31720671Y-8680970D01*
X-31742849Y-8670480D01*
X-31763893Y-8657867D01*
X-31783598Y-8643253D01*
X-31801777Y-8626777D01*
X-31818253Y-8608598D01*
X-31832867Y-8588893D01*
X-31845480Y-8567849D01*
X-31855970Y-8545671D01*
X-31864235Y-8522571D01*
X-31870196Y-8498773D01*
X-31873796Y-8474504D01*
X-31875000Y-8450000D01*
X-31875000Y-7525000D01*
X-31873796Y-7500496D01*
X-31870196Y-7476227D01*
X-31864235Y-7452429D01*
X-31855970Y-7429329D01*
X-31845480Y-7407151D01*
X-31832867Y-7386107D01*
X-31818253Y-7366402D01*
X-31801777Y-7348223D01*
X-31783598Y-7331747D01*
X-31763893Y-7317133D01*
X-31742849Y-7304520D01*
X-31720671Y-7294030D01*
X-31697571Y-7285765D01*
X-31673773Y-7279804D01*
X-31649504Y-7276204D01*
X-31625000Y-7275000D01*
X-30375000Y-7275000D01*
X-30350496Y-7276204D01*
G37*
M02*
