G04 #@! TF.GenerationSoftware,KiCad,Pcbnew,(5.1.5)-3*
G04 #@! TF.CreationDate,2020-02-24T13:55:18+01:00*
G04 #@! TF.ProjectId,Badge,42616467-652e-46b6-9963-61645f706362,rev?*
G04 #@! TF.SameCoordinates,PX3473bc0PY3567e00*
G04 #@! TF.FileFunction,Soldermask,Top*
G04 #@! TF.FilePolarity,Negative*
%FSLAX46Y46*%
G04 Gerber Fmt 4.6, Leading zero omitted, Abs format (unit mm)*
G04 Created by KiCad (PCBNEW (5.1.5)-3) date 2020-02-24 13:55:18*
%MOMM*%
%LPD*%
G04 APERTURE LIST*
%ADD10C,0.100000*%
G04 APERTURE END LIST*
D10*
G36*
X-3201787Y-37156249D02*
G01*
X-3107348Y-37184897D01*
X-3020313Y-37231418D01*
X-2944025Y-37294025D01*
X-2881418Y-37370313D01*
X-2834897Y-37457348D01*
X-2806249Y-37551787D01*
X-2799000Y-37625388D01*
X-2799000Y-38374612D01*
X-2806249Y-38448213D01*
X-2834897Y-38542652D01*
X-2881418Y-38629687D01*
X-2944025Y-38705975D01*
X-3020313Y-38768582D01*
X-3107349Y-38815103D01*
X-3201788Y-38843751D01*
X-3300000Y-38853424D01*
X-3398213Y-38843751D01*
X-3492652Y-38815103D01*
X-3579687Y-38768582D01*
X-3655975Y-38705975D01*
X-3718582Y-38629687D01*
X-3765103Y-38542651D01*
X-3793751Y-38448212D01*
X-3801000Y-38374611D01*
X-3801000Y-37625398D01*
X-3793750Y-37551789D01*
X-3793750Y-37551787D01*
X-3765102Y-37457348D01*
X-3718581Y-37370313D01*
X-3655974Y-37294025D01*
X-3579686Y-37231418D01*
X-3492651Y-37184897D01*
X-3398212Y-37156249D01*
X-3300000Y-37146576D01*
X-3201787Y-37156249D01*
G37*
G36*
X3398213Y-37156249D02*
G01*
X3492652Y-37184897D01*
X3579687Y-37231418D01*
X3655975Y-37294025D01*
X3718582Y-37370313D01*
X3765103Y-37457348D01*
X3793751Y-37551787D01*
X3801000Y-37625388D01*
X3801000Y-38374612D01*
X3793751Y-38448213D01*
X3765103Y-38542652D01*
X3718582Y-38629687D01*
X3655975Y-38705975D01*
X3579687Y-38768582D01*
X3492651Y-38815103D01*
X3398212Y-38843751D01*
X3300000Y-38853424D01*
X3201787Y-38843751D01*
X3107348Y-38815103D01*
X3020313Y-38768582D01*
X2944025Y-38705975D01*
X2881418Y-38629687D01*
X2834897Y-38542651D01*
X2806249Y-38448212D01*
X2799000Y-38374611D01*
X2799000Y-37625398D01*
X2806250Y-37551789D01*
X2806250Y-37551787D01*
X2834898Y-37457348D01*
X2881419Y-37370313D01*
X2944026Y-37294025D01*
X3020314Y-37231418D01*
X3107349Y-37184897D01*
X3201788Y-37156249D01*
X3300000Y-37146576D01*
X3398213Y-37156249D01*
G37*
G36*
X-6864674Y-36171522D02*
G01*
X-7421522Y-37885326D01*
X-9135326Y-37328478D01*
X-8578478Y-35614674D01*
X-6864674Y-36171522D01*
G37*
G36*
X8113512Y-35903927D02*
G01*
X8262812Y-35933624D01*
X8426784Y-36001544D01*
X8574354Y-36100147D01*
X8699853Y-36225646D01*
X8798456Y-36373216D01*
X8866376Y-36537188D01*
X8901000Y-36711259D01*
X8901000Y-36888741D01*
X8866376Y-37062812D01*
X8798456Y-37226784D01*
X8699853Y-37374354D01*
X8574354Y-37499853D01*
X8426784Y-37598456D01*
X8262812Y-37666376D01*
X8113512Y-37696073D01*
X8088742Y-37701000D01*
X7911258Y-37701000D01*
X7886488Y-37696073D01*
X7737188Y-37666376D01*
X7573216Y-37598456D01*
X7425646Y-37499853D01*
X7300147Y-37374354D01*
X7201544Y-37226784D01*
X7133624Y-37062812D01*
X7099000Y-36888741D01*
X7099000Y-36711259D01*
X7133624Y-36537188D01*
X7201544Y-36373216D01*
X7300147Y-36225646D01*
X7425646Y-36100147D01*
X7573216Y-36001544D01*
X7737188Y-35933624D01*
X7886488Y-35903927D01*
X7911258Y-35899000D01*
X8088742Y-35899000D01*
X8113512Y-35903927D01*
G37*
G36*
X2151000Y-37006000D02*
G01*
X1049000Y-37006000D01*
X1049000Y-35404000D01*
X2151000Y-35404000D01*
X2151000Y-37006000D01*
G37*
G36*
X-1049000Y-37006000D02*
G01*
X-2151000Y-37006000D01*
X-2151000Y-35404000D01*
X-1049000Y-35404000D01*
X-1049000Y-37006000D01*
G37*
G36*
X10529196Y-35119024D02*
G01*
X10678496Y-35148721D01*
X10842468Y-35216641D01*
X10990038Y-35315244D01*
X11115537Y-35440743D01*
X11214140Y-35588313D01*
X11282060Y-35752285D01*
X11316684Y-35926356D01*
X11316684Y-36103838D01*
X11282060Y-36277909D01*
X11214140Y-36441881D01*
X11115537Y-36589451D01*
X10990038Y-36714950D01*
X10842468Y-36813553D01*
X10678496Y-36881473D01*
X10529196Y-36911170D01*
X10504426Y-36916097D01*
X10326942Y-36916097D01*
X10302172Y-36911170D01*
X10152872Y-36881473D01*
X9988900Y-36813553D01*
X9841330Y-36714950D01*
X9715831Y-36589451D01*
X9617228Y-36441881D01*
X9549308Y-36277909D01*
X9514684Y-36103838D01*
X9514684Y-35926356D01*
X9549308Y-35752285D01*
X9617228Y-35588313D01*
X9715831Y-35440743D01*
X9841330Y-35315244D01*
X9988900Y-35216641D01*
X10152872Y-35148721D01*
X10302172Y-35119024D01*
X10326942Y-35114097D01*
X10504426Y-35114097D01*
X10529196Y-35119024D01*
G37*
G36*
X-10302172Y-35069024D02*
G01*
X-10152872Y-35098721D01*
X-9988900Y-35166641D01*
X-9841330Y-35265244D01*
X-9715831Y-35390743D01*
X-9617228Y-35538313D01*
X-9549308Y-35702285D01*
X-9514684Y-35876356D01*
X-9514684Y-36053838D01*
X-9549308Y-36227909D01*
X-9617228Y-36391881D01*
X-9715831Y-36539451D01*
X-9841330Y-36664950D01*
X-9988900Y-36763553D01*
X-10152872Y-36831473D01*
X-10302172Y-36861170D01*
X-10326942Y-36866097D01*
X-10504426Y-36866097D01*
X-10529196Y-36861170D01*
X-10678496Y-36831473D01*
X-10842468Y-36763553D01*
X-10990038Y-36664950D01*
X-11115537Y-36539451D01*
X-11214140Y-36391881D01*
X-11282060Y-36227909D01*
X-11316684Y-36053838D01*
X-11316684Y-35876356D01*
X-11282060Y-35702285D01*
X-11214140Y-35538313D01*
X-11115537Y-35390743D01*
X-10990038Y-35265244D01*
X-10842468Y-35166641D01*
X-10678496Y-35098721D01*
X-10529196Y-35069024D01*
X-10504426Y-35064097D01*
X-10326942Y-35064097D01*
X-10302172Y-35069024D01*
G37*
G36*
X12944879Y-34334121D02*
G01*
X13094179Y-34363818D01*
X13258151Y-34431738D01*
X13405721Y-34530341D01*
X13531220Y-34655840D01*
X13629823Y-34803410D01*
X13697743Y-34967382D01*
X13732367Y-35141453D01*
X13732367Y-35318935D01*
X13697743Y-35493006D01*
X13629823Y-35656978D01*
X13531220Y-35804548D01*
X13405721Y-35930047D01*
X13258151Y-36028650D01*
X13094179Y-36096570D01*
X12944879Y-36126267D01*
X12920109Y-36131194D01*
X12742625Y-36131194D01*
X12717855Y-36126267D01*
X12568555Y-36096570D01*
X12404583Y-36028650D01*
X12257013Y-35930047D01*
X12131514Y-35804548D01*
X12032911Y-35656978D01*
X11964991Y-35493006D01*
X11930367Y-35318935D01*
X11930367Y-35141453D01*
X11964991Y-34967382D01*
X12032911Y-34803410D01*
X12131514Y-34655840D01*
X12257013Y-34530341D01*
X12404583Y-34431738D01*
X12568555Y-34363818D01*
X12717855Y-34334121D01*
X12742625Y-34329194D01*
X12920109Y-34329194D01*
X12944879Y-34334121D01*
G37*
G36*
X-12717855Y-34284121D02*
G01*
X-12568555Y-34313818D01*
X-12404583Y-34381738D01*
X-12257013Y-34480341D01*
X-12131514Y-34605840D01*
X-12032911Y-34753410D01*
X-11964991Y-34917382D01*
X-11930367Y-35091453D01*
X-11930367Y-35268935D01*
X-11964991Y-35443006D01*
X-12032911Y-35606978D01*
X-12131514Y-35754548D01*
X-12257013Y-35880047D01*
X-12404583Y-35978650D01*
X-12568555Y-36046570D01*
X-12717855Y-36076267D01*
X-12742625Y-36081194D01*
X-12920109Y-36081194D01*
X-12944879Y-36076267D01*
X-13094179Y-36046570D01*
X-13258151Y-35978650D01*
X-13405721Y-35880047D01*
X-13531220Y-35754548D01*
X-13629823Y-35606978D01*
X-13697743Y-35443006D01*
X-13732367Y-35268935D01*
X-13732367Y-35091453D01*
X-13697743Y-34917382D01*
X-13629823Y-34753410D01*
X-13531220Y-34605840D01*
X-13405721Y-34480341D01*
X-13258151Y-34381738D01*
X-13094179Y-34313818D01*
X-12944879Y-34284121D01*
X-12920109Y-34279194D01*
X-12742625Y-34279194D01*
X-12717855Y-34284121D01*
G37*
G36*
X-15789178Y-31749659D02*
G01*
X-15789178Y-31749660D01*
X-15994911Y-32106000D01*
X-16590178Y-33137033D01*
X-17544538Y-32586033D01*
X-17544538Y-32586032D01*
X-16938898Y-31537033D01*
X-16743538Y-31198659D01*
X-15789178Y-31749659D01*
G37*
G36*
X16938899Y-31537033D02*
G01*
X17544539Y-32586032D01*
X17544539Y-32586033D01*
X16590179Y-33137033D01*
X15994912Y-32106000D01*
X15789179Y-31749660D01*
X15789179Y-31749659D01*
X16743539Y-31198659D01*
X16938899Y-31537033D01*
G37*
G36*
X2151000Y-32106000D02*
G01*
X1049000Y-32106000D01*
X1049000Y-30504000D01*
X2151000Y-30504000D01*
X2151000Y-32106000D01*
G37*
G36*
X-1049000Y-32106000D02*
G01*
X-2151000Y-32106000D01*
X-2151000Y-30504000D01*
X-1049000Y-30504000D01*
X-1049000Y-32106000D01*
G37*
G36*
X19765479Y-30032812D02*
G01*
X20315821Y-30986032D01*
X20315821Y-30986033D01*
X19361461Y-31537033D01*
X18802253Y-30568456D01*
X18560461Y-30149660D01*
X18560461Y-30149659D01*
X19514821Y-29598659D01*
X19765479Y-30032812D01*
G37*
G36*
X-18560460Y-30149659D02*
G01*
X-18560460Y-30149660D01*
X-18802252Y-30568456D01*
X-19361460Y-31537033D01*
X-20315820Y-30986033D01*
X-20315820Y-30986032D01*
X-19765478Y-30032812D01*
X-19514820Y-29598659D01*
X-18560460Y-30149659D01*
G37*
G36*
X-6616488Y-28873927D02*
G01*
X-6467188Y-28903624D01*
X-6303216Y-28971544D01*
X-6155646Y-29070147D01*
X-6030147Y-29195646D01*
X-5931544Y-29343216D01*
X-5863624Y-29507188D01*
X-5829000Y-29681259D01*
X-5829000Y-29858741D01*
X-5863624Y-30032812D01*
X-5931544Y-30196784D01*
X-6030147Y-30344354D01*
X-6155646Y-30469853D01*
X-6303216Y-30568456D01*
X-6467188Y-30636376D01*
X-6616488Y-30666073D01*
X-6641258Y-30671000D01*
X-6818742Y-30671000D01*
X-6843512Y-30666073D01*
X-6992812Y-30636376D01*
X-7156784Y-30568456D01*
X-7304354Y-30469853D01*
X-7429853Y-30344354D01*
X-7528456Y-30196784D01*
X-7596376Y-30032812D01*
X-7631000Y-29858741D01*
X-7631000Y-29681259D01*
X-7596376Y-29507188D01*
X-7528456Y-29343216D01*
X-7429853Y-29195646D01*
X-7304354Y-29070147D01*
X-7156784Y-28971544D01*
X-6992812Y-28903624D01*
X-6843512Y-28873927D01*
X-6818742Y-28869000D01*
X-6641258Y-28869000D01*
X-6616488Y-28873927D01*
G37*
G36*
X-8369000Y-30671000D02*
G01*
X-10171000Y-30671000D01*
X-10171000Y-28869000D01*
X-8369000Y-28869000D01*
X-8369000Y-30671000D01*
G37*
G36*
X2200562Y-27278181D02*
G01*
X2235481Y-27288774D01*
X2267663Y-27305976D01*
X2295873Y-27329127D01*
X2319024Y-27357337D01*
X2336226Y-27389519D01*
X2346819Y-27424438D01*
X2351000Y-27466895D01*
X2351000Y-28933105D01*
X2346819Y-28975562D01*
X2336226Y-29010481D01*
X2319024Y-29042663D01*
X2295873Y-29070873D01*
X2267663Y-29094024D01*
X2235481Y-29111226D01*
X2200562Y-29121819D01*
X2158105Y-29126000D01*
X1016895Y-29126000D01*
X974438Y-29121819D01*
X939519Y-29111226D01*
X907337Y-29094024D01*
X879127Y-29070873D01*
X855976Y-29042663D01*
X838774Y-29010481D01*
X828181Y-28975562D01*
X824000Y-28933105D01*
X824000Y-27466895D01*
X828181Y-27424438D01*
X838774Y-27389519D01*
X855976Y-27357337D01*
X879127Y-27329127D01*
X907337Y-27305976D01*
X939519Y-27288774D01*
X974438Y-27278181D01*
X1016895Y-27274000D01*
X2158105Y-27274000D01*
X2200562Y-27278181D01*
G37*
G36*
X-774438Y-27278181D02*
G01*
X-739519Y-27288774D01*
X-707337Y-27305976D01*
X-679127Y-27329127D01*
X-655976Y-27357337D01*
X-638774Y-27389519D01*
X-628181Y-27424438D01*
X-624000Y-27466895D01*
X-624000Y-28933105D01*
X-628181Y-28975562D01*
X-638774Y-29010481D01*
X-655976Y-29042663D01*
X-679127Y-29070873D01*
X-707337Y-29094024D01*
X-739519Y-29111226D01*
X-774438Y-29121819D01*
X-816895Y-29126000D01*
X-1958105Y-29126000D01*
X-2000562Y-29121819D01*
X-2035481Y-29111226D01*
X-2067663Y-29094024D01*
X-2095873Y-29070873D01*
X-2119024Y-29042663D01*
X-2136226Y-29010481D01*
X-2146819Y-28975562D01*
X-2151000Y-28933105D01*
X-2151000Y-27466895D01*
X-2146819Y-27424438D01*
X-2136226Y-27389519D01*
X-2119024Y-27357337D01*
X-2095873Y-27329127D01*
X-2067663Y-27305976D01*
X-2035481Y-27288774D01*
X-2000562Y-27278181D01*
X-1958105Y-27274000D01*
X-816895Y-27274000D01*
X-774438Y-27278181D01*
G37*
G36*
X-13339178Y-27506135D02*
G01*
X-13339178Y-27506136D01*
X-13583811Y-27929852D01*
X-14140178Y-28893509D01*
X-15094538Y-28342509D01*
X-15094538Y-28342508D01*
X-14573114Y-27439376D01*
X-14293538Y-26955135D01*
X-13339178Y-27506135D01*
G37*
G36*
X14573115Y-27439376D02*
G01*
X15094539Y-28342508D01*
X15094539Y-28342509D01*
X14140179Y-28893509D01*
X13583812Y-27929852D01*
X13339179Y-27506136D01*
X13339179Y-27506135D01*
X14293539Y-26955135D01*
X14573115Y-27439376D01*
G37*
G36*
X-6631239Y-26330993D02*
G01*
X-6467188Y-26363624D01*
X-6303216Y-26431544D01*
X-6155646Y-26530147D01*
X-6030147Y-26655646D01*
X-5931544Y-26803216D01*
X-5863624Y-26967188D01*
X-5829000Y-27141259D01*
X-5829000Y-27318741D01*
X-5863624Y-27492812D01*
X-5931544Y-27656784D01*
X-6030147Y-27804354D01*
X-6155646Y-27929853D01*
X-6303216Y-28028456D01*
X-6467188Y-28096376D01*
X-6616488Y-28126073D01*
X-6641258Y-28131000D01*
X-6818742Y-28131000D01*
X-6843512Y-28126073D01*
X-6992812Y-28096376D01*
X-7156784Y-28028456D01*
X-7304354Y-27929853D01*
X-7429853Y-27804354D01*
X-7528456Y-27656784D01*
X-7596376Y-27492812D01*
X-7631000Y-27318741D01*
X-7631000Y-27141259D01*
X-7596376Y-26967188D01*
X-7528456Y-26803216D01*
X-7429853Y-26655646D01*
X-7304354Y-26530147D01*
X-7156784Y-26431544D01*
X-6992812Y-26363624D01*
X-6828761Y-26330993D01*
X-6818742Y-26329000D01*
X-6641258Y-26329000D01*
X-6631239Y-26330993D01*
G37*
G36*
X-9171239Y-26330993D02*
G01*
X-9007188Y-26363624D01*
X-8843216Y-26431544D01*
X-8695646Y-26530147D01*
X-8570147Y-26655646D01*
X-8471544Y-26803216D01*
X-8403624Y-26967188D01*
X-8369000Y-27141259D01*
X-8369000Y-27318741D01*
X-8403624Y-27492812D01*
X-8471544Y-27656784D01*
X-8570147Y-27804354D01*
X-8695646Y-27929853D01*
X-8843216Y-28028456D01*
X-9007188Y-28096376D01*
X-9156488Y-28126073D01*
X-9181258Y-28131000D01*
X-9358742Y-28131000D01*
X-9383512Y-28126073D01*
X-9532812Y-28096376D01*
X-9696784Y-28028456D01*
X-9844354Y-27929853D01*
X-9969853Y-27804354D01*
X-10068456Y-27656784D01*
X-10136376Y-27492812D01*
X-10171000Y-27318741D01*
X-10171000Y-27141259D01*
X-10136376Y-26967188D01*
X-10068456Y-26803216D01*
X-9969853Y-26655646D01*
X-9844354Y-26530147D01*
X-9696784Y-26431544D01*
X-9532812Y-26363624D01*
X-9368761Y-26330993D01*
X-9358742Y-26329000D01*
X-9181258Y-26329000D01*
X-9171239Y-26330993D01*
G37*
G36*
X25360721Y-26570174D02*
G01*
X25460995Y-26611709D01*
X25460996Y-26611710D01*
X25551242Y-26672010D01*
X25627990Y-26748758D01*
X25627991Y-26748760D01*
X25690068Y-26841664D01*
X25705614Y-26860606D01*
X25724556Y-26876151D01*
X25746167Y-26887702D01*
X25769615Y-26894815D01*
X25794002Y-26897217D01*
X25818388Y-26894815D01*
X25841837Y-26887702D01*
X25863447Y-26876151D01*
X25882389Y-26860605D01*
X25897934Y-26841663D01*
X25909485Y-26820052D01*
X25916598Y-26796604D01*
X25919000Y-26772218D01*
X25919000Y-26549000D01*
X27021000Y-26549000D01*
X27021000Y-27651000D01*
X25919000Y-27651000D01*
X25919000Y-27427782D01*
X25916598Y-27403396D01*
X25909485Y-27379947D01*
X25897934Y-27358336D01*
X25882389Y-27339394D01*
X25863447Y-27323849D01*
X25841836Y-27312298D01*
X25818387Y-27305185D01*
X25794001Y-27302783D01*
X25769615Y-27305185D01*
X25746166Y-27312298D01*
X25724555Y-27323849D01*
X25705613Y-27339394D01*
X25690068Y-27358336D01*
X25648988Y-27419816D01*
X25627990Y-27451242D01*
X25551242Y-27527990D01*
X25505812Y-27558345D01*
X25460995Y-27588291D01*
X25360721Y-27629826D01*
X25254270Y-27651000D01*
X25145730Y-27651000D01*
X25039279Y-27629826D01*
X24939005Y-27588291D01*
X24894188Y-27558345D01*
X24848758Y-27527990D01*
X24772010Y-27451242D01*
X24730768Y-27389519D01*
X24711709Y-27360995D01*
X24670174Y-27260721D01*
X24649000Y-27154270D01*
X24649000Y-27045730D01*
X24670174Y-26939279D01*
X24711709Y-26839005D01*
X24772009Y-26748760D01*
X24772010Y-26748758D01*
X24848758Y-26672010D01*
X24939004Y-26611710D01*
X24939005Y-26611709D01*
X25039279Y-26570174D01*
X25145730Y-26549000D01*
X25254270Y-26549000D01*
X25360721Y-26570174D01*
G37*
G36*
X-16110460Y-25906135D02*
G01*
X-16110460Y-25906136D01*
X-16365916Y-26348598D01*
X-16911460Y-27293509D01*
X-17865820Y-26742509D01*
X-17865820Y-26742508D01*
X-17320443Y-25797887D01*
X-17064820Y-25355135D01*
X-16110460Y-25906135D01*
G37*
G36*
X17320444Y-25797887D02*
G01*
X17865821Y-26742508D01*
X17865821Y-26742509D01*
X16911461Y-27293509D01*
X16365917Y-26348598D01*
X16110461Y-25906136D01*
X16110461Y-25906135D01*
X17064821Y-25355135D01*
X17320444Y-25797887D01*
G37*
G36*
X12889816Y-24135365D02*
G01*
X12923975Y-24148221D01*
X12954962Y-24167490D01*
X12981594Y-24192434D01*
X13006445Y-24227113D01*
X13043942Y-24292060D01*
X13043945Y-24292064D01*
X13702050Y-25431935D01*
X13702053Y-25431941D01*
X13739551Y-25496890D01*
X13757156Y-25535746D01*
X13765443Y-25571283D01*
X13766637Y-25607758D01*
X13760693Y-25643758D01*
X13747837Y-25677917D01*
X13728568Y-25708904D01*
X13703624Y-25735536D01*
X13668945Y-25760387D01*
X13603998Y-25797884D01*
X13603994Y-25797887D01*
X12745581Y-26293492D01*
X12745575Y-26293495D01*
X12680626Y-26330993D01*
X12641770Y-26348598D01*
X12606233Y-26356885D01*
X12569758Y-26358079D01*
X12533758Y-26352135D01*
X12499599Y-26339279D01*
X12468612Y-26320010D01*
X12441980Y-26295066D01*
X12417129Y-26260387D01*
X12379632Y-26195440D01*
X12379629Y-26195436D01*
X11721524Y-25055565D01*
X11721521Y-25055559D01*
X11684023Y-24990610D01*
X11666418Y-24951754D01*
X11658131Y-24916217D01*
X11656937Y-24879742D01*
X11662881Y-24843742D01*
X11675737Y-24809583D01*
X11695006Y-24778596D01*
X11719950Y-24751964D01*
X11754629Y-24727113D01*
X11819576Y-24689616D01*
X11819580Y-24689613D01*
X12677993Y-24194008D01*
X12677999Y-24194005D01*
X12742948Y-24156507D01*
X12781804Y-24138902D01*
X12817341Y-24130615D01*
X12853816Y-24129421D01*
X12889816Y-24135365D01*
G37*
G36*
X-13067341Y-24130615D02*
G01*
X-13031804Y-24138902D01*
X-12992948Y-24156507D01*
X-12927999Y-24194005D01*
X-12927993Y-24194008D01*
X-12069580Y-24689613D01*
X-12069576Y-24689616D01*
X-12004629Y-24727113D01*
X-11969950Y-24751964D01*
X-11945006Y-24778596D01*
X-11925737Y-24809583D01*
X-11912881Y-24843742D01*
X-11906937Y-24879742D01*
X-11908131Y-24916217D01*
X-11916418Y-24951754D01*
X-11934023Y-24990610D01*
X-11971521Y-25055559D01*
X-11971524Y-25055565D01*
X-12629629Y-26195436D01*
X-12629632Y-26195440D01*
X-12667129Y-26260387D01*
X-12691980Y-26295066D01*
X-12718612Y-26320010D01*
X-12749599Y-26339279D01*
X-12783758Y-26352135D01*
X-12819758Y-26358079D01*
X-12856233Y-26356885D01*
X-12891770Y-26348598D01*
X-12930626Y-26330993D01*
X-12995575Y-26293495D01*
X-12995581Y-26293492D01*
X-13853994Y-25797887D01*
X-13853998Y-25797884D01*
X-13918945Y-25760387D01*
X-13953624Y-25735536D01*
X-13978568Y-25708904D01*
X-13997837Y-25677917D01*
X-14010693Y-25643758D01*
X-14016637Y-25607758D01*
X-14015443Y-25571283D01*
X-14007156Y-25535746D01*
X-13989551Y-25496890D01*
X-13952053Y-25431941D01*
X-13952050Y-25431935D01*
X-13293945Y-24292064D01*
X-13293942Y-24292060D01*
X-13256445Y-24227113D01*
X-13231594Y-24192434D01*
X-13204962Y-24167490D01*
X-13173975Y-24148221D01*
X-13139816Y-24135365D01*
X-13103816Y-24129421D01*
X-13067341Y-24130615D01*
G37*
G36*
X-15643767Y-22643115D02*
G01*
X-15608230Y-22651402D01*
X-15569374Y-22669007D01*
X-15504425Y-22706505D01*
X-15504419Y-22706508D01*
X-14646006Y-23202113D01*
X-14646002Y-23202116D01*
X-14581055Y-23239613D01*
X-14546376Y-23264464D01*
X-14521432Y-23291096D01*
X-14502163Y-23322083D01*
X-14489307Y-23356242D01*
X-14483363Y-23392242D01*
X-14484557Y-23428717D01*
X-14492844Y-23464254D01*
X-14510449Y-23503110D01*
X-14547947Y-23568059D01*
X-14547950Y-23568065D01*
X-15206055Y-24707936D01*
X-15206058Y-24707940D01*
X-15243555Y-24772887D01*
X-15268406Y-24807566D01*
X-15295038Y-24832510D01*
X-15326025Y-24851779D01*
X-15360184Y-24864635D01*
X-15396184Y-24870579D01*
X-15432659Y-24869385D01*
X-15468196Y-24861098D01*
X-15507052Y-24843493D01*
X-15572001Y-24805995D01*
X-15572007Y-24805992D01*
X-16430420Y-24310387D01*
X-16430424Y-24310384D01*
X-16495371Y-24272887D01*
X-16530050Y-24248036D01*
X-16554994Y-24221404D01*
X-16574263Y-24190417D01*
X-16587119Y-24156258D01*
X-16593063Y-24120258D01*
X-16591869Y-24083783D01*
X-16583582Y-24048246D01*
X-16565977Y-24009390D01*
X-16528479Y-23944441D01*
X-16528476Y-23944435D01*
X-15870371Y-22804564D01*
X-15870368Y-22804560D01*
X-15832871Y-22739613D01*
X-15808020Y-22704934D01*
X-15781388Y-22679990D01*
X-15750401Y-22660721D01*
X-15716242Y-22647865D01*
X-15680242Y-22641921D01*
X-15643767Y-22643115D01*
G37*
G36*
X15466242Y-22647865D02*
G01*
X15500401Y-22660721D01*
X15531388Y-22679990D01*
X15558020Y-22704934D01*
X15582871Y-22739613D01*
X15620368Y-22804560D01*
X15620371Y-22804564D01*
X16278476Y-23944435D01*
X16278479Y-23944441D01*
X16315977Y-24009390D01*
X16333582Y-24048246D01*
X16341869Y-24083783D01*
X16343063Y-24120258D01*
X16337119Y-24156258D01*
X16324263Y-24190417D01*
X16304994Y-24221404D01*
X16280050Y-24248036D01*
X16245371Y-24272887D01*
X16180424Y-24310384D01*
X16180420Y-24310387D01*
X15322007Y-24805992D01*
X15322001Y-24805995D01*
X15257052Y-24843493D01*
X15218196Y-24861098D01*
X15182659Y-24869385D01*
X15146184Y-24870579D01*
X15110184Y-24864635D01*
X15076025Y-24851779D01*
X15045038Y-24832510D01*
X15018406Y-24807566D01*
X14993555Y-24772887D01*
X14956058Y-24707940D01*
X14956055Y-24707936D01*
X14297950Y-23568065D01*
X14297947Y-23568059D01*
X14260449Y-23503110D01*
X14242844Y-23464254D01*
X14234557Y-23428717D01*
X14233363Y-23392242D01*
X14239307Y-23356242D01*
X14252163Y-23322083D01*
X14271432Y-23291096D01*
X14296376Y-23264464D01*
X14331055Y-23239613D01*
X14396002Y-23202116D01*
X14396006Y-23202113D01*
X15254419Y-22706508D01*
X15254425Y-22706505D01*
X15319374Y-22669007D01*
X15358230Y-22651402D01*
X15393767Y-22643115D01*
X15430242Y-22641921D01*
X15466242Y-22647865D01*
G37*
G36*
X4551000Y-23401000D02*
G01*
X3449000Y-23401000D01*
X3449000Y-20799000D01*
X4551000Y-20799000D01*
X4551000Y-23401000D01*
G37*
G36*
X-3449000Y-23401000D02*
G01*
X-4551000Y-23401000D01*
X-4551000Y-20799000D01*
X-3449000Y-20799000D01*
X-3449000Y-23401000D01*
G37*
G36*
X-9449000Y-23401000D02*
G01*
X-10551000Y-23401000D01*
X-10551000Y-20799000D01*
X-9449000Y-20799000D01*
X-9449000Y-23401000D01*
G37*
G36*
X-7449000Y-23401000D02*
G01*
X-8551000Y-23401000D01*
X-8551000Y-20799000D01*
X-7449000Y-20799000D01*
X-7449000Y-23401000D01*
G37*
G36*
X551000Y-23401000D02*
G01*
X-551000Y-23401000D01*
X-551000Y-20799000D01*
X551000Y-20799000D01*
X551000Y-23401000D01*
G37*
G36*
X-5449000Y-23401000D02*
G01*
X-6551000Y-23401000D01*
X-6551000Y-20799000D01*
X-5449000Y-20799000D01*
X-5449000Y-23401000D01*
G37*
G36*
X2551000Y-23401000D02*
G01*
X1449000Y-23401000D01*
X1449000Y-20799000D01*
X2551000Y-20799000D01*
X2551000Y-23401000D01*
G37*
G36*
X-1449000Y-23401000D02*
G01*
X-2551000Y-23401000D01*
X-2551000Y-20799000D01*
X-1449000Y-20799000D01*
X-1449000Y-23401000D01*
G37*
G36*
X15275562Y-19228181D02*
G01*
X15310481Y-19238774D01*
X15342663Y-19255976D01*
X15370873Y-19279127D01*
X15394024Y-19307337D01*
X15411226Y-19339519D01*
X15421819Y-19374438D01*
X15426000Y-19416895D01*
X15426000Y-20558105D01*
X15421819Y-20600562D01*
X15411226Y-20635481D01*
X15394024Y-20667663D01*
X15370873Y-20695873D01*
X15342663Y-20719024D01*
X15310481Y-20736226D01*
X15275562Y-20746819D01*
X15233105Y-20751000D01*
X13766895Y-20751000D01*
X13724438Y-20746819D01*
X13689519Y-20736226D01*
X13657337Y-20719024D01*
X13629127Y-20695873D01*
X13605976Y-20667663D01*
X13588774Y-20635481D01*
X13578181Y-20600562D01*
X13574000Y-20558105D01*
X13574000Y-19416895D01*
X13578181Y-19374438D01*
X13588774Y-19339519D01*
X13605976Y-19307337D01*
X13629127Y-19279127D01*
X13657337Y-19255976D01*
X13689519Y-19238774D01*
X13724438Y-19228181D01*
X13766895Y-19224000D01*
X15233105Y-19224000D01*
X15275562Y-19228181D01*
G37*
G36*
X-29498659Y-19614820D02*
G01*
X-30192346Y-20015320D01*
X-30886032Y-20415820D01*
X-30886033Y-20415820D01*
X-31437033Y-19461460D01*
X-30743346Y-19060960D01*
X-30049660Y-18660460D01*
X-30049659Y-18660460D01*
X-29498659Y-19614820D01*
G37*
G36*
X30743346Y-19060960D02*
G01*
X31437033Y-19461460D01*
X30886033Y-20415820D01*
X30886032Y-20415820D01*
X30192346Y-20015320D01*
X29498659Y-19614820D01*
X30049659Y-18660460D01*
X30049660Y-18660460D01*
X30743346Y-19060960D01*
G37*
G36*
X-10549000Y-20051000D02*
G01*
X-12451000Y-20051000D01*
X-12451000Y-18949000D01*
X-10549000Y-18949000D01*
X-10549000Y-20051000D01*
G37*
G36*
X19801000Y-20026000D02*
G01*
X17199000Y-20026000D01*
X17199000Y-18774000D01*
X19801000Y-18774000D01*
X19801000Y-20026000D01*
G37*
G36*
X-10549000Y-18051000D02*
G01*
X-12451000Y-18051000D01*
X-12451000Y-16949000D01*
X-10549000Y-16949000D01*
X-10549000Y-18051000D01*
G37*
G36*
X26436876Y-16574618D02*
G01*
X27193509Y-17011460D01*
X26642509Y-17965820D01*
X26642508Y-17965820D01*
X25849723Y-17508105D01*
X25255135Y-17164820D01*
X25806135Y-16210460D01*
X25806136Y-16210460D01*
X26436876Y-16574618D01*
G37*
G36*
X-25255135Y-17164820D02*
G01*
X-25849723Y-17508105D01*
X-26642508Y-17965820D01*
X-26642509Y-17965820D01*
X-27193509Y-17011460D01*
X-26436876Y-16574618D01*
X-25806136Y-16210460D01*
X-25806135Y-16210460D01*
X-25255135Y-17164820D01*
G37*
G36*
X-19374438Y-16078181D02*
G01*
X-19339519Y-16088774D01*
X-19307337Y-16105976D01*
X-19279127Y-16129127D01*
X-19255976Y-16157337D01*
X-19238774Y-16189519D01*
X-19228181Y-16224438D01*
X-19224000Y-16266895D01*
X-19224000Y-17733105D01*
X-19228181Y-17775562D01*
X-19238774Y-17810481D01*
X-19255976Y-17842663D01*
X-19279127Y-17870873D01*
X-19307337Y-17894024D01*
X-19339519Y-17911226D01*
X-19374438Y-17921819D01*
X-19416895Y-17926000D01*
X-20558105Y-17926000D01*
X-20600562Y-17921819D01*
X-20635481Y-17911226D01*
X-20667663Y-17894024D01*
X-20695873Y-17870873D01*
X-20719024Y-17842663D01*
X-20736226Y-17810481D01*
X-20746819Y-17775562D01*
X-20751000Y-17733105D01*
X-20751000Y-16266895D01*
X-20746819Y-16224438D01*
X-20736226Y-16189519D01*
X-20719024Y-16157337D01*
X-20695873Y-16129127D01*
X-20667663Y-16105976D01*
X-20635481Y-16088774D01*
X-20600562Y-16078181D01*
X-20558105Y-16074000D01*
X-19416895Y-16074000D01*
X-19374438Y-16078181D01*
G37*
G36*
X-16399438Y-16078181D02*
G01*
X-16364519Y-16088774D01*
X-16332337Y-16105976D01*
X-16304127Y-16129127D01*
X-16280976Y-16157337D01*
X-16263774Y-16189519D01*
X-16253181Y-16224438D01*
X-16249000Y-16266895D01*
X-16249000Y-17733105D01*
X-16253181Y-17775562D01*
X-16263774Y-17810481D01*
X-16280976Y-17842663D01*
X-16304127Y-17870873D01*
X-16332337Y-17894024D01*
X-16364519Y-17911226D01*
X-16399438Y-17921819D01*
X-16441895Y-17926000D01*
X-17583105Y-17926000D01*
X-17625562Y-17921819D01*
X-17660481Y-17911226D01*
X-17692663Y-17894024D01*
X-17720873Y-17870873D01*
X-17744024Y-17842663D01*
X-17761226Y-17810481D01*
X-17771819Y-17775562D01*
X-17776000Y-17733105D01*
X-17776000Y-16266895D01*
X-17771819Y-16224438D01*
X-17761226Y-16189519D01*
X-17744024Y-16157337D01*
X-17720873Y-16129127D01*
X-17692663Y-16105976D01*
X-17660481Y-16088774D01*
X-17625562Y-16078181D01*
X-17583105Y-16074000D01*
X-16441895Y-16074000D01*
X-16399438Y-16078181D01*
G37*
G36*
X15275562Y-16253181D02*
G01*
X15310481Y-16263774D01*
X15342663Y-16280976D01*
X15370873Y-16304127D01*
X15394024Y-16332337D01*
X15411226Y-16364519D01*
X15421819Y-16399438D01*
X15426000Y-16441895D01*
X15426000Y-17583105D01*
X15421819Y-17625562D01*
X15411226Y-17660481D01*
X15394024Y-17692663D01*
X15370873Y-17720873D01*
X15342663Y-17744024D01*
X15310481Y-17761226D01*
X15275562Y-17771819D01*
X15233105Y-17776000D01*
X13766895Y-17776000D01*
X13724438Y-17771819D01*
X13689519Y-17761226D01*
X13657337Y-17744024D01*
X13629127Y-17720873D01*
X13605976Y-17692663D01*
X13588774Y-17660481D01*
X13578181Y-17625562D01*
X13574000Y-17583105D01*
X13574000Y-16441895D01*
X13578181Y-16399438D01*
X13588774Y-16364519D01*
X13605976Y-16332337D01*
X13629127Y-16304127D01*
X13657337Y-16280976D01*
X13689519Y-16263774D01*
X13724438Y-16253181D01*
X13766895Y-16249000D01*
X15233105Y-16249000D01*
X15275562Y-16253181D01*
G37*
G36*
X-31098659Y-16843538D02*
G01*
X-31281325Y-16949000D01*
X-32486032Y-17644538D01*
X-32486033Y-17644538D01*
X-33037033Y-16690178D01*
X-32206136Y-16210460D01*
X-31649660Y-15889178D01*
X-31649659Y-15889178D01*
X-31098659Y-16843538D01*
G37*
G36*
X32206136Y-16210460D02*
G01*
X33037033Y-16690178D01*
X32486033Y-17644538D01*
X32486032Y-17644538D01*
X31281325Y-16949000D01*
X31098659Y-16843538D01*
X31649659Y-15889178D01*
X31649660Y-15889178D01*
X32206136Y-16210460D01*
G37*
G36*
X17901000Y-17426000D02*
G01*
X17199000Y-17426000D01*
X17199000Y-16174000D01*
X17901000Y-16174000D01*
X17901000Y-17426000D01*
G37*
G36*
X19801000Y-17426000D02*
G01*
X19099000Y-17426000D01*
X19099000Y-16174000D01*
X19801000Y-16174000D01*
X19801000Y-17426000D01*
G37*
G36*
X-23106242Y-14476806D02*
G01*
X-23072083Y-14489662D01*
X-23041096Y-14508931D01*
X-23014464Y-14533875D01*
X-22989613Y-14568554D01*
X-22952116Y-14633501D01*
X-22952113Y-14633505D01*
X-22456508Y-15491918D01*
X-22456505Y-15491924D01*
X-22419007Y-15556873D01*
X-22401402Y-15595729D01*
X-22393115Y-15631266D01*
X-22391921Y-15667741D01*
X-22397865Y-15703741D01*
X-22410721Y-15737900D01*
X-22429990Y-15768887D01*
X-22454934Y-15795519D01*
X-22489613Y-15820370D01*
X-22554560Y-15857867D01*
X-22554564Y-15857870D01*
X-23694435Y-16515975D01*
X-23694441Y-16515978D01*
X-23759390Y-16553476D01*
X-23798246Y-16571081D01*
X-23833783Y-16579368D01*
X-23870258Y-16580562D01*
X-23906258Y-16574618D01*
X-23940417Y-16561762D01*
X-23971404Y-16542493D01*
X-23998036Y-16517549D01*
X-24022887Y-16482870D01*
X-24060384Y-16417923D01*
X-24060387Y-16417919D01*
X-24555992Y-15559506D01*
X-24555995Y-15559500D01*
X-24593493Y-15494551D01*
X-24611098Y-15455695D01*
X-24619385Y-15420158D01*
X-24620579Y-15383683D01*
X-24614635Y-15347683D01*
X-24601779Y-15313524D01*
X-24582510Y-15282537D01*
X-24557566Y-15255905D01*
X-24522887Y-15231054D01*
X-24457940Y-15193557D01*
X-24457936Y-15193554D01*
X-23318065Y-14535449D01*
X-23318059Y-14535446D01*
X-23253110Y-14497948D01*
X-23214254Y-14480343D01*
X-23178717Y-14472056D01*
X-23142242Y-14470862D01*
X-23106242Y-14476806D01*
G37*
G36*
X23178717Y-14472056D02*
G01*
X23214254Y-14480343D01*
X23253110Y-14497948D01*
X23318059Y-14535446D01*
X23318065Y-14535449D01*
X24457936Y-15193554D01*
X24457940Y-15193557D01*
X24522887Y-15231054D01*
X24557566Y-15255905D01*
X24582510Y-15282537D01*
X24601779Y-15313524D01*
X24614635Y-15347683D01*
X24620579Y-15383683D01*
X24619385Y-15420158D01*
X24611098Y-15455695D01*
X24593493Y-15494551D01*
X24555995Y-15559500D01*
X24555992Y-15559506D01*
X24060387Y-16417919D01*
X24060384Y-16417923D01*
X24022887Y-16482870D01*
X23998036Y-16517549D01*
X23971404Y-16542493D01*
X23940417Y-16561762D01*
X23906258Y-16574618D01*
X23870258Y-16580562D01*
X23833783Y-16579368D01*
X23798246Y-16571081D01*
X23759390Y-16553476D01*
X23694441Y-16515978D01*
X23694435Y-16515975D01*
X22554564Y-15857870D01*
X22554560Y-15857867D01*
X22489613Y-15820370D01*
X22454934Y-15795519D01*
X22429990Y-15768887D01*
X22410721Y-15737900D01*
X22397865Y-15703741D01*
X22391921Y-15667741D01*
X22393115Y-15631266D01*
X22401402Y-15595729D01*
X22419007Y-15556873D01*
X22456505Y-15491924D01*
X22456508Y-15491918D01*
X22952113Y-14633505D01*
X22952116Y-14633501D01*
X22989613Y-14568554D01*
X23014464Y-14533875D01*
X23041096Y-14508931D01*
X23072083Y-14489662D01*
X23106242Y-14476806D01*
X23142242Y-14470862D01*
X23178717Y-14472056D01*
G37*
G36*
X-10549000Y-16051000D02*
G01*
X-12451000Y-16051000D01*
X-12451000Y-14949000D01*
X-10549000Y-14949000D01*
X-10549000Y-16051000D01*
G37*
G36*
X19988674Y-13753465D02*
G01*
X20026367Y-13764899D01*
X20061103Y-13783466D01*
X20091548Y-13808452D01*
X20116534Y-13838897D01*
X20135101Y-13873633D01*
X20146535Y-13911326D01*
X20151000Y-13956661D01*
X20151000Y-15043339D01*
X20146535Y-15088674D01*
X20135101Y-15126367D01*
X20116534Y-15161103D01*
X20091548Y-15191548D01*
X20061103Y-15216534D01*
X20026367Y-15235101D01*
X19988674Y-15246535D01*
X19943339Y-15251000D01*
X19106661Y-15251000D01*
X19061326Y-15246535D01*
X19023633Y-15235101D01*
X18988897Y-15216534D01*
X18958452Y-15191548D01*
X18933466Y-15161103D01*
X18914899Y-15126367D01*
X18903465Y-15088674D01*
X18899000Y-15043339D01*
X18899000Y-13956661D01*
X18903465Y-13911326D01*
X18914899Y-13873633D01*
X18933466Y-13838897D01*
X18958452Y-13808452D01*
X18988897Y-13783466D01*
X19023633Y-13764899D01*
X19061326Y-13753465D01*
X19106661Y-13749000D01*
X19943339Y-13749000D01*
X19988674Y-13753465D01*
G37*
G36*
X17938674Y-13753465D02*
G01*
X17976367Y-13764899D01*
X18011103Y-13783466D01*
X18041548Y-13808452D01*
X18066534Y-13838897D01*
X18085101Y-13873633D01*
X18096535Y-13911326D01*
X18101000Y-13956661D01*
X18101000Y-15043339D01*
X18096535Y-15088674D01*
X18085101Y-15126367D01*
X18066534Y-15161103D01*
X18041548Y-15191548D01*
X18011103Y-15216534D01*
X17976367Y-15235101D01*
X17938674Y-15246535D01*
X17893339Y-15251000D01*
X17056661Y-15251000D01*
X17011326Y-15246535D01*
X16973633Y-15235101D01*
X16938897Y-15216534D01*
X16908452Y-15191548D01*
X16883466Y-15161103D01*
X16864899Y-15126367D01*
X16853465Y-15088674D01*
X16849000Y-15043339D01*
X16849000Y-13956661D01*
X16853465Y-13911326D01*
X16864899Y-13873633D01*
X16883466Y-13838897D01*
X16908452Y-13808452D01*
X16938897Y-13783466D01*
X16973633Y-13764899D01*
X17011326Y-13753465D01*
X17056661Y-13749000D01*
X17893339Y-13749000D01*
X17938674Y-13753465D01*
G37*
G36*
X28045737Y-13808452D02*
G01*
X28793509Y-14240178D01*
X28242509Y-15194538D01*
X28242508Y-15194538D01*
X27378795Y-14695873D01*
X26855135Y-14393538D01*
X27406135Y-13439178D01*
X27406136Y-13439178D01*
X28045737Y-13808452D01*
G37*
G36*
X-26855135Y-14393538D02*
G01*
X-27378795Y-14695873D01*
X-28242508Y-15194538D01*
X-28242509Y-15194538D01*
X-28793509Y-14240178D01*
X-28045737Y-13808452D01*
X-27406136Y-13439178D01*
X-27406135Y-13439178D01*
X-26855135Y-14393538D01*
G37*
G36*
X-16399438Y-13078181D02*
G01*
X-16364519Y-13088774D01*
X-16332337Y-13105976D01*
X-16304127Y-13129127D01*
X-16280976Y-13157337D01*
X-16263774Y-13189519D01*
X-16253181Y-13224438D01*
X-16249000Y-13266895D01*
X-16249000Y-14733105D01*
X-16253181Y-14775562D01*
X-16263774Y-14810481D01*
X-16280976Y-14842663D01*
X-16304127Y-14870873D01*
X-16332337Y-14894024D01*
X-16364519Y-14911226D01*
X-16399438Y-14921819D01*
X-16441895Y-14926000D01*
X-17583105Y-14926000D01*
X-17625562Y-14921819D01*
X-17660481Y-14911226D01*
X-17692663Y-14894024D01*
X-17720873Y-14870873D01*
X-17744024Y-14842663D01*
X-17761226Y-14810481D01*
X-17771819Y-14775562D01*
X-17776000Y-14733105D01*
X-17776000Y-13266895D01*
X-17771819Y-13224438D01*
X-17761226Y-13189519D01*
X-17744024Y-13157337D01*
X-17720873Y-13129127D01*
X-17692663Y-13105976D01*
X-17660481Y-13088774D01*
X-17625562Y-13078181D01*
X-17583105Y-13074000D01*
X-16441895Y-13074000D01*
X-16399438Y-13078181D01*
G37*
G36*
X-19374438Y-13078181D02*
G01*
X-19339519Y-13088774D01*
X-19307337Y-13105976D01*
X-19279127Y-13129127D01*
X-19255976Y-13157337D01*
X-19238774Y-13189519D01*
X-19228181Y-13224438D01*
X-19224000Y-13266895D01*
X-19224000Y-14733105D01*
X-19228181Y-14775562D01*
X-19238774Y-14810481D01*
X-19255976Y-14842663D01*
X-19279127Y-14870873D01*
X-19307337Y-14894024D01*
X-19339519Y-14911226D01*
X-19374438Y-14921819D01*
X-19416895Y-14926000D01*
X-20558105Y-14926000D01*
X-20600562Y-14921819D01*
X-20635481Y-14911226D01*
X-20667663Y-14894024D01*
X-20695873Y-14870873D01*
X-20719024Y-14842663D01*
X-20736226Y-14810481D01*
X-20746819Y-14775562D01*
X-20751000Y-14733105D01*
X-20751000Y-13266895D01*
X-20746819Y-13224438D01*
X-20736226Y-13189519D01*
X-20719024Y-13157337D01*
X-20695873Y-13129127D01*
X-20667663Y-13105976D01*
X-20635481Y-13088774D01*
X-20600562Y-13078181D01*
X-20558105Y-13074000D01*
X-19416895Y-13074000D01*
X-19374438Y-13078181D01*
G37*
G36*
X15275562Y-13228181D02*
G01*
X15310481Y-13238774D01*
X15342663Y-13255976D01*
X15370873Y-13279127D01*
X15394024Y-13307337D01*
X15411226Y-13339519D01*
X15421819Y-13374438D01*
X15426000Y-13416895D01*
X15426000Y-14558105D01*
X15421819Y-14600562D01*
X15411226Y-14635481D01*
X15394024Y-14667663D01*
X15370873Y-14695873D01*
X15342663Y-14719024D01*
X15310481Y-14736226D01*
X15275562Y-14746819D01*
X15233105Y-14751000D01*
X13766895Y-14751000D01*
X13724438Y-14746819D01*
X13689519Y-14736226D01*
X13657337Y-14719024D01*
X13629127Y-14695873D01*
X13605976Y-14667663D01*
X13588774Y-14635481D01*
X13578181Y-14600562D01*
X13574000Y-14558105D01*
X13574000Y-13416895D01*
X13578181Y-13374438D01*
X13588774Y-13339519D01*
X13605976Y-13307337D01*
X13629127Y-13279127D01*
X13657337Y-13255976D01*
X13689519Y-13238774D01*
X13724438Y-13228181D01*
X13766895Y-13224000D01*
X15233105Y-13224000D01*
X15275562Y-13228181D01*
G37*
G36*
X-10549000Y-14051000D02*
G01*
X-12451000Y-14051000D01*
X-12451000Y-12949000D01*
X-10549000Y-12949000D01*
X-10549000Y-14051000D01*
G37*
G36*
X-24593742Y-11900380D02*
G01*
X-24559583Y-11913236D01*
X-24528596Y-11932505D01*
X-24501964Y-11957449D01*
X-24477113Y-11992128D01*
X-24439616Y-12057075D01*
X-24439613Y-12057079D01*
X-23944008Y-12915492D01*
X-23944005Y-12915498D01*
X-23906507Y-12980447D01*
X-23888902Y-13019303D01*
X-23880615Y-13054840D01*
X-23879421Y-13091315D01*
X-23885365Y-13127315D01*
X-23898221Y-13161474D01*
X-23917490Y-13192461D01*
X-23942434Y-13219093D01*
X-23977113Y-13243944D01*
X-24042060Y-13281441D01*
X-24042064Y-13281444D01*
X-25181935Y-13939549D01*
X-25181941Y-13939552D01*
X-25246890Y-13977050D01*
X-25285746Y-13994655D01*
X-25321283Y-14002942D01*
X-25357758Y-14004136D01*
X-25393758Y-13998192D01*
X-25427917Y-13985336D01*
X-25458904Y-13966067D01*
X-25485536Y-13941123D01*
X-25510387Y-13906444D01*
X-25547884Y-13841497D01*
X-25547887Y-13841493D01*
X-26043492Y-12983080D01*
X-26043495Y-12983074D01*
X-26080993Y-12918125D01*
X-26098598Y-12879269D01*
X-26106885Y-12843732D01*
X-26108079Y-12807257D01*
X-26102135Y-12771257D01*
X-26089279Y-12737098D01*
X-26070010Y-12706111D01*
X-26045066Y-12679479D01*
X-26010387Y-12654628D01*
X-25945440Y-12617131D01*
X-25945436Y-12617128D01*
X-24805565Y-11959023D01*
X-24805559Y-11959020D01*
X-24740610Y-11921522D01*
X-24701754Y-11903917D01*
X-24666217Y-11895630D01*
X-24629742Y-11894436D01*
X-24593742Y-11900380D01*
G37*
G36*
X24666217Y-11895630D02*
G01*
X24701754Y-11903917D01*
X24740610Y-11921522D01*
X24805559Y-11959020D01*
X24805565Y-11959023D01*
X25945436Y-12617128D01*
X25945440Y-12617131D01*
X26010387Y-12654628D01*
X26045066Y-12679479D01*
X26070010Y-12706111D01*
X26089279Y-12737098D01*
X26102135Y-12771257D01*
X26108079Y-12807257D01*
X26106885Y-12843732D01*
X26098598Y-12879269D01*
X26080993Y-12918125D01*
X26043495Y-12983074D01*
X26043492Y-12983080D01*
X25547887Y-13841493D01*
X25547884Y-13841497D01*
X25510387Y-13906444D01*
X25485536Y-13941123D01*
X25458904Y-13966067D01*
X25427917Y-13985336D01*
X25393758Y-13998192D01*
X25357758Y-14004136D01*
X25321283Y-14002942D01*
X25285746Y-13994655D01*
X25246890Y-13977050D01*
X25181941Y-13939552D01*
X25181935Y-13939549D01*
X24042064Y-13281444D01*
X24042060Y-13281441D01*
X23977113Y-13243944D01*
X23942434Y-13219093D01*
X23917490Y-13192461D01*
X23898221Y-13161474D01*
X23885365Y-13127315D01*
X23879421Y-13091315D01*
X23880615Y-13054840D01*
X23888902Y-13019303D01*
X23906507Y-12980447D01*
X23944005Y-12915498D01*
X23944008Y-12915492D01*
X24439613Y-12057079D01*
X24439616Y-12057075D01*
X24477113Y-11992128D01*
X24501964Y-11957449D01*
X24528596Y-11932505D01*
X24559583Y-11913236D01*
X24593742Y-11900380D01*
X24629742Y-11894436D01*
X24666217Y-11895630D01*
G37*
G36*
X-10549000Y-12051000D02*
G01*
X-12451000Y-12051000D01*
X-12451000Y-10949000D01*
X-10549000Y-10949000D01*
X-10549000Y-12051000D01*
G37*
G36*
X-19374438Y-10078181D02*
G01*
X-19339519Y-10088774D01*
X-19307337Y-10105976D01*
X-19279127Y-10129127D01*
X-19255976Y-10157337D01*
X-19238774Y-10189519D01*
X-19228181Y-10224438D01*
X-19224000Y-10266895D01*
X-19224000Y-11733105D01*
X-19228181Y-11775562D01*
X-19238774Y-11810481D01*
X-19255976Y-11842663D01*
X-19279127Y-11870873D01*
X-19307337Y-11894024D01*
X-19339519Y-11911226D01*
X-19374438Y-11921819D01*
X-19416895Y-11926000D01*
X-20558105Y-11926000D01*
X-20600562Y-11921819D01*
X-20635481Y-11911226D01*
X-20667663Y-11894024D01*
X-20695873Y-11870873D01*
X-20719024Y-11842663D01*
X-20736226Y-11810481D01*
X-20746819Y-11775562D01*
X-20751000Y-11733105D01*
X-20751000Y-10266895D01*
X-20746819Y-10224438D01*
X-20736226Y-10189519D01*
X-20719024Y-10157337D01*
X-20695873Y-10129127D01*
X-20667663Y-10105976D01*
X-20635481Y-10088774D01*
X-20600562Y-10078181D01*
X-20558105Y-10074000D01*
X-19416895Y-10074000D01*
X-19374438Y-10078181D01*
G37*
G36*
X-16399438Y-10078181D02*
G01*
X-16364519Y-10088774D01*
X-16332337Y-10105976D01*
X-16304127Y-10129127D01*
X-16280976Y-10157337D01*
X-16263774Y-10189519D01*
X-16253181Y-10224438D01*
X-16249000Y-10266895D01*
X-16249000Y-11733105D01*
X-16253181Y-11775562D01*
X-16263774Y-11810481D01*
X-16280976Y-11842663D01*
X-16304127Y-11870873D01*
X-16332337Y-11894024D01*
X-16364519Y-11911226D01*
X-16399438Y-11921819D01*
X-16441895Y-11926000D01*
X-17583105Y-11926000D01*
X-17625562Y-11921819D01*
X-17660481Y-11911226D01*
X-17692663Y-11894024D01*
X-17720873Y-11870873D01*
X-17744024Y-11842663D01*
X-17761226Y-11810481D01*
X-17771819Y-11775562D01*
X-17776000Y-11733105D01*
X-17776000Y-10266895D01*
X-17771819Y-10224438D01*
X-17761226Y-10189519D01*
X-17744024Y-10157337D01*
X-17720873Y-10129127D01*
X-17692663Y-10105976D01*
X-17660481Y-10088774D01*
X-17625562Y-10078181D01*
X-17583105Y-10074000D01*
X-16441895Y-10074000D01*
X-16399438Y-10078181D01*
G37*
G36*
X15275562Y-10253181D02*
G01*
X15310481Y-10263774D01*
X15342663Y-10280976D01*
X15370873Y-10304127D01*
X15394024Y-10332337D01*
X15411226Y-10364519D01*
X15421819Y-10399438D01*
X15426000Y-10441895D01*
X15426000Y-11583105D01*
X15421819Y-11625562D01*
X15411226Y-11660481D01*
X15394024Y-11692663D01*
X15370873Y-11720873D01*
X15342663Y-11744024D01*
X15310481Y-11761226D01*
X15275562Y-11771819D01*
X15233105Y-11776000D01*
X13766895Y-11776000D01*
X13724438Y-11771819D01*
X13689519Y-11761226D01*
X13657337Y-11744024D01*
X13629127Y-11720873D01*
X13605976Y-11692663D01*
X13588774Y-11660481D01*
X13578181Y-11625562D01*
X13574000Y-11583105D01*
X13574000Y-10441895D01*
X13578181Y-10399438D01*
X13588774Y-10364519D01*
X13605976Y-10332337D01*
X13629127Y-10304127D01*
X13657337Y-10280976D01*
X13689519Y-10263774D01*
X13724438Y-10253181D01*
X13766895Y-10249000D01*
X15233105Y-10249000D01*
X15275562Y-10253181D01*
G37*
G36*
X-10549000Y-10051000D02*
G01*
X-12451000Y-10051000D01*
X-12451000Y-8949000D01*
X-10549000Y-8949000D01*
X-10549000Y-10051000D01*
G37*
G36*
X-19374438Y-7078181D02*
G01*
X-19339519Y-7088774D01*
X-19307337Y-7105976D01*
X-19279127Y-7129127D01*
X-19255976Y-7157337D01*
X-19238774Y-7189519D01*
X-19228181Y-7224438D01*
X-19224000Y-7266895D01*
X-19224000Y-8733105D01*
X-19228181Y-8775562D01*
X-19238774Y-8810481D01*
X-19255976Y-8842663D01*
X-19279127Y-8870873D01*
X-19307337Y-8894024D01*
X-19339519Y-8911226D01*
X-19374438Y-8921819D01*
X-19416895Y-8926000D01*
X-20558105Y-8926000D01*
X-20600562Y-8921819D01*
X-20635481Y-8911226D01*
X-20667663Y-8894024D01*
X-20695873Y-8870873D01*
X-20719024Y-8842663D01*
X-20736226Y-8810481D01*
X-20746819Y-8775562D01*
X-20751000Y-8733105D01*
X-20751000Y-7266895D01*
X-20746819Y-7224438D01*
X-20736226Y-7189519D01*
X-20719024Y-7157337D01*
X-20695873Y-7129127D01*
X-20667663Y-7105976D01*
X-20635481Y-7088774D01*
X-20600562Y-7078181D01*
X-20558105Y-7074000D01*
X-19416895Y-7074000D01*
X-19374438Y-7078181D01*
G37*
G36*
X-16399438Y-7078181D02*
G01*
X-16364519Y-7088774D01*
X-16332337Y-7105976D01*
X-16304127Y-7129127D01*
X-16280976Y-7157337D01*
X-16263774Y-7189519D01*
X-16253181Y-7224438D01*
X-16249000Y-7266895D01*
X-16249000Y-8733105D01*
X-16253181Y-8775562D01*
X-16263774Y-8810481D01*
X-16280976Y-8842663D01*
X-16304127Y-8870873D01*
X-16332337Y-8894024D01*
X-16364519Y-8911226D01*
X-16399438Y-8921819D01*
X-16441895Y-8926000D01*
X-17583105Y-8926000D01*
X-17625562Y-8921819D01*
X-17660481Y-8911226D01*
X-17692663Y-8894024D01*
X-17720873Y-8870873D01*
X-17744024Y-8842663D01*
X-17761226Y-8810481D01*
X-17771819Y-8775562D01*
X-17776000Y-8733105D01*
X-17776000Y-7266895D01*
X-17771819Y-7224438D01*
X-17761226Y-7189519D01*
X-17744024Y-7157337D01*
X-17720873Y-7129127D01*
X-17692663Y-7105976D01*
X-17660481Y-7088774D01*
X-17625562Y-7078181D01*
X-17583105Y-7074000D01*
X-16441895Y-7074000D01*
X-16399438Y-7078181D01*
G37*
G36*
X4551000Y-8201000D02*
G01*
X3449000Y-8201000D01*
X3449000Y-5599000D01*
X4551000Y-5599000D01*
X4551000Y-8201000D01*
G37*
G36*
X2551000Y-8201000D02*
G01*
X1449000Y-8201000D01*
X1449000Y-5599000D01*
X2551000Y-5599000D01*
X2551000Y-8201000D01*
G37*
G36*
X551000Y-8201000D02*
G01*
X-551000Y-8201000D01*
X-551000Y-5599000D01*
X551000Y-5599000D01*
X551000Y-8201000D01*
G37*
G36*
X-5449000Y-8201000D02*
G01*
X-6551000Y-8201000D01*
X-6551000Y-5599000D01*
X-5449000Y-5599000D01*
X-5449000Y-8201000D01*
G37*
G36*
X-7449000Y-8201000D02*
G01*
X-8551000Y-8201000D01*
X-8551000Y-5599000D01*
X-7449000Y-5599000D01*
X-7449000Y-8201000D01*
G37*
G36*
X-3449000Y-8201000D02*
G01*
X-4551000Y-8201000D01*
X-4551000Y-5599000D01*
X-3449000Y-5599000D01*
X-3449000Y-8201000D01*
G37*
G36*
X-1449000Y-8201000D02*
G01*
X-2551000Y-8201000D01*
X-2551000Y-5599000D01*
X-1449000Y-5599000D01*
X-1449000Y-8201000D01*
G37*
G36*
X-9449000Y-8201000D02*
G01*
X-10551000Y-8201000D01*
X-10551000Y-5599000D01*
X-9449000Y-5599000D01*
X-9449000Y-8201000D01*
G37*
G36*
X-19374438Y-4078181D02*
G01*
X-19339519Y-4088774D01*
X-19307337Y-4105976D01*
X-19279127Y-4129127D01*
X-19255976Y-4157337D01*
X-19238774Y-4189519D01*
X-19228181Y-4224438D01*
X-19224000Y-4266895D01*
X-19224000Y-5733105D01*
X-19228181Y-5775562D01*
X-19238774Y-5810481D01*
X-19255976Y-5842663D01*
X-19279127Y-5870873D01*
X-19307337Y-5894024D01*
X-19339519Y-5911226D01*
X-19374438Y-5921819D01*
X-19416895Y-5926000D01*
X-20558105Y-5926000D01*
X-20600562Y-5921819D01*
X-20635481Y-5911226D01*
X-20667663Y-5894024D01*
X-20695873Y-5870873D01*
X-20719024Y-5842663D01*
X-20736226Y-5810481D01*
X-20746819Y-5775562D01*
X-20751000Y-5733105D01*
X-20751000Y-4266895D01*
X-20746819Y-4224438D01*
X-20736226Y-4189519D01*
X-20719024Y-4157337D01*
X-20695873Y-4129127D01*
X-20667663Y-4105976D01*
X-20635481Y-4088774D01*
X-20600562Y-4078181D01*
X-20558105Y-4074000D01*
X-19416895Y-4074000D01*
X-19374438Y-4078181D01*
G37*
G36*
X-16399438Y-4078181D02*
G01*
X-16364519Y-4088774D01*
X-16332337Y-4105976D01*
X-16304127Y-4129127D01*
X-16280976Y-4157337D01*
X-16263774Y-4189519D01*
X-16253181Y-4224438D01*
X-16249000Y-4266895D01*
X-16249000Y-5733105D01*
X-16253181Y-5775562D01*
X-16263774Y-5810481D01*
X-16280976Y-5842663D01*
X-16304127Y-5870873D01*
X-16332337Y-5894024D01*
X-16364519Y-5911226D01*
X-16399438Y-5921819D01*
X-16441895Y-5926000D01*
X-17583105Y-5926000D01*
X-17625562Y-5921819D01*
X-17660481Y-5911226D01*
X-17692663Y-5894024D01*
X-17720873Y-5870873D01*
X-17744024Y-5842663D01*
X-17761226Y-5810481D01*
X-17771819Y-5775562D01*
X-17776000Y-5733105D01*
X-17776000Y-4266895D01*
X-17771819Y-4224438D01*
X-17761226Y-4189519D01*
X-17744024Y-4157337D01*
X-17720873Y-4129127D01*
X-17692663Y-4105976D01*
X-17660481Y-4088774D01*
X-17625562Y-4078181D01*
X-17583105Y-4074000D01*
X-16441895Y-4074000D01*
X-16399438Y-4078181D01*
G37*
G36*
X23650562Y-3978181D02*
G01*
X23685481Y-3988774D01*
X23717663Y-4005976D01*
X23745873Y-4029127D01*
X23769024Y-4057337D01*
X23786226Y-4089519D01*
X23796819Y-4124438D01*
X23801000Y-4166895D01*
X23801000Y-5633105D01*
X23796819Y-5675562D01*
X23786226Y-5710481D01*
X23769024Y-5742663D01*
X23745873Y-5770873D01*
X23717663Y-5794024D01*
X23685481Y-5811226D01*
X23650562Y-5821819D01*
X23608105Y-5826000D01*
X22466895Y-5826000D01*
X22424438Y-5821819D01*
X22389519Y-5811226D01*
X22357337Y-5794024D01*
X22329127Y-5770873D01*
X22305976Y-5742663D01*
X22288774Y-5710481D01*
X22278181Y-5675562D01*
X22274000Y-5633105D01*
X22274000Y-4166895D01*
X22278181Y-4124438D01*
X22288774Y-4089519D01*
X22305976Y-4057337D01*
X22329127Y-4029127D01*
X22357337Y-4005976D01*
X22389519Y-3988774D01*
X22424438Y-3978181D01*
X22466895Y-3974000D01*
X23608105Y-3974000D01*
X23650562Y-3978181D01*
G37*
G36*
X20675562Y-3978181D02*
G01*
X20710481Y-3988774D01*
X20742663Y-4005976D01*
X20770873Y-4029127D01*
X20794024Y-4057337D01*
X20811226Y-4089519D01*
X20821819Y-4124438D01*
X20826000Y-4166895D01*
X20826000Y-5633105D01*
X20821819Y-5675562D01*
X20811226Y-5710481D01*
X20794024Y-5742663D01*
X20770873Y-5770873D01*
X20742663Y-5794024D01*
X20710481Y-5811226D01*
X20675562Y-5821819D01*
X20633105Y-5826000D01*
X19491895Y-5826000D01*
X19449438Y-5821819D01*
X19414519Y-5811226D01*
X19382337Y-5794024D01*
X19354127Y-5770873D01*
X19330976Y-5742663D01*
X19313774Y-5710481D01*
X19303181Y-5675562D01*
X19299000Y-5633105D01*
X19299000Y-4166895D01*
X19303181Y-4124438D01*
X19313774Y-4089519D01*
X19330976Y-4057337D01*
X19354127Y-4029127D01*
X19382337Y-4005976D01*
X19414519Y-3988774D01*
X19449438Y-3978181D01*
X19491895Y-3974000D01*
X20633105Y-3974000D01*
X20675562Y-3978181D01*
G37*
G36*
X-22449000Y-2251000D02*
G01*
X-23551000Y-2251000D01*
X-23551000Y-1449000D01*
X-22449000Y-1449000D01*
X-22449000Y-2251000D01*
G37*
G36*
X23551000Y-2251000D02*
G01*
X22449000Y-2251000D01*
X22449000Y-1449000D01*
X23551000Y-1449000D01*
X23551000Y-2251000D01*
G37*
G36*
X17551000Y-2251000D02*
G01*
X16449000Y-2251000D01*
X16449000Y-1449000D01*
X17551000Y-1449000D01*
X17551000Y-2251000D01*
G37*
G36*
X-16449000Y-2251000D02*
G01*
X-17551000Y-2251000D01*
X-17551000Y-1449000D01*
X-16449000Y-1449000D01*
X-16449000Y-2251000D01*
G37*
G36*
X36906000Y-2251000D02*
G01*
X35304000Y-2251000D01*
X35304000Y-1149000D01*
X36906000Y-1149000D01*
X36906000Y-2251000D01*
G37*
G36*
X-30404000Y-2251000D02*
G01*
X-32006000Y-2251000D01*
X-32006000Y-1149000D01*
X-30404000Y-1149000D01*
X-30404000Y-2251000D01*
G37*
G36*
X-35304000Y-2251000D02*
G01*
X-36906000Y-2251000D01*
X-36906000Y-1149000D01*
X-35304000Y-1149000D01*
X-35304000Y-2251000D01*
G37*
G36*
X28775562Y-728181D02*
G01*
X28810481Y-738774D01*
X28842663Y-755976D01*
X28870873Y-779127D01*
X28894024Y-807337D01*
X28911226Y-839519D01*
X28921819Y-874438D01*
X28926000Y-916895D01*
X28926000Y-2058105D01*
X28921819Y-2100562D01*
X28911226Y-2135481D01*
X28894024Y-2167663D01*
X28870873Y-2195873D01*
X28842663Y-2219024D01*
X28810481Y-2236226D01*
X28775562Y-2246819D01*
X28733105Y-2251000D01*
X27266895Y-2251000D01*
X27224438Y-2246819D01*
X27189519Y-2236226D01*
X27157337Y-2219024D01*
X27129127Y-2195873D01*
X27105976Y-2167663D01*
X27088774Y-2135481D01*
X27078181Y-2100562D01*
X27074000Y-2058105D01*
X27074000Y-916895D01*
X27078181Y-874438D01*
X27088774Y-839519D01*
X27105976Y-807337D01*
X27129127Y-779127D01*
X27157337Y-755976D01*
X27189519Y-738774D01*
X27224438Y-728181D01*
X27266895Y-724000D01*
X28733105Y-724000D01*
X28775562Y-728181D01*
G37*
G36*
X32006000Y-2251000D02*
G01*
X30404000Y-2251000D01*
X30404000Y-1149000D01*
X32006000Y-1149000D01*
X32006000Y-2251000D01*
G37*
G36*
X-27224438Y-678181D02*
G01*
X-27189519Y-688774D01*
X-27157337Y-705976D01*
X-27129127Y-729127D01*
X-27105976Y-757337D01*
X-27088774Y-789519D01*
X-27078181Y-824438D01*
X-27074000Y-866895D01*
X-27074000Y-2008105D01*
X-27078181Y-2050562D01*
X-27088774Y-2085481D01*
X-27105976Y-2117663D01*
X-27129127Y-2145873D01*
X-27157337Y-2169024D01*
X-27189519Y-2186226D01*
X-27224438Y-2196819D01*
X-27266895Y-2201000D01*
X-28733105Y-2201000D01*
X-28775562Y-2196819D01*
X-28810481Y-2186226D01*
X-28842663Y-2169024D01*
X-28870873Y-2145873D01*
X-28894024Y-2117663D01*
X-28911226Y-2085481D01*
X-28921819Y-2050562D01*
X-28926000Y-2008105D01*
X-28926000Y-866895D01*
X-28921819Y-824438D01*
X-28911226Y-789519D01*
X-28894024Y-757337D01*
X-28870873Y-729127D01*
X-28842663Y-705976D01*
X-28810481Y-688774D01*
X-28775562Y-678181D01*
X-28733105Y-674000D01*
X-27266895Y-674000D01*
X-27224438Y-678181D01*
G37*
G36*
X28775562Y2246819D02*
G01*
X28810481Y2236226D01*
X28842663Y2219024D01*
X28870873Y2195873D01*
X28894024Y2167663D01*
X28911226Y2135481D01*
X28921819Y2100562D01*
X28926000Y2058105D01*
X28926000Y916895D01*
X28921819Y874438D01*
X28911226Y839519D01*
X28894024Y807337D01*
X28870873Y779127D01*
X28842663Y755976D01*
X28810481Y738774D01*
X28775562Y728181D01*
X28733105Y724000D01*
X27266895Y724000D01*
X27224438Y728181D01*
X27189519Y738774D01*
X27157337Y755976D01*
X27129127Y779127D01*
X27105976Y807337D01*
X27088774Y839519D01*
X27078181Y874438D01*
X27074000Y916895D01*
X27074000Y2058105D01*
X27078181Y2100562D01*
X27088774Y2135481D01*
X27105976Y2167663D01*
X27129127Y2195873D01*
X27157337Y2219024D01*
X27189519Y2236226D01*
X27224438Y2246819D01*
X27266895Y2251000D01*
X28733105Y2251000D01*
X28775562Y2246819D01*
G37*
G36*
X-27224438Y2296819D02*
G01*
X-27189519Y2286226D01*
X-27157337Y2269024D01*
X-27129127Y2245873D01*
X-27105976Y2217663D01*
X-27088774Y2185481D01*
X-27078181Y2150562D01*
X-27074000Y2108105D01*
X-27074000Y966895D01*
X-27078181Y924438D01*
X-27088774Y889519D01*
X-27105976Y857337D01*
X-27129127Y829127D01*
X-27157337Y805976D01*
X-27189519Y788774D01*
X-27224438Y778181D01*
X-27266895Y774000D01*
X-28733105Y774000D01*
X-28775562Y778181D01*
X-28810481Y788774D01*
X-28842663Y805976D01*
X-28870873Y829127D01*
X-28894024Y857337D01*
X-28911226Y889519D01*
X-28921819Y924438D01*
X-28926000Y966895D01*
X-28926000Y2108105D01*
X-28921819Y2150562D01*
X-28911226Y2185481D01*
X-28894024Y2217663D01*
X-28870873Y2245873D01*
X-28842663Y2269024D01*
X-28810481Y2286226D01*
X-28775562Y2296819D01*
X-28733105Y2301000D01*
X-27266895Y2301000D01*
X-27224438Y2296819D01*
G37*
G36*
X32006000Y949000D02*
G01*
X30404000Y949000D01*
X30404000Y2051000D01*
X32006000Y2051000D01*
X32006000Y949000D01*
G37*
G36*
X36906000Y949000D02*
G01*
X35304000Y949000D01*
X35304000Y2051000D01*
X36906000Y2051000D01*
X36906000Y949000D01*
G37*
G36*
X-30404000Y949000D02*
G01*
X-32006000Y949000D01*
X-32006000Y2051000D01*
X-30404000Y2051000D01*
X-30404000Y949000D01*
G37*
G36*
X-35304000Y949000D02*
G01*
X-36906000Y949000D01*
X-36906000Y2051000D01*
X-35304000Y2051000D01*
X-35304000Y949000D01*
G37*
G36*
X23551000Y1449000D02*
G01*
X22449000Y1449000D01*
X22449000Y2251000D01*
X23551000Y2251000D01*
X23551000Y1449000D01*
G37*
G36*
X17551000Y1449000D02*
G01*
X16449000Y1449000D01*
X16449000Y2251000D01*
X17551000Y2251000D01*
X17551000Y1449000D01*
G37*
G36*
X-16449000Y1449000D02*
G01*
X-17551000Y1449000D01*
X-17551000Y2251000D01*
X-16449000Y2251000D01*
X-16449000Y1449000D01*
G37*
G36*
X-22449000Y1449000D02*
G01*
X-23551000Y1449000D01*
X-23551000Y2251000D01*
X-22449000Y2251000D01*
X-22449000Y1449000D01*
G37*
G36*
X19175562Y5671819D02*
G01*
X19210481Y5661226D01*
X19242663Y5644024D01*
X19270873Y5620873D01*
X19294024Y5592663D01*
X19311226Y5560481D01*
X19321819Y5525562D01*
X19326000Y5483105D01*
X19326000Y4341895D01*
X19321819Y4299438D01*
X19311226Y4264519D01*
X19294024Y4232337D01*
X19270873Y4204127D01*
X19242663Y4180976D01*
X19210481Y4163774D01*
X19175562Y4153181D01*
X19133105Y4149000D01*
X17666895Y4149000D01*
X17624438Y4153181D01*
X17589519Y4163774D01*
X17557337Y4180976D01*
X17529127Y4204127D01*
X17505976Y4232337D01*
X17488774Y4264519D01*
X17478181Y4299438D01*
X17474000Y4341895D01*
X17474000Y5483105D01*
X17478181Y5525562D01*
X17488774Y5560481D01*
X17505976Y5592663D01*
X17529127Y5620873D01*
X17557337Y5644024D01*
X17589519Y5661226D01*
X17624438Y5671819D01*
X17666895Y5676000D01*
X19133105Y5676000D01*
X19175562Y5671819D01*
G37*
G36*
X28475562Y6071819D02*
G01*
X28510481Y6061226D01*
X28542663Y6044024D01*
X28570873Y6020873D01*
X28594024Y5992663D01*
X28611226Y5960481D01*
X28621819Y5925562D01*
X28626000Y5883105D01*
X28626000Y4416895D01*
X28621819Y4374438D01*
X28611226Y4339519D01*
X28594024Y4307337D01*
X28570873Y4279127D01*
X28542663Y4255976D01*
X28510481Y4238774D01*
X28475562Y4228181D01*
X28433105Y4224000D01*
X27291895Y4224000D01*
X27249438Y4228181D01*
X27214519Y4238774D01*
X27182337Y4255976D01*
X27154127Y4279127D01*
X27130976Y4307337D01*
X27113774Y4339519D01*
X27103181Y4374438D01*
X27099000Y4416895D01*
X27099000Y5883105D01*
X27103181Y5925562D01*
X27113774Y5960481D01*
X27130976Y5992663D01*
X27154127Y6020873D01*
X27182337Y6044024D01*
X27214519Y6061226D01*
X27249438Y6071819D01*
X27291895Y6076000D01*
X28433105Y6076000D01*
X28475562Y6071819D01*
G37*
G36*
X31450562Y6071819D02*
G01*
X31485481Y6061226D01*
X31517663Y6044024D01*
X31545873Y6020873D01*
X31569024Y5992663D01*
X31586226Y5960481D01*
X31596819Y5925562D01*
X31601000Y5883105D01*
X31601000Y4416895D01*
X31596819Y4374438D01*
X31586226Y4339519D01*
X31569024Y4307337D01*
X31545873Y4279127D01*
X31517663Y4255976D01*
X31485481Y4238774D01*
X31450562Y4228181D01*
X31408105Y4224000D01*
X30266895Y4224000D01*
X30224438Y4228181D01*
X30189519Y4238774D01*
X30157337Y4255976D01*
X30129127Y4279127D01*
X30105976Y4307337D01*
X30088774Y4339519D01*
X30078181Y4374438D01*
X30074000Y4416895D01*
X30074000Y5883105D01*
X30078181Y5925562D01*
X30088774Y5960481D01*
X30105976Y5992663D01*
X30129127Y6020873D01*
X30157337Y6044024D01*
X30189519Y6061226D01*
X30224438Y6071819D01*
X30266895Y6076000D01*
X31408105Y6076000D01*
X31450562Y6071819D01*
G37*
G36*
X21901000Y4399000D02*
G01*
X20899000Y4399000D01*
X20899000Y5301000D01*
X21901000Y5301000D01*
X21901000Y4399000D01*
G37*
G36*
X23901000Y5349000D02*
G01*
X22899000Y5349000D01*
X22899000Y6251000D01*
X23901000Y6251000D01*
X23901000Y5349000D01*
G37*
G36*
X21901000Y6299000D02*
G01*
X20899000Y6299000D01*
X20899000Y7201000D01*
X21901000Y7201000D01*
X21901000Y6299000D01*
G37*
G36*
X19175562Y8646819D02*
G01*
X19210481Y8636226D01*
X19242663Y8619024D01*
X19270873Y8595873D01*
X19294024Y8567663D01*
X19311226Y8535481D01*
X19321819Y8500562D01*
X19326000Y8458105D01*
X19326000Y7316895D01*
X19321819Y7274438D01*
X19311226Y7239519D01*
X19294024Y7207337D01*
X19270873Y7179127D01*
X19242663Y7155976D01*
X19210481Y7138774D01*
X19175562Y7128181D01*
X19133105Y7124000D01*
X17666895Y7124000D01*
X17624438Y7128181D01*
X17589519Y7138774D01*
X17557337Y7155976D01*
X17529127Y7179127D01*
X17505976Y7207337D01*
X17488774Y7239519D01*
X17478181Y7274438D01*
X17474000Y7316895D01*
X17474000Y8458105D01*
X17478181Y8500562D01*
X17488774Y8535481D01*
X17505976Y8567663D01*
X17529127Y8595873D01*
X17557337Y8619024D01*
X17589519Y8636226D01*
X17624438Y8646819D01*
X17666895Y8651000D01*
X19133105Y8651000D01*
X19175562Y8646819D01*
G37*
G36*
X31450562Y9071819D02*
G01*
X31485481Y9061226D01*
X31517663Y9044024D01*
X31545873Y9020873D01*
X31569024Y8992663D01*
X31586226Y8960481D01*
X31596819Y8925562D01*
X31601000Y8883105D01*
X31601000Y7416895D01*
X31596819Y7374438D01*
X31586226Y7339519D01*
X31569024Y7307337D01*
X31545873Y7279127D01*
X31517663Y7255976D01*
X31485481Y7238774D01*
X31450562Y7228181D01*
X31408105Y7224000D01*
X30266895Y7224000D01*
X30224438Y7228181D01*
X30189519Y7238774D01*
X30157337Y7255976D01*
X30129127Y7279127D01*
X30105976Y7307337D01*
X30088774Y7339519D01*
X30078181Y7374438D01*
X30074000Y7416895D01*
X30074000Y8883105D01*
X30078181Y8925562D01*
X30088774Y8960481D01*
X30105976Y8992663D01*
X30129127Y9020873D01*
X30157337Y9044024D01*
X30189519Y9061226D01*
X30224438Y9071819D01*
X30266895Y9076000D01*
X31408105Y9076000D01*
X31450562Y9071819D01*
G37*
G36*
X28475562Y9071819D02*
G01*
X28510481Y9061226D01*
X28542663Y9044024D01*
X28570873Y9020873D01*
X28594024Y8992663D01*
X28611226Y8960481D01*
X28621819Y8925562D01*
X28626000Y8883105D01*
X28626000Y7416895D01*
X28621819Y7374438D01*
X28611226Y7339519D01*
X28594024Y7307337D01*
X28570873Y7279127D01*
X28542663Y7255976D01*
X28510481Y7238774D01*
X28475562Y7228181D01*
X28433105Y7224000D01*
X27291895Y7224000D01*
X27249438Y7228181D01*
X27214519Y7238774D01*
X27182337Y7255976D01*
X27154127Y7279127D01*
X27130976Y7307337D01*
X27113774Y7339519D01*
X27103181Y7374438D01*
X27099000Y7416895D01*
X27099000Y8883105D01*
X27103181Y8925562D01*
X27113774Y8960481D01*
X27130976Y8992663D01*
X27154127Y9020873D01*
X27182337Y9044024D01*
X27214519Y9061226D01*
X27249438Y9071819D01*
X27291895Y9076000D01*
X28433105Y9076000D01*
X28475562Y9071819D01*
G37*
G36*
X-25321283Y13765443D02*
G01*
X-25285746Y13757156D01*
X-25246890Y13739551D01*
X-25181941Y13702053D01*
X-25181935Y13702050D01*
X-24042064Y13043945D01*
X-24042060Y13043942D01*
X-23977113Y13006445D01*
X-23942434Y12981594D01*
X-23917490Y12954962D01*
X-23898221Y12923975D01*
X-23885365Y12889816D01*
X-23879421Y12853816D01*
X-23880615Y12817341D01*
X-23888902Y12781804D01*
X-23906507Y12742948D01*
X-23944005Y12677999D01*
X-23944008Y12677993D01*
X-24439613Y11819580D01*
X-24439616Y11819576D01*
X-24477113Y11754629D01*
X-24501964Y11719950D01*
X-24528596Y11695006D01*
X-24559583Y11675737D01*
X-24593742Y11662881D01*
X-24629742Y11656937D01*
X-24666217Y11658131D01*
X-24701754Y11666418D01*
X-24740610Y11684023D01*
X-24805559Y11721521D01*
X-24805565Y11721524D01*
X-25945436Y12379629D01*
X-25945440Y12379632D01*
X-26010387Y12417129D01*
X-26045066Y12441980D01*
X-26070010Y12468612D01*
X-26089279Y12499599D01*
X-26102135Y12533758D01*
X-26108079Y12569758D01*
X-26106885Y12606233D01*
X-26098598Y12641770D01*
X-26080993Y12680626D01*
X-26043495Y12745575D01*
X-26043492Y12745581D01*
X-25547887Y13603994D01*
X-25547884Y13603998D01*
X-25510387Y13668945D01*
X-25485536Y13703624D01*
X-25458904Y13728568D01*
X-25427917Y13747837D01*
X-25393758Y13760693D01*
X-25357758Y13766637D01*
X-25321283Y13765443D01*
G37*
G36*
X25393758Y13760693D02*
G01*
X25427917Y13747837D01*
X25458904Y13728568D01*
X25485536Y13703624D01*
X25510387Y13668945D01*
X25547884Y13603998D01*
X25547887Y13603994D01*
X26043492Y12745581D01*
X26043495Y12745575D01*
X26080993Y12680626D01*
X26098598Y12641770D01*
X26106885Y12606233D01*
X26108079Y12569758D01*
X26102135Y12533758D01*
X26089279Y12499599D01*
X26070010Y12468612D01*
X26045066Y12441980D01*
X26010387Y12417129D01*
X25945440Y12379632D01*
X25945436Y12379629D01*
X24805565Y11721524D01*
X24805559Y11721521D01*
X24740610Y11684023D01*
X24701754Y11666418D01*
X24666217Y11658131D01*
X24629742Y11656937D01*
X24593742Y11662881D01*
X24559583Y11675737D01*
X24528596Y11695006D01*
X24501964Y11719950D01*
X24477113Y11754629D01*
X24439616Y11819576D01*
X24439613Y11819580D01*
X23944008Y12677993D01*
X23944005Y12677999D01*
X23906507Y12742948D01*
X23888902Y12781804D01*
X23880615Y12817341D01*
X23879421Y12853816D01*
X23885365Y12889816D01*
X23898221Y12923975D01*
X23917490Y12954962D01*
X23942434Y12981594D01*
X23977113Y13006445D01*
X24042060Y13043942D01*
X24042064Y13043945D01*
X25181935Y13702050D01*
X25181941Y13702053D01*
X25246890Y13739551D01*
X25285746Y13757156D01*
X25321283Y13765443D01*
X25357758Y13766637D01*
X25393758Y13760693D01*
G37*
G36*
X-349000Y12249000D02*
G01*
X-1251000Y12249000D01*
X-1251000Y13251000D01*
X-349000Y13251000D01*
X-349000Y12249000D01*
G37*
G36*
X1551000Y12249000D02*
G01*
X649000Y12249000D01*
X649000Y13251000D01*
X1551000Y13251000D01*
X1551000Y12249000D01*
G37*
G36*
X-27548822Y14594039D02*
G01*
X-26855135Y14193539D01*
X-27406135Y13239179D01*
X-27406136Y13239179D01*
X-28150512Y13668945D01*
X-28793509Y14040179D01*
X-28242509Y14994539D01*
X-28242508Y14994539D01*
X-27548822Y14594039D01*
G37*
G36*
X28793509Y14040179D02*
G01*
X28150512Y13668945D01*
X27406136Y13239179D01*
X27406135Y13239179D01*
X26855135Y14193539D01*
X27548822Y14594039D01*
X28242508Y14994539D01*
X28242509Y14994539D01*
X28793509Y14040179D01*
G37*
G36*
X-23833783Y16341869D02*
G01*
X-23798246Y16333582D01*
X-23759390Y16315977D01*
X-23694441Y16278479D01*
X-23694435Y16278476D01*
X-22554564Y15620371D01*
X-22554560Y15620368D01*
X-22489613Y15582871D01*
X-22454934Y15558020D01*
X-22429990Y15531388D01*
X-22410721Y15500401D01*
X-22397865Y15466242D01*
X-22391921Y15430242D01*
X-22393115Y15393767D01*
X-22401402Y15358230D01*
X-22419007Y15319374D01*
X-22456505Y15254425D01*
X-22456508Y15254419D01*
X-22952113Y14396006D01*
X-22952116Y14396002D01*
X-22989613Y14331055D01*
X-23014464Y14296376D01*
X-23041096Y14271432D01*
X-23072083Y14252163D01*
X-23106242Y14239307D01*
X-23142242Y14233363D01*
X-23178717Y14234557D01*
X-23214254Y14242844D01*
X-23253110Y14260449D01*
X-23318059Y14297947D01*
X-23318065Y14297950D01*
X-24457936Y14956055D01*
X-24457940Y14956058D01*
X-24522887Y14993555D01*
X-24557566Y15018406D01*
X-24582510Y15045038D01*
X-24601779Y15076025D01*
X-24614635Y15110184D01*
X-24620579Y15146184D01*
X-24619385Y15182659D01*
X-24611098Y15218196D01*
X-24593493Y15257052D01*
X-24555995Y15322001D01*
X-24555992Y15322007D01*
X-24060387Y16180420D01*
X-24060384Y16180424D01*
X-24022887Y16245371D01*
X-23998036Y16280050D01*
X-23971404Y16304994D01*
X-23940417Y16324263D01*
X-23906258Y16337119D01*
X-23870258Y16343063D01*
X-23833783Y16341869D01*
G37*
G36*
X23906258Y16337119D02*
G01*
X23940417Y16324263D01*
X23971404Y16304994D01*
X23998036Y16280050D01*
X24022887Y16245371D01*
X24060384Y16180424D01*
X24060387Y16180420D01*
X24555992Y15322007D01*
X24555995Y15322001D01*
X24593493Y15257052D01*
X24611098Y15218196D01*
X24619385Y15182659D01*
X24620579Y15146184D01*
X24614635Y15110184D01*
X24601779Y15076025D01*
X24582510Y15045038D01*
X24557566Y15018406D01*
X24522887Y14993555D01*
X24457940Y14956058D01*
X24457936Y14956055D01*
X23318065Y14297950D01*
X23318059Y14297947D01*
X23253110Y14260449D01*
X23214254Y14242844D01*
X23178717Y14234557D01*
X23142242Y14233363D01*
X23106242Y14239307D01*
X23072083Y14252163D01*
X23041096Y14271432D01*
X23014464Y14296376D01*
X22989613Y14331055D01*
X22952116Y14396002D01*
X22952113Y14396006D01*
X22456508Y15254419D01*
X22456505Y15254425D01*
X22419007Y15319374D01*
X22401402Y15358230D01*
X22393115Y15393767D01*
X22391921Y15430242D01*
X22397865Y15466242D01*
X22410721Y15500401D01*
X22429990Y15531388D01*
X22454934Y15558020D01*
X22489613Y15582871D01*
X22554560Y15620368D01*
X22554564Y15620371D01*
X23694435Y16278476D01*
X23694441Y16278479D01*
X23759390Y16315977D01*
X23798246Y16333582D01*
X23833783Y16341869D01*
X23870258Y16343063D01*
X23906258Y16337119D01*
G37*
G36*
X601000Y14249000D02*
G01*
X-301000Y14249000D01*
X-301000Y15251000D01*
X601000Y15251000D01*
X601000Y14249000D01*
G37*
G36*
X-1969003Y16771949D02*
G01*
X-1935348Y16761739D01*
X-1904335Y16745162D01*
X-1877149Y16722851D01*
X-1854838Y16695665D01*
X-1838261Y16664652D01*
X-1828051Y16630997D01*
X-1824000Y16589862D01*
X-1824000Y15210138D01*
X-1828051Y15169003D01*
X-1838261Y15135348D01*
X-1854838Y15104335D01*
X-1877149Y15077149D01*
X-1904335Y15054838D01*
X-1935348Y15038261D01*
X-1969003Y15028051D01*
X-2010138Y15024000D01*
X-3339862Y15024000D01*
X-3380997Y15028051D01*
X-3414652Y15038261D01*
X-3445665Y15054838D01*
X-3472851Y15077149D01*
X-3495162Y15104335D01*
X-3511739Y15135348D01*
X-3521949Y15169003D01*
X-3526000Y15210138D01*
X-3526000Y16589862D01*
X-3521949Y16630997D01*
X-3511739Y16664652D01*
X-3495162Y16695665D01*
X-3472851Y16722851D01*
X-3445665Y16745162D01*
X-3414652Y16761739D01*
X-3380997Y16771949D01*
X-3339862Y16776000D01*
X-2010138Y16776000D01*
X-1969003Y16771949D01*
G37*
G36*
X-4819003Y16771949D02*
G01*
X-4785348Y16761739D01*
X-4754335Y16745162D01*
X-4727149Y16722851D01*
X-4704838Y16695665D01*
X-4688261Y16664652D01*
X-4678051Y16630997D01*
X-4674000Y16589862D01*
X-4674000Y15210138D01*
X-4678051Y15169003D01*
X-4688261Y15135348D01*
X-4704838Y15104335D01*
X-4727149Y15077149D01*
X-4754335Y15054838D01*
X-4785348Y15038261D01*
X-4819003Y15028051D01*
X-4860138Y15024000D01*
X-6189862Y15024000D01*
X-6230997Y15028051D01*
X-6264652Y15038261D01*
X-6295665Y15054838D01*
X-6322851Y15077149D01*
X-6345162Y15104335D01*
X-6361739Y15135348D01*
X-6371949Y15169003D01*
X-6376000Y15210138D01*
X-6376000Y16589862D01*
X-6371949Y16630997D01*
X-6361739Y16664652D01*
X-6345162Y16695665D01*
X-6322851Y16722851D01*
X-6295665Y16745162D01*
X-6264652Y16761739D01*
X-6230997Y16771949D01*
X-6189862Y16776000D01*
X-4860138Y16776000D01*
X-4819003Y16771949D01*
G37*
G36*
X3680997Y16771949D02*
G01*
X3714652Y16761739D01*
X3745665Y16745162D01*
X3772851Y16722851D01*
X3795162Y16695665D01*
X3811739Y16664652D01*
X3821949Y16630997D01*
X3826000Y16589862D01*
X3826000Y15210138D01*
X3821949Y15169003D01*
X3811739Y15135348D01*
X3795162Y15104335D01*
X3772851Y15077149D01*
X3745665Y15054838D01*
X3714652Y15038261D01*
X3680997Y15028051D01*
X3639862Y15024000D01*
X2310138Y15024000D01*
X2269003Y15028051D01*
X2235348Y15038261D01*
X2204335Y15054838D01*
X2177149Y15077149D01*
X2154838Y15104335D01*
X2138261Y15135348D01*
X2128051Y15169003D01*
X2124000Y15210138D01*
X2124000Y16589862D01*
X2128051Y16630997D01*
X2138261Y16664652D01*
X2154838Y16695665D01*
X2177149Y16722851D01*
X2204335Y16745162D01*
X2235348Y16761739D01*
X2269003Y16771949D01*
X2310138Y16776000D01*
X3639862Y16776000D01*
X3680997Y16771949D01*
G37*
G36*
X6530997Y16771949D02*
G01*
X6564652Y16761739D01*
X6595665Y16745162D01*
X6622851Y16722851D01*
X6645162Y16695665D01*
X6661739Y16664652D01*
X6671949Y16630997D01*
X6676000Y16589862D01*
X6676000Y15210138D01*
X6671949Y15169003D01*
X6661739Y15135348D01*
X6645162Y15104335D01*
X6622851Y15077149D01*
X6595665Y15054838D01*
X6564652Y15038261D01*
X6530997Y15028051D01*
X6489862Y15024000D01*
X5160138Y15024000D01*
X5119003Y15028051D01*
X5085348Y15038261D01*
X5054335Y15054838D01*
X5027149Y15077149D01*
X5004838Y15104335D01*
X4988261Y15135348D01*
X4978051Y15169003D01*
X4974000Y15210138D01*
X4974000Y16589862D01*
X4978051Y16630997D01*
X4988261Y16664652D01*
X5004838Y16695665D01*
X5027149Y16722851D01*
X5054335Y16745162D01*
X5085348Y16761739D01*
X5119003Y16771949D01*
X5160138Y16776000D01*
X6489862Y16776000D01*
X6530997Y16771949D01*
G37*
G36*
X-31792346Y17044039D02*
G01*
X-31098659Y16643539D01*
X-31649659Y15689179D01*
X-31649660Y15689179D01*
X-32574450Y16223107D01*
X-33037033Y16490179D01*
X-32486033Y17444539D01*
X-32486032Y17444539D01*
X-31792346Y17044039D01*
G37*
G36*
X33037033Y16490179D02*
G01*
X32574450Y16223107D01*
X31649660Y15689179D01*
X31649659Y15689179D01*
X31098659Y16643539D01*
X31792346Y17044039D01*
X32486032Y17444539D01*
X32486033Y17444539D01*
X33037033Y16490179D01*
G37*
G36*
X27193509Y16811461D02*
G01*
X26761334Y16561945D01*
X25806136Y16010461D01*
X25806135Y16010461D01*
X25255135Y16964821D01*
X26086032Y17444539D01*
X26642508Y17765821D01*
X26642509Y17765821D01*
X27193509Y16811461D01*
G37*
G36*
X-26086032Y17444539D02*
G01*
X-25255135Y16964821D01*
X-25806135Y16010461D01*
X-25806136Y16010461D01*
X-26761334Y16561945D01*
X-27193509Y16811461D01*
X-26642509Y17765821D01*
X-26642508Y17765821D01*
X-26086032Y17444539D01*
G37*
G36*
X6515000Y19751601D02*
G01*
X6549684Y19740248D01*
X6581482Y19722349D01*
X6609183Y19698585D01*
X6631708Y19669884D01*
X6648207Y19637327D01*
X6659696Y19596250D01*
X6914300Y18152314D01*
X6917555Y18109773D01*
X6913187Y18073547D01*
X6901834Y18038863D01*
X6883935Y18007065D01*
X6860171Y17979364D01*
X6831470Y17956839D01*
X6798913Y17940340D01*
X6757836Y17928851D01*
X6153424Y17822277D01*
X5707821Y17743705D01*
X5707820Y17743705D01*
X5633963Y17730682D01*
X5591422Y17727427D01*
X5555196Y17731795D01*
X5520512Y17743148D01*
X5488714Y17761047D01*
X5461013Y17784811D01*
X5438488Y17813512D01*
X5421989Y17846069D01*
X5410500Y17887146D01*
X5155896Y19331082D01*
X5152641Y19373623D01*
X5157009Y19409849D01*
X5168362Y19444533D01*
X5186261Y19476331D01*
X5210025Y19504032D01*
X5238726Y19526557D01*
X5271283Y19543056D01*
X5312360Y19554545D01*
X5966480Y19669884D01*
X6362375Y19739691D01*
X6362376Y19739691D01*
X6436233Y19752714D01*
X6478774Y19755969D01*
X6515000Y19751601D01*
G37*
G36*
X-5936233Y19752714D02*
G01*
X-5862376Y19739691D01*
X-5862375Y19739691D01*
X-5466480Y19669884D01*
X-4812360Y19554545D01*
X-4771283Y19543056D01*
X-4738726Y19526557D01*
X-4710025Y19504032D01*
X-4686261Y19476331D01*
X-4668362Y19444533D01*
X-4657009Y19409849D01*
X-4652641Y19373623D01*
X-4655896Y19331082D01*
X-4910500Y17887146D01*
X-4921989Y17846069D01*
X-4938488Y17813512D01*
X-4961013Y17784811D01*
X-4988714Y17761047D01*
X-5020512Y17743148D01*
X-5055196Y17731795D01*
X-5091422Y17727427D01*
X-5133963Y17730682D01*
X-5207820Y17743705D01*
X-5207821Y17743705D01*
X-5653424Y17822277D01*
X-6257836Y17928851D01*
X-6298913Y17940340D01*
X-6331470Y17956839D01*
X-6360171Y17979364D01*
X-6383935Y18007065D01*
X-6401834Y18038863D01*
X-6413187Y18073547D01*
X-6417555Y18109773D01*
X-6414300Y18152314D01*
X-6159696Y19596250D01*
X-6148207Y19637327D01*
X-6131708Y19669884D01*
X-6109183Y19698585D01*
X-6081482Y19722349D01*
X-6049684Y19740248D01*
X-6015000Y19751601D01*
X-5978774Y19755969D01*
X-5936233Y19752714D01*
G37*
G36*
X-8866037Y20269318D02*
G01*
X-8792180Y20256295D01*
X-8792179Y20256295D01*
X-8396284Y20186488D01*
X-7742164Y20071149D01*
X-7701087Y20059660D01*
X-7668530Y20043161D01*
X-7639829Y20020636D01*
X-7616065Y19992935D01*
X-7598166Y19961137D01*
X-7586813Y19926453D01*
X-7582445Y19890227D01*
X-7585700Y19847686D01*
X-7840304Y18403750D01*
X-7851793Y18362673D01*
X-7868292Y18330116D01*
X-7890817Y18301415D01*
X-7918518Y18277651D01*
X-7950316Y18259752D01*
X-7985000Y18248399D01*
X-8021226Y18244031D01*
X-8063767Y18247286D01*
X-8137624Y18260309D01*
X-8137625Y18260309D01*
X-8583228Y18338881D01*
X-9187640Y18445455D01*
X-9228717Y18456944D01*
X-9261274Y18473443D01*
X-9289975Y18495968D01*
X-9313739Y18523669D01*
X-9331638Y18555467D01*
X-9342991Y18590151D01*
X-9347359Y18626377D01*
X-9344104Y18668918D01*
X-9089500Y20112854D01*
X-9078011Y20153931D01*
X-9061512Y20186488D01*
X-9038987Y20215189D01*
X-9011286Y20238953D01*
X-8979488Y20256852D01*
X-8944804Y20268205D01*
X-8908578Y20272573D01*
X-8866037Y20269318D01*
G37*
G36*
X9444804Y20268205D02*
G01*
X9479488Y20256852D01*
X9511286Y20238953D01*
X9538987Y20215189D01*
X9561512Y20186488D01*
X9578011Y20153931D01*
X9589500Y20112854D01*
X9844104Y18668918D01*
X9847359Y18626377D01*
X9842991Y18590151D01*
X9831638Y18555467D01*
X9813739Y18523669D01*
X9789975Y18495968D01*
X9761274Y18473443D01*
X9728717Y18456944D01*
X9687640Y18445455D01*
X9083228Y18338881D01*
X8637625Y18260309D01*
X8637624Y18260309D01*
X8563767Y18247286D01*
X8521226Y18244031D01*
X8485000Y18248399D01*
X8450316Y18259752D01*
X8418518Y18277651D01*
X8390817Y18301415D01*
X8368292Y18330116D01*
X8351793Y18362673D01*
X8340304Y18403750D01*
X8085700Y19847686D01*
X8082445Y19890227D01*
X8086813Y19926453D01*
X8098166Y19961137D01*
X8116065Y19992935D01*
X8139829Y20020636D01*
X8168530Y20043161D01*
X8201087Y20059660D01*
X8242164Y20071149D01*
X8896284Y20186488D01*
X9292179Y20256295D01*
X9292180Y20256295D01*
X9366037Y20269318D01*
X9408578Y20272573D01*
X9444804Y20268205D01*
G37*
G36*
X31437033Y19261461D02*
G01*
X30743346Y18860961D01*
X30049660Y18460461D01*
X30049659Y18460461D01*
X29498659Y19414821D01*
X30248404Y19847686D01*
X30886032Y20215821D01*
X30886033Y20215821D01*
X31437033Y19261461D01*
G37*
G36*
X-30248404Y19847686D02*
G01*
X-29498659Y19414821D01*
X-30049659Y18460461D01*
X-30049660Y18460461D01*
X-30743346Y18860961D01*
X-31437033Y19261461D01*
X-30886033Y20215821D01*
X-30886032Y20215821D01*
X-30248404Y19847686D01*
G37*
G36*
X15182659Y24619385D02*
G01*
X15218196Y24611098D01*
X15257052Y24593493D01*
X15322001Y24555995D01*
X15322007Y24555992D01*
X16180420Y24060387D01*
X16180424Y24060384D01*
X16245371Y24022887D01*
X16280050Y23998036D01*
X16304994Y23971404D01*
X16324263Y23940417D01*
X16337119Y23906258D01*
X16343063Y23870258D01*
X16341869Y23833783D01*
X16333582Y23798246D01*
X16315977Y23759390D01*
X16278479Y23694441D01*
X16278476Y23694435D01*
X15620371Y22554564D01*
X15620368Y22554560D01*
X15582871Y22489613D01*
X15558020Y22454934D01*
X15531388Y22429990D01*
X15500401Y22410721D01*
X15466242Y22397865D01*
X15430242Y22391921D01*
X15393767Y22393115D01*
X15358230Y22401402D01*
X15319374Y22419007D01*
X15254425Y22456505D01*
X15254419Y22456508D01*
X14396006Y22952113D01*
X14396002Y22952116D01*
X14331055Y22989613D01*
X14296376Y23014464D01*
X14271432Y23041096D01*
X14252163Y23072083D01*
X14239307Y23106242D01*
X14233363Y23142242D01*
X14234557Y23178717D01*
X14242844Y23214254D01*
X14260449Y23253110D01*
X14297947Y23318059D01*
X14297950Y23318065D01*
X14956055Y24457936D01*
X14956058Y24457940D01*
X14993555Y24522887D01*
X15018406Y24557566D01*
X15045038Y24582510D01*
X15076025Y24601779D01*
X15110184Y24614635D01*
X15146184Y24620579D01*
X15182659Y24619385D01*
G37*
G36*
X-15110184Y24614635D02*
G01*
X-15076025Y24601779D01*
X-15045038Y24582510D01*
X-15018406Y24557566D01*
X-14993555Y24522887D01*
X-14956058Y24457940D01*
X-14956055Y24457936D01*
X-14297950Y23318065D01*
X-14297947Y23318059D01*
X-14260449Y23253110D01*
X-14242844Y23214254D01*
X-14234557Y23178717D01*
X-14233363Y23142242D01*
X-14239307Y23106242D01*
X-14252163Y23072083D01*
X-14271432Y23041096D01*
X-14296376Y23014464D01*
X-14331055Y22989613D01*
X-14396002Y22952116D01*
X-14396006Y22952113D01*
X-15254419Y22456508D01*
X-15254425Y22456505D01*
X-15319374Y22419007D01*
X-15358230Y22401402D01*
X-15393767Y22393115D01*
X-15430242Y22391921D01*
X-15466242Y22397865D01*
X-15500401Y22410721D01*
X-15531388Y22429990D01*
X-15558020Y22454934D01*
X-15582871Y22489613D01*
X-15620368Y22554560D01*
X-15620371Y22554564D01*
X-16278476Y23694435D01*
X-16278479Y23694441D01*
X-16315977Y23759390D01*
X-16333582Y23798246D01*
X-16341869Y23833783D01*
X-16343063Y23870258D01*
X-16337119Y23906258D01*
X-16324263Y23940417D01*
X-16304994Y23971404D01*
X-16280050Y23998036D01*
X-16245371Y24022887D01*
X-16180424Y24060384D01*
X-16180420Y24060387D01*
X-15322007Y24555992D01*
X-15322001Y24555995D01*
X-15257052Y24593493D01*
X-15218196Y24611098D01*
X-15182659Y24619385D01*
X-15146184Y24620579D01*
X-15110184Y24614635D01*
G37*
G36*
X12606233Y26106885D02*
G01*
X12641770Y26098598D01*
X12680626Y26080993D01*
X12745575Y26043495D01*
X12745581Y26043492D01*
X13603994Y25547887D01*
X13603998Y25547884D01*
X13668945Y25510387D01*
X13703624Y25485536D01*
X13728568Y25458904D01*
X13747837Y25427917D01*
X13760693Y25393758D01*
X13766637Y25357758D01*
X13765443Y25321283D01*
X13757156Y25285746D01*
X13739551Y25246890D01*
X13702053Y25181941D01*
X13702050Y25181935D01*
X13043945Y24042064D01*
X13043942Y24042060D01*
X13006445Y23977113D01*
X12981594Y23942434D01*
X12954962Y23917490D01*
X12923975Y23898221D01*
X12889816Y23885365D01*
X12853816Y23879421D01*
X12817341Y23880615D01*
X12781804Y23888902D01*
X12742948Y23906507D01*
X12677999Y23944005D01*
X12677993Y23944008D01*
X11819580Y24439613D01*
X11819576Y24439616D01*
X11754629Y24477113D01*
X11719950Y24501964D01*
X11695006Y24528596D01*
X11675737Y24559583D01*
X11662881Y24593742D01*
X11656937Y24629742D01*
X11658131Y24666217D01*
X11666418Y24701754D01*
X11684023Y24740610D01*
X11721521Y24805559D01*
X11721524Y24805565D01*
X12379629Y25945436D01*
X12379632Y25945440D01*
X12417129Y26010387D01*
X12441980Y26045066D01*
X12468612Y26070010D01*
X12499599Y26089279D01*
X12533758Y26102135D01*
X12569758Y26108079D01*
X12606233Y26106885D01*
G37*
G36*
X-12533758Y26102135D02*
G01*
X-12499599Y26089279D01*
X-12468612Y26070010D01*
X-12441980Y26045066D01*
X-12417129Y26010387D01*
X-12379632Y25945440D01*
X-12379629Y25945436D01*
X-11721524Y24805565D01*
X-11721521Y24805559D01*
X-11684023Y24740610D01*
X-11666418Y24701754D01*
X-11658131Y24666217D01*
X-11656937Y24629742D01*
X-11662881Y24593742D01*
X-11675737Y24559583D01*
X-11695006Y24528596D01*
X-11719950Y24501964D01*
X-11754629Y24477113D01*
X-11819576Y24439616D01*
X-11819580Y24439613D01*
X-12677993Y23944008D01*
X-12677999Y23944005D01*
X-12742948Y23906507D01*
X-12781804Y23888902D01*
X-12817341Y23880615D01*
X-12853816Y23879421D01*
X-12889816Y23885365D01*
X-12923975Y23898221D01*
X-12954962Y23917490D01*
X-12981594Y23942434D01*
X-13006445Y23977113D01*
X-13043942Y24042060D01*
X-13043945Y24042064D01*
X-13702050Y25181935D01*
X-13702053Y25181941D01*
X-13739551Y25246890D01*
X-13757156Y25285746D01*
X-13765443Y25321283D01*
X-13766637Y25357758D01*
X-13760693Y25393758D01*
X-13747837Y25427917D01*
X-13728568Y25458904D01*
X-13703624Y25485536D01*
X-13668945Y25510387D01*
X-13603998Y25547884D01*
X-13603994Y25547887D01*
X-12745581Y26043492D01*
X-12745575Y26043495D01*
X-12680626Y26080993D01*
X-12641770Y26098598D01*
X-12606233Y26106885D01*
X-12569758Y26108079D01*
X-12533758Y26102135D01*
G37*
G36*
X-16716101Y26755135D02*
G01*
X-16110461Y25706136D01*
X-16110461Y25706135D01*
X-17064821Y25155135D01*
X-17521101Y25945436D01*
X-17865821Y26542508D01*
X-17865821Y26542509D01*
X-16911461Y27093509D01*
X-16716101Y26755135D01*
G37*
G36*
X17865821Y26542509D02*
G01*
X17865821Y26542508D01*
X17521101Y25945436D01*
X17064821Y25155135D01*
X16110461Y25706135D01*
X16110461Y25706136D01*
X16716101Y26755135D01*
X16911461Y27093509D01*
X17865821Y26542509D01*
G37*
G36*
X15094539Y28142509D02*
G01*
X15094539Y28142508D01*
X14694039Y27448822D01*
X14293539Y26755135D01*
X13339179Y27306135D01*
X13339179Y27306136D01*
X14119739Y28658105D01*
X14140179Y28693509D01*
X15094539Y28142509D01*
G37*
G36*
X-14119739Y28658105D02*
G01*
X-13339179Y27306136D01*
X-13339179Y27306135D01*
X-14293539Y26755135D01*
X-14694039Y27448822D01*
X-15094539Y28142508D01*
X-15094539Y28142509D01*
X-14140179Y28693509D01*
X-14119739Y28658105D01*
G37*
G36*
X-924439Y28921819D02*
G01*
X-889520Y28911226D01*
X-857338Y28894024D01*
X-829128Y28870873D01*
X-805977Y28842663D01*
X-788775Y28810481D01*
X-778182Y28775562D01*
X-774001Y28733105D01*
X-774001Y27266895D01*
X-778182Y27224438D01*
X-788775Y27189519D01*
X-805977Y27157337D01*
X-829128Y27129127D01*
X-857338Y27105976D01*
X-889520Y27088774D01*
X-924439Y27078181D01*
X-966896Y27074000D01*
X-2108106Y27074000D01*
X-2150563Y27078181D01*
X-2185482Y27088774D01*
X-2217664Y27105976D01*
X-2245874Y27129127D01*
X-2269025Y27157337D01*
X-2286227Y27189519D01*
X-2296820Y27224438D01*
X-2301001Y27266895D01*
X-2301001Y28733105D01*
X-2296820Y28775562D01*
X-2286227Y28810481D01*
X-2269025Y28842663D01*
X-2245874Y28870873D01*
X-2217664Y28894024D01*
X-2185482Y28911226D01*
X-2150563Y28921819D01*
X-2108106Y28926000D01*
X-966896Y28926000D01*
X-924439Y28921819D01*
G37*
G36*
X2050561Y28921819D02*
G01*
X2085480Y28911226D01*
X2117662Y28894024D01*
X2145872Y28870873D01*
X2169023Y28842663D01*
X2186225Y28810481D01*
X2196818Y28775562D01*
X2200999Y28733105D01*
X2200999Y27266895D01*
X2196818Y27224438D01*
X2186225Y27189519D01*
X2169023Y27157337D01*
X2145872Y27129127D01*
X2117662Y27105976D01*
X2085480Y27088774D01*
X2050561Y27078181D01*
X2008104Y27074000D01*
X866894Y27074000D01*
X824437Y27078181D01*
X789518Y27088774D01*
X757336Y27105976D01*
X729126Y27129127D01*
X705975Y27157337D01*
X688773Y27189519D01*
X678180Y27224438D01*
X673999Y27266895D01*
X673999Y28733105D01*
X678180Y28775562D01*
X688773Y28810481D01*
X705975Y28842663D01*
X729126Y28870873D01*
X757336Y28894024D01*
X789518Y28911226D01*
X824437Y28921819D01*
X866894Y28926000D01*
X2008104Y28926000D01*
X2050561Y28921819D01*
G37*
G36*
X-19166101Y30998659D02*
G01*
X-18560461Y29949660D01*
X-18560461Y29949659D01*
X-19514821Y29398659D01*
X-19915321Y30092346D01*
X-20315821Y30786032D01*
X-20315821Y30786033D01*
X-19361461Y31337033D01*
X-19166101Y30998659D01*
G37*
G36*
X20315821Y30786033D02*
G01*
X20315821Y30786032D01*
X19915321Y30092346D01*
X19514821Y29398659D01*
X18560461Y29949659D01*
X18560461Y29949660D01*
X19166101Y30998659D01*
X19361461Y31337033D01*
X20315821Y30786033D01*
G37*
G36*
X-1049001Y30304000D02*
G01*
X-2151001Y30304000D01*
X-2151001Y31906000D01*
X-1049001Y31906000D01*
X-1049001Y30304000D01*
G37*
G36*
X2150999Y30304000D02*
G01*
X1048999Y30304000D01*
X1048999Y31906000D01*
X2150999Y31906000D01*
X2150999Y30304000D01*
G37*
G36*
X-16272059Y32386033D02*
G01*
X-15789179Y31549660D01*
X-15789179Y31549659D01*
X-16743539Y30998659D01*
X-17267392Y31906000D01*
X-17544539Y32386032D01*
X-17544539Y32386033D01*
X-16590179Y32937033D01*
X-16272059Y32386033D01*
G37*
G36*
X17544539Y32386033D02*
G01*
X17544539Y32386032D01*
X17267392Y31906000D01*
X16743539Y30998659D01*
X15789179Y31549659D01*
X15789179Y31549660D01*
X16272059Y32386033D01*
X16590179Y32937033D01*
X17544539Y32386033D01*
G37*
G36*
X2150999Y35204000D02*
G01*
X1048999Y35204000D01*
X1048999Y36806000D01*
X2150999Y36806000D01*
X2150999Y35204000D01*
G37*
G36*
X-1049001Y35204000D02*
G01*
X-2151001Y35204000D01*
X-2151001Y36806000D01*
X-1049001Y36806000D01*
X-1049001Y35204000D01*
G37*
M02*
