G04 #@! TF.GenerationSoftware,KiCad,Pcbnew,(5.1.5)-3*
G04 #@! TF.CreationDate,2020-02-24T13:55:18+01:00*
G04 #@! TF.ProjectId,Badge,42616467-652e-46b6-9963-61645f706362,rev?*
G04 #@! TF.SameCoordinates,PX3473bc0PY3567e00*
G04 #@! TF.FileFunction,Legend,Bot*
G04 #@! TF.FilePolarity,Positive*
%FSLAX46Y46*%
G04 Gerber Fmt 4.6, Leading zero omitted, Abs format (unit mm)*
G04 Created by KiCad (PCBNEW (5.1.5)-3) date 2020-02-24 13:55:18*
%MOMM*%
%LPD*%
G04 APERTURE LIST*
%ADD10C,0.010000*%
%ADD11C,0.200000*%
%ADD12C,0.100000*%
%ADD13C,0.120000*%
%ADD14C,0.150000*%
G04 APERTURE END LIST*
D10*
G36*
X4505740Y25584522D02*
G01*
X2915479Y25584522D01*
X2915479Y23994261D01*
X4505740Y23994261D01*
X4505740Y25584522D01*
G37*
X4505740Y25584522D02*
X2915479Y25584522D01*
X2915479Y23994261D01*
X4505740Y23994261D01*
X4505740Y25584522D01*
G36*
X-2915478Y25584522D02*
G01*
X-4505739Y25584522D01*
X-4505739Y23994261D01*
X-2915478Y23994261D01*
X-2915478Y25584522D01*
G37*
X-2915478Y25584522D02*
X-4505739Y25584522D01*
X-4505739Y23994261D01*
X-2915478Y23994261D01*
X-2915478Y25584522D01*
G36*
X2385392Y30885392D02*
G01*
X2915479Y30885392D01*
X2915479Y31415479D01*
X2385392Y31415479D01*
X2385392Y30885392D01*
G37*
X2385392Y30885392D02*
X2915479Y30885392D01*
X2915479Y31415479D01*
X2385392Y31415479D01*
X2385392Y30885392D01*
G36*
X2385392Y31945566D02*
G01*
X1855305Y31945566D01*
X1855305Y31415479D01*
X2385392Y31415479D01*
X2385392Y31945566D01*
G37*
X2385392Y31945566D02*
X1855305Y31945566D01*
X1855305Y31415479D01*
X2385392Y31415479D01*
X2385392Y31945566D01*
G36*
X265044Y31415479D02*
G01*
X795131Y31415479D01*
X795131Y31945566D01*
X265044Y31945566D01*
X265044Y31415479D01*
G37*
X265044Y31415479D02*
X795131Y31415479D01*
X795131Y31945566D01*
X265044Y31945566D01*
X265044Y31415479D01*
G36*
X265044Y32475653D02*
G01*
X-265043Y32475653D01*
X-265043Y31945566D01*
X265044Y31945566D01*
X265044Y32475653D01*
G37*
X265044Y32475653D02*
X-265043Y32475653D01*
X-265043Y31945566D01*
X265044Y31945566D01*
X265044Y32475653D01*
G36*
X-2915478Y33005740D02*
G01*
X-4505739Y33005740D01*
X-4505739Y31415479D01*
X-2915478Y31415479D01*
X-2915478Y33005740D01*
G37*
X-2915478Y33005740D02*
X-4505739Y33005740D01*
X-4505739Y31415479D01*
X-2915478Y31415479D01*
X-2915478Y33005740D01*
G36*
X-795130Y23994261D02*
G01*
X-1325217Y23994261D01*
X-1325217Y22934087D01*
X-795130Y22934087D01*
X-795130Y23994261D01*
G37*
X-795130Y23994261D02*
X-1325217Y23994261D01*
X-1325217Y22934087D01*
X-795130Y22934087D01*
X-795130Y23994261D01*
G36*
X5565914Y26644696D02*
G01*
X1855305Y26644696D01*
X1855305Y23464174D01*
X2385392Y23464174D01*
X2385392Y26114609D01*
X5035827Y26114609D01*
X5035827Y23464174D01*
X2385392Y23464174D01*
X1855305Y23464174D01*
X1855305Y22934087D01*
X5565914Y22934087D01*
X5565914Y26644696D01*
G37*
X5565914Y26644696D02*
X1855305Y26644696D01*
X1855305Y23464174D01*
X2385392Y23464174D01*
X2385392Y26114609D01*
X5035827Y26114609D01*
X5035827Y23464174D01*
X2385392Y23464174D01*
X1855305Y23464174D01*
X1855305Y22934087D01*
X5565914Y22934087D01*
X5565914Y26644696D01*
G36*
X-1855304Y26644696D02*
G01*
X-5565913Y26644696D01*
X-5565913Y23464174D01*
X-5035826Y23464174D01*
X-5035826Y26114609D01*
X-2385391Y26114609D01*
X-2385391Y23464174D01*
X-5035826Y23464174D01*
X-5565913Y23464174D01*
X-5565913Y22934087D01*
X-1855304Y22934087D01*
X-1855304Y26644696D01*
G37*
X-1855304Y26644696D02*
X-5565913Y26644696D01*
X-5565913Y23464174D01*
X-5035826Y23464174D01*
X-5035826Y26114609D01*
X-2385391Y26114609D01*
X-2385391Y23464174D01*
X-5035826Y23464174D01*
X-5565913Y23464174D01*
X-5565913Y22934087D01*
X-1855304Y22934087D01*
X-1855304Y26644696D01*
G36*
X3445566Y27704870D02*
G01*
X3445566Y27174783D01*
X3975653Y27174783D01*
X3975653Y27704870D01*
X3445566Y27704870D01*
G37*
X3445566Y27704870D02*
X3445566Y27174783D01*
X3975653Y27174783D01*
X3975653Y27704870D01*
X3445566Y27704870D01*
G36*
X4505740Y27704870D02*
G01*
X4505740Y28234957D01*
X5035827Y28234957D01*
X5035827Y27704870D01*
X4505740Y27704870D01*
X4505740Y27174783D01*
X5565914Y27174783D01*
X5565914Y29295131D01*
X4505740Y29295131D01*
X4505740Y28234957D01*
X3975653Y28234957D01*
X3975653Y27704870D01*
X4505740Y27704870D01*
G37*
X4505740Y27704870D02*
X4505740Y28234957D01*
X5035827Y28234957D01*
X5035827Y27704870D01*
X4505740Y27704870D01*
X4505740Y27174783D01*
X5565914Y27174783D01*
X5565914Y29295131D01*
X4505740Y29295131D01*
X4505740Y28234957D01*
X3975653Y28234957D01*
X3975653Y27704870D01*
X4505740Y27704870D01*
G36*
X-5035826Y29825218D02*
G01*
X-5565913Y29825218D01*
X-5565913Y29295131D01*
X-5035826Y29295131D01*
X-5035826Y29825218D01*
G37*
X-5035826Y29825218D02*
X-5565913Y29825218D01*
X-5565913Y29295131D01*
X-5035826Y29295131D01*
X-5035826Y29825218D01*
G36*
X5565914Y33535827D02*
G01*
X5035827Y33535827D01*
X5035827Y33005740D01*
X5565914Y33005740D01*
X5565914Y33535827D01*
G37*
X5565914Y33535827D02*
X5035827Y33535827D01*
X5035827Y33005740D01*
X5565914Y33005740D01*
X5565914Y33535827D01*
G36*
X4505740Y34065914D02*
G01*
X3975653Y34065914D01*
X3975653Y33535827D01*
X4505740Y33535827D01*
X4505740Y34065914D01*
G37*
X4505740Y34065914D02*
X3975653Y34065914D01*
X3975653Y33535827D01*
X4505740Y33535827D01*
X4505740Y34065914D01*
G36*
X795131Y28234957D02*
G01*
X-265043Y28234957D01*
X-265043Y28765044D01*
X-795130Y28765044D01*
X-795130Y28234957D01*
X-1325217Y28234957D01*
X-1325217Y27704870D01*
X265044Y27704870D01*
X265044Y27174783D01*
X-265043Y27174783D01*
X-265043Y26114609D01*
X-795130Y26114609D01*
X-795130Y25054435D01*
X265044Y25054435D01*
X265044Y23464174D01*
X1325218Y23464174D01*
X1325218Y23994261D01*
X795131Y23994261D01*
X795131Y24524348D01*
X1325218Y24524348D01*
X1325218Y25054435D01*
X795131Y25054435D01*
X795131Y25584522D01*
X265044Y25584522D01*
X265044Y26644696D01*
X795131Y26644696D01*
X795131Y28234957D01*
G37*
X795131Y28234957D02*
X-265043Y28234957D01*
X-265043Y28765044D01*
X-795130Y28765044D01*
X-795130Y28234957D01*
X-1325217Y28234957D01*
X-1325217Y27704870D01*
X265044Y27704870D01*
X265044Y27174783D01*
X-265043Y27174783D01*
X-265043Y26114609D01*
X-795130Y26114609D01*
X-795130Y25054435D01*
X265044Y25054435D01*
X265044Y23464174D01*
X1325218Y23464174D01*
X1325218Y23994261D01*
X795131Y23994261D01*
X795131Y24524348D01*
X1325218Y24524348D01*
X1325218Y25054435D01*
X795131Y25054435D01*
X795131Y25584522D01*
X265044Y25584522D01*
X265044Y26644696D01*
X795131Y26644696D01*
X795131Y28234957D01*
G36*
X-3445565Y28765044D02*
G01*
X-3975652Y28765044D01*
X-3975652Y28234957D01*
X-5035826Y28234957D01*
X-5035826Y27704870D01*
X-4505739Y27704870D01*
X-4505739Y27174783D01*
X-3445565Y27174783D01*
X-3445565Y27704870D01*
X-2915478Y27704870D01*
X-2915478Y28234957D01*
X-1855304Y28234957D01*
X-1855304Y28765044D01*
X-2915478Y28765044D01*
X-2915478Y29295131D01*
X-3445565Y29295131D01*
X-3445565Y28765044D01*
G37*
X-3445565Y28765044D02*
X-3975652Y28765044D01*
X-3975652Y28234957D01*
X-5035826Y28234957D01*
X-5035826Y27704870D01*
X-4505739Y27704870D01*
X-4505739Y27174783D01*
X-3445565Y27174783D01*
X-3445565Y27704870D01*
X-2915478Y27704870D01*
X-2915478Y28234957D01*
X-1855304Y28234957D01*
X-1855304Y28765044D01*
X-2915478Y28765044D01*
X-2915478Y29295131D01*
X-3445565Y29295131D01*
X-3445565Y28765044D01*
G36*
X2915479Y30355305D02*
G01*
X1855305Y30355305D01*
X1855305Y30885392D01*
X1325218Y30885392D01*
X1325218Y30355305D01*
X795131Y30355305D01*
X795131Y30885392D01*
X-265043Y30885392D01*
X-265043Y29825218D01*
X265044Y29825218D01*
X265044Y29295131D01*
X-265043Y29295131D01*
X-265043Y28765044D01*
X1855305Y28765044D01*
X1855305Y29295131D01*
X795131Y29295131D01*
X795131Y29825218D01*
X2385392Y29825218D01*
X2385392Y29295131D01*
X2915479Y29295131D01*
X2915479Y30355305D01*
G37*
X2915479Y30355305D02*
X1855305Y30355305D01*
X1855305Y30885392D01*
X1325218Y30885392D01*
X1325218Y30355305D01*
X795131Y30355305D01*
X795131Y30885392D01*
X-265043Y30885392D01*
X-265043Y29825218D01*
X265044Y29825218D01*
X265044Y29295131D01*
X-265043Y29295131D01*
X-265043Y28765044D01*
X1855305Y28765044D01*
X1855305Y29295131D01*
X795131Y29295131D01*
X795131Y29825218D01*
X2385392Y29825218D01*
X2385392Y29295131D01*
X2915479Y29295131D01*
X2915479Y30355305D01*
G36*
X795131Y26114609D02*
G01*
X1325218Y26114609D01*
X1325218Y26644696D01*
X795131Y26644696D01*
X795131Y26114609D01*
G37*
X795131Y26114609D02*
X1325218Y26114609D01*
X1325218Y26644696D01*
X795131Y26644696D01*
X795131Y26114609D01*
G36*
X265044Y32475653D02*
G01*
X795131Y32475653D01*
X795131Y31945566D01*
X1325218Y31945566D01*
X1325218Y33005740D01*
X2385392Y33005740D01*
X2385392Y31945566D01*
X3445566Y31945566D01*
X3445566Y30885392D01*
X5035827Y30885392D01*
X5035827Y31415479D01*
X5565914Y31415479D01*
X5565914Y31945566D01*
X5035827Y31945566D01*
X5035827Y32475653D01*
X4505740Y32475653D01*
X4505740Y31945566D01*
X3975653Y31945566D01*
X3975653Y33005740D01*
X3445566Y33005740D01*
X3445566Y32475653D01*
X2915479Y32475653D01*
X2915479Y33535827D01*
X3445566Y33535827D01*
X3445566Y34065914D01*
X2385392Y34065914D01*
X2385392Y33535827D01*
X1325218Y33535827D01*
X1325218Y34065914D01*
X-265043Y34065914D01*
X-265043Y33535827D01*
X265044Y33535827D01*
X795131Y33535827D01*
X795131Y33005740D01*
X265044Y33005740D01*
X265044Y33535827D01*
X-265043Y33535827D01*
X-795130Y33535827D01*
X-795130Y33005740D01*
X265044Y33005740D01*
X265044Y32475653D01*
G37*
X265044Y32475653D02*
X795131Y32475653D01*
X795131Y31945566D01*
X1325218Y31945566D01*
X1325218Y33005740D01*
X2385392Y33005740D01*
X2385392Y31945566D01*
X3445566Y31945566D01*
X3445566Y30885392D01*
X5035827Y30885392D01*
X5035827Y31415479D01*
X5565914Y31415479D01*
X5565914Y31945566D01*
X5035827Y31945566D01*
X5035827Y32475653D01*
X4505740Y32475653D01*
X4505740Y31945566D01*
X3975653Y31945566D01*
X3975653Y33005740D01*
X3445566Y33005740D01*
X3445566Y32475653D01*
X2915479Y32475653D01*
X2915479Y33535827D01*
X3445566Y33535827D01*
X3445566Y34065914D01*
X2385392Y34065914D01*
X2385392Y33535827D01*
X1325218Y33535827D01*
X1325218Y34065914D01*
X-265043Y34065914D01*
X-265043Y33535827D01*
X265044Y33535827D01*
X795131Y33535827D01*
X795131Y33005740D01*
X265044Y33005740D01*
X265044Y33535827D01*
X-265043Y33535827D01*
X-795130Y33535827D01*
X-795130Y33005740D01*
X265044Y33005740D01*
X265044Y32475653D01*
G36*
X-3445565Y29825218D02*
G01*
X-3975652Y29825218D01*
X-3975652Y29295131D01*
X-3445565Y29295131D01*
X-3445565Y29825218D01*
G37*
X-3445565Y29825218D02*
X-3975652Y29825218D01*
X-3975652Y29295131D01*
X-3445565Y29295131D01*
X-3445565Y29825218D01*
G36*
X-2915478Y27174783D02*
G01*
X-1325217Y27174783D01*
X-1325217Y27704870D01*
X-2915478Y27704870D01*
X-2915478Y27174783D01*
G37*
X-2915478Y27174783D02*
X-1325217Y27174783D01*
X-1325217Y27704870D01*
X-2915478Y27704870D01*
X-2915478Y27174783D01*
G36*
X-1325217Y26114609D02*
G01*
X-795130Y26114609D01*
X-795130Y27174783D01*
X-1325217Y27174783D01*
X-1325217Y26114609D01*
G37*
X-1325217Y26114609D02*
X-795130Y26114609D01*
X-795130Y27174783D01*
X-1325217Y27174783D01*
X-1325217Y26114609D01*
G36*
X2915479Y28765044D02*
G01*
X2385392Y28765044D01*
X2385392Y28234957D01*
X1855305Y28234957D01*
X1855305Y27174783D01*
X2385392Y27174783D01*
X2385392Y27704870D01*
X2915479Y27704870D01*
X2915479Y28234957D01*
X3445566Y28234957D01*
X3445566Y28765044D01*
X3975653Y28765044D01*
X3975653Y29295131D01*
X2915479Y29295131D01*
X2915479Y28765044D01*
G37*
X2915479Y28765044D02*
X2385392Y28765044D01*
X2385392Y28234957D01*
X1855305Y28234957D01*
X1855305Y27174783D01*
X2385392Y27174783D01*
X2385392Y27704870D01*
X2915479Y27704870D01*
X2915479Y28234957D01*
X3445566Y28234957D01*
X3445566Y28765044D01*
X3975653Y28765044D01*
X3975653Y29295131D01*
X2915479Y29295131D01*
X2915479Y28765044D01*
G36*
X-5565913Y27704870D02*
G01*
X-5565913Y27174783D01*
X-5035826Y27174783D01*
X-5035826Y27704870D01*
X-5565913Y27704870D01*
G37*
X-5565913Y27704870D02*
X-5565913Y27174783D01*
X-5035826Y27174783D01*
X-5035826Y27704870D01*
X-5565913Y27704870D01*
G36*
X2915479Y30885392D02*
G01*
X2915479Y30355305D01*
X3445566Y30355305D01*
X3445566Y30885392D01*
X2915479Y30885392D01*
G37*
X2915479Y30885392D02*
X2915479Y30355305D01*
X3445566Y30355305D01*
X3445566Y30885392D01*
X2915479Y30885392D01*
G36*
X-1325217Y33005740D02*
G01*
X-1325217Y31945566D01*
X-795130Y31945566D01*
X-795130Y33005740D01*
X-1325217Y33005740D01*
G37*
X-1325217Y33005740D02*
X-1325217Y31945566D01*
X-795130Y31945566D01*
X-795130Y33005740D01*
X-1325217Y33005740D01*
G36*
X-795130Y31415479D02*
G01*
X-1325217Y31415479D01*
X-1325217Y29825218D01*
X-2915478Y29825218D01*
X-2915478Y29295131D01*
X-795130Y29295131D01*
X-795130Y30885392D01*
X-265043Y30885392D01*
X-265043Y31945566D01*
X-795130Y31945566D01*
X-795130Y31415479D01*
G37*
X-795130Y31415479D02*
X-1325217Y31415479D01*
X-1325217Y29825218D01*
X-2915478Y29825218D01*
X-2915478Y29295131D01*
X-795130Y29295131D01*
X-795130Y30885392D01*
X-265043Y30885392D01*
X-265043Y31945566D01*
X-795130Y31945566D01*
X-795130Y31415479D01*
G36*
X-1325217Y25054435D02*
G01*
X-1325217Y24524348D01*
X-795130Y24524348D01*
X-795130Y25054435D01*
X-1325217Y25054435D01*
G37*
X-1325217Y25054435D02*
X-1325217Y24524348D01*
X-795130Y24524348D01*
X-795130Y25054435D01*
X-1325217Y25054435D01*
G36*
X-795130Y34065914D02*
G01*
X-1325217Y34065914D01*
X-1325217Y33535827D01*
X-795130Y33535827D01*
X-795130Y34065914D01*
G37*
X-795130Y34065914D02*
X-1325217Y34065914D01*
X-1325217Y33535827D01*
X-795130Y33535827D01*
X-795130Y34065914D01*
G36*
X-1855304Y34065914D02*
G01*
X-5565913Y34065914D01*
X-5565913Y30885392D01*
X-5035826Y30885392D01*
X-5035826Y33535827D01*
X-2385391Y33535827D01*
X-2385391Y30885392D01*
X-5035826Y30885392D01*
X-5565913Y30885392D01*
X-5565913Y30355305D01*
X-1855304Y30355305D01*
X-1855304Y34065914D01*
G37*
X-1855304Y34065914D02*
X-5565913Y34065914D01*
X-5565913Y30885392D01*
X-5035826Y30885392D01*
X-5035826Y33535827D01*
X-2385391Y33535827D01*
X-2385391Y30885392D01*
X-5035826Y30885392D01*
X-5565913Y30885392D01*
X-5565913Y30355305D01*
X-1855304Y30355305D01*
X-1855304Y34065914D01*
D11*
X30800000Y-2800000D02*
G75*
G03X30800000Y-2600000I0J100000D01*
G01*
X30800000Y-2600000D02*
G75*
G03X30800000Y-2800000I0J-100000D01*
G01*
D12*
X36600000Y-500000D02*
X36600000Y500000D01*
X31400000Y-500000D02*
X31400000Y500000D01*
X32500000Y2600000D02*
X35500000Y2600000D01*
X32500000Y-2600000D02*
X35500000Y-2600000D01*
D11*
X30800000Y-2600000D02*
X30800000Y-2600000D01*
X30800000Y-2800000D02*
X30800000Y-2800000D01*
X-37200000Y-2800000D02*
G75*
G03X-37200000Y-2600000I0J100000D01*
G01*
X-37200000Y-2600000D02*
G75*
G03X-37200000Y-2800000I0J-100000D01*
G01*
D12*
X-31400000Y-500000D02*
X-31400000Y500000D01*
X-36600000Y-500000D02*
X-36600000Y500000D01*
X-35500000Y2600000D02*
X-32500000Y2600000D01*
X-35500000Y-2600000D02*
X-32500000Y-2600000D01*
D11*
X-37200000Y-2600000D02*
X-37200000Y-2600000D01*
X-37200000Y-2800000D02*
X-37200000Y-2800000D01*
D10*
G36*
X5885711Y35789298D02*
G01*
X5755828Y35666588D01*
X5733151Y35480135D01*
X5763593Y35398971D01*
X5903715Y35273194D01*
X6088364Y35242469D01*
X6208889Y35297778D01*
X6273083Y35463611D01*
X6230845Y35655184D01*
X6103913Y35787570D01*
X6081285Y35796338D01*
X5885711Y35789298D01*
G37*
X5885711Y35789298D02*
X5755828Y35666588D01*
X5733151Y35480135D01*
X5763593Y35398971D01*
X5903715Y35273194D01*
X6088364Y35242469D01*
X6208889Y35297778D01*
X6273083Y35463611D01*
X6230845Y35655184D01*
X6103913Y35787570D01*
X6081285Y35796338D01*
X5885711Y35789298D01*
G36*
X927428Y37083225D02*
G01*
X838006Y36874607D01*
X706855Y36564467D01*
X545600Y36180230D01*
X455331Y35964136D01*
X-37756Y34781939D01*
X-585900Y35942970D01*
X-783315Y36346479D01*
X-964093Y36689045D01*
X-1113124Y36944026D01*
X-1215298Y37084780D01*
X-1244355Y37104000D01*
X-1345986Y37061420D01*
X-1354666Y37034451D01*
X-1318798Y36908573D01*
X-1221350Y36670292D01*
X-1077552Y36350460D01*
X-902638Y35979925D01*
X-711838Y35589538D01*
X-520384Y35210148D01*
X-343509Y34872607D01*
X-196445Y34607763D01*
X-94422Y34446467D01*
X-59770Y34411821D01*
X17620Y34465076D01*
X137958Y34653342D01*
X305085Y34983850D01*
X522836Y35463832D01*
X631421Y35714326D01*
X846612Y36224714D01*
X995242Y36600301D01*
X1083289Y36859294D01*
X1116730Y37019903D01*
X1101541Y37100336D01*
X1089770Y37110735D01*
X983388Y37162653D01*
X963495Y37162897D01*
X927428Y37083225D01*
G37*
X927428Y37083225D02*
X838006Y36874607D01*
X706855Y36564467D01*
X545600Y36180230D01*
X455331Y35964136D01*
X-37756Y34781939D01*
X-585900Y35942970D01*
X-783315Y36346479D01*
X-964093Y36689045D01*
X-1113124Y36944026D01*
X-1215298Y37084780D01*
X-1244355Y37104000D01*
X-1345986Y37061420D01*
X-1354666Y37034451D01*
X-1318798Y36908573D01*
X-1221350Y36670292D01*
X-1077552Y36350460D01*
X-902638Y35979925D01*
X-711838Y35589538D01*
X-520384Y35210148D01*
X-343509Y34872607D01*
X-196445Y34607763D01*
X-94422Y34446467D01*
X-59770Y34411821D01*
X17620Y34465076D01*
X137958Y34653342D01*
X305085Y34983850D01*
X522836Y35463832D01*
X631421Y35714326D01*
X846612Y36224714D01*
X995242Y36600301D01*
X1083289Y36859294D01*
X1116730Y37019903D01*
X1101541Y37100336D01*
X1089770Y37110735D01*
X983388Y37162653D01*
X963495Y37162897D01*
X927428Y37083225D01*
G36*
X1867618Y37033402D02*
G01*
X1862667Y36992129D01*
X1879490Y36912923D01*
X1946904Y36854237D01*
X2090329Y36810163D01*
X2335185Y36774793D01*
X2706892Y36742220D01*
X3037087Y36719183D01*
X3915173Y36660934D01*
X3859258Y35718300D01*
X3832298Y35311354D01*
X3802994Y34945988D01*
X3775326Y34668219D01*
X3757611Y34542834D01*
X3749070Y34367194D01*
X3827818Y34310401D01*
X3840610Y34310000D01*
X3977167Y34346012D01*
X4005651Y34373500D01*
X4026342Y34480186D01*
X4052871Y34716501D01*
X4081213Y35043028D01*
X4098612Y35283667D01*
X4128571Y35697055D01*
X4161298Y36094164D01*
X4191571Y36413491D01*
X4203778Y36521741D01*
X4252295Y36913148D01*
X3332648Y36971174D01*
X2924096Y36999650D01*
X2551029Y37030470D01*
X2262876Y37059297D01*
X2137834Y37076023D01*
X1942594Y37090136D01*
X1867618Y37033402D01*
G37*
X1867618Y37033402D02*
X1862667Y36992129D01*
X1879490Y36912923D01*
X1946904Y36854237D01*
X2090329Y36810163D01*
X2335185Y36774793D01*
X2706892Y36742220D01*
X3037087Y36719183D01*
X3915173Y36660934D01*
X3859258Y35718300D01*
X3832298Y35311354D01*
X3802994Y34945988D01*
X3775326Y34668219D01*
X3757611Y34542834D01*
X3749070Y34367194D01*
X3827818Y34310401D01*
X3840610Y34310000D01*
X3977167Y34346012D01*
X4005651Y34373500D01*
X4026342Y34480186D01*
X4052871Y34716501D01*
X4081213Y35043028D01*
X4098612Y35283667D01*
X4128571Y35697055D01*
X4161298Y36094164D01*
X4191571Y36413491D01*
X4203778Y36521741D01*
X4252295Y36913148D01*
X3332648Y36971174D01*
X2924096Y36999650D01*
X2551029Y37030470D01*
X2262876Y37059297D01*
X2137834Y37076023D01*
X1942594Y37090136D01*
X1867618Y37033402D01*
G36*
X-9463314Y34739218D02*
G01*
X-9552342Y34581560D01*
X-9553574Y34573575D01*
X-9520737Y34376360D01*
X-9394540Y34246519D01*
X-9313333Y34227927D01*
X-9213521Y34267273D01*
X-9157758Y34299705D01*
X-9080393Y34430780D01*
X-9073092Y34573575D01*
X-9158450Y34735226D01*
X-9310270Y34790440D01*
X-9463314Y34739218D01*
G37*
X-9463314Y34739218D02*
X-9552342Y34581560D01*
X-9553574Y34573575D01*
X-9520737Y34376360D01*
X-9394540Y34246519D01*
X-9313333Y34227927D01*
X-9213521Y34267273D01*
X-9157758Y34299705D01*
X-9080393Y34430780D01*
X-9073092Y34573575D01*
X-9158450Y34735226D01*
X-9310270Y34790440D01*
X-9463314Y34739218D01*
G36*
X-2280645Y37073834D02*
G01*
X-2495395Y37048012D01*
X-2825491Y37016896D01*
X-3217248Y36985311D01*
X-3450166Y36968771D01*
X-3849891Y36937693D01*
X-4108001Y36904785D01*
X-4252156Y36863833D01*
X-4310019Y36808620D01*
X-4315251Y36774397D01*
X-4304951Y36595177D01*
X-4281134Y36307776D01*
X-4247565Y35948180D01*
X-4208009Y35552369D01*
X-4166230Y35156329D01*
X-4125995Y34796042D01*
X-4091068Y34507491D01*
X-4065215Y34326660D01*
X-4054607Y34283486D01*
X-3962656Y34282236D01*
X-3734936Y34294456D01*
X-3404292Y34318003D01*
X-3003569Y34350734D01*
X-2942508Y34356036D01*
X-2532277Y34395299D01*
X-2185634Y34434856D01*
X-1936168Y34470414D01*
X-1817468Y34497674D01*
X-1813333Y34500444D01*
X-1802713Y34597945D01*
X-1806433Y34828549D01*
X-2078755Y34828549D01*
X-2087993Y34733580D01*
X-2192252Y34702968D01*
X-2417994Y34669603D01*
X-2717522Y34637938D01*
X-3043138Y34612422D01*
X-3347144Y34597507D01*
X-3556000Y34596588D01*
X-3852333Y34606334D01*
X-3938563Y35608286D01*
X-3968616Y35999981D01*
X-3986602Y36324657D01*
X-3991125Y36548404D01*
X-3980896Y36637251D01*
X-3883030Y36654217D01*
X-3654233Y36678377D01*
X-3332555Y36706024D01*
X-3082675Y36724748D01*
X-2228350Y36785232D01*
X-2136984Y35780696D01*
X-2104808Y35386691D01*
X-2084860Y35057799D01*
X-2078755Y34828549D01*
X-1806433Y34828549D01*
X-1806515Y34833620D01*
X-1823423Y35177044D01*
X-1852120Y35597791D01*
X-1871137Y35835524D01*
X-1978957Y37120586D01*
X-2280645Y37073834D01*
G37*
X-2280645Y37073834D02*
X-2495395Y37048012D01*
X-2825491Y37016896D01*
X-3217248Y36985311D01*
X-3450166Y36968771D01*
X-3849891Y36937693D01*
X-4108001Y36904785D01*
X-4252156Y36863833D01*
X-4310019Y36808620D01*
X-4315251Y36774397D01*
X-4304951Y36595177D01*
X-4281134Y36307776D01*
X-4247565Y35948180D01*
X-4208009Y35552369D01*
X-4166230Y35156329D01*
X-4125995Y34796042D01*
X-4091068Y34507491D01*
X-4065215Y34326660D01*
X-4054607Y34283486D01*
X-3962656Y34282236D01*
X-3734936Y34294456D01*
X-3404292Y34318003D01*
X-3003569Y34350734D01*
X-2942508Y34356036D01*
X-2532277Y34395299D01*
X-2185634Y34434856D01*
X-1936168Y34470414D01*
X-1817468Y34497674D01*
X-1813333Y34500444D01*
X-1802713Y34597945D01*
X-1806433Y34828549D01*
X-2078755Y34828549D01*
X-2087993Y34733580D01*
X-2192252Y34702968D01*
X-2417994Y34669603D01*
X-2717522Y34637938D01*
X-3043138Y34612422D01*
X-3347144Y34597507D01*
X-3556000Y34596588D01*
X-3852333Y34606334D01*
X-3938563Y35608286D01*
X-3968616Y35999981D01*
X-3986602Y36324657D01*
X-3991125Y36548404D01*
X-3980896Y36637251D01*
X-3883030Y36654217D01*
X-3654233Y36678377D01*
X-3332555Y36706024D01*
X-3082675Y36724748D01*
X-2228350Y36785232D01*
X-2136984Y35780696D01*
X-2104808Y35386691D01*
X-2084860Y35057799D01*
X-2078755Y34828549D01*
X-1806433Y34828549D01*
X-1806515Y34833620D01*
X-1823423Y35177044D01*
X-1852120Y35597791D01*
X-1871137Y35835524D01*
X-1978957Y37120586D01*
X-2280645Y37073834D01*
G36*
X4939922Y36754583D02*
G01*
X4927122Y36705437D01*
X4939509Y36595369D01*
X4980403Y36400575D01*
X5053127Y36097250D01*
X5161002Y35661588D01*
X5208564Y35469860D01*
X5349701Y34909687D01*
X5460795Y34494763D01*
X5548740Y34205080D01*
X5620429Y34020632D01*
X5682754Y33921409D01*
X5742609Y33887406D01*
X5754022Y33886667D01*
X5827479Y33953620D01*
X5975867Y34138687D01*
X6181565Y34418180D01*
X6426951Y34768412D01*
X6601019Y35025212D01*
X6907877Y35486020D01*
X7129080Y35826494D01*
X7274606Y36066042D01*
X7354433Y36224073D01*
X7378537Y36319998D01*
X7356898Y36373224D01*
X7307852Y36400189D01*
X7228363Y36345932D01*
X7077244Y36170431D01*
X6872012Y35896408D01*
X6630182Y35546588D01*
X6513928Y35370252D01*
X6271398Y35001081D01*
X6062485Y34690652D01*
X5903667Y34462858D01*
X5811425Y34341588D01*
X5795348Y34328431D01*
X5765989Y34415336D01*
X5704162Y34634159D01*
X5618706Y34952600D01*
X5518460Y35338358D01*
X5510630Y35368951D01*
X5380584Y35877019D01*
X5284900Y36244034D01*
X5215653Y36492915D01*
X5164921Y36646577D01*
X5124779Y36727937D01*
X5087302Y36759912D01*
X5044567Y36765419D01*
X5027792Y36765334D01*
X4974586Y36766614D01*
X4939922Y36754583D01*
G37*
X4939922Y36754583D02*
X4927122Y36705437D01*
X4939509Y36595369D01*
X4980403Y36400575D01*
X5053127Y36097250D01*
X5161002Y35661588D01*
X5208564Y35469860D01*
X5349701Y34909687D01*
X5460795Y34494763D01*
X5548740Y34205080D01*
X5620429Y34020632D01*
X5682754Y33921409D01*
X5742609Y33887406D01*
X5754022Y33886667D01*
X5827479Y33953620D01*
X5975867Y34138687D01*
X6181565Y34418180D01*
X6426951Y34768412D01*
X6601019Y35025212D01*
X6907877Y35486020D01*
X7129080Y35826494D01*
X7274606Y36066042D01*
X7354433Y36224073D01*
X7378537Y36319998D01*
X7356898Y36373224D01*
X7307852Y36400189D01*
X7228363Y36345932D01*
X7077244Y36170431D01*
X6872012Y35896408D01*
X6630182Y35546588D01*
X6513928Y35370252D01*
X6271398Y35001081D01*
X6062485Y34690652D01*
X5903667Y34462858D01*
X5811425Y34341588D01*
X5795348Y34328431D01*
X5765989Y34415336D01*
X5704162Y34634159D01*
X5618706Y34952600D01*
X5518460Y35338358D01*
X5510630Y35368951D01*
X5380584Y35877019D01*
X5284900Y36244034D01*
X5215653Y36492915D01*
X5164921Y36646577D01*
X5124779Y36727937D01*
X5087302Y36759912D01*
X5044567Y36765419D01*
X5027792Y36765334D01*
X4974586Y36766614D01*
X4939922Y36754583D01*
G36*
X-12111370Y33903924D02*
G01*
X-12183052Y33743435D01*
X-12135925Y33562698D01*
X-11986916Y33415562D01*
X-11824643Y33436228D01*
X-11736328Y33507767D01*
X-11657905Y33680715D01*
X-11709100Y33852478D01*
X-11861817Y33960228D01*
X-11943636Y33971334D01*
X-12111370Y33903924D01*
G37*
X-12111370Y33903924D02*
X-12183052Y33743435D01*
X-12135925Y33562698D01*
X-11986916Y33415562D01*
X-11824643Y33436228D01*
X-11736328Y33507767D01*
X-11657905Y33680715D01*
X-11709100Y33852478D01*
X-11861817Y33960228D01*
X-11943636Y33971334D01*
X-12111370Y33903924D01*
G36*
X-10516307Y35627097D02*
G01*
X-10543994Y35566386D01*
X-10521268Y35512708D01*
X-10426568Y35457528D01*
X-10238330Y35392311D01*
X-9934991Y35308522D01*
X-9494988Y35197626D01*
X-9326607Y35156199D01*
X-8196881Y34879064D01*
X-9069736Y34003228D01*
X-9427116Y33637656D01*
X-9670199Y33370893D01*
X-9810532Y33188448D01*
X-9859663Y33075831D01*
X-9845262Y33030063D01*
X-9774357Y33021599D01*
X-9642928Y33094382D01*
X-9436815Y33259589D01*
X-9141861Y33528394D01*
X-8810966Y33846442D01*
X-8486885Y34171345D01*
X-8211376Y34464460D01*
X-8005612Y34701912D01*
X-7890766Y34859823D01*
X-7874000Y34903081D01*
X-7906754Y34967709D01*
X-8018605Y35036780D01*
X-8229934Y35117830D01*
X-8561121Y35218397D01*
X-9032548Y35346017D01*
X-9165166Y35380562D01*
X-9733371Y35521101D01*
X-10150123Y35609179D01*
X-10412391Y35644242D01*
X-10516307Y35627097D01*
G37*
X-10516307Y35627097D02*
X-10543994Y35566386D01*
X-10521268Y35512708D01*
X-10426568Y35457528D01*
X-10238330Y35392311D01*
X-9934991Y35308522D01*
X-9494988Y35197626D01*
X-9326607Y35156199D01*
X-8196881Y34879064D01*
X-9069736Y34003228D01*
X-9427116Y33637656D01*
X-9670199Y33370893D01*
X-9810532Y33188448D01*
X-9859663Y33075831D01*
X-9845262Y33030063D01*
X-9774357Y33021599D01*
X-9642928Y33094382D01*
X-9436815Y33259589D01*
X-9141861Y33528394D01*
X-8810966Y33846442D01*
X-8486885Y34171345D01*
X-8211376Y34464460D01*
X-8005612Y34701912D01*
X-7890766Y34859823D01*
X-7874000Y34903081D01*
X-7906754Y34967709D01*
X-8018605Y35036780D01*
X-8229934Y35117830D01*
X-8561121Y35218397D01*
X-9032548Y35346017D01*
X-9165166Y35380562D01*
X-9733371Y35521101D01*
X-10150123Y35609179D01*
X-10412391Y35644242D01*
X-10516307Y35627097D01*
G36*
X14520706Y32827343D02*
G01*
X14409370Y32753656D01*
X14317685Y32607493D01*
X14361511Y32466912D01*
X14524986Y32317277D01*
X14706211Y32317086D01*
X14812759Y32400291D01*
X14883332Y32579517D01*
X14829024Y32735977D01*
X14693570Y32831356D01*
X14520706Y32827343D01*
G37*
X14520706Y32827343D02*
X14409370Y32753656D01*
X14317685Y32607493D01*
X14361511Y32466912D01*
X14524986Y32317277D01*
X14706211Y32317086D01*
X14812759Y32400291D01*
X14883332Y32579517D01*
X14829024Y32735977D01*
X14693570Y32831356D01*
X14520706Y32827343D01*
G36*
X11291062Y32695323D02*
G01*
X11243084Y32535249D01*
X11254187Y32342175D01*
X11330484Y32228622D01*
X11439893Y32235188D01*
X11464056Y32255612D01*
X11501066Y32369306D01*
X11514667Y32546112D01*
X11474916Y32734038D01*
X11385476Y32783179D01*
X11291062Y32695323D01*
G37*
X11291062Y32695323D02*
X11243084Y32535249D01*
X11254187Y32342175D01*
X11330484Y32228622D01*
X11439893Y32235188D01*
X11464056Y32255612D01*
X11501066Y32369306D01*
X11514667Y32546112D01*
X11474916Y32734038D01*
X11385476Y32783179D01*
X11291062Y32695323D01*
G36*
X-11370414Y35278128D02*
G01*
X-11576973Y35213519D01*
X-11870379Y35114303D01*
X-12214937Y34993322D01*
X-12574954Y34863421D01*
X-12914735Y34737444D01*
X-13198586Y34628234D01*
X-13390814Y34548636D01*
X-13454383Y34515172D01*
X-13441622Y34431697D01*
X-13412397Y34395864D01*
X-13294191Y34387082D01*
X-13036002Y34445578D01*
X-12651651Y34567790D01*
X-12409311Y34654312D01*
X-12041792Y34782284D01*
X-11733281Y34876313D01*
X-11517329Y34927072D01*
X-11428595Y34926870D01*
X-11376567Y34822339D01*
X-11285237Y34598733D01*
X-11169671Y34297344D01*
X-11044939Y33959463D01*
X-10926110Y33626382D01*
X-10828251Y33339393D01*
X-10766431Y33139787D01*
X-10752666Y33074648D01*
X-10827603Y33016997D01*
X-11031414Y32918927D01*
X-11332597Y32794366D01*
X-11684000Y32662832D01*
X-12073598Y32514418D01*
X-12375797Y32381215D01*
X-12564221Y32275786D01*
X-12615333Y32219197D01*
X-12601885Y32154364D01*
X-12545850Y32125930D01*
X-12423690Y32138789D01*
X-12211867Y32197835D01*
X-11886843Y32307964D01*
X-11472333Y32456890D01*
X-11099811Y32595719D01*
X-10785968Y32719186D01*
X-10565201Y32813327D01*
X-10473387Y32862495D01*
X-10482772Y32954015D01*
X-10539012Y33170167D01*
X-10630634Y33476613D01*
X-10746161Y33839013D01*
X-10874119Y34223031D01*
X-11003032Y34594329D01*
X-11121425Y34918567D01*
X-11217822Y35161410D01*
X-11280748Y35288518D01*
X-11286395Y35295285D01*
X-11370414Y35278128D01*
G37*
X-11370414Y35278128D02*
X-11576973Y35213519D01*
X-11870379Y35114303D01*
X-12214937Y34993322D01*
X-12574954Y34863421D01*
X-12914735Y34737444D01*
X-13198586Y34628234D01*
X-13390814Y34548636D01*
X-13454383Y34515172D01*
X-13441622Y34431697D01*
X-13412397Y34395864D01*
X-13294191Y34387082D01*
X-13036002Y34445578D01*
X-12651651Y34567790D01*
X-12409311Y34654312D01*
X-12041792Y34782284D01*
X-11733281Y34876313D01*
X-11517329Y34927072D01*
X-11428595Y34926870D01*
X-11376567Y34822339D01*
X-11285237Y34598733D01*
X-11169671Y34297344D01*
X-11044939Y33959463D01*
X-10926110Y33626382D01*
X-10828251Y33339393D01*
X-10766431Y33139787D01*
X-10752666Y33074648D01*
X-10827603Y33016997D01*
X-11031414Y32918927D01*
X-11332597Y32794366D01*
X-11684000Y32662832D01*
X-12073598Y32514418D01*
X-12375797Y32381215D01*
X-12564221Y32275786D01*
X-12615333Y32219197D01*
X-12601885Y32154364D01*
X-12545850Y32125930D01*
X-12423690Y32138789D01*
X-12211867Y32197835D01*
X-11886843Y32307964D01*
X-11472333Y32456890D01*
X-11099811Y32595719D01*
X-10785968Y32719186D01*
X-10565201Y32813327D01*
X-10473387Y32862495D01*
X-10482772Y32954015D01*
X-10539012Y33170167D01*
X-10630634Y33476613D01*
X-10746161Y33839013D01*
X-10874119Y34223031D01*
X-11003032Y34594329D01*
X-11121425Y34918567D01*
X-11217822Y35161410D01*
X-11280748Y35288518D01*
X-11286395Y35295285D01*
X-11370414Y35278128D01*
G36*
X14118602Y34152814D02*
G01*
X13997130Y33957012D01*
X13843380Y33670563D01*
X13672461Y33326103D01*
X13499479Y32956267D01*
X13339544Y32593691D01*
X13207762Y32271011D01*
X13119242Y32020863D01*
X13089091Y31875881D01*
X13095645Y31855524D01*
X13192068Y31800949D01*
X13404729Y31695545D01*
X13697427Y31555994D01*
X14033958Y31398977D01*
X14378122Y31241175D01*
X14693715Y31099269D01*
X14944535Y30989939D01*
X15094379Y30929866D01*
X15118748Y30923334D01*
X15176800Y30991820D01*
X15234067Y31113834D01*
X15298646Y31263912D01*
X15418178Y31528739D01*
X15575194Y31869998D01*
X15739972Y32223291D01*
X15947147Y32674119D01*
X16081769Y32994598D01*
X16149444Y33204597D01*
X16155779Y33323983D01*
X16106383Y33372624D01*
X16065500Y33376696D01*
X15991952Y33302898D01*
X15869714Y33103365D01*
X15715732Y32808455D01*
X15546956Y32448527D01*
X15545353Y32444933D01*
X15375574Y32071125D01*
X15222656Y31747552D01*
X15103738Y31509650D01*
X15037353Y31394602D01*
X14970210Y31347325D01*
X14856644Y31350441D01*
X14665678Y31411948D01*
X14366338Y31539846D01*
X14224000Y31604637D01*
X13900494Y31752377D01*
X13632765Y31873051D01*
X13459846Y31949142D01*
X13420770Y31965126D01*
X13423924Y32047962D01*
X13490634Y32254319D01*
X13610129Y32555569D01*
X13771637Y32923084D01*
X13822937Y33033997D01*
X14001323Y33420908D01*
X14150247Y33754116D01*
X14256399Y34003065D01*
X14306471Y34137198D01*
X14308667Y34149142D01*
X14240777Y34218435D01*
X14192689Y34225334D01*
X14118602Y34152814D01*
G37*
X14118602Y34152814D02*
X13997130Y33957012D01*
X13843380Y33670563D01*
X13672461Y33326103D01*
X13499479Y32956267D01*
X13339544Y32593691D01*
X13207762Y32271011D01*
X13119242Y32020863D01*
X13089091Y31875881D01*
X13095645Y31855524D01*
X13192068Y31800949D01*
X13404729Y31695545D01*
X13697427Y31555994D01*
X14033958Y31398977D01*
X14378122Y31241175D01*
X14693715Y31099269D01*
X14944535Y30989939D01*
X15094379Y30929866D01*
X15118748Y30923334D01*
X15176800Y30991820D01*
X15234067Y31113834D01*
X15298646Y31263912D01*
X15418178Y31528739D01*
X15575194Y31869998D01*
X15739972Y32223291D01*
X15947147Y32674119D01*
X16081769Y32994598D01*
X16149444Y33204597D01*
X16155779Y33323983D01*
X16106383Y33372624D01*
X16065500Y33376696D01*
X15991952Y33302898D01*
X15869714Y33103365D01*
X15715732Y32808455D01*
X15546956Y32448527D01*
X15545353Y32444933D01*
X15375574Y32071125D01*
X15222656Y31747552D01*
X15103738Y31509650D01*
X15037353Y31394602D01*
X14970210Y31347325D01*
X14856644Y31350441D01*
X14665678Y31411948D01*
X14366338Y31539846D01*
X14224000Y31604637D01*
X13900494Y31752377D01*
X13632765Y31873051D01*
X13459846Y31949142D01*
X13420770Y31965126D01*
X13423924Y32047962D01*
X13490634Y32254319D01*
X13610129Y32555569D01*
X13771637Y32923084D01*
X13822937Y33033997D01*
X14001323Y33420908D01*
X14150247Y33754116D01*
X14256399Y34003065D01*
X14306471Y34137198D01*
X14308667Y34149142D01*
X14240777Y34218435D01*
X14192689Y34225334D01*
X14118602Y34152814D01*
G36*
X-16335636Y33308423D02*
G01*
X-16340666Y33266795D01*
X-16325363Y33190082D01*
X-16263320Y33132675D01*
X-16130341Y33089528D01*
X-15902227Y33055595D01*
X-15554780Y33025831D01*
X-15063802Y32995191D01*
X-15028333Y32993162D01*
X-14629201Y32967910D01*
X-14293323Y32941964D01*
X-14055976Y32918372D01*
X-13952440Y32900184D01*
X-13952416Y32900171D01*
X-13976906Y32822826D01*
X-14085552Y32634917D01*
X-14262128Y32362248D01*
X-14490408Y32030628D01*
X-14566250Y31923921D01*
X-14812293Y31575561D01*
X-15018073Y31275337D01*
X-15165463Y31050379D01*
X-15236334Y30927811D01*
X-15240000Y30915700D01*
X-15210192Y30816691D01*
X-15117091Y30840187D01*
X-14955178Y30991596D01*
X-14718931Y31276329D01*
X-14402833Y31699796D01*
X-14313866Y31823523D01*
X-14049738Y32199616D01*
X-13824902Y32532452D01*
X-13656439Y32795732D01*
X-13561427Y32963153D01*
X-13546666Y33004934D01*
X-13565334Y33073688D01*
X-13637471Y33125481D01*
X-13787280Y33164967D01*
X-14038965Y33196799D01*
X-14416727Y33225632D01*
X-14816666Y33249155D01*
X-15235194Y33274985D01*
X-15617446Y33303572D01*
X-15916248Y33331102D01*
X-16065500Y33350141D01*
X-16260622Y33364727D01*
X-16335636Y33308423D01*
G37*
X-16335636Y33308423D02*
X-16340666Y33266795D01*
X-16325363Y33190082D01*
X-16263320Y33132675D01*
X-16130341Y33089528D01*
X-15902227Y33055595D01*
X-15554780Y33025831D01*
X-15063802Y32995191D01*
X-15028333Y32993162D01*
X-14629201Y32967910D01*
X-14293323Y32941964D01*
X-14055976Y32918372D01*
X-13952440Y32900184D01*
X-13952416Y32900171D01*
X-13976906Y32822826D01*
X-14085552Y32634917D01*
X-14262128Y32362248D01*
X-14490408Y32030628D01*
X-14566250Y31923921D01*
X-14812293Y31575561D01*
X-15018073Y31275337D01*
X-15165463Y31050379D01*
X-15236334Y30927811D01*
X-15240000Y30915700D01*
X-15210192Y30816691D01*
X-15117091Y30840187D01*
X-14955178Y30991596D01*
X-14718931Y31276329D01*
X-14402833Y31699796D01*
X-14313866Y31823523D01*
X-14049738Y32199616D01*
X-13824902Y32532452D01*
X-13656439Y32795732D01*
X-13561427Y32963153D01*
X-13546666Y33004934D01*
X-13565334Y33073688D01*
X-13637471Y33125481D01*
X-13787280Y33164967D01*
X-14038965Y33196799D01*
X-14416727Y33225632D01*
X-14816666Y33249155D01*
X-15235194Y33274985D01*
X-15617446Y33303572D01*
X-15916248Y33331102D01*
X-16065500Y33350141D01*
X-16260622Y33364727D01*
X-16335636Y33308423D01*
G36*
X18754667Y31784074D02*
G01*
X18607738Y31590274D01*
X18419777Y31300234D01*
X18209387Y30940921D01*
X18199930Y30923986D01*
X17996181Y30565732D01*
X17816246Y30262924D01*
X17678641Y30045800D01*
X17601884Y29944595D01*
X17598751Y29942303D01*
X17496474Y29961263D01*
X17280540Y30051105D01*
X16983348Y30197028D01*
X16662553Y30370022D01*
X16240285Y30596969D01*
X15947055Y30730904D01*
X15773135Y30775861D01*
X15720583Y30760449D01*
X15661983Y30664126D01*
X15668978Y30640110D01*
X15747910Y30591879D01*
X15941481Y30478493D01*
X16217218Y30318648D01*
X16542646Y30131040D01*
X16885289Y29934365D01*
X17212673Y29747319D01*
X17492323Y29588597D01*
X17625953Y29513473D01*
X17685272Y29571784D01*
X17811010Y29753776D01*
X17987563Y30034987D01*
X18199329Y30390958D01*
X18324453Y30608508D01*
X18546248Y31002311D01*
X18734770Y31344081D01*
X18875513Y31606955D01*
X18953968Y31764067D01*
X18965334Y31795204D01*
X18896666Y31848463D01*
X18841960Y31854667D01*
X18754667Y31784074D01*
G37*
X18754667Y31784074D02*
X18607738Y31590274D01*
X18419777Y31300234D01*
X18209387Y30940921D01*
X18199930Y30923986D01*
X17996181Y30565732D01*
X17816246Y30262924D01*
X17678641Y30045800D01*
X17601884Y29944595D01*
X17598751Y29942303D01*
X17496474Y29961263D01*
X17280540Y30051105D01*
X16983348Y30197028D01*
X16662553Y30370022D01*
X16240285Y30596969D01*
X15947055Y30730904D01*
X15773135Y30775861D01*
X15720583Y30760449D01*
X15661983Y30664126D01*
X15668978Y30640110D01*
X15747910Y30591879D01*
X15941481Y30478493D01*
X16217218Y30318648D01*
X16542646Y30131040D01*
X16885289Y29934365D01*
X17212673Y29747319D01*
X17492323Y29588597D01*
X17625953Y29513473D01*
X17685272Y29571784D01*
X17811010Y29753776D01*
X17987563Y30034987D01*
X18199329Y30390958D01*
X18324453Y30608508D01*
X18546248Y31002311D01*
X18734770Y31344081D01*
X18875513Y31606955D01*
X18953968Y31764067D01*
X18965334Y31795204D01*
X18896666Y31848463D01*
X18841960Y31854667D01*
X18754667Y31784074D01*
G36*
X19660505Y29836246D02*
G01*
X19574029Y29680229D01*
X19614260Y29491250D01*
X19758322Y29383468D01*
X19947855Y29389429D01*
X20022347Y29430232D01*
X20127942Y29583966D01*
X20111442Y29728208D01*
X19997379Y29868417D01*
X19824439Y29902409D01*
X19660505Y29836246D01*
G37*
X19660505Y29836246D02*
X19574029Y29680229D01*
X19614260Y29491250D01*
X19758322Y29383468D01*
X19947855Y29389429D01*
X20022347Y29430232D01*
X20127942Y29583966D01*
X20111442Y29728208D01*
X19997379Y29868417D01*
X19824439Y29902409D01*
X19660505Y29836246D01*
G36*
X19543562Y31297982D02*
G01*
X19522893Y31273692D01*
X19568389Y31196763D01*
X19729900Y31048230D01*
X19981941Y30849499D01*
X20298165Y30622564D01*
X20623197Y30398302D01*
X20894046Y30210494D01*
X21082046Y30079080D01*
X21158271Y30024235D01*
X21133682Y29942230D01*
X21027558Y29759219D01*
X20862964Y29507366D01*
X20662962Y29218829D01*
X20450617Y28925770D01*
X20248991Y28660349D01*
X20081148Y28454728D01*
X19970152Y28341067D01*
X19942552Y28328984D01*
X19839895Y28388814D01*
X19630823Y28523507D01*
X19348178Y28711582D01*
X19097627Y28881616D01*
X18729695Y29130203D01*
X18477949Y29289750D01*
X18321023Y29369975D01*
X18237552Y29380598D01*
X18206169Y29331338D01*
X18203334Y29288435D01*
X18268759Y29207430D01*
X18443747Y29056439D01*
X18696364Y28858500D01*
X18994678Y28636648D01*
X19306756Y28413920D01*
X19600665Y28213350D01*
X19844473Y28057977D01*
X20006247Y27970835D01*
X20044811Y27960000D01*
X20117108Y28026210D01*
X20264683Y28208258D01*
X20468609Y28481276D01*
X20709957Y28820393D01*
X20812874Y28969180D01*
X21059283Y29332976D01*
X21267033Y29648626D01*
X21418982Y29889385D01*
X21497991Y30028511D01*
X21505334Y30049557D01*
X21439809Y30118724D01*
X21264600Y30258162D01*
X21011760Y30445486D01*
X20713338Y30658311D01*
X20401387Y30874251D01*
X20107956Y31070921D01*
X19865099Y31225936D01*
X19704864Y31316910D01*
X19671728Y31330188D01*
X19543562Y31297982D01*
G37*
X19543562Y31297982D02*
X19522893Y31273692D01*
X19568389Y31196763D01*
X19729900Y31048230D01*
X19981941Y30849499D01*
X20298165Y30622564D01*
X20623197Y30398302D01*
X20894046Y30210494D01*
X21082046Y30079080D01*
X21158271Y30024235D01*
X21133682Y29942230D01*
X21027558Y29759219D01*
X20862964Y29507366D01*
X20662962Y29218829D01*
X20450617Y28925770D01*
X20248991Y28660349D01*
X20081148Y28454728D01*
X19970152Y28341067D01*
X19942552Y28328984D01*
X19839895Y28388814D01*
X19630823Y28523507D01*
X19348178Y28711582D01*
X19097627Y28881616D01*
X18729695Y29130203D01*
X18477949Y29289750D01*
X18321023Y29369975D01*
X18237552Y29380598D01*
X18206169Y29331338D01*
X18203334Y29288435D01*
X18268759Y29207430D01*
X18443747Y29056439D01*
X18696364Y28858500D01*
X18994678Y28636648D01*
X19306756Y28413920D01*
X19600665Y28213350D01*
X19844473Y28057977D01*
X20006247Y27970835D01*
X20044811Y27960000D01*
X20117108Y28026210D01*
X20264683Y28208258D01*
X20468609Y28481276D01*
X20709957Y28820393D01*
X20812874Y28969180D01*
X21059283Y29332976D01*
X21267033Y29648626D01*
X21418982Y29889385D01*
X21497991Y30028511D01*
X21505334Y30049557D01*
X21439809Y30118724D01*
X21264600Y30258162D01*
X21011760Y30445486D01*
X20713338Y30658311D01*
X20401387Y30874251D01*
X20107956Y31070921D01*
X19865099Y31225936D01*
X19704864Y31316910D01*
X19671728Y31330188D01*
X19543562Y31297982D01*
G36*
X-21539054Y29964687D02*
G01*
X-21574804Y29918508D01*
X-21550877Y29815429D01*
X-21457239Y29636981D01*
X-21283853Y29364699D01*
X-21020684Y28980115D01*
X-20945710Y28872850D01*
X-20687007Y28505183D01*
X-20461275Y28187077D01*
X-20286929Y27944279D01*
X-20182387Y27802532D01*
X-20162611Y27778149D01*
X-20077378Y27803660D01*
X-19883015Y27912513D01*
X-19606974Y28087956D01*
X-19276711Y28313240D01*
X-19219824Y28353392D01*
X-18812049Y28643406D01*
X-18525786Y28851247D01*
X-18344174Y28992349D01*
X-18250355Y29082148D01*
X-18227470Y29136079D01*
X-18258660Y29169579D01*
X-18306016Y29190052D01*
X-18437002Y29164100D01*
X-18679947Y29040101D01*
X-19016505Y28828143D01*
X-19224811Y28684827D01*
X-19541660Y28464271D01*
X-19806449Y28285332D01*
X-19989660Y28167602D01*
X-20060470Y28130170D01*
X-20119456Y28194971D01*
X-20252484Y28368286D01*
X-20437439Y28619246D01*
X-20652204Y28916983D01*
X-20874664Y29230628D01*
X-21082702Y29529313D01*
X-21254203Y29782169D01*
X-21348621Y29928111D01*
X-21462510Y29978736D01*
X-21539054Y29964687D01*
G37*
X-21539054Y29964687D02*
X-21574804Y29918508D01*
X-21550877Y29815429D01*
X-21457239Y29636981D01*
X-21283853Y29364699D01*
X-21020684Y28980115D01*
X-20945710Y28872850D01*
X-20687007Y28505183D01*
X-20461275Y28187077D01*
X-20286929Y27944279D01*
X-20182387Y27802532D01*
X-20162611Y27778149D01*
X-20077378Y27803660D01*
X-19883015Y27912513D01*
X-19606974Y28087956D01*
X-19276711Y28313240D01*
X-19219824Y28353392D01*
X-18812049Y28643406D01*
X-18525786Y28851247D01*
X-18344174Y28992349D01*
X-18250355Y29082148D01*
X-18227470Y29136079D01*
X-18258660Y29169579D01*
X-18306016Y29190052D01*
X-18437002Y29164100D01*
X-18679947Y29040101D01*
X-19016505Y28828143D01*
X-19224811Y28684827D01*
X-19541660Y28464271D01*
X-19806449Y28285332D01*
X-19989660Y28167602D01*
X-20060470Y28130170D01*
X-20119456Y28194971D01*
X-20252484Y28368286D01*
X-20437439Y28619246D01*
X-20652204Y28916983D01*
X-20874664Y29230628D01*
X-21082702Y29529313D01*
X-21254203Y29782169D01*
X-21348621Y29928111D01*
X-21462510Y29978736D01*
X-21539054Y29964687D01*
G36*
X22165833Y28035658D02*
G01*
X22034767Y27894691D01*
X22035299Y27727374D01*
X22153166Y27593371D01*
X22281233Y27552911D01*
X22467866Y27571152D01*
X22563292Y27705157D01*
X22566775Y27715793D01*
X22561890Y27915631D01*
X22440212Y28046339D01*
X22251737Y28068033D01*
X22165833Y28035658D01*
G37*
X22165833Y28035658D02*
X22034767Y27894691D01*
X22035299Y27727374D01*
X22153166Y27593371D01*
X22281233Y27552911D01*
X22467866Y27571152D01*
X22563292Y27705157D01*
X22566775Y27715793D01*
X22561890Y27915631D01*
X22440212Y28046339D01*
X22251737Y28068033D01*
X22165833Y28035658D01*
G36*
X-22500411Y27802810D02*
G01*
X-22599638Y27610274D01*
X-22606000Y27532721D01*
X-22535602Y27413947D01*
X-22373933Y27352255D01*
X-22195277Y27369162D01*
X-22141653Y27398232D01*
X-22037442Y27555393D01*
X-22060808Y27727744D01*
X-22189660Y27851273D01*
X-22306313Y27875334D01*
X-22500411Y27802810D01*
G37*
X-22500411Y27802810D02*
X-22599638Y27610274D01*
X-22606000Y27532721D01*
X-22535602Y27413947D01*
X-22373933Y27352255D01*
X-22195277Y27369162D01*
X-22141653Y27398232D01*
X-22037442Y27555393D01*
X-22060808Y27727744D01*
X-22189660Y27851273D01*
X-22306313Y27875334D01*
X-22500411Y27802810D01*
G36*
X-22360574Y29263350D02*
G01*
X-22549714Y29123143D01*
X-22814533Y28914662D01*
X-23128293Y28658523D01*
X-23171724Y28622432D01*
X-23487574Y28359538D01*
X-23754212Y28137844D01*
X-23945823Y27978796D01*
X-24036594Y27903840D01*
X-24039688Y27901354D01*
X-24022780Y27827467D01*
X-23980218Y27776353D01*
X-23895262Y27758289D01*
X-23743761Y27828453D01*
X-23505749Y27998358D01*
X-23280447Y28179931D01*
X-22987571Y28420922D01*
X-22722071Y28636771D01*
X-22526618Y28792881D01*
X-22476942Y28831356D01*
X-22277050Y28983046D01*
X-21532687Y28090523D01*
X-21257645Y27765682D01*
X-21019504Y27493708D01*
X-20839668Y27298354D01*
X-20739541Y27203377D01*
X-20728492Y27198000D01*
X-20632941Y27257979D01*
X-20621676Y27274021D01*
X-20657706Y27358845D01*
X-20782443Y27543630D01*
X-20973413Y27800620D01*
X-21208142Y28102056D01*
X-21464157Y28420179D01*
X-21718982Y28727232D01*
X-21950145Y28995456D01*
X-22135171Y29197093D01*
X-22251587Y29304385D01*
X-22273854Y29314667D01*
X-22360574Y29263350D01*
G37*
X-22360574Y29263350D02*
X-22549714Y29123143D01*
X-22814533Y28914662D01*
X-23128293Y28658523D01*
X-23171724Y28622432D01*
X-23487574Y28359538D01*
X-23754212Y28137844D01*
X-23945823Y27978796D01*
X-24036594Y27903840D01*
X-24039688Y27901354D01*
X-24022780Y27827467D01*
X-23980218Y27776353D01*
X-23895262Y27758289D01*
X-23743761Y27828453D01*
X-23505749Y27998358D01*
X-23280447Y28179931D01*
X-22987571Y28420922D01*
X-22722071Y28636771D01*
X-22526618Y28792881D01*
X-22476942Y28831356D01*
X-22277050Y28983046D01*
X-21532687Y28090523D01*
X-21257645Y27765682D01*
X-21019504Y27493708D01*
X-20839668Y27298354D01*
X-20739541Y27203377D01*
X-20728492Y27198000D01*
X-20632941Y27257979D01*
X-20621676Y27274021D01*
X-20657706Y27358845D01*
X-20782443Y27543630D01*
X-20973413Y27800620D01*
X-21208142Y28102056D01*
X-21464157Y28420179D01*
X-21718982Y28727232D01*
X-21950145Y28995456D01*
X-22135171Y29197093D01*
X-22251587Y29304385D01*
X-22273854Y29314667D01*
X-22360574Y29263350D01*
G36*
X23807182Y28152286D02*
G01*
X23646102Y27983052D01*
X23421427Y27730165D01*
X23154773Y27417489D01*
X23075014Y27321854D01*
X22773254Y26962880D01*
X22557025Y26720124D01*
X22407348Y26576570D01*
X22305241Y26515204D01*
X22231724Y26519009D01*
X22201385Y26538687D01*
X22080352Y26638388D01*
X21865165Y26816272D01*
X21592005Y27042418D01*
X21429794Y27176834D01*
X21113723Y27435700D01*
X20900952Y27598030D01*
X20766375Y27677678D01*
X20684885Y27688497D01*
X20631377Y27644341D01*
X20618343Y27624584D01*
X20664505Y27551323D01*
X20813915Y27396444D01*
X21038153Y27184805D01*
X21308802Y26941267D01*
X21597442Y26690690D01*
X21875654Y26457934D01*
X22115021Y26267858D01*
X22287122Y26145323D01*
X22343467Y26115492D01*
X22418151Y26169119D01*
X22578362Y26332927D01*
X22803957Y26584781D01*
X23074792Y26902546D01*
X23224318Y27083427D01*
X23560773Y27501781D01*
X23792047Y27808825D01*
X23926486Y28018889D01*
X23972440Y28146299D01*
X23938255Y28205385D01*
X23883051Y28214000D01*
X23807182Y28152286D01*
G37*
X23807182Y28152286D02*
X23646102Y27983052D01*
X23421427Y27730165D01*
X23154773Y27417489D01*
X23075014Y27321854D01*
X22773254Y26962880D01*
X22557025Y26720124D01*
X22407348Y26576570D01*
X22305241Y26515204D01*
X22231724Y26519009D01*
X22201385Y26538687D01*
X22080352Y26638388D01*
X21865165Y26816272D01*
X21592005Y27042418D01*
X21429794Y27176834D01*
X21113723Y27435700D01*
X20900952Y27598030D01*
X20766375Y27677678D01*
X20684885Y27688497D01*
X20631377Y27644341D01*
X20618343Y27624584D01*
X20664505Y27551323D01*
X20813915Y27396444D01*
X21038153Y27184805D01*
X21308802Y26941267D01*
X21597442Y26690690D01*
X21875654Y26457934D01*
X22115021Y26267858D01*
X22287122Y26145323D01*
X22343467Y26115492D01*
X22418151Y26169119D01*
X22578362Y26332927D01*
X22803957Y26584781D01*
X23074792Y26902546D01*
X23224318Y27083427D01*
X23560773Y27501781D01*
X23792047Y27808825D01*
X23926486Y28018889D01*
X23972440Y28146299D01*
X23938255Y28205385D01*
X23883051Y28214000D01*
X23807182Y28152286D01*
G36*
X26083082Y25979125D02*
G01*
X25902946Y25826319D01*
X25642414Y25569655D01*
X25345856Y25259949D01*
X24526753Y24391655D01*
X23786972Y25128009D01*
X23418363Y25479093D01*
X23147579Y25699629D01*
X22968870Y25793031D01*
X22876484Y25762714D01*
X22860000Y25678316D01*
X22918979Y25597981D01*
X23080499Y25427423D01*
X23321437Y25189916D01*
X23618669Y24908738D01*
X23691553Y24841269D01*
X24523105Y24074579D01*
X25445550Y24999893D01*
X25809596Y25370875D01*
X26061472Y25643018D01*
X26213729Y25832019D01*
X26278914Y25953576D01*
X26269580Y26023387D01*
X26266477Y26026724D01*
X26198900Y26041464D01*
X26083082Y25979125D01*
G37*
X26083082Y25979125D02*
X25902946Y25826319D01*
X25642414Y25569655D01*
X25345856Y25259949D01*
X24526753Y24391655D01*
X23786972Y25128009D01*
X23418363Y25479093D01*
X23147579Y25699629D01*
X22968870Y25793031D01*
X22876484Y25762714D01*
X22860000Y25678316D01*
X22918979Y25597981D01*
X23080499Y25427423D01*
X23321437Y25189916D01*
X23618669Y24908738D01*
X23691553Y24841269D01*
X24523105Y24074579D01*
X25445550Y24999893D01*
X25809596Y25370875D01*
X26061472Y25643018D01*
X26213729Y25832019D01*
X26278914Y25953576D01*
X26269580Y26023387D01*
X26266477Y26026724D01*
X26198900Y26041464D01*
X26083082Y25979125D01*
G36*
X-26372653Y25673928D02*
G01*
X-24508939Y23810214D01*
X-23684504Y24637753D01*
X-22860070Y25465292D01*
X-22860869Y25466089D01*
X-23198892Y25466089D01*
X-23810493Y24850378D01*
X-24069166Y24593905D01*
X-24282519Y24389747D01*
X-24423544Y24263316D01*
X-24464872Y24234667D01*
X-24537740Y24290960D01*
X-24705495Y24444553D01*
X-24943780Y24672521D01*
X-25228237Y24951938D01*
X-25251871Y24975441D01*
X-25996093Y25716214D01*
X-24680333Y26930826D01*
X-23939612Y26198457D01*
X-23198892Y25466089D01*
X-22860869Y25466089D01*
X-23791820Y26394152D01*
X-24723569Y27323012D01*
X-26372653Y25673928D01*
G37*
X-26372653Y25673928D02*
X-24508939Y23810214D01*
X-23684504Y24637753D01*
X-22860070Y25465292D01*
X-22860869Y25466089D01*
X-23198892Y25466089D01*
X-23810493Y24850378D01*
X-24069166Y24593905D01*
X-24282519Y24389747D01*
X-24423544Y24263316D01*
X-24464872Y24234667D01*
X-24537740Y24290960D01*
X-24705495Y24444553D01*
X-24943780Y24672521D01*
X-25228237Y24951938D01*
X-25251871Y24975441D01*
X-25996093Y25716214D01*
X-24680333Y26930826D01*
X-23939612Y26198457D01*
X-23198892Y25466089D01*
X-22860869Y25466089D01*
X-23791820Y26394152D01*
X-24723569Y27323012D01*
X-26372653Y25673928D01*
D12*
X-4014908Y-40461848D02*
X-4014908Y-40841848D01*
X-4014908Y-40841848D02*
X-3644908Y-40841848D01*
X4013324Y-40840000D02*
X3643324Y-40840000D01*
X4013324Y-40460000D02*
X4013324Y-40840000D01*
X-4060000Y-34780000D02*
X-4060000Y-36250000D01*
X-4060000Y-34780000D02*
X-2400000Y-34780000D01*
X4050000Y-34790000D02*
X2400000Y-34790000D01*
X4050000Y-34800000D02*
X4050000Y-36250000D01*
D13*
X37910000Y6602064D02*
X37910000Y5397936D01*
X36090000Y6602064D02*
X36090000Y5397936D01*
X32110000Y-5797936D02*
X32110000Y-7002064D01*
X30290000Y-5797936D02*
X30290000Y-7002064D01*
X-31910000Y-7102064D02*
X-31910000Y-5897936D01*
X-30090000Y-7102064D02*
X-30090000Y-5897936D01*
D12*
X-10816667Y-26866666D02*
X-11050000Y-27566666D01*
X-11283334Y-26866666D01*
X-11916667Y-27500000D02*
X-11883334Y-27533333D01*
X-11783334Y-27566666D01*
X-11716667Y-27566666D01*
X-11616667Y-27533333D01*
X-11550000Y-27466666D01*
X-11516667Y-27400000D01*
X-11483334Y-27266666D01*
X-11483334Y-27166666D01*
X-11516667Y-27033333D01*
X-11550000Y-26966666D01*
X-11616667Y-26900000D01*
X-11716667Y-26866666D01*
X-11783334Y-26866666D01*
X-11883334Y-26900000D01*
X-11916667Y-26933333D01*
X-12616667Y-27500000D02*
X-12583334Y-27533333D01*
X-12483334Y-27566666D01*
X-12416667Y-27566666D01*
X-12316667Y-27533333D01*
X-12250000Y-27466666D01*
X-12216667Y-27400000D01*
X-12183334Y-27266666D01*
X-12183334Y-27166666D01*
X-12216667Y-27033333D01*
X-12250000Y-26966666D01*
X-12316667Y-26900000D01*
X-12416667Y-26866666D01*
X-12483334Y-26866666D01*
X-12583334Y-26900000D01*
X-12616667Y-26933333D01*
X-11216667Y-29400000D02*
X-11150000Y-29366666D01*
X-11050000Y-29366666D01*
X-10950000Y-29400000D01*
X-10883334Y-29466666D01*
X-10850000Y-29533333D01*
X-10816667Y-29666666D01*
X-10816667Y-29766666D01*
X-10850000Y-29900000D01*
X-10883334Y-29966666D01*
X-10950000Y-30033333D01*
X-11050000Y-30066666D01*
X-11116667Y-30066666D01*
X-11216667Y-30033333D01*
X-11250000Y-30000000D01*
X-11250000Y-29766666D01*
X-11116667Y-29766666D01*
X-11550000Y-30066666D02*
X-11550000Y-29366666D01*
X-11950000Y-30066666D01*
X-11950000Y-29366666D01*
X-12283334Y-30066666D02*
X-12283334Y-29366666D01*
X-12450000Y-29366666D01*
X-12550000Y-29400000D01*
X-12616667Y-29466666D01*
X-12650000Y-29533333D01*
X-12683334Y-29666666D01*
X-12683334Y-29766666D01*
X-12650000Y-29900000D01*
X-12616667Y-29966666D01*
X-12550000Y-30033333D01*
X-12450000Y-30066666D01*
X-12283334Y-30066666D01*
X-3416667Y-30283333D02*
X-3516667Y-30316666D01*
X-3683334Y-30316666D01*
X-3750000Y-30283333D01*
X-3783334Y-30250000D01*
X-3816667Y-30183333D01*
X-3816667Y-30116666D01*
X-3783334Y-30050000D01*
X-3750000Y-30016666D01*
X-3683334Y-29983333D01*
X-3550000Y-29950000D01*
X-3483334Y-29916666D01*
X-3450000Y-29883333D01*
X-3416667Y-29816666D01*
X-3416667Y-29750000D01*
X-3450000Y-29683333D01*
X-3483334Y-29650000D01*
X-3550000Y-29616666D01*
X-3716667Y-29616666D01*
X-3816667Y-29650000D01*
X-4516667Y-30250000D02*
X-4483334Y-30283333D01*
X-4383334Y-30316666D01*
X-4316667Y-30316666D01*
X-4216667Y-30283333D01*
X-4150000Y-30216666D01*
X-4116667Y-30150000D01*
X-4083334Y-30016666D01*
X-4083334Y-29916666D01*
X-4116667Y-29783333D01*
X-4150000Y-29716666D01*
X-4216667Y-29650000D01*
X-4316667Y-29616666D01*
X-4383334Y-29616666D01*
X-4483334Y-29650000D01*
X-4516667Y-29683333D01*
X-5150000Y-30316666D02*
X-4816667Y-30316666D01*
X-4816667Y-29616666D01*
X-3400000Y-27533333D02*
X-3500000Y-27566666D01*
X-3666667Y-27566666D01*
X-3733334Y-27533333D01*
X-3766667Y-27500000D01*
X-3800000Y-27433333D01*
X-3800000Y-27366666D01*
X-3766667Y-27300000D01*
X-3733334Y-27266666D01*
X-3666667Y-27233333D01*
X-3533334Y-27200000D01*
X-3466667Y-27166666D01*
X-3433334Y-27133333D01*
X-3400000Y-27066666D01*
X-3400000Y-27000000D01*
X-3433334Y-26933333D01*
X-3466667Y-26900000D01*
X-3533334Y-26866666D01*
X-3700000Y-26866666D01*
X-3800000Y-26900000D01*
X-4100000Y-27566666D02*
X-4100000Y-26866666D01*
X-4266667Y-26866666D01*
X-4366667Y-26900000D01*
X-4433334Y-26966666D01*
X-4466667Y-27033333D01*
X-4500000Y-27166666D01*
X-4500000Y-27266666D01*
X-4466667Y-27400000D01*
X-4433334Y-27466666D01*
X-4366667Y-27533333D01*
X-4266667Y-27566666D01*
X-4100000Y-27566666D01*
X-4766667Y-27366666D02*
X-5100000Y-27366666D01*
X-4700000Y-27566666D02*
X-4933334Y-26866666D01*
X-5166667Y-27566666D01*
D14*
X35240476Y4421429D02*
X35573809Y4421429D01*
X35573809Y3897620D02*
X35573809Y4897620D01*
X35097619Y4897620D01*
X34240476Y3897620D02*
X34716666Y3897620D01*
X34716666Y4897620D01*
X33954761Y4183334D02*
X33478571Y4183334D01*
X34050000Y3897620D02*
X33716666Y4897620D01*
X33383333Y3897620D01*
X33097619Y3945239D02*
X32954761Y3897620D01*
X32716666Y3897620D01*
X32621428Y3945239D01*
X32573809Y3992858D01*
X32526190Y4088096D01*
X32526190Y4183334D01*
X32573809Y4278572D01*
X32621428Y4326191D01*
X32716666Y4373810D01*
X32907142Y4421429D01*
X33002380Y4469048D01*
X33050000Y4516667D01*
X33097619Y4611905D01*
X33097619Y4707143D01*
X33050000Y4802381D01*
X33002380Y4850000D01*
X32907142Y4897620D01*
X32669047Y4897620D01*
X32526190Y4850000D01*
X32097619Y3897620D02*
X32097619Y4897620D01*
X32097619Y4421429D02*
X31526190Y4421429D01*
X31526190Y3897620D02*
X31526190Y4897620D01*
X-32547620Y3847620D02*
X-32214286Y4323810D01*
X-31976191Y3847620D02*
X-31976191Y4847620D01*
X-32357143Y4847620D01*
X-32452381Y4800000D01*
X-32500000Y4752381D01*
X-32547620Y4657143D01*
X-32547620Y4514286D01*
X-32500000Y4419048D01*
X-32452381Y4371429D01*
X-32357143Y4323810D01*
X-31976191Y4323810D01*
X-32976191Y4371429D02*
X-33309524Y4371429D01*
X-33452381Y3847620D02*
X-32976191Y3847620D01*
X-32976191Y4847620D01*
X-33452381Y4847620D01*
X-33833334Y3895239D02*
X-33976191Y3847620D01*
X-34214286Y3847620D01*
X-34309524Y3895239D01*
X-34357143Y3942858D01*
X-34404762Y4038096D01*
X-34404762Y4133334D01*
X-34357143Y4228572D01*
X-34309524Y4276191D01*
X-34214286Y4323810D01*
X-34023810Y4371429D01*
X-33928572Y4419048D01*
X-33880953Y4466667D01*
X-33833334Y4561905D01*
X-33833334Y4657143D01*
X-33880953Y4752381D01*
X-33928572Y4800000D01*
X-34023810Y4847620D01*
X-34261905Y4847620D01*
X-34404762Y4800000D01*
X-34833334Y4371429D02*
X-35166667Y4371429D01*
X-35309524Y3847620D02*
X-34833334Y3847620D01*
X-34833334Y4847620D01*
X-35309524Y4847620D01*
X-35595239Y4847620D02*
X-36166667Y4847620D01*
X-35880953Y3847620D02*
X-35880953Y4847620D01*
M02*
